<svg width="123" height="31" viewBox="0 0 123 31" fill="none" xmlns="http://www.w3.org/2000/svg">
<path d="M0.664 0.0959995L10.45 30H17.884L27.838 0.0959995H21.034L14.23 21.096L7.51 0.0959995H0.664ZM52.7811 0.0959995H30.3531V30H53.0751V24.498H36.8631V17.148H51.4791V11.982H36.8631V5.472H52.7811V0.0959995ZM83.0395 0.0959995H76.4875V17.988C76.4875 22.398 75.4375 25.17 70.3975 25.17C65.2735 25.17 63.9715 22.566 63.9715 17.988V0.0959995H57.4195V17.988C57.4195 26.514 61.4095 30.588 70.3135 30.588C79.0495 30.588 83.0395 26.598 83.0395 18.072V0.0959995ZM113.162 0.0959995H105.938L99.9323 9.714L93.9683 0.0959995H86.3243L96.0683 14.376L85.5263 30H93.0023L99.6383 19.626L106.19 30H114.044L103.544 14.376L113.162 0.0959995ZM122.99 23.448H116.354V30H122.99V23.448Z" fill="#32DCCA"/>
</svg>
