<svg width="48" height="45" viewBox="0 0 48 45" fill="none" xmlns="http://www.w3.org/2000/svg">
<path d="M25.6354 0C17.6731 0 10.6741 4.17359 6.71409 10.4489C6.35608 10.9299 6.50059 11.7041 7.008 12.0235C7.51542 12.343 8.27606 12.1387 8.55508 11.608C12.13 5.9429 18.4347 2.18182 25.6354 2.18182C36.7949 2.18182 45.8181 11.2046 45.8181 22.3636C45.8181 25.5116 45.0357 28.4877 43.7384 31.1591C43.4884 31.6767 43.732 32.3752 44.2498 32.6252C44.7675 32.8751 45.466 32.6312 45.7158 32.1136C47.1424 29.176 48 25.87 48 22.3636C48 10.0254 37.9741 0 25.6354 0ZM25.6354 7.63636C17.5143 7.63636 10.9075 14.2429 10.9075 22.3636C10.9075 30.4844 17.5143 37.0909 25.6354 37.0909C33.7565 37.0909 40.3633 30.4844 40.3633 22.3636C40.3633 14.2429 33.7565 7.63636 25.6354 7.63636ZM24.5444 9.86932V11.4545C24.5363 12.0309 25.059 12.561 25.6354 12.561C26.2118 12.561 26.7345 12.0309 26.7263 11.4545V9.86932C32.7916 10.3914 37.6082 15.2077 38.1302 21.2727C37.5731 21.2727 36.9914 21.2727 36.4427 21.2727C35.8714 21.2995 35.3759 21.8435 35.4026 22.4147C35.4294 22.986 35.9737 23.4814 36.545 23.4545H38.1302C37.6082 29.5196 32.7916 34.336 26.7263 34.858V33.2727C26.7397 32.6539 26.1313 32.097 25.5161 32.1647C24.98 32.2236 24.5328 32.7335 24.5444 33.2727V34.858C18.4792 34.336 13.6626 29.5196 13.1405 23.4545H14.7258C15.3022 23.4627 15.8323 22.94 15.8323 22.3636C15.8323 21.7872 15.3022 21.2645 14.7258 21.2727H13.1405C13.6626 15.2077 18.4792 10.3914 24.5444 9.86932ZM19.0385 16.3466C18.587 16.3626 18.1632 16.6892 18.0327 17.1218C17.9022 17.5543 18.0746 18.0608 18.4419 18.3239L24.5444 22.9091V27.2727C24.5363 27.8491 25.059 28.3792 25.6354 28.3792C26.2118 28.3792 26.7345 27.8491 26.7263 27.2727V22.3636C26.729 22.0208 26.559 21.6808 26.2831 21.4773L19.7374 16.5682C19.5389 16.4174 19.2876 16.3377 19.0385 16.3466ZM4.24239 19.6364C4.00036 19.6625 3.7682 19.7725 3.59463 19.9432L0.321762 23.2159C-0.097363 23.6145 -0.108816 24.3625 0.297908 24.7737C0.704632 25.1849 1.45272 25.1817 1.85592 24.7671L3.30485 23.3183C3.80272 35.218 13.6143 44.7274 25.6354 44.7274C32.5355 44.7274 38.7315 41.6247 42.835 36.6989C43.2423 36.2677 43.1969 35.4937 42.742 35.113C42.2871 34.7324 41.5171 34.8243 41.1645 35.3012C37.4633 39.7439 31.8823 42.5456 25.6354 42.5456C14.8246 42.5456 6.02657 34.0779 5.48676 23.4035L6.86751 24.7671C7.27071 25.1819 8.01879 25.185 8.42552 24.7737C8.83224 24.3625 8.82079 23.6145 8.40166 23.2159L5.12879 19.9432C4.89848 19.7164 4.5636 19.6005 4.24239 19.6364H4.24239Z" fill="white"/>
</svg>
