<svg width="46" height="43" viewBox="0 0 46 43" fill="none" xmlns="http://www.w3.org/2000/svg">
<path d="M45.2353 25.4895L45.2353 25.4895L45.235 25.4863L44.0903 15.3277L44.0901 15.3255C44.0103 14.6702 43.6785 14.0718 43.1649 13.657C42.6544 13.2447 42.0043 13.0461 41.3508 13.1026H41.3142H41.3018L41.2896 13.1038C40.6121 13.1707 39.9883 13.502 39.5534 14.0258C39.1186 14.5496 38.9077 15.2237 38.9666 15.9019L38.9667 15.9031L39.6737 23.6331L36.3761 28.3047L35.7782 28.2503L36.971 24.4071C37.2112 23.824 37.2258 23.1721 37.0117 22.5786C36.7963 21.9812 36.3648 21.4863 35.8025 21.1913L35.7479 21.1627H35.6973C35.1374 20.8932 34.4973 20.8381 33.8984 21.0092C33.2798 21.1859 32.7513 21.591 32.4197 22.1424L32.4197 22.1424L32.4184 22.1446L28.0812 29.5322C27.7527 30.0395 27.5897 30.6362 27.6146 31.24L27.3763 41.772L27.3705 42.0277H27.6262H36.9741H37.2147L37.2239 41.7872L37.4116 36.86L44.6104 27.6248C44.6105 27.6246 44.6107 27.6243 44.6109 27.6241C45.0878 27.0204 45.3116 26.2551 45.2353 25.4895ZM28.8351 40.6215L29.0208 31.2902L29.021 31.2818L29.0206 31.2735C29.0056 30.9549 29.0916 30.6397 29.2662 30.3729L29.2664 30.373L29.2721 30.3634L33.7073 22.876C33.7073 22.876 33.7074 22.8759 33.7074 22.8758C33.8454 22.6441 34.0648 22.4721 34.3227 22.3933C34.5807 22.3145 34.8588 22.3346 35.1028 22.4496L35.1028 22.4497L35.1064 22.4513C35.3684 22.5698 35.5727 22.7873 35.6744 23.0562C35.7762 23.3251 35.7671 23.6234 35.6491 23.8856L35.6434 23.8983L35.6391 23.9117L33.9222 29.2533L33.8245 29.5572L34.143 29.5792L36.9092 29.77L37.0498 29.7797L37.1309 29.6644L41.0894 24.0366L41.142 23.9618L41.134 23.8708L40.4187 15.7648C40.3973 15.4709 40.4913 15.1802 40.6807 14.9544C40.8678 14.7312 41.1336 14.5888 41.4228 14.5564H41.4572H41.4674L41.4775 14.5556C41.7535 14.5331 42.0276 14.6169 42.2437 14.7899C42.4589 14.962 42.6005 15.2096 42.6399 15.4822L43.7363 25.5876C43.7363 25.5878 43.7363 25.588 43.7364 25.5882C43.7769 25.9852 43.6592 26.3822 43.4088 26.6928L43.4088 26.6928L43.4058 26.6966L36.0134 36.2352L35.9646 36.2982L35.9612 36.3778L35.7806 40.6215H28.8351Z" fill="white" stroke="white" stroke-width="0.5"/>
<path d="M18.6237 41.8197L18.3854 31.289C18.4174 30.6691 18.2542 30.0546 17.9187 29.5322L13.5332 22.1436L13.5325 22.1424C13.201 21.591 12.6725 21.1859 12.0539 21.0092C11.455 20.8381 10.8149 20.8932 10.255 21.1627H10.2033L10.148 21.1922C9.59821 21.4862 9.17574 21.9721 8.96111 22.5575C8.7475 23.14 8.75463 23.7806 8.98096 24.3581L10.2195 28.2505L9.62277 28.3048L6.27914 23.6328L7.03311 15.9046L7.03313 15.9046L7.0334 15.9015C7.06229 15.5615 7.02365 15.2192 6.91971 14.8943C6.81577 14.5693 6.64857 14.2681 6.42775 14.008C6.20693 13.748 5.93685 13.5341 5.63305 13.3789C5.32973 13.2238 4.99877 13.1303 4.65919 13.1035C4.00234 13.0441 3.34813 13.2426 2.83502 13.657C2.32151 14.0718 1.98968 14.6702 1.90989 15.3255L1.90988 15.3255L1.90964 15.3276L0.765009 25.4385L0.764986 25.4385L0.764655 25.4418C0.688331 26.2073 0.912131 26.9725 1.38887 27.5761C1.38911 27.5765 1.38936 27.5768 1.38961 27.5771L8.5891 36.8607L8.82384 41.8372L8.83508 42.0754H9.07357H18.3737H18.6295L18.6237 41.8197ZM10.3288 23.0444C10.4224 22.7853 10.611 22.5714 10.8564 22.4462C11.1046 22.3197 11.3918 22.2934 11.6588 22.3728C11.9257 22.4521 12.152 22.6311 12.2907 22.8726L12.2907 22.8727L12.2927 22.8761L16.7282 30.3163L16.7281 30.3164L16.7329 30.3239C16.9141 30.6046 17.0006 30.936 16.9796 31.2695L16.9789 31.2798L16.9792 31.2902L17.1649 40.6215H10.2192L10.0387 36.4253L10.0353 36.3454L9.98609 36.2823L2.54596 26.7437L2.54598 26.7437L2.54347 26.7405C2.29314 26.43 2.17542 26.0332 2.21586 25.6364C2.2159 25.636 2.21594 25.6357 2.21598 25.6353L3.35999 15.4822C3.39925 15.2019 3.54653 14.9479 3.77045 14.7745C3.99514 14.6006 4.27908 14.5217 4.5613 14.5547L4.5613 14.5548L4.56523 14.5552C4.859 14.5849 5.12956 14.7281 5.3193 14.9544C5.50856 15.18 5.6025 15.4705 5.58128 15.7641L4.81843 23.9172L4.80984 24.0089L4.86286 24.0843L8.82139 29.7121L8.90248 29.8274L9.04308 29.8177L11.8093 29.6269L12.1235 29.6052L12.0311 29.3041L10.3618 23.8671L10.3578 23.8542L10.3525 23.8417C10.2437 23.5886 10.2352 23.3036 10.3288 23.0444Z" fill="white" stroke="white" stroke-width="0.5"/>
<path d="M22.273 14.4972V14.7472H22.523H23.4769H23.7269V14.4972V10.741H27.4354H27.6854V10.491V9.53712V9.28712H27.4354H23.7269V5.57858V5.32858H23.4769H22.523H22.273V5.57858V9.28712H18.5645H18.3145V9.53712V10.491V10.741H18.5645H22.273V14.4972Z" fill="white" stroke="white" stroke-width="0.5"/>
<path d="M13.736 10.014C13.736 11.8463 14.2793 13.6374 15.2972 15.1608C16.3152 16.6843 17.762 17.8717 19.4548 18.5728C21.1476 19.274 23.0102 19.4575 24.8073 19.1C26.6043 18.7426 28.255 17.8602 29.5506 16.5647C30.8462 15.2691 31.7285 13.6184 32.086 11.8213C32.4434 10.0243 32.26 8.1616 31.5588 6.46883C30.8576 4.77605 29.6702 3.32921 28.1468 2.31127C26.6233 1.29332 24.8322 0.75 23 0.75C20.543 0.75 18.1867 1.72603 16.4493 3.46337C14.712 5.2007 13.736 7.55704 13.736 10.014ZM23 2.20386C24.5447 2.20386 26.0547 2.66192 27.3391 3.52011C28.6234 4.3783 29.6245 5.59808 30.2156 7.0252C30.8067 8.45231 30.9614 10.0227 30.6601 11.5377C30.3587 13.0527 29.6148 14.4443 28.5226 15.5366C27.4303 16.6289 26.0387 17.3727 24.5237 17.6741C23.0086 17.9754 21.4383 17.8208 20.0112 17.2296C18.584 16.6385 17.3643 15.6375 16.5061 14.3531C15.6479 13.0687 15.1898 11.5587 15.1898 10.014C15.1898 7.94263 16.0127 5.95609 17.4774 4.4914C18.9421 3.02672 20.9286 2.20386 23 2.20386Z" fill="white" stroke="white" stroke-width="0.5"/>
</svg>
