<svg width="55" height="48" viewBox="0 0 55 48" fill="none" xmlns="http://www.w3.org/2000/svg">
<path d="M13.724 3.05128C13.3786 3.14032 13.1183 3.48734 13.1296 3.84391V8.59969C13.1296 9.0147 13.5072 9.39228 13.9222 9.39232H16.3496V11.7702C16.3496 11.9611 16.3625 11.9129 16.3001 11.9684C16.2377 12.0239 16.0595 12.1473 15.7551 12.2161C15.1464 12.354 14.1306 12.3898 13.08 12.5133C12.0295 12.637 10.8996 12.82 9.95904 13.5536C9.01852 14.2871 8.37378 15.5836 8.37378 17.3186V18.5571V40.2554C8.37382 40.6704 8.7514 41.048 9.16641 41.048H36.1654C36.5804 41.048 36.958 40.6704 36.958 40.2554V18.359C36.9914 18.2297 36.9914 18.0919 36.958 17.9626V17.3186C36.958 15.5496 36.3981 14.2728 35.4718 13.5041C34.5456 12.7354 33.3974 12.4991 32.3508 12.3647C31.3043 12.2299 30.2896 12.1894 29.6757 12.0674C29.3688 12.0072 29.1838 11.9121 29.1308 11.8693C29.0778 11.8265 29.0812 11.9129 29.0812 11.7702V9.39232H31.3601C31.7751 9.39228 32.1526 9.0147 32.1527 8.59969V3.84391C32.1526 3.4289 31.7751 3.05132 31.3601 3.05128H13.9222C13.8565 3.04301 13.7897 3.04301 13.724 3.05128ZM14.7148 4.63654H30.5674V7.80706H14.7148V4.63654ZM17.9349 9.39232H27.496V11.7702C27.496 12.3002 27.7619 12.8036 28.14 13.1078C28.5181 13.412 28.9463 13.5669 29.3785 13.6527C30.2428 13.8244 31.2282 13.781 32.1527 13.9004C33.0771 14.0193 33.8796 14.2844 34.4315 14.7426C34.9834 15.2006 35.3727 15.8737 35.3727 17.3186H9.95904C9.95904 15.9198 10.3456 15.2744 10.9003 14.8417C11.455 14.409 12.3352 14.16 13.2782 14.049C14.2212 13.9381 15.2155 13.9522 16.1019 13.7518C16.5451 13.6519 16.9667 13.4905 17.3404 13.1573C17.7141 12.8239 17.9349 12.3178 17.9349 11.7702V9.39232ZM9.95904 18.9039H35.3727V39.4627H9.95904V18.9039ZM20.1146 22.1239C19.7513 22.1933 19.4641 22.5467 19.4706 22.9166V26.0376H16.3001C15.8851 26.0376 15.5075 26.4152 15.5075 26.8302V31.6355C15.5075 32.0505 15.8851 32.4281 16.3001 32.4281H19.4706V35.5491C19.4706 35.9641 19.8482 36.3417 20.2632 36.3418H25.0686C25.4836 36.3417 25.8611 35.9641 25.8612 35.5491V32.4281H28.9822C29.3972 32.4281 29.7748 32.0505 29.7748 31.6355V26.8302C29.7748 26.4152 29.3972 26.0376 28.9822 26.0376H25.8612V22.9166C25.8611 22.5016 25.4836 22.124 25.0686 22.1239H20.2632C20.2138 22.1193 20.164 22.1193 20.1146 22.1239ZM21.0559 23.7092H24.2759V26.8302C24.276 27.2452 24.6535 27.6228 25.0686 27.6228H28.1895V30.8429H25.0686C24.6535 30.8429 24.276 31.2205 24.2759 31.6355V34.7565H21.0559V31.6355C21.0558 31.2205 20.6782 30.8429 20.2632 30.8429H17.0927V27.6228H20.2632C20.6782 27.6228 21.0558 27.2452 21.0559 26.8302V23.7092ZM48.897 25.7403C48.0839 25.7405 47.2835 26.0659 46.6677 26.6816C46.508 26.8414 46.4756 27.0073 46.3705 27.177C45.2972 26.8555 44.1442 26.9262 43.299 27.7714C43.1447 27.9252 43.1049 28.1029 43.0018 28.2668C41.9431 27.9713 40.7604 28.0811 39.9304 28.9108C38.6989 30.1424 38.699 32.1872 39.9304 33.4189C40.0847 33.5727 40.2618 33.613 40.4258 33.7162C40.1284 34.7761 40.2379 35.9063 41.0698 36.7381C41.2223 36.8903 41.3536 36.9824 41.5156 37.0848C41.2211 38.1432 41.3296 39.2765 42.1596 40.1067C43.2389 41.186 44.8937 41.1669 46.1228 40.3544C47.3483 41.138 48.9688 41.1743 50.0364 40.1067C50.4427 39.7003 50.4896 39.144 50.6309 38.6206C51.6108 38.7835 52.6577 38.6205 53.4051 37.8775C54.6366 36.6459 54.6364 34.6507 53.4051 33.4189C53.247 33.2604 53.0776 33.1768 52.9097 33.0722C53.2043 32.0138 53.0959 30.8803 52.2657 30.0502C52.1076 29.8917 51.9382 29.8081 51.7703 29.7035C52.0676 28.6436 51.9579 27.5134 51.1263 26.6816C50.5105 26.0659 49.7101 25.7403 48.897 25.7403ZM48.897 27.3256C49.301 27.3256 49.7235 27.4587 50.0364 27.7714C50.5683 28.3034 50.6015 29.0873 50.2346 29.7035C50.0036 30.0978 50.205 30.6771 50.6309 30.8429C50.8488 30.9364 51.0122 31.026 51.1263 31.1401C51.6581 31.6718 51.7408 32.4561 51.374 33.0722C51.1375 33.454 51.3116 34.0262 51.7207 34.2116C51.9387 34.3051 52.1516 34.3947 52.2657 34.5088C52.8914 35.1347 52.8914 36.1122 52.2657 36.7381C51.7717 37.2319 51.0627 37.3523 50.4823 37.0848C50.0008 36.8901 49.387 37.3086 49.3924 37.8279C49.4046 38.2461 49.2239 38.69 48.897 39.0169C48.2714 39.6426 47.2935 39.6427 46.6677 39.0169C46.3731 38.7123 45.823 38.7123 45.5283 39.0169C44.9026 39.6427 43.9248 39.6427 43.299 39.0169C42.7671 38.485 42.6845 37.7012 43.0513 37.0848C43.2878 36.703 43.1137 36.1308 42.7046 35.9454C42.4866 35.8519 42.2737 35.7623 42.1596 35.6482C41.6278 35.1165 41.5946 34.3322 41.9615 33.7162C42.1925 33.3219 41.991 32.7426 41.5652 32.5768C41.3472 32.4832 41.1838 32.3938 41.0698 32.2795C40.444 31.6537 40.444 30.676 41.0698 30.0502C41.6018 29.5182 42.338 29.4354 42.9523 29.8026C43.3341 30.039 43.9063 29.8649 44.0917 29.4558C44.1854 29.2372 44.3245 29.025 44.4385 28.9108C44.9704 28.3788 45.7066 28.2962 46.3209 28.6631C46.7028 28.8996 47.275 28.7255 47.4604 28.3164C47.5539 28.0981 47.6436 27.8854 47.7576 27.7714C48.0705 27.4585 48.4929 27.3257 48.897 27.3256Z" fill="white"/>
<path d="M52.0084 44.867C51.8564 44.8761 51.7007 44.8316 51.5718 44.7295L0.28051 4.1032C0.00266759 3.88316 -0.0440023 3.4796 0.175942 3.20194C0.395887 2.92428 0.799618 2.87733 1.07732 3.09737L52.3687 43.7237C52.6464 43.9438 52.6932 44.3473 52.4732 44.625C52.3552 44.774 52.1844 44.8564 52.0084 44.867Z" fill="white"/>
</svg>
