<svg width="45" height="43" viewBox="0 0 45 43" fill="none" xmlns="http://www.w3.org/2000/svg">
<path d="M35.9811 21.7498H38.5971C38.9311 23.0432 40.1016 23.9992 41.499 23.9997C43.156 23.9992 44.4985 22.6567 44.499 20.9998C44.4985 19.3428 43.156 18.0003 41.499 17.9998C40.1016 18.0003 38.9311 18.9563 38.5971 20.2498H35.9811C35.7936 16.9528 34.3791 13.9853 32.1851 11.7969L34.8251 8.8319C35.5716 9.2759 36.4116 9.50089 37.2486 9.4999C38.5181 9.50089 39.7916 8.9899 40.726 7.98691C41.576 7.07342 41.9995 5.90744 41.999 4.75095C42 3.48096 41.489 2.20698 40.486 1.27349C39.5726 0.422997 38.4066 -0.000998224 37.2506 1.76468e-06C35.9801 -0.000998224 34.7066 0.509996 33.7726 1.51348C32.9226 2.42597 32.4986 3.59196 32.4991 4.74895C32.4981 5.86494 32.8936 6.98392 33.6706 7.87291L31.0622 10.8024C28.8467 9.0499 26.0497 8.00041 23.0047 7.99991C19.9533 8.00041 17.1503 9.0539 14.9323 10.8139L12.0559 7.58242C12.6459 6.79093 12.9989 5.81294 12.9994 4.74995C12.9989 2.12648 10.8729 0.000501759 8.24941 1.76468e-06C5.62594 0.000501759 3.49996 2.12648 3.49946 4.74995C3.49996 7.37342 5.62594 9.49939 8.24941 9.4999C9.2674 9.4999 10.2089 9.1769 10.9819 8.6314L13.8108 11.8094C11.6244 13.9963 10.2154 16.9598 10.0284 20.2498H7.92691C7.57542 18.3998 5.95243 17.0003 3.99996 16.9998C1.79048 17.0003 0.000499994 18.7908 0 20.9998C0.000499994 23.2092 1.79048 24.9992 3.99996 24.9997C5.95243 24.9992 7.57542 23.5997 7.92691 21.7498H10.0284C10.2154 25.0372 11.6224 27.9982 13.8058 30.1847L9.95389 34.5111C9.3754 34.1871 8.7099 33.9996 7.99941 33.9996C5.78994 34.0001 3.99996 35.7901 3.99946 37.9996C3.99996 40.209 5.78994 41.999 7.99941 41.9995C10.2089 41.999 11.9989 40.209 11.9994 37.9996C11.9989 37.0426 11.6619 36.1651 11.1019 35.4766L14.9263 31.1812C17.1453 32.9441 19.9508 33.9996 23.0047 33.9996C26.0527 33.9996 28.8522 32.9476 31.0692 31.1922L33.0111 33.3736C32.0751 34.3961 31.5001 35.7541 31.4996 37.2496C31.4996 40.426 34.0726 42.999 37.2491 42.9995C40.4255 42.999 42.9985 40.426 42.999 37.2496C42.9985 34.0736 40.4255 31.5001 37.2491 31.4996C36.1101 31.5001 35.0511 31.8356 34.1576 32.4066L32.1906 30.1972C34.3816 28.0097 35.7936 25.0437 35.9811 21.7498ZM34.8706 2.53547C35.5121 1.84648 36.3766 1.50098 37.2506 1.49998C38.0456 1.50048 38.8356 1.78648 39.4641 2.37097C40.153 3.01297 40.498 3.87746 40.499 4.75095C40.4985 5.54594 40.2121 6.33643 39.6276 6.96492C38.9861 7.65392 38.1216 7.99891 37.2486 7.99991C36.4531 7.99941 35.6626 7.71291 35.0346 7.12892C34.3451 6.48693 34.0001 5.62244 33.9991 4.74895C33.9996 3.95396 34.2861 3.16347 34.8706 2.53547ZM40.2546 34.2446C41.0245 35.0161 41.4985 36.0736 41.499 37.2496C41.4985 38.4261 41.0245 39.4836 40.2546 40.255C39.4831 41.025 38.4256 41.499 37.2491 41.4995C36.0726 41.499 35.0151 41.025 34.2436 40.255C33.4736 39.4836 32.9996 38.4261 32.9991 37.2496C32.9996 36.0736 33.4736 35.0161 34.2436 34.2446C35.0151 33.4741 36.0726 33.0001 37.2491 32.9996C38.4256 33.0001 39.4831 33.4741 40.2546 34.2446ZM41.499 19.4998C42.327 19.5013 42.9975 20.1718 42.999 20.9998C42.9975 21.8278 42.327 22.4982 41.499 22.4997C40.6715 22.4982 40.0006 21.8273 39.9991 20.9998C40.0006 20.1718 40.6715 19.5013 41.499 19.4998ZM5.95093 7.04842C5.36244 6.45743 4.99994 5.64994 4.99944 4.74995C4.99994 3.84996 5.36244 3.04247 5.95093 2.45197C6.54193 1.86298 7.34942 1.50048 8.24941 1.49998C9.1494 1.50048 9.95689 1.86298 10.5479 2.45197C11.1369 3.04247 11.4989 3.84996 11.4994 4.74995C11.4989 5.64994 11.1364 6.45743 10.5479 7.04842C9.95689 7.63742 9.1494 7.99941 8.24941 7.99991C7.34942 7.99941 6.54193 7.63742 5.95093 7.04842ZM5.76694 22.7672C5.31244 23.2207 4.69245 23.4992 3.99946 23.4997C3.30646 23.4992 2.68647 23.2207 2.23147 22.7672C1.77848 22.3127 1.49998 21.6928 1.49948 20.9998C1.49998 20.3073 1.77848 19.6873 2.23147 19.2323C2.68647 18.7788 3.30646 18.5003 3.99946 18.4998C4.69195 18.5003 5.31244 18.7788 5.76694 19.2323C6.22043 19.6873 6.49893 20.3073 6.49943 20.9998C6.49893 21.6923 6.22043 22.3127 5.76694 22.7672ZM9.76689 39.7671C9.3124 40.2206 8.6924 40.499 7.99941 40.4995C7.30642 40.499 6.68643 40.2205 6.23143 39.7676C5.77844 39.3126 5.49994 38.6926 5.49944 37.9996C5.49994 37.3066 5.77844 36.6866 6.23143 36.2321C6.68643 35.7786 7.30642 35.5001 7.99941 35.4996C8.6924 35.5001 9.3124 35.7786 9.76689 36.2321C10.2204 36.6866 10.4989 37.3066 10.4994 37.9996C10.4989 38.6926 10.2204 39.3126 9.76689 39.7671ZM14.8728 29.1317C12.7909 27.0482 11.5054 24.1782 11.5049 20.9998C11.5054 17.8223 12.7909 14.9513 14.8728 12.8679C16.9568 10.7859 19.8268 9.50039 23.0047 9.4999C26.1822 9.50039 29.0527 10.7859 31.1367 12.8679C33.2186 14.9513 34.5041 17.8218 34.5046 20.9998C34.5041 24.1777 33.2186 27.0482 31.1367 29.1317C29.0527 31.2136 26.1827 32.4991 23.0047 32.4996C19.8268 32.4991 16.9563 31.2136 14.8728 29.1317Z" fill="white"/>
<path d="M21.5048 23.4998C19.8479 23.5003 18.5054 24.8427 18.5049 26.4997C18.5054 28.1567 19.8479 29.4992 21.5048 29.4997C23.1618 29.4992 24.5043 28.1567 24.5048 26.4997C24.5043 24.8427 23.1618 23.5003 21.5048 23.4998ZM21.5048 27.9997C20.6769 27.9982 20.0064 27.3277 20.0049 26.4997C20.0064 25.6717 20.6769 25.0012 21.5048 24.9997C22.3328 25.0012 23.0033 25.6717 23.0048 26.4997C23.0033 27.3272 22.3328 27.9982 21.5048 27.9997Z" fill="white"/>
<path d="M20.5048 18.4997C20.5043 17.1187 19.3858 16.0003 18.0049 15.9998C16.6239 16.0003 15.5054 17.1187 15.5049 18.4997C15.5054 19.8807 16.6239 20.9992 18.0049 20.9997C19.3853 20.9992 20.5043 19.8807 20.5048 18.4997ZM18.0049 19.4997C17.4529 19.4987 17.0059 19.0517 17.0049 18.4997C17.0059 17.9477 17.4529 17.5007 18.0049 17.4997C18.5568 17.5007 19.0038 17.9477 19.0048 18.4997C19.0038 19.0517 18.5563 19.4987 18.0049 19.4997Z" fill="white"/>
<path d="M27.5046 14.9998C25.2946 15.0003 23.5051 16.7903 23.5046 18.9998C23.5051 21.2087 25.2946 22.9992 27.5046 22.9997C29.7136 22.9992 31.5035 21.2087 31.5045 18.9998C31.504 16.7903 29.7136 15.0003 27.5046 14.9998ZM29.2721 20.7673C28.8171 21.2207 28.1971 21.4992 27.5046 21.4997C26.8116 21.4992 26.1916 21.2207 25.7371 20.7673C25.2831 20.3128 25.0051 19.6923 25.0046 18.9998C25.0051 18.3068 25.2831 17.6868 25.7371 17.2323C26.1916 16.7788 26.8116 16.5003 27.5046 16.4998C28.1971 16.5003 28.8171 16.7788 29.2721 17.2323C29.7256 17.6868 30.0041 18.3073 30.0046 18.9998C30.0041 19.6923 29.7256 20.3128 29.2721 20.7673Z" fill="white"/>
</svg>
