<svg width="15" height="14" viewBox="0 0 15 14" fill="none" xmlns="http://www.w3.org/2000/svg">
<path d="M14.9635 11.3713C14.9392 11.478 14.8987 11.5803 14.8435 11.6745C14.4186 12.3765 13.8997 13.0157 13.3015 13.574C13.1228 13.7187 12.9349 13.8514 12.739 13.9712L12.2891 14C12.0716 13.9712 11.8496 13.9454 11.6366 13.906C10.6741 13.7065 9.75074 13.348 8.90368 12.8448C7.45023 12.0262 6.14978 10.9984 4.90332 9.89022C3.76151 8.89879 2.71719 7.79814 1.78494 6.60361C1.14446 5.76074 0.580479 4.87541 0.238491 3.85972C0.154494 3.60958 0.0974965 3.35035 0.028499 3.10174L0 2.63937C0.190493 2.06482 0.574479 1.62215 0.977965 1.19617C1.27795 0.88388 1.58694 0.589783 1.90193 0.297202C2.03194 0.175753 2.18887 0.0875897 2.35956 0.0401096C2.53024 -0.00737042 2.70971 -0.0127821 2.8829 0.0243289C3.08374 0.0546566 3.26474 0.163548 3.38688 0.327522C4.03185 1.19162 4.66933 2.06178 5.33681 2.90466C5.47428 3.07072 5.56268 3.27257 5.59186 3.48707C5.62104 3.70157 5.58983 3.92004 5.5018 4.11743C5.4208 4.33421 5.31431 4.5419 5.21681 4.75262C5.10282 4.99669 4.98882 5.24228 4.86432 5.4818C4.83798 5.5172 4.82609 5.56148 4.83111 5.60549C4.83613 5.6495 4.85769 5.68988 4.89132 5.71829C5.34131 6.18369 5.77029 6.67031 6.24127 7.11752C7.10781 7.97032 8.04522 8.74632 9.04317 9.43695C9.08588 9.47489 9.1408 9.49582 9.19767 9.49582C9.25453 9.49582 9.30945 9.47489 9.35216 9.43695C9.71665 9.18681 10.0871 8.94426 10.4621 8.70777C10.7235 8.52123 11.0449 8.44112 11.3621 8.48341C11.459 8.49926 11.5524 8.5321 11.6381 8.58043C12.63 9.15144 13.62 9.72549 14.608 10.3026C14.926 10.4845 15.0745 10.9393 14.9635 11.3713Z" fill="#32DCCA"/>
</svg>
