<svg width="17" height="17" viewBox="0 0 17 17" fill="none" xmlns="http://www.w3.org/2000/svg">
<path d="M14.474 2.4687C12.877 0.877678 10.7525 0.0009079 8.49144 0C6.23544 0 4.10759 0.875992 2.50009 2.46663C0.88974 4.05999 0.0020752 6.17747 0 8.42127V8.42387V8.42542C0.000259399 9.78351 0.357063 11.1535 1.03436 12.4041L0.0232163 17L4.67204 15.9426C5.84946 16.5359 7.16319 16.8488 8.4882 16.8493H8.49157C10.7472 16.8493 12.875 15.9732 14.4828 14.3824C16.0946 12.7877 16.9826 10.673 16.9837 8.42776C16.9843 6.19835 16.0931 4.08204 14.474 2.4687ZM8.49144 15.5225H8.48846C7.29872 15.5219 6.11988 15.2232 5.07956 14.6584L4.85972 14.5391L1.76846 15.2422L2.43991 12.1906L2.31047 11.9674C1.6669 10.8576 1.32683 9.63241 1.32683 8.424C1.32929 4.51264 4.54299 1.32683 8.49118 1.32683C10.3985 1.32761 12.1907 2.06702 13.5375 3.40864C14.9047 4.771 15.6573 6.55334 15.6567 8.42737C15.6551 12.3396 12.4408 15.5225 8.49144 15.5225Z" fill="#32DCCA"/>
<path d="M6.18086 4.71045H5.80862C5.67905 4.71045 5.46867 4.75896 5.29073 4.9526C5.11265 5.14637 4.61084 5.61472 4.61084 6.56723C4.61084 7.51974 5.30694 8.44009 5.40395 8.5694C5.5011 8.69859 6.74764 10.7157 8.72193 11.4917C10.3628 12.1365 10.6967 12.0083 11.0528 11.976C11.4089 11.9438 12.202 11.5078 12.3639 11.0557C12.5258 10.6037 12.5258 10.2162 12.4773 10.1353C12.4286 10.0546 12.2991 10.0062 12.1049 9.90946C11.9106 9.81258 10.9586 9.33632 10.7805 9.2716C10.6024 9.20714 10.473 9.17484 10.3434 9.36874C10.2139 9.56226 9.83242 10.01 9.71906 10.1392C9.60584 10.2685 9.49248 10.2847 9.29819 10.1878C9.1039 10.0907 8.48471 9.88261 7.7427 9.22322C7.16515 8.71 6.76437 8.05553 6.65102 7.86176C6.53779 7.66812 6.63895 7.56332 6.73636 7.4667C6.82365 7.38006 6.94154 7.26151 7.03869 7.14854C7.1357 7.03545 7.16333 6.95477 7.22818 6.82559C7.2929 6.69641 7.26048 6.58331 7.21197 6.48656C7.16333 6.38967 6.79057 5.43236 6.61781 5.04948H6.61794C6.47242 4.72705 6.31924 4.71616 6.18086 4.71045Z" fill="#32DCCA"/>
</svg>
