<svg xmlns="http://www.w3.org/2000/svg" height="400" width="400"><path d="M-1-1h402v402H-1z" fill="none"></path><path d="M288.92 176.08a62.904 62.904 0 1 0 62.904 62.904 62.968 62.968 0 0 0-62.904-62.904zm0 116.13a53.226 53.226 0 1 1 53.227-53.226 53.29 53.29 0 0 1-53.227 53.227z"></path><path d="M314.727 234.146H293.76v-20.968a4.839 4.839 0 0 0-9.677 0v20.968h-20.968a4.839 4.839 0 0 0 0 9.677h20.968v20.968a4.839 4.839 0 0 0 9.677 0v-20.968h20.968a4.839 4.839 0 0 0 0-9.677zm-101.097-61.84H57.852v-29.032h238.261a4.839 4.839 0 0 0 4.839-4.84v-23.258a17.097 17.097 0 0 0-17.065-17.064H65.24a17.097 17.097 0 0 0-17.064 17.064v134.39A17.097 17.097 0 0 0 65.24 266.63h131.13a4.839 4.839 0 1 0 0-9.678H65.24a7.42 7.42 0 0 1-7.387-7.387v-67.581H213.63a4.839 4.839 0 0 0 0-9.678zM65.24 107.79h218.648a7.42 7.42 0 0 1 7.387 7.387v18.42H57.853v-18.42a7.42 7.42 0 0 1 7.387-7.387z"></path></svg>