<?xml version="1.0" encoding="utf-8"?>
<svg viewBox="0 0 500 500" xmlns="http://www.w3.org/2000/svg">
  <g transform="matrix(1.592085, 0, 0, 1.592085, 164.595551, 155.792923)" style="">
    <path style="fill: rgb(251, 251, 251);" d="M 53.644 -24.307 C 7.347 -24.307 -30.185 13.225 -30.185 59.522 C -30.185 101.045 0.037 135.433 39.663 142.092 L 39.663 77.011 L 19.441 77.011 L 19.441 53.591 L 39.663 53.591 L 39.663 36.322 C 39.663 16.285 51.901 5.366 69.778 5.366 C 78.34 5.366 85.698 6.004 87.834 6.285 L 87.834 27.229 L 75.435 27.235 C 65.715 27.235 63.841 31.853 63.841 38.632 L 63.841 53.579 L 87.034 53.579 L 84.009 76.999 L 63.841 76.999 L 63.841 142.652 C 105.317 137.604 137.472 102.34 137.472 59.498 C 137.472 13.225 99.94 -24.307 53.644 -24.307 Z"/>
  </g>
  <g transform="matrix(1, 0, 0, 1, 164.595552, 155.999564)"/>
  <g transform="matrix(1, 0, 0, 1, 164.595552, 155.999564)"/>
  <g transform="matrix(1, 0, 0, 1, 164.595552, 155.999564)"/>
  <g transform="matrix(1, 0, 0, 1, 164.595552, 155.999564)"/>
  <g transform="matrix(1, 0, 0, 1, 164.595552, 155.999564)"/>
  <g transform="matrix(1, 0, 0, 1, 164.595552, 155.999564)"/>
  <g transform="matrix(1, 0, 0, 1, 164.595552, 155.999564)"/>
  <g transform="matrix(1, 0, 0, 1, 164.595552, 155.999564)"/>
  <g transform="matrix(1, 0, 0, 1, 164.595552, 155.999564)"/>
  <g transform="matrix(1, 0, 0, 1, 164.595552, 155.999564)"/>
  <g transform="matrix(1, 0, 0, 1, 164.595552, 155.999564)"/>
  <g transform="matrix(1, 0, 0, 1, 164.595552, 155.999564)"/>
  <g transform="matrix(1, 0, 0, 1, 164.595552, 155.999564)"/>
  <g transform="matrix(1, 0, 0, 1, 164.595552, 155.999564)"/>
  <g transform="matrix(1, 0, 0, 1, 164.595552, 155.999564)"/>
</svg>