<svg width="580" height="400" xmlns="http://www.w3.org/2000/svg">
 <!-- Created with SVG Editor - http://github.com/mzalive/SVG Editor/ -->

 <g>
  <title>background</title>
  <rect fill="#fff" id="canvas_background" height="402" width="582" y="-1" x="-1"/>
  <g display="none" overflow="visible" y="0" x="0" height="100%" width="100%" id="canvasGrid">
   <rect fill="url(#gridpattern)" stroke-width="0" y="0" x="0" height="100%" width="100%"/>
  </g>
 </g>
 <g>
  <title>Layer 1</title>
  <metadata transform="matrix(0.027708462790301036,0,0,0.027708462790301036,0,0) ">Created by potrace 1.16, written by Peter Selinger 2001-2019</metadata>
  <g stroke="null" id="svg_7">
   <g id="svg_4" fill="#000000" transform="matrix(0.08480912300952671,0,0,-0.08480912300952671,-8387.152935021944,-5121.998120730861) ">
    <path fill="#ffffff" stroke="null" id="svg_5" d="m102101.230164,-60777.6604c-61,-12 -142,-51 -176,-85c-60,-61 -70,-101 -72,-289c-1,-210 -31,-360 -115,-580c-92,-239 -201,-391 -305,-425l-34,-12l0,-1254l0,-1254l1078,2c1184,3 1100,-1 1164,63c54,54 68,103 68,240c0,89 -4,136 -15,161c-18,42 -15,50 22,57c16,3 54,24 85,46c45,33 63,54 87,104c53,112 50,274 -9,370c-18,29 -24,47 -16,47c7,0 35,7 64,15c75,23 144,82 181,156c29,57 31,70 31,163c0,117 -9,157 -49,217l-30,43l30,13c59,25 115,72 146,124c44,75 57,154 51,310c-5,120 -8,135 -37,194c-36,72 -72,107 -151,144l-55,26l-591,3c-584,3 -592,3 -610,23c-18,20 -19,42 -20,298c0,297 -7,355 -60,518c-56,175 -172,360 -277,443c-70,57 -171,106 -242,119c-66,12 -82,12 -143,0z"/>
    <path fill="#ffffff" stroke="null" id="svg_6" d="m100419.230164,-62084.6604c-20,-11 -44,-37 -57,-62l-23,-43l0,-1211l0,-1212l23,-44c41,-80 40,-80 458,-80l366,0l37,25c20,14 41,25 46,25c6,0 10,464 10,1256c0,1375 4,1294 -58,1339c-26,19 -45,20 -397,23c-346,2 -372,1 -405,-16zm455,-2061c100,-57 101,-208 0,-266c-78,-46 -159,-25 -212,54c-27,39 -31,107 -9,149c42,82 140,109 221,63z"/>
   </g>
  </g>
 </g>
</svg>