<?xml version="1.0" encoding="utf-8"?>
<svg viewBox="0 0 500 500" xmlns="http://www.w3.org/2000/svg">
  <g transform="matrix(1, 0, 0, 1, -50.744994, 1.432659)">
    <title>background</title>
    <g display="none" overflow="visible" y="0" x="0" height="100%" width="100%" id="canvasGrid">
      <rect fill="url(#gridpattern)" stroke-width="0" y="0" x="0" height="100%" width="100%"/>
    </g>
  </g>
  <g transform="matrix(0.864656, 0, 0, 0.864656, -9.558744, 76.11084)" style="">
    <title>Layer 1</title>
    <g stroke="null" id="svg_189">
      <g stroke="null" id="svg_40" transform="matrix(1.0261187138808476,0,0,1.0261187138808476,-3877.8580065921924,-2784.6096267109683) ">
        <g stroke="null" id="svg_41" transform="matrix(0.252893,0,0,0.252893,165.139786,189.797043) ">
          <path stroke="null" id="svg_42" fill=" rgb(216, 216, 216)" d="m15252.542011,10687.823683"/>
          <path stroke="null" id="svg_43" fill=" rgb(216, 216, 216)" d="m15461.655011,10755.863683"/>
          <g transform="matrix(0.097654,0,0,0.097858,-10.656904,-7.60465) " fill="#212020" id="svg_35">
            <path stroke="null" id="svg_44" d="m154925.436165,111334.719208c-140,-148 -289,-304 -331,-348c-66,-69 -77,-85 -77,-116c0,-30 70,-145 426,-710c235,-371 443,-700 463,-732c20,-32 43,-69 51,-82c8,-13 37,-59 63,-102c27,-43 66,-105 87,-138c22,-33 45,-70 52,-83c14,-25 78,-126 276,-439l134,-213l582,0l581,0l76,143c95,176 279,520 346,647c59,112 113,212 158,295c18,33 48,89 68,125c19,36 203,378 409,760c206,382 403,749 438,815c35,66 66,125 70,130c13,18 160,302 160,309c0,3 -265,6 -589,6c-575,0 -590,0 -596,-19c-3,-11 -72,-143 -154,-293c-81,-150 -171,-318 -200,-373c-57,-106 -73,-137 -168,-310c-59,-107 -526,-975 -605,-1125c-22,-41 -44,-79 -48,-83c-4,-5 -23,17 -41,48c-19,32 -41,68 -49,80c-8,13 -28,45 -44,72c-30,49 -542,864 -647,1028c-83,130 -213,336 -223,354c-5,10 -5,13 0,8c5,-5 50,-72 99,-150l91,-142l445,-3l445,-2l46,97c55,115 388,795 395,806c2,4 -432,7 -965,7l-970,0l-254,-267zm387,107c3,-5 4,-10 1,-10c-3,0 -8,5 -11,10c-3,6 -4,10 -1,10c3,0 8,-4 11,-10zm25,-40c6,-11 8,-20 6,-20c-3,0 -10,9 -16,20c-6,11 -8,20 -6,20c3,0 10,-9 16,-20zm92,-147c91,-144 90,-143 84,-143c-2,0 -35,48 -72,108c-37,59 -74,117 -82,130c-8,12 -12,22 -9,22c3,0 38,-53 79,-117zm143,-227l17,-31l-20,24c-11,14 -27,38 -37,55l-17,31l20,-24c11,-14 27,-38 37,-55zm1056,-1678c11,-21 11,-22 -4,-9c-10,7 -17,17 -17,22c0,15 9,10 21,-13zm59,-93c13,-22 16,-33 8,-25c-8,8 -25,33 -38,55c-13,22 -16,33 -8,25c8,-8 25,-33 38,-55zm162,-257c158,-250 150,-238 145,-238c-3,0 -66,96 -139,213c-158,249 -150,237 -145,237c3,0 66,-96 139,-212zm168,-268c6,-11 8,-20 6,-20c-3,0 -10,9 -16,20c-6,11 -8,20 -6,20c3,0 10,-9 16,-20zm226,-298c-18,-16 -18,-16 -6,6c6,13 14,21 18,18c3,-4 -2,-14 -12,-24z"/>
          </g>
          <g transform="matrix(0.097654,0,0,0.097858,-10.656904,-7.60465) " fill="#073030" id="svg_34">
            <path stroke="null" id="svg_45" d="m154851.436165,111256.719208c-289,-303 -329,-350 -332,-381c-3,-30 18,-68 159,-292c504,-798 712,-1128 772,-1222c36,-58 87,-139 112,-180c25,-41 83,-134 128,-205c45,-72 149,-237 231,-368l149,-237l581,0l581,0l54,103c45,86 161,303 406,762c24,44 243,451 488,905c512,951 777,1447 777,1455c0,3 -264,4 -586,3l-586,-3l-450,-835c-247,-459 -476,-886 -509,-947c-33,-62 -70,-132 -83,-155c-12,-24 -40,-74 -61,-113c-67,-124 -88,-156 -95,-148c-8,10 -101,157 -380,603c-235,375 -408,652 -445,710c-49,77 -162,256 -170,270c-5,9 -5,12 1,7c5,-5 50,-72 99,-150l91,-142l443,0l442,0l15,25c13,22 282,572 388,793l42,87l-966,0l-967,0l-329,-345zm461,185c3,-5 4,-10 1,-10c-3,0 -8,5 -11,10c-3,6 -4,10 -1,10c3,0 8,-4 11,-10zm25,-40c6,-11 8,-20 6,-20c-3,0 -10,9 -16,20c-6,11 -8,20 -6,20c3,0 10,-9 16,-20zm92,-147c91,-144 90,-143 84,-143c-2,0 -35,48 -72,108c-37,59 -74,117 -82,130c-8,12 -12,22 -9,22c3,0 38,-53 79,-117zm143,-227l17,-31l-20,24c-11,14 -27,38 -37,55l-17,31l20,-24c11,-14 27,-38 37,-55zm1056,-1678c11,-21 11,-22 -4,-9c-10,7 -17,17 -17,22c0,15 9,10 21,-13zm59,-93c13,-22 16,-33 8,-25c-8,8 -25,33 -38,55c-13,22 -16,33 -8,25c8,-8 25,-33 38,-55zm162,-257c158,-250 150,-238 145,-238c-3,0 -66,96 -139,213c-158,249 -150,237 -145,237c3,0 66,-96 139,-212zm168,-268c6,-11 8,-20 6,-20c-3,0 -10,9 -16,20c-6,11 -8,20 -6,20c3,0 10,-9 16,-20zm226,-298c-18,-16 -18,-16 -6,6c6,13 14,21 18,18c3,-4 -2,-14 -12,-24z"/>
          </g>
          <g transform="matrix(0.097654,0,0,0.097858,-10.656904,-7.60465) " fill="#004041" id="svg_33">
            <path stroke="null" id="svg_46" d="m155131.436165,111549.719208c-50,-55 -388,-411 -531,-559c-94,-97 -102,-124 -59,-188c13,-20 85,-135 161,-256c76,-121 153,-242 170,-270c33,-50 171,-270 392,-620c66,-104 149,-237 186,-295c36,-58 87,-139 112,-180c25,-41 83,-134 128,-205c45,-72 149,-237 231,-368l149,-237l581,0l581,0l54,103c45,86 161,303 406,762c24,44 243,451 488,905c511,948 777,1447 777,1455c0,3 -263,5 -584,5l-585,0l-39,-72c-22,-40 -55,-102 -74,-138c-20,-36 -209,-387 -420,-780c-212,-393 -407,-755 -433,-805c-182,-343 -226,-419 -235,-408c-8,9 -100,156 -380,603c-320,512 -429,684 -438,695c-26,33 -514,817 -510,820c6,6 124,-174 283,-430c65,-104 137,-219 160,-255c23,-36 50,-80 61,-98c10,-18 28,-35 39,-38c11,-2 210,-3 443,-2l423,3l15,25c19,33 371,753 395,808c22,51 23,56 7,46c-7,-4 -8,-3 -4,5c4,6 11,9 16,6c5,-3 11,-1 15,5c4,7 -309,10 -963,10l-969,0l-49,-52zm1682,-2483c110,-176 213,-342 228,-369c51,-88 9,-38 -60,72c-308,489 -374,596 -374,610c0,20 -20,51 206,-313zm449,-605c-14,-28 -30,-48 -35,-45c-10,6 8,41 38,78c25,28 24,20 -3,-33z"/>
          </g>
          <g transform="matrix(0.097654,0,0,0.097858,-10.656904,-7.60465) " fill="#015252" id="svg_32">
            <path stroke="null" id="svg_47" d="m155137.436165,111554.719208c-50,-55 -366,-387 -517,-543c-84,-86 -102,-110 -103,-136c0,-27 94,-189 235,-404c12,-19 123,-195 246,-390c122,-195 265,-422 317,-505c79,-124 321,-510 696,-1107l61,-98l577,0l577,0l37,66c20,36 34,67 31,71c-3,3 -17,-18 -31,-46c-15,-28 -31,-51 -36,-51c-15,0 -13,8 20,65c33,58 65,93 54,59c-5,-18 -5,-18 10,0c19,23 21,40 4,30c-7,-4 -8,-3 -4,5c4,6 11,9 16,6c4,-3 72,115 150,263c79,147 298,555 488,907c189,352 361,672 382,710c20,39 88,165 150,280c62,116 127,237 145,270c18,33 54,101 80,150c27,50 90,168 142,262c51,95 93,175 93,178c0,3 -263,5 -584,5l-583,0l-408,-757c-224,-417 -457,-850 -518,-963c-131,-244 -151,-281 -206,-382c-24,-43 -39,-83 -35,-89c4,-7 3,-9 -3,-6c-6,4 -14,0 -17,-9c-3,-8 -2,-13 3,-10c4,3 15,-2 23,-12c32,-38 398,-631 427,-692l30,-65l-27,34c-14,18 -188,291 -386,605c-765,1218 -896,1427 -1001,1591c-199,314 -423,673 -435,697c-16,33 42,-33 90,-103c35,-50 407,-640 449,-711c9,-15 25,-29 36,-32c11,-3 208,-6 437,-6l417,0l56,110c30,61 53,110 50,110c-4,0 1,7 9,16c9,8 16,21 16,28c0,7 25,60 55,118c30,58 52,108 48,111c-3,4 -2,7 4,7c6,0 21,23 33,52c12,28 51,110 86,181c36,72 63,136 60,144c-3,7 3,17 12,22c11,7 -303,10 -949,11l-966,0l-43,-47zm3810,33c0,-3 -5,-8 -12,-12c-7,-4 -8,-3 -4,4c7,12 16,16 16,8z"/>
          </g>
          <g transform="matrix(0.097654,0,0,0.097858,-10.656904,-7.60465) " fill="#345050" id="svg_31">
            <path stroke="null" id="svg_48" d="m155091.436165,111504.719208c-92,-101 -240,-257 -451,-473c-102,-105 -123,-131 -123,-156c0,-21 35,-86 119,-220c66,-104 156,-247 201,-319c74,-119 145,-233 519,-825c123,-194 373,-591 391,-620c5,-8 76,-121 156,-250c81,-129 153,-243 162,-252c14,-17 55,-18 586,-18l572,0l31,53c18,28 35,61 38,72c4,11 -9,-7 -28,-40c-28,-47 -37,-56 -42,-42c-5,12 11,48 48,110c68,115 103,149 57,57c-43,-86 -22,-65 29,30c43,78 49,96 29,84c-7,-4 -8,-3 -4,5c4,6 11,9 16,6c4,-2 56,86 115,198c59,111 263,490 453,842c189,352 361,672 382,710c20,39 88,165 150,280c62,116 127,237 145,270c18,33 54,101 80,150c27,50 90,168 142,262c51,95 93,175 93,178c0,3 -263,5 -584,5l-583,0l-269,-497c-147,-274 -284,-529 -305,-568c-20,-38 -77,-144 -126,-235c-49,-91 -147,-273 -218,-405c-70,-132 -139,-260 -153,-285c-72,-131 -113,-214 -101,-203c10,10 20,0 53,-55c56,-92 113,-182 164,-258c23,-36 42,-66 42,-68c0,-2 42,-71 94,-153c98,-156 121,-201 136,-268l8,-40l-26,34c-57,71 -492,773 -486,783c4,6 3,9 -2,6c-7,-4 -308,463 -505,782c-101,165 -324,519 -334,530c-17,21 -501,792 -534,852c-14,26 -31,48 -37,48c-6,0 -51,-44 -100,-97zm3850,72c-4,-8 -11,-12 -16,-9c-6,4 -5,10 3,15c19,12 19,11 13,-6zm-1739,-3175c3,-6 -1,-7 -9,-4c-18,7 -21,14 -7,14c6,0 13,-4 16,-10z"/>
            <path stroke="null" id="svg_49" d="m155257.436165,111569.719208c44,-45 166,-230 415,-630c146,-234 147,-236 178,-242c16,-3 206,-6 422,-6l393,0l20,39c11,21 18,42 15,45c-4,3 -1,6 5,6c10,0 28,38 24,53c-1,4 3,7 10,7c6,0 9,3 5,6c-3,4 1,13 9,21c8,8 12,19 9,24c-4,5 -1,9 6,9c7,0 10,3 6,6c-3,4 1,13 9,21c8,9 13,20 11,27c-2,6 6,26 19,45c13,19 21,38 18,43c-3,4 -1,8 5,8c10,0 27,38 23,53c-1,4 2,7 7,7c9,0 37,60 33,73c-1,4 2,7 7,7c7,0 34,52 36,70c1,3 20,42 43,88c24,46 40,88 36,94c-4,6 -3,8 3,5c13,-8 36,40 27,56c-4,7 -4,9 1,5c4,-4 14,5 22,19c9,18 11,29 4,31c-6,2 -11,8 -11,14c0,6 7,7 16,4c8,-3 13,-2 9,3c-3,5 1,12 7,14c7,3 -412,6 -931,6l-943,1l32,-32z"/>
          </g>
          <g transform="matrix(0.097654,0,0,0.097858,-10.656904,-7.60465) " fill="#017575" id="svg_30">
            <path stroke="null" id="svg_50" d="m155152.436165,111566.719208c-39,-43 -331,-350 -502,-526c-107,-109 -133,-141 -133,-164c0,-29 7,-40 719,-1170c404,-643 395,-627 616,-980c103,-165 197,-312 207,-327l19,-28l573,0l572,0l18,33c12,22 12,26 2,13c-14,-17 -16,-18 -22,-2c-4,10 14,50 49,109c67,113 104,150 58,59c-17,-34 -29,-62 -26,-62c9,0 86,161 80,170c-3,5 0,12 6,16c8,4 9,3 5,-4c-4,-7 -5,-12 -2,-12c12,0 36,61 30,73c-4,7 -4,9 1,5c11,-10 20,3 110,177c43,83 81,155 85,160c7,10 297,548 695,1290c190,355 314,585 513,955c90,166 109,207 99,219c-10,12 -9,14 6,8c10,-4 16,-3 12,2c-3,5 1,12 7,14c7,3 -250,6 -572,6l-586,1l-254,-472c-140,-260 -280,-520 -311,-578c-94,-178 -370,-692 -399,-745c-15,-27 -47,-86 -70,-130c-23,-44 -50,-93 -60,-110c-51,-90 -91,-168 -79,-158c10,10 20,0 53,-55c56,-92 113,-182 164,-258c23,-36 42,-66 42,-68c0,-2 42,-71 94,-153c98,-156 121,-201 136,-268l8,-40l-26,34c-57,71 -492,773 -486,783c4,6 3,9 -2,5c-5,-3 -38,41 -73,96c-36,56 -221,350 -411,652c-191,303 -462,734 -604,959c-142,226 -270,431 -285,458c-14,26 -30,48 -36,48c-5,-1 -23,-16 -40,-35zm2050,-3165c3,-6 -1,-7 -9,-4c-18,7 -21,14 -7,14c6,0 13,-4 16,-10z"/>
            <path stroke="null" id="svg_51" d="m155257.436165,111569.719208c44,-45 166,-230 415,-630c146,-234 147,-236 178,-242c16,-3 207,-6 423,-6l394,0l13,33c8,17 13,34 13,37c-1,3 9,19 21,36c12,17 20,34 16,38c-3,3 0,6 7,6c7,0 11,3 7,6c-3,4 1,13 9,21c8,8 12,19 9,24c-4,5 -1,9 5,9c6,0 9,4 6,9c-4,5 -1,11 5,13c7,2 13,13 14,24c1,10 9,34 18,51c10,18 18,36 18,40c1,5 10,20 21,36c11,15 16,27 11,27c-4,0 -3,4 2,8c15,10 35,49 35,67c0,8 4,15 10,15c5,0 13,12 16,28c4,15 28,69 55,121c27,52 46,99 42,105c-3,6 -3,8 2,4c11,-10 37,41 28,55c-3,6 -1,7 5,3c8,-5 12,0 12,13c0,11 5,23 11,27c8,4 7,9 -2,15c-11,7 -10,11 6,23c18,14 -80,15 -919,16l-938,0l32,-32z"/>
          </g>
          <g transform="matrix(0.097654,0,0,0.097858,-10.656904,-7.60465) " fill="#008081" id="svg_29">
            <path stroke="null" id="svg_52" d="m155170.436165,111587.719208c-9,-16 -285,-307 -515,-543c-109,-112 -138,-148 -138,-169c0,-26 59,-123 583,-954c99,-157 213,-337 252,-400c40,-63 122,-194 183,-290c61,-96 183,-292 273,-435c90,-143 187,-297 216,-343l53,-82l565,0c311,0 565,3 565,6c0,3 -10,15 -22,25c-22,19 -22,20 -3,17c16,-3 37,26 113,157c111,189 223,389 282,500c23,44 56,106 73,138c18,35 35,56 43,53c7,-3 15,1 18,9c3,10 0,12 -11,8c-11,-4 0,24 32,83c147,275 203,379 255,474c32,58 97,179 145,270c48,91 100,188 115,215c15,28 74,136 130,240c56,105 106,194 111,199c16,17 10,-7 -9,-39c-21,-34 -33,-65 -27,-65c3,0 19,27 35,61c17,34 26,58 21,54c-6,-3 -11,-1 -11,5c0,15 62,122 67,116c3,-3 -7,-26 -22,-51c-15,-26 -25,-48 -23,-50c2,-2 19,23 37,57c19,34 29,58 23,54c-17,-10 -15,15 2,40c8,11 37,64 65,117c59,112 122,232 160,300c14,26 31,45 37,43c6,-2 17,8 23,22c10,24 10,25 -2,10c-31,-39 -25,-14 15,63c24,46 50,85 62,89c12,5 -239,9 -564,9l-586,1l-219,-407c-220,-409 -240,-447 -300,-558c-18,-33 -51,-94 -73,-135c-61,-116 -361,-677 -442,-825c-15,-27 -46,-84 -68,-126c-45,-82 -46,-98 -10,-157c34,-55 230,-366 295,-467c135,-211 163,-269 170,-359l6,-61l-35,45c-41,53 -298,462 -574,911c-32,53 -63,94 -68,91c-5,-3 -6,-1 -3,5c8,12 -27,65 -37,56c-4,-5 -6,-3 -5,2c5,19 -12,55 -23,49c-7,-4 -8,-2 -4,4c4,6 -3,21 -16,34c-12,12 -23,27 -23,33c0,16 -46,85 -56,85c-6,0 -8,4 -5,8c7,12 -29,64 -38,55c-4,-5 -7,-3 -6,2c5,22 -1,36 -12,29c-7,-4 -8,-3 -4,4c8,13 -22,64 -34,57c-4,-3 -11,2 -14,11c-4,9 -2,13 5,8c7,-4 7,0 -1,15c-6,12 -16,19 -21,15c-6,-3 -9,0 -8,7c3,20 -12,50 -21,44c-5,-3 -12,0 -16,6c-4,8 -3,9 4,5c16,-10 15,0 -4,29c-9,14 -20,23 -24,20c-5,-3 -12,0 -16,6c-4,8 -3,9 4,5c7,-4 12,-4 12,1c-1,12 -23,40 -35,42c-5,2 -12,5 -15,8c-3,4 1,3 8,-1c6,-4 12,-4 12,1c-1,14 -27,43 -39,43c-7,0 -9,4 -6,10c8,13 -14,52 -25,45c-5,-3 -12,0 -16,6c-4,8 -3,9 4,5c7,-4 12,-4 12,1c-1,12 -30,48 -36,45c-3,-2 -9,0 -12,4c-4,4 -1,4 6,0c6,-4 12,-4 12,-1c0,10 -34,51 -43,52c-5,1 -12,5 -15,9c-4,4 -1,4 6,0c6,-4 12,-3 12,1c0,11 -51,86 -64,95c-6,4 -8,8 -3,8c4,0 0,11 -9,25c-9,14 -21,22 -27,18c-6,-4 -7,-1 -3,6c5,8 -17,50 -57,109c-36,53 -181,282 -322,507c-141,226 -260,411 -265,413c-4,2 -12,-4 -17,-12z"/>
            <path stroke="null" id="svg_53" d="m155283.436165,111589.719208c4,-7 22,-31 39,-53c30,-37 64,-88 157,-235c167,-263 306,-486 323,-514c11,-19 29,-48 41,-63l21,-28l398,-3c418,-4 423,-3 410,39c-5,15 377,821 405,854c11,13 -87,15 -894,15c-723,0 -906,-3 -900,-12z"/>
            <path stroke="null" id="svg_54" d="m158902.436165,111511.719208c-14,-27 -23,-50 -20,-50c2,0 16,23 30,50c14,28 23,50 20,50c-2,0 -16,-22 -30,-50z"/>
            <path stroke="null" id="svg_55" d="m158792.436165,111310.719208c-4,-6 -5,-12 -2,-15c2,-3 7,2 10,11c7,17 1,20 -8,4z"/>
            <path stroke="null" id="svg_56" d="m158751.436165,111229.719208c-4,-7 -3,-8 4,-4c12,7 16,16 8,16c-3,0 -8,-5 -12,-12z"/>
            <path stroke="null" id="svg_57" d="m158722.436165,111180.719208c-4,-6 -5,-12 -2,-15c2,-3 7,2 10,11c7,17 1,20 -8,4z"/>
            <path stroke="null" id="svg_58" d="m158687.436165,111111.719208c-11,-22 -18,-40 -15,-40c2,0 14,18 25,40c11,22 18,40 15,40c-2,0 -14,-18 -25,-40z"/>
            <path stroke="null" id="svg_59" d="m158621.436165,110990.719208c-14,-28 -24,-53 -22,-55c2,-2 16,21 31,51c15,30 25,55 22,55c-3,0 -16,-23 -31,-51z"/>
            <path stroke="null" id="svg_60" d="m158415.436165,110609.719208c-28,-54 -39,-78 -33,-78c3,0 18,27 35,60c34,68 32,83 -2,18z"/>
            <path stroke="null" id="svg_61" d="m158364.436165,110514.719208c-3,-5 -31,-57 -62,-118c-32,-60 -64,-119 -72,-130c-7,-11 -13,-24 -13,-30c0,-14 24,28 99,168c34,64 60,117 57,117c-3,0 -7,-3 -9,-7z"/>
            <path stroke="null" id="svg_62" d="m158200.436165,110209.719208c-20,-32 -42,-82 -39,-86c3,-2 16,19 30,47c24,46 29,70 9,39z"/>
            <path stroke="null" id="svg_63" d="m158128.436165,110078.719208c-13,-21 -12,-21 5,-5c10,10 16,20 13,22c-3,3 -11,-5 -18,-17z"/>
            <path stroke="null" id="svg_64" d="m158103.436165,110026.719208c-9,-14 -13,-25 -8,-25c5,0 14,11 20,25c6,14 10,25 8,25c-2,0 -11,-11 -20,-25z"/>
            <path stroke="null" id="svg_65" d="m158072.436165,109971.719208c-10,-11 -16,-22 -13,-25c3,-3 13,6 22,20c20,30 16,32 -9,5z"/>
            <path stroke="null" id="svg_66" d="m158037.436165,109906.719208c-6,-8 -10,-19 -8,-26c2,-6 9,0 16,15c13,29 10,33 -8,11z"/>
            <path stroke="null" id="svg_67" d="m158003.436165,109842.719208c-10,-11 -16,-25 -15,-30c2,-6 12,3 21,19c20,35 18,38 -6,11z"/>
            <path stroke="null" id="svg_68" d="m157970.436165,109779.719208c-12,-16 -24,-48 -18,-48c2,0 11,14 20,30c16,31 15,40 -2,18z"/>
            <path stroke="null" id="svg_69" d="m157926.436165,109704.719208c-13,-16 -12,-17 4,-4c16,13 21,21 13,21c-2,0 -10,-8 -17,-17z"/>
            <path stroke="null" id="svg_70" d="m157909.436165,109668.719208c-13,-15 -34,-67 -27,-67c3,0 14,18 25,40c21,40 21,51 2,27z"/>
            <path stroke="null" id="svg_71" d="m157853.436165,109575.719208c-5,-14 -4,-15 9,-4c17,14 19,20 6,20c-5,0 -12,-7 -15,-16z"/>
            <path stroke="null" id="svg_72" d="m157827.436165,109515.719208c-6,-16 -19,-37 -27,-46c-9,-10 -12,-18 -6,-18c12,0 57,79 49,87c-3,3 -10,-7 -16,-23z"/>
            <path stroke="null" id="svg_73" d="m156622.436165,109431.719208c-9,-16 -13,-30 -11,-30c3,0 12,14 21,30c9,17 13,30 11,30c-3,0 -12,-13 -21,-30z"/>
            <path stroke="null" id="svg_74" d="m157770.436165,109409.719208c-20,-32 -42,-82 -39,-86c3,-2 16,19 30,47c24,46 29,70 9,39z"/>
            <path stroke="null" id="svg_75" d="m157672.436165,109221.719208c-9,-16 -13,-30 -11,-30c3,0 12,14 21,30c9,17 13,30 11,30c-3,0 -12,-13 -21,-30z"/>
            <path stroke="null" id="svg_76" d="m157637.436165,109160.719208c-7,-11 -10,-23 -7,-25c2,-2 9,7 15,21c14,30 7,33 -8,4z"/>
            <path stroke="null" id="svg_77" d="m157552.436165,109001.719208c-14,-27 -23,-50 -20,-50c2,0 16,23 30,50c14,28 23,50 20,50c-2,0 -16,-22 -30,-50z"/>
            <path stroke="null" id="svg_78" d="m157472.436165,108851.719208c-14,-27 -23,-50 -20,-50c2,0 16,23 30,50c14,28 23,50 20,50c-2,0 -16,-22 -30,-50z"/>
            <path stroke="null" id="svg_79" d="m157402.436165,108721.719208c-9,-16 -13,-30 -11,-30c3,0 12,14 21,30c9,17 13,30 11,30c-3,0 -12,-13 -21,-30z"/>
            <path stroke="null" id="svg_80" d="m157232.436165,108405.719208c-9,-14 -15,-27 -13,-30c2,-2 12,10 22,26c21,37 15,40 -9,4z"/>
          </g>
          <g transform="matrix(0.097654,0,0,0.097858,-10.656904,-7.60465) " fill="#337272" id="svg_28">
            <path stroke="null" id="svg_81" d="m155156.436165,111568.719208c-15,-17 -164,-176 -333,-351c-231,-242 -306,-326 -306,-344c0,-23 105,-203 122,-210c4,-2 8,-8 8,-13c0,-5 64,-111 143,-237c201,-319 452,-718 575,-912c57,-91 142,-226 189,-300c46,-74 118,-187 159,-250c40,-63 78,-124 84,-135c5,-11 69,-114 142,-230l133,-210l570,-2c540,-2 569,-2 550,15c-11,9 -68,94 -126,187c-59,94 -151,240 -204,325c-54,85 -169,268 -255,405c-86,138 -224,356 -305,485c-82,129 -235,372 -340,540c-106,168 -236,375 -290,460c-54,85 -176,281 -273,435c-96,154 -182,291 -191,305c-15,22 -15,24 2,17c16,-6 16,-4 2,23c-9,17 -19,30 -23,30c-4,0 -19,-15 -33,-33z"/>
            <path stroke="null" id="svg_82" d="m157572.436165,111194.719208c-220,-409 -240,-447 -300,-558c-18,-33 -51,-94 -73,-135c-21,-41 -105,-198 -186,-348c-80,-150 -146,-275 -146,-278c0,-2 -10,-21 -23,-42c-13,-20 -45,-77 -71,-127c-27,-49 -67,-123 -89,-164c-22,-41 -36,-71 -30,-68c7,4 14,-2 18,-13c4,-12 24,-47 45,-78c20,-31 66,-102 100,-157c34,-55 73,-116 85,-135c253,-396 273,-437 273,-574c0,-43 5,-83 11,-89c6,-6 12,-9 14,-6c26,34 220,380 385,686c279,517 1044,1941 1195,2223c66,124 129,235 140,248l20,22l-574,0l-575,0l-219,-407z"/>
            <path stroke="null" id="svg_83" d="m158827.436165,111371.719208c-6,-11 -8,-20 -6,-20c3,0 10,9 16,20c6,11 8,20 6,20c-3,0 -10,-9 -16,-20z"/>
            <path stroke="null" id="svg_84" d="m156917.436165,111231.719208c0,-7 3,-10 7,-7c3,4 3,10 0,14c-4,3 -7,0 -7,-7z"/>
            <path stroke="null" id="svg_85" d="m158671.436165,111079.719208c-4,-7 -3,-8 4,-4c12,7 16,16 8,16c-3,0 -8,-5 -12,-12z"/>
            <path stroke="null" id="svg_86" d="m158632.436165,111010.719208c-4,-6 -5,-12 -2,-15c2,-3 7,2 10,11c7,17 1,20 -8,4z"/>
            <path stroke="null" id="svg_87" d="m158602.436165,110950.719208c-4,-6 -5,-12 -2,-15c2,-3 7,2 10,11c7,17 1,20 -8,4z"/>
            <path stroke="null" id="svg_88" d="m158462.436165,110691.719208c-9,-16 -13,-30 -11,-30c3,0 12,14 21,30c9,17 13,30 11,30c-3,0 -12,-13 -21,-30z"/>
            <path stroke="null" id="svg_89" d="m155796.436165,110636.719208c5,-11 17,-29 26,-40l16,-20l-10,20c-5,11 -17,29 -26,40l-16,20l10,-20z"/>
            <path stroke="null" id="svg_90" d="m158392.436165,110561.719208c-9,-16 -13,-30 -11,-30c3,0 12,14 21,30c9,17 13,30 11,30c-3,0 -12,-13 -21,-30z"/>
            <path stroke="null" id="svg_91" d="m155847.436165,110552.719208c5,-11 15,-23 21,-27c6,-3 3,5 -6,20c-20,30 -30,35 -15,7z"/>
            <path stroke="null" id="svg_92" d="m155897.436165,110472.719208c5,-11 15,-23 21,-27c6,-3 3,5 -6,20c-20,30 -30,35 -15,7z"/>
            <path stroke="null" id="svg_93" d="m158322.436165,110431.719208c-9,-16 -13,-30 -11,-30c3,0 12,14 21,30c9,17 13,30 11,30c-3,0 -12,-13 -21,-30z"/>
            <path stroke="null" id="svg_94" d="m155968.436165,110357.719208c12,-20 25,-39 30,-42c5,-3 0,11 -12,30c-12,20 -25,39 -30,42c-5,3 0,-11 12,-30z"/>
            <path stroke="null" id="svg_95" d="m156017.436165,110281.719208c6,-11 13,-20 16,-20c2,0 0,9 -6,20c-6,11 -13,20 -16,20c-2,0 0,-9 6,-20z"/>
            <path stroke="null" id="svg_96" d="m158241.436165,110279.719208c-4,-7 -3,-8 4,-4c7,4 12,9 12,12c0,8 -9,4 -16,-8z"/>
            <path stroke="null" id="svg_97" d="m156067.436165,110201.719208c6,-11 13,-20 16,-20c2,0 0,9 -6,20c-6,11 -13,20 -16,20c-2,0 0,-9 6,-20z"/>
            <path stroke="null" id="svg_98" d="m158197.436165,110200.719208c-7,-11 -10,-23 -7,-25c2,-2 9,7 15,21c14,30 7,33 -8,4z"/>
            <path stroke="null" id="svg_99" d="m158167.436165,110141.719208c-6,-11 -8,-20 -6,-20c3,0 10,9 16,20c6,11 8,20 6,20c-3,0 -10,-9 -16,-20z"/>
            <path stroke="null" id="svg_100" d="m156137.436165,110092.719208c0,-6 4,-13 10,-16c6,-3 7,1 4,9c-7,18 -14,21 -14,7z"/>
            <path stroke="null" id="svg_101" d="m156162.436165,110051.719208c3,-5 8,-10 11,-10c3,0 2,5 -1,10c-3,6 -8,10 -11,10c-3,0 -2,-4 1,-10z"/>
            <path stroke="null" id="svg_102" d="m156187.436165,110011.719208c6,-11 13,-20 16,-20c2,0 0,9 -6,20c-6,11 -13,20 -16,20c-2,0 0,-9 6,-20z"/>
            <path stroke="null" id="svg_103" d="m158102.436165,110020.719208c-4,-6 -5,-12 -2,-15c2,-3 7,2 10,11c7,17 1,20 -8,4z"/>
            <path stroke="null" id="svg_104" d="m158081.436165,109979.719208c-4,-7 -3,-8 4,-4c12,7 16,16 8,16c-3,0 -8,-5 -12,-12z"/>
            <path stroke="null" id="svg_105" d="m156212.436165,109971.719208c3,-5 8,-10 11,-10c3,0 2,5 -1,10c-3,6 -8,10 -11,10c-3,0 -2,-4 1,-10z"/>
            <path stroke="null" id="svg_106" d="m156332.436165,109781.719208c3,-5 8,-10 11,-10c3,0 2,5 -1,10c-3,6 -8,10 -11,10c-3,0 -2,-4 1,-10z"/>
            <path stroke="null" id="svg_107" d="m156502.436165,109511.719208c3,-5 8,-10 11,-10c3,0 2,5 -1,10c-3,6 -8,10 -11,10c-3,0 -2,-4 1,-10z"/>
            <path stroke="null" id="svg_108" d="m157552.436165,109000.719208c-4,-6 -5,-12 -2,-15c2,-3 7,2 10,11c7,17 1,20 -8,4z"/>
            <path stroke="null" id="svg_109" d="m157482.436165,108870.719208c-4,-6 -5,-12 -2,-15c2,-3 7,2 10,11c7,17 1,20 -8,4z"/>
            <path stroke="null" id="svg_110" d="m157451.436165,108809.719208c-4,-7 -3,-8 4,-4c12,7 16,16 8,16c-3,0 -8,-5 -12,-12z"/>
            <path stroke="null" id="svg_111" d="m157391.436165,108699.719208c-4,-7 -3,-8 4,-4c7,4 12,9 12,12c0,8 -9,4 -16,-8z"/>
            <path stroke="null" id="svg_112" d="m157317.436165,108560.719208c-7,-11 -10,-23 -7,-25c2,-2 9,7 15,21c14,30 7,33 -8,4z"/>
            <path stroke="null" id="svg_113" d="m157242.436165,108420.719208c-4,-6 -5,-12 -2,-15c2,-3 7,2 10,11c7,17 1,20 -8,4z"/>
          </g>
          <g transform="matrix(0.097654,0,0,0.097858,-10.656904,-7.60465) " fill="#456e6e" id="svg_27">
            <path stroke="null" id="svg_114" d="m155135.436165,111544.719208c-29,-31 -180,-189 -335,-351c-302,-315 -305,-320 -265,-373c10,-13 35,-53 57,-89c21,-36 41,-67 45,-70c3,-3 21,-30 39,-60c18,-30 45,-75 61,-100c16,-25 38,-61 50,-80c11,-19 48,-78 81,-130c34,-52 69,-107 78,-122c15,-25 104,-167 161,-258c156,-249 503,-800 535,-850c23,-36 67,-103 97,-150c30,-47 57,-92 61,-100c4,-8 67,-109 141,-225l134,-210l569,-2c538,-2 567,-2 548,15c-11,9 -68,94 -126,187c-59,94 -151,240 -204,325c-54,85 -169,268 -255,405c-86,138 -224,356 -305,485c-82,129 -235,372 -340,540c-106,168 -236,375 -290,460c-54,85 -176,281 -273,435c-96,154 -182,291 -191,305c-15,22 -15,24 2,17c16,-6 16,-4 2,23c-9,17 -17,30 -19,30c-3,0 -28,-25 -58,-57z"/>
            <path stroke="null" id="svg_115" d="m157772.436165,111564.719208c-17,-34 -163,-305 -235,-438c-44,-81 -105,-195 -142,-265c-110,-205 -140,-262 -231,-430c-55,-102 -116,-214 -135,-250c-19,-36 -49,-92 -67,-125c-18,-33 -51,-94 -73,-135c-77,-145 -169,-316 -207,-384c-21,-38 -34,-66 -28,-63c7,4 14,-2 18,-13c4,-12 24,-47 45,-78c20,-31 66,-102 100,-157c34,-55 73,-116 85,-135c253,-396 273,-437 273,-574c0,-43 5,-83 11,-89c6,-6 12,-9 14,-6c26,34 220,380 385,686c279,517 1044,1941 1195,2223c66,124 129,235 140,248l20,22l-574,0l-574,0l-20,-37z"/>
            <path stroke="null" id="svg_116" d="m158881.436165,111469.719208c-4,-7 -3,-8 4,-4c7,4 12,9 12,12c0,8 -9,4 -16,-8z"/>
            <path stroke="null" id="svg_117" d="m158823.436165,111364.719208c-6,-14 -5,-15 5,-6c7,7 10,15 7,18c-3,3 -9,-2 -12,-12z"/>
            <path stroke="null" id="svg_118" d="m158631.436165,111009.719208c-4,-7 -3,-8 4,-4c7,4 12,9 12,12c0,8 -9,4 -16,-8z"/>
            <path stroke="null" id="svg_119" d="m158467.436165,110700.719208c-7,-11 -10,-23 -7,-25c2,-2 9,7 15,21c14,30 7,33 -8,4z"/>
            <path stroke="null" id="svg_120" d="m158397.436165,110570.719208c-7,-11 -10,-23 -7,-25c2,-2 9,7 15,21c14,30 7,33 -8,4z"/>
            <path stroke="null" id="svg_121" d="m158327.436165,110440.719208c-7,-11 -10,-23 -7,-25c2,-2 9,7 15,21c14,30 7,33 -8,4z"/>
            <path stroke="null" id="svg_122" d="m155967.436165,110361.719208c0,-7 3,-10 7,-7c3,4 3,10 0,14c-4,3 -7,0 -7,-7z"/>
            <path stroke="null" id="svg_123" d="m156113.436165,110128.719208c3,-10 9,-15 12,-12c3,3 0,11 -7,18c-10,9 -11,8 -5,-6z"/>
            <path stroke="null" id="svg_124" d="m156137.436165,110091.719208c0,-7 3,-10 7,-7c3,4 3,10 0,14c-4,3 -7,0 -7,-7z"/>
            <path stroke="null" id="svg_125" d="m156183.436165,110018.719208c3,-10 9,-15 12,-12c3,3 0,11 -7,18c-10,9 -11,8 -5,-6z"/>
            <path stroke="null" id="svg_126" d="m158101.436165,110019.719208c-4,-7 -3,-8 4,-4c7,4 12,9 12,12c0,8 -9,4 -16,-8z"/>
            <path stroke="null" id="svg_127" d="m156232.436165,109941.719208c3,-5 8,-10 11,-10c3,0 2,5 -1,10c-3,6 -8,10 -11,10c-3,0 -2,-4 1,-10z"/>
            <path stroke="null" id="svg_128" d="m156283.436165,109858.719208c3,-10 9,-15 12,-12c3,3 0,11 -7,18c-10,9 -11,8 -5,-6z"/>
            <path stroke="null" id="svg_129" d="m156357.436165,109742.719208c0,-6 4,-13 10,-16c6,-3 7,1 4,9c-7,18 -14,21 -14,7z"/>
            <path stroke="null" id="svg_130" d="m156402.436165,109671.719208c3,-5 8,-10 11,-10c3,0 2,5 -1,10c-3,6 -8,10 -11,10c-3,0 -2,-4 1,-10z"/>
            <path stroke="null" id="svg_131" d="m156457.436165,109584.719208c0,-6 8,-17 18,-24c16,-13 16,-13 2,6c-8,11 -16,22 -17,24c-2,2 -3,0 -3,-6z"/>
            <path stroke="null" id="svg_132" d="m156527.436165,109474.719208c0,-6 8,-17 18,-24c16,-13 16,-13 2,6c-8,11 -16,22 -17,24c-2,2 -3,0 -3,-6z"/>
            <path stroke="null" id="svg_133" d="m156627.436165,109441.719208c-6,-11 -8,-20 -6,-20c3,0 10,9 16,20c6,11 8,20 6,20c-3,0 -10,-9 -16,-20z"/>
            <path stroke="null" id="svg_134" d="m157661.436165,109199.719208c-4,-7 -3,-8 4,-4c7,4 12,9 12,12c0,8 -9,4 -16,-8z"/>
            <path stroke="null" id="svg_135" d="m157547.436165,108991.719208c0,-7 3,-10 7,-7c3,4 3,10 0,14c-4,3 -7,0 -7,-7z"/>
            <path stroke="null" id="svg_136" d="m157477.436165,108861.719208c0,-7 3,-10 7,-7c3,4 3,10 0,14c-4,3 -7,0 -7,-7z"/>
          </g>
          <g transform="matrix(0.097654,0,0,0.097858,-10.656904,-7.60465) " fill="#019191" id="svg_26">
            <path stroke="null" id="svg_137" fill=" rgb(0, 184, 184)" d="m154856.436165,111252.719208c-224,-235 -335,-358 -337,-374c-3,-24 7,-42 103,-192c18,-27 101,-160 185,-295c85,-135 318,-506 519,-825c201,-319 444,-706 541,-860c97,-154 184,-292 194,-307l18,-28l567,0c536,1 565,2 546,18c-11,9 -68,94 -126,187c-59,94 -151,240 -204,325c-54,85 -169,268 -255,405c-86,138 -224,356 -305,485c-82,129 -235,372 -340,540c-106,168 -236,375 -290,460c-54,85 -176,281 -273,435c-96,154 -182,291 -191,305c-15,22 -15,24 2,17c16,-6 16,-4 2,23c-9,17 -17,30 -18,30c-2,0 -154,-157 -338,-349z"/>
            <path stroke="null" id="svg_138" fill=" rgb(0, 184, 184)" d="m155325.436165,111581.719208c27,-29 162,-232 162,-244c0,-4 8,-19 19,-34c42,-61 101,-152 101,-156c0,-2 26,-44 58,-93c68,-106 73,-114 112,-178c17,-27 48,-77 68,-110l37,-60l85,-7c47,-3 224,-6 394,-7l308,-1l-5,27c-4,20 41,122 194,436c109,226 206,418 215,429c17,17 -9,18 -875,18l-892,0l19,-20z"/>
            <path stroke="null" id="svg_139" fill=" rgb(0, 184, 184)" d="m157600.436165,111243.719208c-105,-196 -302,-564 -438,-817c-136,-253 -265,-494 -287,-535c-84,-156 -171,-317 -201,-369c-17,-30 -25,-51 -19,-47c6,3 13,-3 17,-14c4,-12 24,-47 45,-78c20,-31 66,-102 100,-157c34,-55 73,-116 85,-135c253,-396 273,-437 273,-574c0,-43 5,-83 11,-89c6,-6 12,-9 14,-6c26,34 220,380 385,686c279,517 1044,1941 1195,2223c66,124 129,235 140,248l20,22l-574,0l-574,0l-192,-358z"/>
            <path stroke="null" id="svg_140" fill=" rgb(0, 184, 184)" d="m155237.436165,111511.719208c6,-11 13,-20 16,-20c2,0 0,9 -6,20c-6,11 -13,20 -16,20c-2,0 0,-9 6,-20z"/>
            <path stroke="null" id="svg_141" fill=" rgb(0, 184, 184)" d="m155267.436165,111462.719208c5,-11 15,-23 21,-27c6,-3 3,5 -6,20c-20,30 -30,35 -15,7z"/>
            <path stroke="null" id="svg_142" fill=" rgb(0, 184, 184)" d="m155312.436165,111391.719208c3,-5 8,-10 11,-10c3,0 2,5 -1,10c-3,6 -8,10 -11,10c-3,0 -2,-4 1,-10z"/>
            <path stroke="null" id="svg_143" fill=" rgb(0, 184, 184)" d="m155337.436165,111352.719208c5,-11 15,-23 21,-27c6,-3 3,5 -6,20c-20,30 -30,35 -15,7z"/>
            <path stroke="null" id="svg_144" fill=" rgb(0, 184, 184)" d="m155382.436165,111281.719208c3,-5 8,-10 11,-10c3,0 2,5 -1,10c-3,6 -8,10 -11,10c-3,0 -2,-4 1,-10z"/>
            <path stroke="null" id="svg_145" fill=" rgb(0, 184, 184)" d="m155412.436165,111231.719208c3,-5 8,-10 11,-10c3,0 2,5 -1,10c-3,6 -8,10 -11,10c-3,0 -2,-4 1,-10z"/>
            <path stroke="null" id="svg_146" fill=" rgb(0, 184, 184)" d="m155432.436165,111201.719208c3,-5 8,-10 11,-10c3,0 2,5 -1,10c-3,6 -8,10 -11,10c-3,0 -2,-4 1,-10z"/>
            <path stroke="null" id="svg_147" fill=" rgb(0, 184, 184)" d="m155702.436165,110771.719208c3,-5 8,-10 11,-10c3,0 2,5 -1,10c-3,6 -8,10 -11,10c-3,0 -2,-4 1,-10z"/>
            <path stroke="null" id="svg_148" fill=" rgb(0, 184, 184)" d="m155732.436165,110721.719208c3,-5 8,-10 11,-10c3,0 2,5 -1,10c-3,6 -8,10 -11,10c-3,0 -2,-4 1,-10z"/>
            <path stroke="null" id="svg_149" fill=" rgb(0, 184, 184)" d="m156362.436165,109731.719208c3,-5 8,-10 11,-10c3,0 2,5 -1,10c-3,6 -8,10 -11,10c-3,0 -2,-4 1,-10z"/>
            <path stroke="null" id="svg_150" fill=" rgb(0, 184, 184)" d="m156432.436165,109621.719208c3,-5 8,-10 11,-10c3,0 2,5 -1,10c-3,6 -8,10 -11,10c-3,0 -2,-4 1,-10z"/>
            <path stroke="null" id="svg_151" fill=" rgb(0, 184, 184)" d="m156632.436165,109450.719208c-4,-6 -5,-12 -2,-15c2,-3 7,2 10,11c7,17 1,20 -8,4z"/>
            <path stroke="null" id="svg_152" fill=" rgb(0, 184, 184)" d="m156597.436165,109351.719208c0,-7 3,-10 7,-7c3,4 3,10 0,14c-4,3 -7,0 -7,-7z"/>
            <path stroke="null" id="svg_153" fill=" rgb(0, 184, 184)" d="m156622.436165,109311.719208c3,-5 8,-10 11,-10c3,0 2,5 -1,10c-3,6 -8,10 -11,10c-3,0 -2,-4 1,-10z"/>
            <path stroke="null" id="svg_154" fill=" rgb(0, 184, 184)" d="m156722.436165,109151.719208c3,-5 8,-10 11,-10c3,0 2,5 -1,10c-3,6 -8,10 -11,10c-3,0 -2,-4 1,-10z"/>
            <path stroke="null" id="svg_155" fill=" rgb(0, 184, 184)" d="m156822.436165,108991.719208c3,-5 8,-10 11,-10c3,0 2,5 -1,10c-3,6 -8,10 -11,10c-3,0 -2,-4 1,-10z"/>
            <path stroke="null" id="svg_156" fill=" rgb(0, 184, 184)" d="m156852.436165,108941.719208c3,-5 8,-10 11,-10c3,0 2,5 -1,10c-3,6 -8,10 -11,10c-3,0 -2,-4 1,-10z"/>
            <path stroke="null" id="svg_157" fill=" rgb(0, 184, 184)" d="m156902.436165,108861.719208c3,-5 8,-10 11,-10c3,0 2,5 -1,10c-3,6 -8,10 -11,10c-3,0 -2,-4 1,-10z"/>
            <path stroke="null" id="svg_158" fill=" rgb(0, 184, 184)" d="m156922.436165,108831.719208c3,-5 8,-10 11,-10c3,0 2,5 -1,10c-3,6 -8,10 -11,10c-3,0 -2,-4 1,-10z"/>
            <path stroke="null" id="svg_159" fill=" rgb(0, 184, 184)" d="m156952.436165,108781.719208c3,-5 8,-10 11,-10c3,0 2,5 -1,10c-3,6 -8,10 -11,10c-3,0 -2,-4 1,-10z"/>
            <path stroke="null" id="svg_160" fill=" rgb(0, 184, 184)" d="m156992.436165,108721.719208c3,-5 8,-10 11,-10c3,0 2,5 -1,10c-3,6 -8,10 -11,10c-3,0 -2,-4 1,-10z"/>
            <path stroke="null" id="svg_161" fill=" rgb(0, 184, 184)" d="m157022.436165,108671.719208c3,-5 8,-10 11,-10c3,0 2,5 -1,10c-3,6 -8,10 -11,10c-3,0 -2,-4 1,-10z"/>
            <path stroke="null" id="svg_162" fill=" rgb(0, 184, 184)" d="m157092.436165,108561.719208c3,-5 8,-10 11,-10c3,0 2,5 -1,10c-3,6 -8,10 -11,10c-3,0 -2,-4 1,-10z"/>
          </g>
          <g transform="matrix(0.097654,0,0,0.097858,-10.656904,-7.60465) " fill="#2e8d8d" id="svg_25">
            <path stroke="null" id="svg_163" d="m155090.436165,111493.719208c-56,-59 -207,-217 -337,-352c-166,-173 -236,-252 -236,-268c0,-12 21,-55 47,-95c25,-40 59,-92 74,-117c16,-25 33,-50 39,-57c5,-7 10,-15 10,-18c0,-3 21,-38 48,-79c26,-41 70,-111 97,-156c28,-45 55,-87 60,-94c6,-6 15,-21 22,-31c6,-11 33,-56 60,-99c26,-43 53,-87 59,-97c6,-11 18,-27 27,-37c10,-10 17,-22 17,-27c0,-4 18,-34 40,-66c22,-32 40,-61 40,-64c0,-3 8,-18 19,-33c22,-33 87,-134 116,-182c38,-61 70,-113 111,-175c21,-33 43,-69 49,-80c19,-34 238,-380 244,-385c3,-3 15,-21 25,-40c11,-19 40,-67 65,-105c25,-39 52,-83 60,-98c8,-15 18,-27 23,-27c4,0 8,-4 8,-10c0,-5 26,-51 58,-101c31,-50 65,-105 75,-122c11,-18 30,-47 43,-64l25,-33l560,0l559,0l-28,28c-16,15 -97,135 -179,267c-207,331 -429,685 -528,840c-245,388 -1253,1993 -1263,2010c-6,12 -7,27 -2,36c5,8 5,20 1,27c-4,8 -42,-25 -108,-96z"/>
            <path stroke="null" id="svg_164" d="m157776.436165,111569.719208c-19,-39 -84,-161 -109,-203c-10,-16 -40,-73 -67,-125c-28,-52 -80,-149 -116,-215c-69,-128 -525,-976 -692,-1290c-21,-38 -49,-90 -63,-114c-14,-25 -20,-41 -13,-37c10,7 11,4 3,-11c-8,-15 -1,-33 38,-93c27,-40 47,-77 44,-82c-3,-4 2,-8 10,-8c9,0 13,-6 10,-14c-3,-7 2,-16 11,-20c9,-3 13,-10 10,-16c-3,-5 -2,-10 3,-10c5,0 17,-15 25,-32c9,-18 24,-42 34,-53c10,-11 27,-39 37,-62c11,-24 22,-43 26,-43c3,0 14,-16 23,-35c9,-19 21,-35 27,-35c5,0 10,-6 10,-14c0,-8 6,-21 14,-28c7,-8 17,-24 20,-36c4,-12 12,-22 17,-22c5,0 9,-6 9,-14c0,-8 6,-21 13,-28c7,-7 16,-20 20,-28c4,-8 25,-42 47,-75c51,-79 80,-139 94,-200l12,-49l31,44c38,57 137,234 338,610c177,331 402,750 760,1415c133,248 297,554 365,680c67,127 132,240 143,253l20,22l-569,0l-570,0l-15,-32z"/>
            <path stroke="null" id="svg_165" d="m155762.436165,110681.719208c3,-5 8,-10 11,-10c3,0 2,5 -1,10c-3,6 -8,10 -11,10c-3,0 -2,-4 1,-10z"/>
            <path stroke="null" id="svg_166" d="m156072.436165,110191.719208c3,-5 8,-10 11,-10c3,0 2,5 -1,10c-3,6 -8,10 -11,10c-3,0 -2,-4 1,-10z"/>
            <path stroke="null" id="svg_167" d="m156627.436165,109441.719208c0,-7 3,-10 7,-7c3,4 3,10 0,14c-4,3 -7,0 -7,-7z"/>
          </g>
          <g transform="matrix(0.097654,0,0,0.097858,-10.656904,-7.60465) " fill="#458686" id="svg_24">
            <path stroke="null" id="svg_168" d="m155090.436165,111493.719208c-56,-59 -207,-217 -337,-352c-130,-135 -236,-253 -236,-263c0,-21 10,-43 55,-112c17,-27 46,-72 63,-100c17,-27 36,-55 41,-61c5,-6 24,-36 41,-65c17,-30 55,-91 83,-135c147,-231 237,-377 237,-384c0,-4 7,-13 15,-20c8,-7 21,-24 28,-39c8,-14 40,-66 71,-116c88,-140 158,-252 190,-303c16,-26 50,-79 75,-119c25,-39 62,-97 81,-129c19,-31 62,-99 95,-150c33,-51 68,-106 77,-121c10,-15 23,-37 30,-47c39,-59 135,-215 147,-238c8,-16 18,-28 23,-28c4,0 8,-4 8,-10c0,-5 29,-55 65,-110c36,-55 65,-103 65,-105c0,-3 16,-27 36,-55l36,-50l559,0l559,0l-28,28c-16,15 -97,135 -179,267c-207,331 -429,685 -528,840c-245,388 -1253,1993 -1263,2010c-6,12 -7,27 -2,36c5,8 5,20 1,27c-4,8 -42,-25 -108,-96z"/>
            <path stroke="null" id="svg_169" d="m157776.436165,111569.719208c-8,-18 -33,-67 -56,-108c-22,-41 -109,-203 -193,-360c-138,-258 -227,-424 -312,-580c-17,-30 -57,-106 -91,-170c-33,-63 -71,-132 -84,-152c-12,-21 -23,-40 -23,-43c0,-3 -29,-59 -64,-123c-101,-185 -126,-232 -169,-312c-22,-41 -49,-90 -60,-109c-12,-19 -15,-31 -8,-27c10,7 11,4 3,-11c-8,-15 -1,-33 38,-93c27,-40 47,-77 44,-82c-3,-4 2,-8 10,-8c9,0 13,-6 10,-14c-3,-7 2,-16 11,-20c9,-3 13,-10 10,-16c-3,-5 -2,-10 3,-10c5,0 17,-15 25,-32c9,-18 24,-42 34,-53c10,-11 27,-39 37,-62c11,-24 22,-43 26,-43c3,0 14,-16 23,-35c9,-19 21,-35 27,-35c5,0 10,-6 10,-14c0,-8 6,-21 14,-28c7,-8 17,-24 20,-36c4,-12 12,-22 17,-22c5,0 9,-6 9,-14c0,-8 6,-21 13,-28c7,-7 16,-20 20,-28c4,-8 25,-42 47,-75c51,-79 80,-139 94,-200l12,-49l31,44c38,57 137,234 338,610c177,331 402,750 760,1415c133,248 297,554 365,680c67,127 132,240 143,253l20,22l-569,0l-570,0l-15,-32z"/>
          </g>
          <g transform="matrix(0.097654,0,0,0.097858,-10.656904,-7.60465) " fill="#24a0a1" id="svg_23">
            <path stroke="null" id="svg_170" d="m155090.436165,111493.719208c-56,-59 -207,-217 -337,-352c-147,-153 -236,-253 -236,-265c0,-11 35,-76 78,-143c42,-68 126,-200 186,-295c133,-211 275,-439 297,-475c23,-38 326,-520 353,-562c35,-52 259,-408 271,-428c6,-10 44,-70 85,-135c41,-64 81,-127 87,-139c7,-13 55,-88 106,-168l93,-145l562,-3l563,-2l-29,27c-16,16 -97,136 -179,268c-207,331 -429,685 -528,840c-245,388 -1253,1993 -1263,2010c-6,12 -7,27 -2,36c5,8 5,20 1,27c-4,8 -42,-25 -108,-96z"/>
            <path stroke="null" id="svg_171" d="m157776.436165,111569.719208c-8,-18 -37,-73 -64,-123c-26,-49 -110,-205 -185,-345c-75,-140 -289,-538 -476,-885c-186,-346 -338,-639 -338,-650c1,-11 22,-51 47,-89c25,-38 44,-73 41,-78c-3,-4 2,-8 10,-8c9,0 13,-6 10,-14c-3,-7 2,-16 11,-20c9,-3 13,-10 10,-16c-3,-5 -2,-10 3,-10c5,0 17,-15 25,-32c9,-18 24,-42 34,-53c10,-11 27,-39 37,-62c11,-24 22,-43 26,-43c3,0 14,-16 23,-35c9,-19 21,-35 27,-35c5,0 10,-6 10,-14c0,-8 6,-21 14,-28c7,-8 17,-24 20,-36c4,-12 12,-22 17,-22c5,0 9,-6 9,-14c0,-8 6,-21 13,-28c7,-7 16,-20 20,-28c4,-8 25,-42 47,-75c51,-79 80,-139 94,-200l12,-49l31,44c38,57 137,234 338,610c177,331 402,750 760,1415c133,248 297,554 365,680c67,127 132,240 143,253l20,22l-569,0l-570,0l-15,-32z"/>
          </g>
          <g transform="matrix(0.097654,0,0,0.097858,-10.656904,-7.60465) " fill="#00b8b8" id="svg_22">
            <path stroke="null" id="svg_172" d="m155090.436165,111493.719208c-56,-59 -207,-217 -337,-352c-150,-155 -236,-252 -235,-265c0,-11 34,-75 77,-142c42,-67 137,-218 211,-335c211,-333 283,-449 511,-813c117,-187 234,-372 259,-412c25,-39 66,-104 91,-144c25,-40 63,-100 85,-135c22,-35 62,-98 89,-141c61,-97 112,-178 141,-223c13,-19 39,-61 59,-92l36,-58l560,0l560,0l-28,28c-16,15 -97,135 -179,267c-207,331 -429,685 -528,840c-245,388 -1253,1993 -1263,2010c-6,12 -7,27 -2,36c5,8 5,20 1,27c-4,8 -42,-25 -108,-96z"/>
            <path stroke="null" id="svg_173" d="m155427.436165,111595.719208c0,-9 74,-119 82,-122c5,-2 8,-10 8,-18c0,-8 4,-14 10,-14c5,0 21,-25 35,-55c15,-30 31,-55 36,-55c5,0 9,-8 9,-18c0,-10 8,-27 18,-38c10,-10 33,-44 51,-74c19,-30 38,-58 43,-61c5,-3 9,-8 7,-10c-4,-8 13,-49 21,-49c4,0 10,-8 14,-17c5,-17 42,-72 66,-100c5,-7 10,-17 10,-23c0,-5 4,-10 8,-10c5,0 9,-6 9,-12c0,-14 83,-141 96,-146c4,-2 5,-7 2,-12c-2,-4 6,-19 20,-34l24,-26l336,0c317,0 335,1 324,18c-8,14 5,49 69,182c238,494 331,679 348,689c14,7 -209,10 -813,11c-458,0 -833,-3 -833,-6z"/>
            <path stroke="null" id="svg_174" d="m157763.436165,111539.719208c-19,-35 -122,-227 -229,-428c-176,-330 -260,-487 -357,-665c-18,-33 -51,-94 -72,-135c-22,-41 -53,-97 -68,-125c-15,-27 -62,-115 -105,-195c-43,-80 -106,-198 -142,-263c-58,-108 -73,-142 -75,-172c-1,-5 20,-41 45,-79c25,-38 44,-73 41,-78c-3,-4 2,-8 10,-8c9,0 13,-6 10,-14c-3,-7 2,-16 11,-20c9,-3 13,-10 10,-16c-3,-5 -2,-10 3,-10c5,0 17,-15 25,-32c9,-18 24,-42 34,-53c10,-11 27,-39 37,-62c11,-24 22,-43 26,-43c3,0 14,-16 23,-35c9,-19 21,-35 27,-35c5,0 10,-6 10,-14c0,-8 6,-21 14,-28c7,-8 17,-24 20,-36c4,-12 12,-22 17,-22c5,0 9,-6 9,-14c0,-8 6,-21 13,-28c7,-7 16,-20 20,-28c4,-8 25,-42 47,-75c51,-79 80,-139 94,-200l12,-49l31,44c38,57 137,234 338,610c177,331 402,750 760,1415c133,248 297,554 365,680c67,127 132,240 143,253l20,22l-566,0l-566,0l-35,-62z"/>
          </g>
          <g transform="matrix(0.097654,0,0,0.097858,-10.656904,-7.60465) " fill="#00c4c4" id="svg_21">
            <path stroke="null" id="svg_175" d="m155017.436165,111416.719208c-29,-30 -52,-56 -49,-58c2,-1 28,23 58,55c69,73 63,76 -9,3z"/>
            <path stroke="null" id="svg_176" d="m154842.436165,111229.719208l-110,-113l113,110c61,60 112,111 112,112c0,8 -13,-5 -115,-109z"/>
            <path stroke="null" id="svg_177" d="m154612.436165,110989.719208l-80,-83l83,80c76,74 87,85 79,85c-1,0 -38,-37 -82,-82z"/>
          </g>
          <path stroke="null" id="svg_178" fill=" rgb(0, 184, 184)" d="m15397.245011,10912.936683l112.303,0l-168.271,-310.51l-58.368,94.765c0,0 115.612,213.193 114.336,215.745z"/>
          <path stroke="null" id="svg_179" fill=" rgb(0, 184, 184)" d="m15285.625011,10826.261683l42.279,86.852l-181.248,0l55.066,-87.836l83.903,0.984z"/>
          <rect stroke="null" id="svg_180" ry="0.321" rx="0.321" transform="matrix(1,0,-0.630199,1,-1147.691162,-538.952637) " height="88.514" width="77.089" y="11363.975683" x="23510.88398"/>
          <rect stroke="null" id="svg_181" transform="matrix(0.495397,0.868667,-0.602632,0.961883,3.88698,-2286.167725) " height="98.833" width="71.708" y="-6938.155288" x="22519.959562"/>
        </g>
        <g id="svg_182" fill="#000000" transform="matrix(0.082003,0,0,-0.082003,-156.42012,443.069214) ">
          <g id="svg_183" fill="#000000" transform="matrix(0.377321,0,0,0.377321,1994.090576,1199.171997) ">
            <path stroke="null" id="svg_184" d="m124131.753857,-81570.459733c-22,-2 -78,-10 -124,-19c-514,-93 -828,-454 -891,-1021c-16,-146 -8,-545 14,-668c58,-335 205,-596 422,-751c196,-140 493,-215 794,-200c384,18 642,124 814,332c111,135 170,286 200,517l5,37l-289,0l-289,0l-11,-55c-26,-126 -110,-243 -221,-308c-142,-84 -367,-88 -529,-10c-76,37 -186,149 -232,238c-85,165 -112,310 -112,600c0,233 13,326 64,467c39,106 72,161 139,232c98,102 196,144 356,153c272,14 462,-116 531,-366l17,-61l289,0l288,0l-6,43c-23,165 -46,244 -105,358c-81,156 -202,273 -374,359c-196,98 -491,147 -750,123z" style="fill: rgb(255, 255, 255);"/>
            <path stroke="null" id="svg_185" d="m126743.925691,-81573.459733c-410,-52 -702,-251 -872,-595c-105,-212 -140,-389 -140,-711c0,-354 36,-545 145,-770c149,-308 409,-494 779,-559c299,-51 609,-17 841,94c290,138 468,399 541,792c9,47 18,171 21,282l6,197l-527,0l-526,0l0,-195l0,-195l260,0l260,0l0,-28c0,-48 -38,-181 -67,-235c-16,-28 -52,-77 -82,-109c-158,-172 -500,-220 -730,-104c-67,34 -168,131 -210,201c-48,80 -98,217 -118,327c-26,144 -23,488 5,624c39,183 104,309 206,400c154,140 422,175 624,84c94,-43 168,-123 227,-243l47,-97l285,0l285,0l-7,47c-11,74 -63,222 -105,301c-140,259 -365,412 -701,477c-101,19 -345,27 -447,15z" style="fill: rgb(255, 255, 255);"/>
            <path stroke="null" id="svg_186" d="m132364.141967,-82896.652917l0,-1295l275,0l275,0l0,470l0,470l187,-2l188,-3l270,-467l270,-467l322,-1l323,0l-30,48c-16,26 -157,250 -313,497c-267,422 -283,451 -263,459c11,5 68,31 126,59c89,44 117,63 185,132c44,44 95,106 114,137c131,224 142,561 25,805c-119,250 -369,403 -719,443c-50,5 -343,10 -662,10l-573,0l0,-1295zm1150,821c161,-30 256,-89 301,-188c21,-46 24,-68 24,-173c0,-105 -3,-127 -24,-172c-27,-60 -84,-117 -145,-144c-106,-47 -148,-52 -458,-56l-298,-5l0,376l0,376l263,0c176,-1 287,-5 337,-14z" style="fill: rgb(255, 255, 255);"/>
            <path stroke="null" id="svg_187" d="m134946.640504,-82895.022489l0,-1295l905,0l905,0l0,230l0,230l-625,0l-625,0l0,325l0,325l570,0l570,0l0,220l0,220l-570,0l-570,0l0,290l0,290l625,0l625,0l0,230l0,230l-905,0l-905,0l0,-1295z" style="fill: rgb(255, 255, 255);"/>
            <path stroke="null" id="svg_188" d="m138094.663741,-81627.022489c-7,-22 -931,-2504 -949,-2551c-4,-9 53,-12 265,-12l270,0l98,265l98,265l482,0l481,0l99,-262l100,-263l293,-3c233,-2 292,0 288,10c-19,51 -942,2529 -949,2551l-10,27l-278,0l-278,0l-10,-27zm421,-1118c80,-231 148,-428 152,-437c7,-17 -12,-18 -304,-18c-171,0 -311,3 -311,7c0,22 305,882 311,875c3,-4 72,-196 152,-427z" style="fill: rgb(255, 255, 255);"/>
          </g>
        </g>
      </g>
    </g>
  </g>
</svg>