<?xml version="1.0" encoding="utf-8"?>
<svg viewBox="0 0 500 500" xmlns="http://www.w3.org/2000/svg" xmlns:xlink="http://www.w3.org/1999/xlink">
  <defs>
    <linearGradient id="gradient-2-5" gradientUnits="userSpaceOnUse" x1="199.826" y1="252.237" x2="199.826" y2="272.481" gradientTransform="matrix(0.088017, -4.372039, 2.451764, 0.020167, 1174.523315, 1725.930176)" xlink:href="#gradient-2"/>
    <linearGradient id="gradient-2">
      <stop offset="0" style=""/>
      <stop offset="0.175" style="stop-color: rgb(75, 75, 75);"/>
      <stop offset="1" style="stop-color: rgba(255, 255, 255, 0.23);"/>
    </linearGradient>
    <linearGradient id="gradient-2-6" gradientUnits="userSpaceOnUse" x1="199.342" y1="254.009" x2="199.342" y2="274.253" gradientTransform="matrix(-0.599491, -4.55244, 2.976142, -0.308031, 1046.752309, 1951.590109)" xlink:href="#gradient-2"/>
  </defs>
  <g transform="matrix(1, 0, 0, 1, 0.49252, 7.317703)">
    <g style="" transform="matrix(0.252893, 0, 0, 0.252893, 155.46698, 189.797043)">
      <path style="fill: rgb(216, 216, 216); stroke: rgb(0, 0, 0);" d="M 198.452 143.456"/>
      <path style="fill: rgb(216, 216, 216); stroke: rgb(0, 0, 0);" d="M 407.565 211.496"/>
      <g id="layer103" fill="#212020" stroke="none" transform="matrix(0.097654, 0, 0, 0.097858, -10.656904, -7.60465)">
        <path d="M768 3583 c-140 -148 -289 -304 -331 -348 -66 -69 -77 -85 -77 -116 0 -30 70 -145 426 -710 235 -371 443 -700 463 -732 20 -32 43 -69 51 -82 8 -13 37 -59 63 -102 27 -43 66 -105 87 -138 22 -33 45 -70 52 -83 14 -25 78 -126 276 -439 l134 -213 582 0 581 0 76 143 c95 176 279 520 346 647 59 112 113 212 158 295 18 33 48 89 68 125 19 36 203 378 409 760 206 382 403 749 438 815 35 66 66 125 70 130 13 18 160 302 160 309 0 3 -265 6 -589 6 -575 0 -590 0 -596 -19 -3 -11 -72 -143 -154 -293 -81 -150 -171 -318 -200 -373 -57 -106 -73 -137 -168 -310 -59 -107 -526 -975 -605 -1125 -22 -41 -44 -79 -48 -83 -4 -5 -23 17 -41 48 -19 32 -41 68 -49 80 -8 13 -28 45 -44 72 -30 49 -542 864 -647 1028 -83 130 -213 336 -223 354 -5 10 -5 13 0 8 5 -5 50 -72 99 -150 l91 -142 445 -3 445 -2 46 97 c55 115 388 795 395 806 2 4 -432 7 -965 7 l-970 0 -254 -267z m387 107 c3 -5 4 -10 1 -10 -3 0 -8 5 -11 10 -3 6 -4 10 -1 10 3 0 8 -4 11 -10z m25 -40 c6 -11 8 -20 6 -20 -3 0 -10 9 -16 20 -6 11 -8 20 -6 20 3 0 10 -9 16 -20z m92 -147 c91 -144 90 -143 84 -143 -2 0 -35 48 -72 108 -37 59 -74 117 -82 130 -8 12 -12 22 -9 22 3 0 38 -53 79 -117z m143 -227 l17 -31 -20 24 c-11 14 -27 38 -37 55 l-17 31 20 -24 c11 -14 27 -38 37 -55z m1056 -1678 c11 -21 11 -22 -4 -9 -10 7 -17 17 -17 22 0 15 9 10 21 -13z m59 -93 c13 -22 16 -33 8 -25 -8 8 -25 33 -38 55 -13 22 -16 33 -8 25 8 -8 25 -33 38 -55z m162 -257 c158 -250 150 -238 145 -238 -3 0 -66 96 -139 213 -158 249 -150 237 -145 237 3 0 66 -96 139 -212z m168 -268 c6 -11 8 -20 6 -20 -3 0 -10 9 -16 20 -6 11 -8 20 -6 20 3 0 10 -9 16 -20z m226 -298 c-18 -16 -18 -16 -6 6 6 13 14 21 18 18 3 -4 -2 -14 -12 -24z"/>
      </g>
      <g id="layer104" fill="#073030" stroke="none" transform="matrix(0.097654, 0, 0, 0.097858, -10.656904, -7.60465)">
        <path d="M694 3505 c-289 -303 -329 -350 -332 -381 -3 -30 18 -68 159 -292 504 -798 712 -1128 772 -1222 36 -58 87 -139 112 -180 25 -41 83 -134 128 -205 45 -72 149 -237 231 -368 l149 -237 581 0 581 0 54 103 c45 86 161 303 406 762 24 44 243 451 488 905 512 951 777 1447 777 1455 0 3 -264 4 -586 3 l-586 -3 -450 -835 c-247 -459 -476 -886 -509 -947 -33 -62 -70 -132 -83 -155 -12 -24 -40 -74 -61 -113 -67 -124 -88 -156 -95 -148 -8 10 -101 157 -380 603 -235 375 -408 652 -445 710 -49 77 -162 256 -170 270 -5 9 -5 12 1 7 5 -5 50 -72 99 -150 l91 -142 443 0 442 0 15 25 c13 22 282 572 388 793 l42 87 -966 0 -967 0 -329 -345z m461 185 c3 -5 4 -10 1 -10 -3 0 -8 5 -11 10 -3 6 -4 10 -1 10 3 0 8 -4 11 -10z m25 -40 c6 -11 8 -20 6 -20 -3 0 -10 9 -16 20 -6 11 -8 20 -6 20 3 0 10 -9 16 -20z m92 -147 c91 -144 90 -143 84 -143 -2 0 -35 48 -72 108 -37 59 -74 117 -82 130 -8 12 -12 22 -9 22 3 0 38 -53 79 -117z m143 -227 l17 -31 -20 24 c-11 14 -27 38 -37 55 l-17 31 20 -24 c11 -14 27 -38 37 -55z m1056 -1678 c11 -21 11 -22 -4 -9 -10 7 -17 17 -17 22 0 15 9 10 21 -13z m59 -93 c13 -22 16 -33 8 -25 -8 8 -25 33 -38 55 -13 22 -16 33 -8 25 8 -8 25 -33 38 -55z m162 -257 c158 -250 150 -238 145 -238 -3 0 -66 96 -139 213 -158 249 -150 237 -145 237 3 0 66 -96 139 -212z m168 -268 c6 -11 8 -20 6 -20 -3 0 -10 9 -16 20 -6 11 -8 20 -6 20 3 0 10 -9 16 -20z m226 -298 c-18 -16 -18 -16 -6 6 6 13 14 21 18 18 3 -4 -2 -14 -12 -24z"/>
      </g>
      <g id="layer105" fill="#004041" stroke="none" transform="matrix(0.097654, 0, 0, 0.097858, -10.656904, -7.60465)">
        <path d="M974 3798 c-50 -55 -388 -411 -531 -559 -94 -97 -102 -124 -59 -188 13 -20 85 -135 161 -256 76 -121 153 -242 170 -270 33 -50 171 -270 392 -620 66 -104 149 -237 186 -295 36 -58 87 -139 112 -180 25 -41 83 -134 128 -205 45 -72 149 -237 231 -368 l149 -237 581 0 581 0 54 103 c45 86 161 303 406 762 24 44 243 451 488 905 511 948 777 1447 777 1455 0 3 -263 5 -584 5 l-585 0 -39 -72 c-22 -40 -55 -102 -74 -138 -20 -36 -209 -387 -420 -780 -212 -393 -407 -755 -433 -805 -182 -343 -226 -419 -235 -408 -8 9 -100 156 -380 603 -320 512 -429 684 -438 695 -26 33 -514 817 -510 820 6 6 124 -174 283 -430 65 -104 137 -219 160 -255 23 -36 50 -80 61 -98 10 -18 28 -35 39 -38 11 -2 210 -3 443 -2 l423 3 15 25 c19 33 371 753 395 808 22 51 23 56 7 46 -7 -4 -8 -3 -4 5 4 6 11 9 16 6 5 -3 11 -1 15 5 4 7 -309 10 -963 10 l-969 0 -49 -52z m1682 -2483 c110 -176 213 -342 228 -369 51 -88 9 -38 -60 72 -308 489 -374 596 -374 610 0 20 -20 51 206 -313z m449 -605 c-14 -28 -30 -48 -35 -45 -10 6 8 41 38 78 25 28 24 20 -3 -33z"/>
      </g>
      <g id="layer107" fill="#015252" stroke="none" transform="matrix(0.097654, 0, 0, 0.097858, -10.656904, -7.60465)">
        <path d="M980 3803 c-50 -55 -366 -387 -517 -543 -84 -86 -102 -110 -103 -136 0 -27 94 -189 235 -404 12 -19 123 -195 246 -390 122 -195 265 -422 317 -505 79 -124 321 -510 696 -1107 l61 -98 577 0 577 0 37 66 c20 36 34 67 31 71 -3 3 -17 -18 -31 -46 -15 -28 -31 -51 -36 -51 -15 0 -13 8 20 65 33 58 65 93 54 59 -5 -18 -5 -18 10 0 19 23 21 40 4 30 -7 -4 -8 -3 -4 5 4 6 11 9 16 6 4 -3 72 115 150 263 79 147 298 555 488 907 189 352 361 672 382 710 20 39 88 165 150 280 62 116 127 237 145 270 18 33 54 101 80 150 27 50 90 168 142 262 51 95 93 175 93 178 0 3 -263 5 -584 5 l-583 0 -408 -757 c-224 -417 -457 -850 -518 -963 -131 -244 -151 -281 -206 -382 -24 -43 -39 -83 -35 -89 4 -7 3 -9 -3 -6 -6 4 -14 0 -17 -9 -3 -8 -2 -13 3 -10 4 3 15 -2 23 -12 32 -38 398 -631 427 -692 l30 -65 -27 34 c-14 18 -188 291 -386 605 -765 1218 -896 1427 -1001 1591 -199 314 -423 673 -435 697 -16 33 42 -33 90 -103 35 -50 407 -640 449 -711 9 -15 25 -29 36 -32 11 -3 208 -6 437 -6 l417 0 56 110 c30 61 53 110 50 110 -4 0 1 7 9 16 9 8 16 21 16 28 0 7 25 60 55 118 30 58 52 108 48 111 -3 4 -2 7 4 7 6 0 21 23 33 52 12 28 51 110 86 181 36 72 63 136 60 144 -3 7 3 17 12 22 11 7 -303 10 -949 11 l-966 0 -43 -47z m3810 33 c0 -3 -5 -8 -12 -12 -7 -4 -8 -3 -4 4 7 12 16 16 16 8z"/>
      </g>
      <g id="layer108" fill="#345050" stroke="none" transform="matrix(0.097654, 0, 0, 0.097858, -10.656904, -7.60465)">
        <path d="M934 3753 c-92 -101 -240 -257 -451 -473 -102 -105 -123 -131 -123 -156 0 -21 35 -86 119 -220 66 -104 156 -247 201 -319 74 -119 145 -233 519 -825 123 -194 373 -591 391 -620 5 -8 76 -121 156 -250 81 -129 153 -243 162 -252 14 -17 55 -18 586 -18 l572 0 31 53 c18 28 35 61 38 72 4 11 -9 -7 -28 -40 -28 -47 -37 -56 -42 -42 -5 12 11 48 48 110 68 115 103 149 57 57 -43 -86 -22 -65 29 30 43 78 49 96 29 84 -7 -4 -8 -3 -4 5 4 6 11 9 16 6 4 -2 56 86 115 198 59 111 263 490 453 842 189 352 361 672 382 710 20 39 88 165 150 280 62 116 127 237 145 270 18 33 54 101 80 150 27 50 90 168 142 262 51 95 93 175 93 178 0 3 -263 5 -584 5 l-583 0 -269 -497 c-147 -274 -284 -529 -305 -568 -20 -38 -77 -144 -126 -235 -49 -91 -147 -273 -218 -405 -70 -132 -139 -260 -153 -285 -72 -131 -113 -214 -101 -203 10 10 20 0 53 -55 56 -92 113 -182 164 -258 23 -36 42 -66 42 -68 0 -2 42 -71 94 -153 98 -156 121 -201 136 -268 l8 -40 -26 34 c-57 71 -492 773 -486 783 4 6 3 9 -2 6 -7 -4 -308 463 -505 782 -101 165 -324 519 -334 530 -17 21 -501 792 -534 852 -14 26 -31 48 -37 48 -6 0 -51 -44 -100 -97z m3850 72 c-4 -8 -11 -12 -16 -9 -6 4 -5 10 3 15 19 12 19 11 13 -6z m-1739 -3175 c3 -6 -1 -7 -9 -4 -18 7 -21 14 -7 14 6 0 13 -4 16 -10z"/>
        <path d="M1100 3818 c44 -45 166 -230 415 -630 146 -234 147 -236 178 -242 16 -3 206 -6 422 -6 l393 0 20 39 c11 21 18 42 15 45 -4 3 -1 6 5 6 10 0 28 38 24 53 -1 4 3 7 10 7 6 0 9 3 5 6 -3 4 1 13 9 21 8 8 12 19 9 24 -4 5 -1 9 6 9 7 0 10 3 6 6 -3 4 1 13 9 21 8 9 13 20 11 27 -2 6 6 26 19 45 13 19 21 38 18 43 -3 4 -1 8 5 8 10 0 27 38 23 53 -1 4 2 7 7 7 9 0 37 60 33 73 -1 4 2 7 7 7 7 0 34 52 36 70 1 3 20 42 43 88 24 46 40 88 36 94 -4 6 -3 8 3 5 13 -8 36 40 27 56 -4 7 -4 9 1 5 4 -4 14 5 22 19 9 18 11 29 4 31 -6 2 -11 8 -11 14 0 6 7 7 16 4 8 -3 13 -2 9 3 -3 5 1 12 7 14 7 3 -412 6 -931 6 l-943 1 32 -32z"/>
      </g>
      <g id="layer109" fill="#017575" stroke="none" transform="matrix(0.097654, 0, 0, 0.097858, -10.656904, -7.60465)">
        <path d="M995 3815 c-39 -43 -331 -350 -502 -526 -107 -109 -133 -141 -133 -164 0 -29 7 -40 719 -1170 404 -643 395 -627 616 -980 103 -165 197 -312 207 -327 l19 -28 573 0 572 0 18 33 c12 22 12 26 2 13 -14 -17 -16 -18 -22 -2 -4 10 14 50 49 109 67 113 104 150 58 59 -17 -34 -29 -62 -26 -62 9 0 86 161 80 170 -3 5 0 12 6 16 8 4 9 3 5 -4 -4 -7 -5 -12 -2 -12 12 0 36 61 30 73 -4 7 -4 9 1 5 11 -10 20 3 110 177 43 83 81 155 85 160 7 10 297 548 695 1290 190 355 314 585 513 955 90 166 109 207 99 219 -10 12 -9 14 6 8 10 -4 16 -3 12 2 -3 5 1 12 7 14 7 3 -250 6 -572 6 l-586 1 -254 -472 c-140 -260 -280 -520 -311 -578 -94 -178 -370 -692 -399 -745 -15 -27 -47 -86 -70 -130 -23 -44 -50 -93 -60 -110 -51 -90 -91 -168 -79 -158 10 10 20 0 53 -55 56 -92 113 -182 164 -258 23 -36 42 -66 42 -68 0 -2 42 -71 94 -153 98 -156 121 -201 136 -268 l8 -40 -26 34 c-57 71 -492 773 -486 783 4 6 3 9 -2 5 -5 -3 -38 41 -73 96 -36 56 -221 350 -411 652 -191 303 -462 734 -604 959 -142 226 -270 431 -285 458 -14 26 -30 48 -36 48 -5 -1 -23 -16 -40 -35z m2050 -3165 c3 -6 -1 -7 -9 -4 -18 7 -21 14 -7 14 6 0 13 -4 16 -10z"/>
        <path d="M1100 3818 c44 -45 166 -230 415 -630 146 -234 147 -236 178 -242 16 -3 207 -6 423 -6 l394 0 13 33 c8 17 13 34 13 37 -1 3 9 19 21 36 12 17 20 34 16 38 -3 3 0 6 7 6 7 0 11 3 7 6 -3 4 1 13 9 21 8 8 12 19 9 24 -4 5 -1 9 5 9 6 0 9 4 6 9 -4 5 -1 11 5 13 7 2 13 13 14 24 1 10 9 34 18 51 10 18 18 36 18 40 1 5 10 20 21 36 11 15 16 27 11 27 -4 0 -3 4 2 8 15 10 35 49 35 67 0 8 4 15 10 15 5 0 13 12 16 28 4 15 28 69 55 121 27 52 46 99 42 105 -3 6 -3 8 2 4 11 -10 37 41 28 55 -3 6 -1 7 5 3 8 -5 12 0 12 13 0 11 5 23 11 27 8 4 7 9 -2 15 -11 7 -10 11 6 23 18 14 -80 15 -919 16 l-938 0 32 -32z"/>
      </g>
      <g id="layer111" fill="#008081" stroke="none" transform="matrix(0.097654, 0, 0, 0.097858, -10.656904, -7.60465)">
        <path d="M1013 3836 c-9 -16 -285 -307 -515 -543 -109 -112 -138 -148 -138 -169 0 -26 59 -123 583 -954 99 -157 213 -337 252 -400 40 -63 122 -194 183 -290 61 -96 183 -292 273 -435 90 -143 187 -297 216 -343 l53 -82 565 0 c311 0 565 3 565 6 0 3 -10 15 -22 25 -22 19 -22 20 -3 17 16 -3 37 26 113 157 111 189 223 389 282 500 23 44 56 106 73 138 18 35 35 56 43 53 7 -3 15 1 18 9 3 10 0 12 -11 8 -11 -4 0 24 32 83 147 275 203 379 255 474 32 58 97 179 145 270 48 91 100 188 115 215 15 28 74 136 130 240 56 105 106 194 111 199 16 17 10 -7 -9 -39 -21 -34 -33 -65 -27 -65 3 0 19 27 35 61 17 34 26 58 21 54 -6 -3 -11 -1 -11 5 0 15 62 122 67 116 3 -3 -7 -26 -22 -51 -15 -26 -25 -48 -23 -50 2 -2 19 23 37 57 19 34 29 58 23 54 -17 -10 -15 15 2 40 8 11 37 64 65 117 59 112 122 232 160 300 14 26 31 45 37 43 6 -2 17 8 23 22 10 24 10 25 -2 10 -31 -39 -25 -14 15 63 24 46 50 85 62 89 12 5 -239 9 -564 9 l-586 1 -219 -407 c-220 -409 -240 -447 -300 -558 -18 -33 -51 -94 -73 -135 -61 -116 -361 -677 -442 -825 -15 -27 -46 -84 -68 -126 -45 -82 -46 -98 -10 -157 34 -55 230 -366 295 -467 135 -211 163 -269 170 -359 l6 -61 -35 45 c-41 53 -298 462 -574 911 -32 53 -63 94 -68 91 -5 -3 -6 -1 -3 5 8 12 -27 65 -37 56 -4 -5 -6 -3 -5 2 5 19 -12 55 -23 49 -7 -4 -8 -2 -4 4 4 6 -3 21 -16 34 -12 12 -23 27 -23 33 0 16 -46 85 -56 85 -6 0 -8 4 -5 8 7 12 -29 64 -38 55 -4 -5 -7 -3 -6 2 5 22 -1 36 -12 29 -7 -4 -8 -3 -4 4 8 13 -22 64 -34 57 -4 -3 -11 2 -14 11 -4 9 -2 13 5 8 7 -4 7 0 -1 15 -6 12 -16 19 -21 15 -6 -3 -9 0 -8 7 3 20 -12 50 -21 44 -5 -3 -12 0 -16 6 -4 8 -3 9 4 5 16 -10 15 0 -4 29 -9 14 -20 23 -24 20 -5 -3 -12 0 -16 6 -4 8 -3 9 4 5 7 -4 12 -4 12 1 -1 12 -23 40 -35 42 -5 2 -12 5 -15 8 -3 4 1 3 8 -1 6 -4 12 -4 12 1 -1 14 -27 43 -39 43 -7 0 -9 4 -6 10 8 13 -14 52 -25 45 -5 -3 -12 0 -16 6 -4 8 -3 9 4 5 7 -4 12 -4 12 1 -1 12 -30 48 -36 45 -3 -2 -9 0 -12 4 -4 4 -1 4 6 0 6 -4 12 -4 12 -1 0 10 -34 51 -43 52 -5 1 -12 5 -15 9 -4 4 -1 4 6 0 6 -4 12 -3 12 1 0 11 -51 86 -64 95 -6 4 -8 8 -3 8 4 0 0 11 -9 25 -9 14 -21 22 -27 18 -6 -4 -7 -1 -3 6 5 8 -17 50 -57 109 -36 53 -181 282 -322 507 -141 226 -260 411 -265 413 -4 2 -12 -4 -17 -12z"/>
        <path d="M1126 3838 c4 -7 22 -31 39 -53 30 -37 64 -88 157 -235 167 -263 306 -486 323 -514 11 -19 29 -48 41 -63 l21 -28 398 -3 c418 -4 423 -3 410 39 -5 15 377 821 405 854 11 13 -87 15 -894 15 -723 0 -906 -3 -900 -12z"/>
        <path d="M4745 3760 c-14 -27 -23 -50 -20 -50 2 0 16 23 30 50 14 28 23 50 20 50 -2 0 -16 -22 -30 -50z"/>
        <path d="M4635 3559 c-4 -6 -5 -12 -2 -15 2 -3 7 2 10 11 7 17 1 20 -8 4z"/>
        <path d="M4594 3478 c-4 -7 -3 -8 4 -4 12 7 16 16 8 16 -3 0 -8 -5 -12 -12z"/>
        <path d="M4565 3429 c-4 -6 -5 -12 -2 -15 2 -3 7 2 10 11 7 17 1 20 -8 4z"/>
        <path d="M4530 3360 c-11 -22 -18 -40 -15 -40 2 0 14 18 25 40 11 22 18 40 15 40 -2 0 -14 -18 -25 -40z"/>
        <path d="M4464 3239 c-14 -28 -24 -53 -22 -55 2 -2 16 21 31 51 15 30 25 55 22 55 -3 0 -16 -23 -31 -51z"/>
        <path d="M4258 2858 c-28 -54 -39 -78 -33 -78 3 0 18 27 35 60 34 68 32 83 -2 18z"/>
        <path d="M4207 2763 c-3 -5 -31 -57 -62 -118 -32 -60 -64 -119 -72 -130 -7 -11 -13 -24 -13 -30 0 -14 24 28 99 168 34 64 60 117 57 117 -3 0 -7 -3 -9 -7z"/>
        <path d="M4043 2458 c-20 -32 -42 -82 -39 -86 3 -2 16 19 30 47 24 46 29 70 9 39z"/>
        <path d="M3971 2327 c-13 -21 -12 -21 5 -5 10 10 16 20 13 22 -3 3 -11 -5 -18 -17z"/>
        <path d="M3946 2275 c-9 -14 -13 -25 -8 -25 5 0 14 11 20 25 6 14 10 25 8 25 -2 0 -11 -11 -20 -25z"/>
        <path d="M3915 2220 c-10 -11 -16 -22 -13 -25 3 -3 13 6 22 20 20 30 16 32 -9 5z"/>
        <path d="M3880 2155 c-6 -8 -10 -19 -8 -26 2 -6 9 0 16 15 13 29 10 33 -8 11z"/>
        <path d="M3846 2091 c-10 -11 -16 -25 -15 -30 2 -6 12 3 21 19 20 35 18 38 -6 11z"/>
        <path d="M3813 2028 c-12 -16 -24 -48 -18 -48 2 0 11 14 20 30 16 31 15 40 -2 18z"/>
        <path d="M3769 1953 c-13 -16 -12 -17 4 -4 16 13 21 21 13 21 -2 0 -10 -8 -17 -17z"/>
        <path d="M3752 1917 c-13 -15 -34 -67 -27 -67 3 0 14 18 25 40 21 40 21 51 2 27z"/>
        <path d="M3696 1824 c-5 -14 -4 -15 9 -4 17 14 19 20 6 20 -5 0 -12 -7 -15 -16z"/>
        <path d="M3670 1764 c-6 -16 -19 -37 -27 -46 -9 -10 -12 -18 -6 -18 12 0 57 79 49 87 -3 3 -10 -7 -16 -23z"/>
        <path d="M2465 1680 c-9 -16 -13 -30 -11 -30 3 0 12 14 21 30 9 17 13 30 11 30 -3 0 -12 -13 -21 -30z"/>
        <path d="M3613 1658 c-20 -32 -42 -82 -39 -86 3 -2 16 19 30 47 24 46 29 70 9 39z"/>
        <path d="M3515 1470 c-9 -16 -13 -30 -11 -30 3 0 12 14 21 30 9 17 13 30 11 30 -3 0 -12 -13 -21 -30z"/>
        <path d="M3480 1409 c-7 -11 -10 -23 -7 -25 2 -2 9 7 15 21 14 30 7 33 -8 4z"/>
        <path d="M3395 1250 c-14 -27 -23 -50 -20 -50 2 0 16 23 30 50 14 28 23 50 20 50 -2 0 -16 -22 -30 -50z"/>
        <path d="M3315 1100 c-14 -27 -23 -50 -20 -50 2 0 16 23 30 50 14 28 23 50 20 50 -2 0 -16 -22 -30 -50z"/>
        <path d="M3245 970 c-9 -16 -13 -30 -11 -30 3 0 12 14 21 30 9 17 13 30 11 30 -3 0 -12 -13 -21 -30z"/>
        <path d="M3075 654 c-9 -14 -15 -27 -13 -30 2 -2 12 10 22 26 21 37 15 40 -9 4z"/>
      </g>
      <g id="layer112" fill="#337272" stroke="none" transform="matrix(0.097654, 0, 0, 0.097858, -10.656904, -7.60465)">
        <path d="M999 3817 c-15 -17 -164 -176 -333 -351 -231 -242 -306 -326 -306 -344 0 -23 105 -203 122 -210 4 -2 8 -8 8 -13 0 -5 64 -111 143 -237 201 -319 452 -718 575 -912 57 -91 142 -226 189 -300 46 -74 118 -187 159 -250 40 -63 78 -124 84 -135 5 -11 69 -114 142 -230 l133 -210 570 -2 c540 -2 569 -2 550 15 -11 9 -68 94 -126 187 -59 94 -151 240 -204 325 -54 85 -169 268 -255 405 -86 138 -224 356 -305 485 -82 129 -235 372 -340 540 -106 168 -236 375 -290 460 -54 85 -176 281 -273 435 -96 154 -182 291 -191 305 -15 22 -15 24 2 17 16 -6 16 -4 2 23 -9 17 -19 30 -23 30 -4 0 -19 -15 -33 -33z"/>
        <path d="M3415 3443 c-220 -409 -240 -447 -300 -558 -18 -33 -51 -94 -73 -135 -21 -41 -105 -198 -186 -348 -80 -150 -146 -275 -146 -278 0 -2 -10 -21 -23 -42 -13 -20 -45 -77 -71 -127 -27 -49 -67 -123 -89 -164 -22 -41 -36 -71 -30 -68 7 4 14 -2 18 -13 4 -12 24 -47 45 -78 20 -31 66 -102 100 -157 34 -55 73 -116 85 -135 253 -396 273 -437 273 -574 0 -43 5 -83 11 -89 6 -6 12 -9 14 -6 26 34 220 380 385 686 279 517 1044 1941 1195 2223 66 124 129 235 140 248 l20 22 -574 0 -575 0 -219 -407z"/>
        <path d="M4670 3620 c-6 -11 -8 -20 -6 -20 3 0 10 9 16 20 6 11 8 20 6 20 -3 0 -10 -9 -16 -20z"/>
        <path d="M2760 3480 c0 -7 3 -10 7 -7 3 4 3 10 0 14 -4 3 -7 0 -7 -7z"/>
        <path d="M4514 3328 c-4 -7 -3 -8 4 -4 12 7 16 16 8 16 -3 0 -8 -5 -12 -12z"/>
        <path d="M4475 3259 c-4 -6 -5 -12 -2 -15 2 -3 7 2 10 11 7 17 1 20 -8 4z"/>
        <path d="M4445 3199 c-4 -6 -5 -12 -2 -15 2 -3 7 2 10 11 7 17 1 20 -8 4z"/>
        <path d="M4305 2940 c-9 -16 -13 -30 -11 -30 3 0 12 14 21 30 9 17 13 30 11 30 -3 0 -12 -13 -21 -30z"/>
        <path d="M1639 2885 c5 -11 17 -29 26 -40 l16 -20 -10 20 c-5 11 -17 29 -26 40 l-16 20 10 -20z"/>
        <path d="M4235 2810 c-9 -16 -13 -30 -11 -30 3 0 12 14 21 30 9 17 13 30 11 30 -3 0 -12 -13 -21 -30z"/>
        <path d="M1690 2801 c5 -11 15 -23 21 -27 6 -3 3 5 -6 20 -20 30 -30 35 -15 7z"/>
        <path d="M1740 2721 c5 -11 15 -23 21 -27 6 -3 3 5 -6 20 -20 30 -30 35 -15 7z"/>
        <path d="M4165 2680 c-9 -16 -13 -30 -11 -30 3 0 12 14 21 30 9 17 13 30 11 30 -3 0 -12 -13 -21 -30z"/>
        <path d="M1811 2606 c12 -20 25 -39 30 -42 5 -3 0 11 -12 30 -12 20 -25 39 -30 42 -5 3 0 -11 12 -30z"/>
        <path d="M1860 2530 c6 -11 13 -20 16 -20 2 0 0 9 -6 20 -6 11 -13 20 -16 20 -2 0 0 -9 6 -20z"/>
        <path d="M4084 2528 c-4 -7 -3 -8 4 -4 7 4 12 9 12 12 0 8 -9 4 -16 -8z"/>
        <path d="M1910 2450 c6 -11 13 -20 16 -20 2 0 0 9 -6 20 -6 11 -13 20 -16 20 -2 0 0 -9 6 -20z"/>
        <path d="M4040 2449 c-7 -11 -10 -23 -7 -25 2 -2 9 7 15 21 14 30 7 33 -8 4z"/>
        <path d="M4010 2390 c-6 -11 -8 -20 -6 -20 3 0 10 9 16 20 6 11 8 20 6 20 -3 0 -10 -9 -16 -20z"/>
        <path d="M1980 2341 c0 -6 4 -13 10 -16 6 -3 7 1 4 9 -7 18 -14 21 -14 7z"/>
        <path d="M2005 2300 c3 -5 8 -10 11 -10 3 0 2 5 -1 10 -3 6 -8 10 -11 10 -3 0 -2 -4 1 -10z"/>
        <path d="M2030 2260 c6 -11 13 -20 16 -20 2 0 0 9 -6 20 -6 11 -13 20 -16 20 -2 0 0 -9 6 -20z"/>
        <path d="M3945 2269 c-4 -6 -5 -12 -2 -15 2 -3 7 2 10 11 7 17 1 20 -8 4z"/>
        <path d="M3924 2228 c-4 -7 -3 -8 4 -4 12 7 16 16 8 16 -3 0 -8 -5 -12 -12z"/>
        <path d="M2055 2220 c3 -5 8 -10 11 -10 3 0 2 5 -1 10 -3 6 -8 10 -11 10 -3 0 -2 -4 1 -10z"/>
        <path d="M2175 2030 c3 -5 8 -10 11 -10 3 0 2 5 -1 10 -3 6 -8 10 -11 10 -3 0 -2 -4 1 -10z"/>
        <path d="M2345 1760 c3 -5 8 -10 11 -10 3 0 2 5 -1 10 -3 6 -8 10 -11 10 -3 0 -2 -4 1 -10z"/>
        <path d="M3395 1249 c-4 -6 -5 -12 -2 -15 2 -3 7 2 10 11 7 17 1 20 -8 4z"/>
        <path d="M3325 1119 c-4 -6 -5 -12 -2 -15 2 -3 7 2 10 11 7 17 1 20 -8 4z"/>
        <path d="M3294 1058 c-4 -7 -3 -8 4 -4 12 7 16 16 8 16 -3 0 -8 -5 -12 -12z"/>
        <path d="M3234 948 c-4 -7 -3 -8 4 -4 7 4 12 9 12 12 0 8 -9 4 -16 -8z"/>
        <path d="M3160 809 c-7 -11 -10 -23 -7 -25 2 -2 9 7 15 21 14 30 7 33 -8 4z"/>
        <path d="M3085 669 c-4 -6 -5 -12 -2 -15 2 -3 7 2 10 11 7 17 1 20 -8 4z"/>
      </g>
      <g id="layer113" fill="#456e6e" stroke="none" transform="matrix(0.097654, 0, 0, 0.097858, -10.656904, -7.60465)">
        <path d="M978 3793 c-29 -31 -180 -189 -335 -351 -302 -315 -305 -320 -265 -373 10 -13 35 -53 57 -89 21 -36 41 -67 45 -70 3 -3 21 -30 39 -60 18 -30 45 -75 61 -100 16 -25 38 -61 50 -80 11 -19 48 -78 81 -130 34 -52 69 -107 78 -122 15 -25 104 -167 161 -258 156 -249 503 -800 535 -850 23 -36 67 -103 97 -150 30 -47 57 -92 61 -100 4 -8 67 -109 141 -225 l134 -210 569 -2 c538 -2 567 -2 548 15 -11 9 -68 94 -126 187 -59 94 -151 240 -204 325 -54 85 -169 268 -255 405 -86 138 -224 356 -305 485 -82 129 -235 372 -340 540 -106 168 -236 375 -290 460 -54 85 -176 281 -273 435 -96 154 -182 291 -191 305 -15 22 -15 24 2 17 16 -6 16 -4 2 23 -9 17 -17 30 -19 30 -3 0 -28 -25 -58 -57z"/>
        <path d="M3615 3813 c-17 -34 -163 -305 -235 -438 -44 -81 -105 -195 -142 -265 -110 -205 -140 -262 -231 -430 -55 -102 -116 -214 -135 -250 -19 -36 -49 -92 -67 -125 -18 -33 -51 -94 -73 -135 -77 -145 -169 -316 -207 -384 -21 -38 -34 -66 -28 -63 7 4 14 -2 18 -13 4 -12 24 -47 45 -78 20 -31 66 -102 100 -157 34 -55 73 -116 85 -135 253 -396 273 -437 273 -574 0 -43 5 -83 11 -89 6 -6 12 -9 14 -6 26 34 220 380 385 686 279 517 1044 1941 1195 2223 66 124 129 235 140 248 l20 22 -574 0 -574 0 -20 -37z"/>
        <path d="M4724 3718 c-4 -7 -3 -8 4 -4 7 4 12 9 12 12 0 8 -9 4 -16 -8z"/>
        <path d="M4666 3613 c-6 -14 -5 -15 5 -6 7 7 10 15 7 18 -3 3 -9 -2 -12 -12z"/>
        <path d="M4474 3258 c-4 -7 -3 -8 4 -4 7 4 12 9 12 12 0 8 -9 4 -16 -8z"/>
        <path d="M4310 2949 c-7 -11 -10 -23 -7 -25 2 -2 9 7 15 21 14 30 7 33 -8 4z"/>
        <path d="M4240 2819 c-7 -11 -10 -23 -7 -25 2 -2 9 7 15 21 14 30 7 33 -8 4z"/>
        <path d="M4170 2689 c-7 -11 -10 -23 -7 -25 2 -2 9 7 15 21 14 30 7 33 -8 4z"/>
        <path d="M1810 2610 c0 -7 3 -10 7 -7 3 4 3 10 0 14 -4 3 -7 0 -7 -7z"/>
        <path d="M1956 2377 c3 -10 9 -15 12 -12 3 3 0 11 -7 18 -10 9 -11 8 -5 -6z"/>
        <path d="M1980 2340 c0 -7 3 -10 7 -7 3 4 3 10 0 14 -4 3 -7 0 -7 -7z"/>
        <path d="M2026 2267 c3 -10 9 -15 12 -12 3 3 0 11 -7 18 -10 9 -11 8 -5 -6z"/>
        <path d="M3944 2268 c-4 -7 -3 -8 4 -4 7 4 12 9 12 12 0 8 -9 4 -16 -8z"/>
        <path d="M2075 2190 c3 -5 8 -10 11 -10 3 0 2 5 -1 10 -3 6 -8 10 -11 10 -3 0 -2 -4 1 -10z"/>
        <path d="M2126 2107 c3 -10 9 -15 12 -12 3 3 0 11 -7 18 -10 9 -11 8 -5 -6z"/>
        <path d="M2200 1991 c0 -6 4 -13 10 -16 6 -3 7 1 4 9 -7 18 -14 21 -14 7z"/>
        <path d="M2245 1920 c3 -5 8 -10 11 -10 3 0 2 5 -1 10 -3 6 -8 10 -11 10 -3 0 -2 -4 1 -10z"/>
        <path d="M2300 1833 c0 -6 8 -17 18 -24 16 -13 16 -13 2 6 -8 11 -16 22 -17 24 -2 2 -3 0 -3 -6z"/>
        <path d="M2370 1723 c0 -6 8 -17 18 -24 16 -13 16 -13 2 6 -8 11 -16 22 -17 24 -2 2 -3 0 -3 -6z"/>
        <path d="M2470 1690 c-6 -11 -8 -20 -6 -20 3 0 10 9 16 20 6 11 8 20 6 20 -3 0 -10 -9 -16 -20z"/>
        <path d="M3504 1448 c-4 -7 -3 -8 4 -4 7 4 12 9 12 12 0 8 -9 4 -16 -8z"/>
        <path d="M3390 1240 c0 -7 3 -10 7 -7 3 4 3 10 0 14 -4 3 -7 0 -7 -7z"/>
        <path d="M3320 1110 c0 -7 3 -10 7 -7 3 4 3 10 0 14 -4 3 -7 0 -7 -7z"/>
      </g>
      <g id="layer114" fill="#019191" stroke="none" transform="matrix(0.097654, 0, 0, 0.097858, -10.656904, -7.60465)">
        <path d="M699 3501 c-224 -235 -335 -358 -337 -374 -3 -24 7 -42 103 -192 18 -27 101 -160 185 -295 85 -135 318 -506 519 -825 201 -319 444 -706 541 -860 97 -154 184 -292 194 -307 l18 -28 567 0 c536 1 565 2 546 18 -11 9 -68 94 -126 187 -59 94 -151 240 -204 325 -54 85 -169 268 -255 405 -86 138 -224 356 -305 485 -82 129 -235 372 -340 540 -106 168 -236 375 -290 460 -54 85 -176 281 -273 435 -96 154 -182 291 -191 305 -15 22 -15 24 2 17 16 -6 16 -4 2 23 -9 17 -17 30 -18 30 -2 0 -154 -157 -338 -349z" style="fill: rgb(0, 184, 184);"/>
        <path d="M1168 3830 c27 -29 162 -232 162 -244 0 -4 8 -19 19 -34 42 -61 101 -152 101 -156 0 -2 26 -44 58 -93 68 -106 73 -114 112 -178 17 -27 48 -77 68 -110 l37 -60 85 -7 c47 -3 224 -6 394 -7 l308 -1 -5 27 c-4 20 41 122 194 436 109 226 206 418 215 429 17 17 -9 18 -875 18 l-892 0 19 -20z" style="fill: rgb(0, 184, 184);"/>
        <path d="M3443 3492 c-105 -196 -302 -564 -438 -817 -136 -253 -265 -494 -287 -535 -84 -156 -171 -317 -201 -369 -17 -30 -25 -51 -19 -47 6 3 13 -3 17 -14 4 -12 24 -47 45 -78 20 -31 66 -102 100 -157 34 -55 73 -116 85 -135 253 -396 273 -437 273 -574 0 -43 5 -83 11 -89 6 -6 12 -9 14 -6 26 34 220 380 385 686 279 517 1044 1941 1195 2223 66 124 129 235 140 248 l20 22 -574 0 -574 0 -192 -358z" style="fill: rgb(0, 184, 184);"/>
        <path d="M1080 3760 c6 -11 13 -20 16 -20 2 0 0 9 -6 20 -6 11 -13 20 -16 20 -2 0 0 -9 6 -20z" style="fill: rgb(0, 184, 184);"/>
        <path d="M1110 3711 c5 -11 15 -23 21 -27 6 -3 3 5 -6 20 -20 30 -30 35 -15 7z" style="fill: rgb(0, 184, 184);"/>
        <path d="M1155 3640 c3 -5 8 -10 11 -10 3 0 2 5 -1 10 -3 6 -8 10 -11 10 -3 0 -2 -4 1 -10z" style="fill: rgb(0, 184, 184);"/>
        <path d="M1180 3601 c5 -11 15 -23 21 -27 6 -3 3 5 -6 20 -20 30 -30 35 -15 7z" style="fill: rgb(0, 184, 184);"/>
        <path d="M1225 3530 c3 -5 8 -10 11 -10 3 0 2 5 -1 10 -3 6 -8 10 -11 10 -3 0 -2 -4 1 -10z" style="fill: rgb(0, 184, 184);"/>
        <path d="M1255 3480 c3 -5 8 -10 11 -10 3 0 2 5 -1 10 -3 6 -8 10 -11 10 -3 0 -2 -4 1 -10z" style="fill: rgb(0, 184, 184);"/>
        <path d="M1275 3450 c3 -5 8 -10 11 -10 3 0 2 5 -1 10 -3 6 -8 10 -11 10 -3 0 -2 -4 1 -10z" style="fill: rgb(0, 184, 184);"/>
        <path d="M1545 3020 c3 -5 8 -10 11 -10 3 0 2 5 -1 10 -3 6 -8 10 -11 10 -3 0 -2 -4 1 -10z" style="fill: rgb(0, 184, 184);"/>
        <path d="M1575 2970 c3 -5 8 -10 11 -10 3 0 2 5 -1 10 -3 6 -8 10 -11 10 -3 0 -2 -4 1 -10z" style="fill: rgb(0, 184, 184);"/>
        <path d="M2205 1980 c3 -5 8 -10 11 -10 3 0 2 5 -1 10 -3 6 -8 10 -11 10 -3 0 -2 -4 1 -10z" style="fill: rgb(0, 184, 184);"/>
        <path d="M2275 1870 c3 -5 8 -10 11 -10 3 0 2 5 -1 10 -3 6 -8 10 -11 10 -3 0 -2 -4 1 -10z" style="fill: rgb(0, 184, 184);"/>
        <path d="M2475 1699 c-4 -6 -5 -12 -2 -15 2 -3 7 2 10 11 7 17 1 20 -8 4z" style="fill: rgb(0, 184, 184);"/>
        <path d="M2440 1600 c0 -7 3 -10 7 -7 3 4 3 10 0 14 -4 3 -7 0 -7 -7z" style="fill: rgb(0, 184, 184);"/>
        <path d="M2465 1560 c3 -5 8 -10 11 -10 3 0 2 5 -1 10 -3 6 -8 10 -11 10 -3 0 -2 -4 1 -10z" style="fill: rgb(0, 184, 184);"/>
        <path d="M2565 1400 c3 -5 8 -10 11 -10 3 0 2 5 -1 10 -3 6 -8 10 -11 10 -3 0 -2 -4 1 -10z" style="fill: rgb(0, 184, 184);"/>
        <path d="M2665 1240 c3 -5 8 -10 11 -10 3 0 2 5 -1 10 -3 6 -8 10 -11 10 -3 0 -2 -4 1 -10z" style="fill: rgb(0, 184, 184);"/>
        <path d="M2695 1190 c3 -5 8 -10 11 -10 3 0 2 5 -1 10 -3 6 -8 10 -11 10 -3 0 -2 -4 1 -10z" style="fill: rgb(0, 184, 184);"/>
        <path d="M2745 1110 c3 -5 8 -10 11 -10 3 0 2 5 -1 10 -3 6 -8 10 -11 10 -3 0 -2 -4 1 -10z" style="fill: rgb(0, 184, 184);"/>
        <path d="M2765 1080 c3 -5 8 -10 11 -10 3 0 2 5 -1 10 -3 6 -8 10 -11 10 -3 0 -2 -4 1 -10z" style="fill: rgb(0, 184, 184);"/>
        <path d="M2795 1030 c3 -5 8 -10 11 -10 3 0 2 5 -1 10 -3 6 -8 10 -11 10 -3 0 -2 -4 1 -10z" style="fill: rgb(0, 184, 184);"/>
        <path d="M2835 970 c3 -5 8 -10 11 -10 3 0 2 5 -1 10 -3 6 -8 10 -11 10 -3 0 -2 -4 1 -10z" style="fill: rgb(0, 184, 184);"/>
        <path d="M2865 920 c3 -5 8 -10 11 -10 3 0 2 5 -1 10 -3 6 -8 10 -11 10 -3 0 -2 -4 1 -10z" style="fill: rgb(0, 184, 184);"/>
        <path d="M2935 810 c3 -5 8 -10 11 -10 3 0 2 5 -1 10 -3 6 -8 10 -11 10 -3 0 -2 -4 1 -10z" style="fill: rgb(0, 184, 184);"/>
      </g>
      <g id="layer115" fill="#2e8d8d" stroke="none" transform="matrix(0.097654, 0, 0, 0.097858, -10.656904, -7.60465)">
        <path d="M933 3742 c-56 -59 -207 -217 -337 -352 -166 -173 -236 -252 -236 -268 0 -12 21 -55 47 -95 25 -40 59 -92 74 -117 16 -25 33 -50 39 -57 5 -7 10 -15 10 -18 0 -3 21 -38 48 -79 26 -41 70 -111 97 -156 28 -45 55 -87 60 -94 6 -6 15 -21 22 -31 6 -11 33 -56 60 -99 26 -43 53 -87 59 -97 6 -11 18 -27 27 -37 10 -10 17 -22 17 -27 0 -4 18 -34 40 -66 22 -32 40 -61 40 -64 0 -3 8 -18 19 -33 22 -33 87 -134 116 -182 38 -61 70 -113 111 -175 21 -33 43 -69 49 -80 19 -34 238 -380 244 -385 3 -3 15 -21 25 -40 11 -19 40 -67 65 -105 25 -39 52 -83 60 -98 8 -15 18 -27 23 -27 4 0 8 -4 8 -10 0 -5 26 -51 58 -101 31 -50 65 -105 75 -122 11 -18 30 -47 43 -64 l25 -33 560 0 559 0 -28 28 c-16 15 -97 135 -179 267 -207 331 -429 685 -528 840 -245 388 -1253 1993 -1263 2010 -6 12 -7 27 -2 36 5 8 5 20 1 27 -4 8 -42 -25 -108 -96z"/>
        <path d="M3619 3818 c-19 -39 -84 -161 -109 -203 -10 -16 -40 -73 -67 -125 -28 -52 -80 -149 -116 -215 -69 -128 -525 -976 -692 -1290 -21 -38 -49 -90 -63 -114 -14 -25 -20 -41 -13 -37 10 7 11 4 3 -11 -8 -15 -1 -33 38 -93 27 -40 47 -77 44 -82 -3 -4 2 -8 10 -8 9 0 13 -6 10 -14 -3 -7 2 -16 11 -20 9 -3 13 -10 10 -16 -3 -5 -2 -10 3 -10 5 0 17 -15 25 -32 9 -18 24 -42 34 -53 10 -11 27 -39 37 -62 11 -24 22 -43 26 -43 3 0 14 -16 23 -35 9 -19 21 -35 27 -35 5 0 10 -6 10 -14 0 -8 6 -21 14 -28 7 -8 17 -24 20 -36 4 -12 12 -22 17 -22 5 0 9 -6 9 -14 0 -8 6 -21 13 -28 7 -7 16 -20 20 -28 4 -8 25 -42 47 -75 51 -79 80 -139 94 -200 l12 -49 31 44 c38 57 137 234 338 610 177 331 402 750 760 1415 133 248 297 554 365 680 67 127 132 240 143 253 l20 22 -569 0 -570 0 -15 -32z"/>
        <path d="M1605 2930 c3 -5 8 -10 11 -10 3 0 2 5 -1 10 -3 6 -8 10 -11 10 -3 0 -2 -4 1 -10z"/>
        <path d="M1915 2440 c3 -5 8 -10 11 -10 3 0 2 5 -1 10 -3 6 -8 10 -11 10 -3 0 -2 -4 1 -10z"/>
        <path d="M2470 1690 c0 -7 3 -10 7 -7 3 4 3 10 0 14 -4 3 -7 0 -7 -7z"/>
      </g>
      <g id="layer116" fill="#458686" stroke="none" transform="matrix(0.097654, 0, 0, 0.097858, -10.656904, -7.60465)">
        <path d="M933 3742 c-56 -59 -207 -217 -337 -352 -130 -135 -236 -253 -236 -263 0 -21 10 -43 55 -112 17 -27 46 -72 63 -100 17 -27 36 -55 41 -61 5 -6 24 -36 41 -65 17 -30 55 -91 83 -135 147 -231 237 -377 237 -384 0 -4 7 -13 15 -20 8 -7 21 -24 28 -39 8 -14 40 -66 71 -116 88 -140 158 -252 190 -303 16 -26 50 -79 75 -119 25 -39 62 -97 81 -129 19 -31 62 -99 95 -150 33 -51 68 -106 77 -121 10 -15 23 -37 30 -47 39 -59 135 -215 147 -238 8 -16 18 -28 23 -28 4 0 8 -4 8 -10 0 -5 29 -55 65 -110 36 -55 65 -103 65 -105 0 -3 16 -27 36 -55 l36 -50 559 0 559 0 -28 28 c-16 15 -97 135 -179 267 -207 331 -429 685 -528 840 -245 388 -1253 1993 -1263 2010 -6 12 -7 27 -2 36 5 8 5 20 1 27 -4 8 -42 -25 -108 -96z"/>
        <path d="M3619 3818 c-8 -18 -33 -67 -56 -108 -22 -41 -109 -203 -193 -360 -138 -258 -227 -424 -312 -580 -17 -30 -57 -106 -91 -170 -33 -63 -71 -132 -84 -152 -12 -21 -23 -40 -23 -43 0 -3 -29 -59 -64 -123 -101 -185 -126 -232 -169 -312 -22 -41 -49 -90 -60 -109 -12 -19 -15 -31 -8 -27 10 7 11 4 3 -11 -8 -15 -1 -33 38 -93 27 -40 47 -77 44 -82 -3 -4 2 -8 10 -8 9 0 13 -6 10 -14 -3 -7 2 -16 11 -20 9 -3 13 -10 10 -16 -3 -5 -2 -10 3 -10 5 0 17 -15 25 -32 9 -18 24 -42 34 -53 10 -11 27 -39 37 -62 11 -24 22 -43 26 -43 3 0 14 -16 23 -35 9 -19 21 -35 27 -35 5 0 10 -6 10 -14 0 -8 6 -21 14 -28 7 -8 17 -24 20 -36 4 -12 12 -22 17 -22 5 0 9 -6 9 -14 0 -8 6 -21 13 -28 7 -7 16 -20 20 -28 4 -8 25 -42 47 -75 51 -79 80 -139 94 -200 l12 -49 31 44 c38 57 137 234 338 610 177 331 402 750 760 1415 133 248 297 554 365 680 67 127 132 240 143 253 l20 22 -569 0 -570 0 -15 -32z"/>
      </g>
      <g id="layer118" fill="#24a0a1" stroke="none" transform="matrix(0.097654, 0, 0, 0.097858, -10.656904, -7.60465)">
        <path d="M933 3742 c-56 -59 -207 -217 -337 -352 -147 -153 -236 -253 -236 -265 0 -11 35 -76 78 -143 42 -68 126 -200 186 -295 133 -211 275 -439 297 -475 23 -38 326 -520 353 -562 35 -52 259 -408 271 -428 6 -10 44 -70 85 -135 41 -64 81 -127 87 -139 7 -13 55 -88 106 -168 l93 -145 562 -3 563 -2 -29 27 c-16 16 -97 136 -179 268 -207 331 -429 685 -528 840 -245 388 -1253 1993 -1263 2010 -6 12 -7 27 -2 36 5 8 5 20 1 27 -4 8 -42 -25 -108 -96z"/>
        <path d="M3619 3818 c-8 -18 -37 -73 -64 -123 -26 -49 -110 -205 -185 -345 -75 -140 -289 -538 -476 -885 -186 -346 -338 -639 -338 -650 1 -11 22 -51 47 -89 25 -38 44 -73 41 -78 -3 -4 2 -8 10 -8 9 0 13 -6 10 -14 -3 -7 2 -16 11 -20 9 -3 13 -10 10 -16 -3 -5 -2 -10 3 -10 5 0 17 -15 25 -32 9 -18 24 -42 34 -53 10 -11 27 -39 37 -62 11 -24 22 -43 26 -43 3 0 14 -16 23 -35 9 -19 21 -35 27 -35 5 0 10 -6 10 -14 0 -8 6 -21 14 -28 7 -8 17 -24 20 -36 4 -12 12 -22 17 -22 5 0 9 -6 9 -14 0 -8 6 -21 13 -28 7 -7 16 -20 20 -28 4 -8 25 -42 47 -75 51 -79 80 -139 94 -200 l12 -49 31 44 c38 57 137 234 338 610 177 331 402 750 760 1415 133 248 297 554 365 680 67 127 132 240 143 253 l20 22 -569 0 -570 0 -15 -32z"/>
      </g>
      <g id="layer119" fill="#00b8b8" stroke="none" transform="matrix(0.097654, 0, 0, 0.097858, -10.656904, -7.60465)">
        <path d="M933 3742 c-56 -59 -207 -217 -337 -352 -150 -155 -236 -252 -235 -265 0 -11 34 -75 77 -142 42 -67 137 -218 211 -335 211 -333 283 -449 511 -813 117 -187 234 -372 259 -412 25 -39 66 -104 91 -144 25 -40 63 -100 85 -135 22 -35 62 -98 89 -141 61 -97 112 -178 141 -223 13 -19 39 -61 59 -92 l36 -58 560 0 560 0 -28 28 c-16 15 -97 135 -179 267 -207 331 -429 685 -528 840 -245 388 -1253 1993 -1263 2010 -6 12 -7 27 -2 36 5 8 5 20 1 27 -4 8 -42 -25 -108 -96z"/>
        <path d="M1270 3844 c0 -9 74 -119 82 -122 5 -2 8 -10 8 -18 0 -8 4 -14 10 -14 5 0 21 -25 35 -55 15 -30 31 -55 36 -55 5 0 9 -8 9 -18 0 -10 8 -27 18 -38 10 -10 33 -44 51 -74 19 -30 38 -58 43 -61 5 -3 9 -8 7 -10 -4 -8 13 -49 21 -49 4 0 10 -8 14 -17 5 -17 42 -72 66 -100 5 -7 10 -17 10 -23 0 -5 4 -10 8 -10 5 0 9 -6 9 -12 0 -14 83 -141 96 -146 4 -2 5 -7 2 -12 -2 -4 6 -19 20 -34 l24 -26 336 0 c317 0 335 1 324 18 -8 14 5 49 69 182 238 494 331 679 348 689 14 7 -209 10 -813 11 -458 0 -833 -3 -833 -6z"/>
        <path d="M3606 3788 c-19 -35 -122 -227 -229 -428 -176 -330 -260 -487 -357 -665 -18 -33 -51 -94 -72 -135 -22 -41 -53 -97 -68 -125 -15 -27 -62 -115 -105 -195 -43 -80 -106 -198 -142 -263 -58 -108 -73 -142 -75 -172 -1 -5 20 -41 45 -79 25 -38 44 -73 41 -78 -3 -4 2 -8 10 -8 9 0 13 -6 10 -14 -3 -7 2 -16 11 -20 9 -3 13 -10 10 -16 -3 -5 -2 -10 3 -10 5 0 17 -15 25 -32 9 -18 24 -42 34 -53 10 -11 27 -39 37 -62 11 -24 22 -43 26 -43 3 0 14 -16 23 -35 9 -19 21 -35 27 -35 5 0 10 -6 10 -14 0 -8 6 -21 14 -28 7 -8 17 -24 20 -36 4 -12 12 -22 17 -22 5 0 9 -6 9 -14 0 -8 6 -21 13 -28 7 -7 16 -20 20 -28 4 -8 25 -42 47 -75 51 -79 80 -139 94 -200 l12 -49 31 44 c38 57 137 234 338 610 177 331 402 750 760 1415 133 248 297 554 365 680 67 127 132 240 143 253 l20 22 -566 0 -566 0 -35 -62z"/>
      </g>
      <g id="layer121" fill="#00c4c4" stroke="none" transform="matrix(0.097654, 0, 0, 0.097858, -10.656904, -7.60465)">
        <path d="M860 3665 c-29 -30 -52 -56 -49 -58 2 -1 28 23 58 55 69 73 63 76 -9 3z"/>
        <path d="M685 3478 l-110 -113 113 110 c61 60 112 111 112 112 0 8 -13 -5 -115 -109z"/>
        <path d="M455 3238 l-80 -83 83 80 c76 74 87 85 79 85 -1 0 -38 -37 -82 -82z"/>
      </g>
      <path style="fill: rgb(0, 184, 184);" d="M 343.155 368.569 L 455.458 368.569 L 287.187 58.059 L 228.819 152.824 C 228.819 152.824 344.431 366.017 343.155 368.569 Z"/>
      <path style="fill: rgb(0, 184, 184);" d="M 231.535 281.894 L 273.814 368.746 L 92.566 368.746 L 147.632 280.91 L 231.535 281.894 Z"/>
      <rect x="1811.744" y="819.608" width="77.089" height="88.514" style="mix-blend-mode: multiply; opacity: 0.81; fill: url(#gradient-2-5);" transform="matrix(1, 0, -0.630199, 1, -1147.691162, -538.952637)" rx="0.321" ry="0.321"/>
      <rect x="1685.323" y="915.184" width="71.708" height="98.833" style="mix-blend-mode: multiply; opacity: 0.81; fill: url(#gradient-2-6);" transform="matrix(0.495397, 0.868667, -0.602632, 0.961883, 3.88698, -2286.167725)"/>
    </g>
    <g transform="matrix(0.082003, 0, 0, -0.082003, -162.767899, 443.069214)" fill="#000000" stroke="none" style="">
      <g transform="matrix(0.377321, 0, 0, 0.377321, 1994.090576, 1199.171997)" fill="#000000" stroke="none" style="">
        <path d="M 1216.642 4613 C 1194.642 4611 1138.642 4603 1092.642 4594 C 578.642 4501 264.642 4140 201.642 3573 C 185.642 3427 193.642 3028 215.642 2905 C 273.642 2570 420.642 2309 637.642 2154 C 833.642 2014 1130.642 1939 1431.642 1954 C 1815.642 1972 2073.642 2078 2245.642 2286 C 2356.642 2421 2415.642 2572 2445.642 2803 L 2450.642 2840 L 2161.642 2840 L 1872.642 2840 L 1861.642 2785 C 1835.642 2659 1751.642 2542 1640.642 2477 C 1498.642 2393 1273.642 2389 1111.642 2467 C 1035.642 2504 925.642 2616 879.642 2705 C 794.642 2870 767.642 3015 767.642 3305 C 767.642 3538 780.642 3631 831.642 3772 C 870.642 3878 903.642 3933 970.642 4004 C 1068.642 4106 1166.642 4148 1326.642 4157 C 1598.642 4171 1788.642 4041 1857.642 3791 L 1874.642 3730 L 2163.642 3730 L 2451.642 3730 L 2445.642 3773 C 2422.642 3938 2399.642 4017 2340.642 4131 C 2259.642 4287 2138.642 4404 1966.642 4490 C 1770.642 4588 1475.642 4637 1216.642 4613 Z"/>
        <path d="M 3793.642 4610 C 3383.642 4558 3091.642 4359 2921.642 4015 C 2816.642 3803 2781.642 3626 2781.642 3304 C 2781.642 2950 2817.642 2759 2926.642 2534 C 3075.642 2226 3335.642 2040 3705.642 1975 C 4004.642 1924 4314.642 1958 4546.642 2069 C 4836.642 2207 5014.642 2468 5087.642 2861 C 5096.642 2908 5105.642 3032 5108.642 3143 L 5114.642 3340 L 4587.642 3340 L 4061.642 3340 L 4061.642 3145 L 4061.642 2950 L 4321.642 2950 L 4581.642 2950 L 4581.642 2922 C 4581.642 2874 4543.642 2741 4514.642 2687 C 4498.642 2659 4462.642 2610 4432.642 2578 C 4274.642 2406 3932.642 2358 3702.642 2474 C 3635.642 2508 3534.642 2605 3492.642 2675 C 3444.642 2755 3394.642 2892 3374.642 3002 C 3348.642 3146 3351.642 3490 3379.642 3626 C 3418.642 3809 3483.642 3935 3585.642 4026 C 3739.642 4166 4007.642 4201 4209.642 4110 C 4303.642 4067 4377.642 3987 4436.642 3867 L 4483.642 3770 L 4768.642 3770 L 5053.642 3770 L 5046.642 3817 C 5035.642 3891 4983.642 4039 4941.642 4118 C 4801.642 4377 4576.642 4530 4240.642 4595 C 4139.642 4614 3895.642 4622 3793.642 4610 Z"/>
        <path d="M 8863.106 3285 L 8863.106 1990 L 9138.106 1990 L 9413.106 1990 L 9413.106 2460 L 9413.106 2930 L 9600.106 2928 L 9788.106 2925 L 10058.106 2458 L 10328.106 1991 L 10650.106 1990 L 10973.106 1990 L 10943.106 2038 C 10927.106 2064 10786.106 2288 10630.106 2535 C 10363.106 2957 10347.106 2986 10367.106 2994 C 10378.106 2999 10435.106 3025 10493.106 3053 C 10582.106 3097 10610.106 3116 10678.106 3185 C 10722.106 3229 10773.106 3291 10792.106 3322 C 10923.106 3546 10934.106 3883 10817.106 4127 C 10698.106 4377 10448.106 4530 10098.106 4570 C 10048.106 4575 9755.106 4580 9436.106 4580 L 8863.106 4580 L 8863.106 3285 Z M 10013.106 4106 C 10174.106 4076 10269.106 4017 10314.106 3918 C 10335.106 3872 10338.106 3850 10338.106 3745 C 10338.106 3640 10335.106 3618 10314.106 3573 C 10287.106 3513 10230.106 3456 10169.106 3429 C 10063.106 3382 10021.106 3377 9711.106 3373 L 9413.106 3368 L 9413.106 3744 L 9413.106 4120 L 9676.106 4120 C 9852.106 4119 9963.106 4115 10013.106 4106 Z"/>
        <path d="M 11423.106 3285 L 11423.106 1990 L 12328.106 1990 L 13233.106 1990 L 13233.106 2220 L 13233.106 2450 L 12608.106 2450 L 11983.106 2450 L 11983.106 2775 L 11983.106 3100 L 12553.106 3100 L 13123.106 3100 L 13123.106 3320 L 13123.106 3540 L 12553.106 3540 L 11983.106 3540 L 11983.106 3830 L 11983.106 4120 L 12608.106 4120 L 13233.106 4120 L 13233.106 4350 L 13233.106 4580 L 12328.106 4580 L 11423.106 4580 L 11423.106 3285 Z"/>
        <path d="M 14455.106 4553 C 14448.106 4531 13524.106 2049 13506.106 2002 C 13502.106 1993 13559.106 1990 13771.106 1990 L 14041.106 1990 L 14139.106 2255 L 14237.106 2520 L 14719.106 2520 L 15200.106 2520 L 15299.106 2258 L 15399.106 1995 L 15692.106 1992 C 15925.106 1990 15984.106 1992 15980.106 2002 C 15961.106 2053 15038.106 4531 15031.106 4553 L 15021.106 4580 L 14743.106 4580 L 14465.106 4580 L 14455.106 4553 Z M 14876.106 3435 C 14956.106 3204 15024.106 3007 15028.106 2998 C 15035.106 2981 15016.106 2980 14724.106 2980 C 14553.106 2980 14413.106 2983 14413.106 2987 C 14413.106 3009 14718.106 3869 14724.106 3862 C 14727.106 3858 14796.106 3666 14876.106 3435 Z"/>
      </g>
    </g>
  </g>
</svg>