<?xml version="1.0" encoding="utf-8"?>
<svg viewBox="0 0 500 500" xmlns="http://www.w3.org/2000/svg" xmlns:bx="https://boxy-svg.com">
  <g transform="matrix(1, 0, 0, 1, 22.744682, 47.882645)">
    <g transform="matrix(0.183962, 0, 0, -0.183962, -199.808182, 542.978455)" fill="#000000" stroke="none" style="">
      <path d="M1960 2604 c-189 -50 -347 -205 -395 -389 -23 -89 -19 -226 8 -306 62 -182 204 -317 384 -364 74 -19 203 -19 278 0 262 69 439 340 397 612 -49 313 -370 527 -672 447z m255 -59 c174 -46 317 -196 354 -373 53 -255 -116 -516 -370 -572 -79 -17 -210 -8 -282 20 -184 70 -309 255 -309 455 0 314 303 549 607 470z"/>
      <path d="M 2490 1685 L 2466 1660 L 2494 1631 C 2515 1609 2520 1597 2515 1577 C 2503 1532 2537.781 1487 2709.781 1316 C 2873.781 1155 2936 1379 2835 1479 C 2653 1661 2652 1662 2611 1659 C 2578 1656 2565 1661 2542 1683 L 2514 1710 L 2490 1685 Z"/>
    </g>
    <path style="" d="M 279.563 290.937 H 285.868 A 14.621 14.621 0 0 1 300.489 305.558 V 397.148 A 15.812 15.812 0 0 1 284.677 412.96 H 278.225 A 15.812 15.812 0 0 1 262.413 397.148 V 308.087 A 17.15 17.15 0 0 1 279.563 290.937 Z" transform="matrix(0.71522, -0.698899, 0.711485, 0.702921, -139.549347, 236.515808)" bx:shape="rect 262.413 290.937 38.076 122.023 17.15 14.621 15.812 15.812 1@b09880e1"/>
  </g>
</svg>