<svg xmlns="http://www.w3.org/2000/svg" height="400" width="400"><defs><filter id="a" x="-50%" y="-50%" width="200%" height="200%"><feGaussianBlur in="SourceGraphic"></feGaussianBlur></filter></defs><path d="M-1-1h402v402H-1z" fill="none"></path><g stroke="null" transform="translate(-70.517 -71.974) scale(2.96506)" filter="url(#a)"><g stroke="none"><path d="M124.015 120.188a1.5 1.5 0 0 0-1.5 1.5v5.23a2.5 2.5 0 0 1-2.5 2.5h-73.86a2.5 2.5 0 0 1-2.5-2.5v-61.21a8.33 8.33 0 0 0 5.37 2h73.49v8a1.5 1.5 0 0 0 3 0v-9.54a1.5 1.5 0 0 0-1.5-1.5h-8.11v-5.38a8.38 8.38 0 0 0-8.37-8.37h-58.51a8.38 8.38 0 0 0-8.37 7.6 1.53 1.53 0 0 0 0 .33v68.07a5.51 5.51 0 0 0 5.5 5.5h73.86a5.51 5.51 0 0 0 5.5-5.5v-5.23a1.5 1.5 0 0 0-1.5-1.5zm-74.99-66.27h58.5a5.38 5.38 0 0 1 5.37 5.37v5.38h-63.87a5.37 5.37 0 0 1 0-10.75z"></path><path d="M147.075 99.258a1.51 1.51 0 0 0 .11-.54 1.51 1.51 0 0 0-.11-.54 1.49 1.49 0 0 0-.32-.48l-13.94-14.02a1.5 1.5 0 1 0-2.16 2.12l11.37 11.38h-38.37a1.5 1.5 0 0 0 0 3h38.44l-11.44 11.39a1.5 1.5 0 0 0 2.12 2.12l13.93-13.94a1.49 1.49 0 0 0 .37-.49z"></path></g></g></svg>