<?xml version="1.0" encoding="utf-8"?>
<svg viewBox="0 0 500 500" xmlns="http://www.w3.org/2000/svg">
  <defs>
    <linearGradient id="color-0">
      <stop style="stop-color: rgb(31, 171, 166);"/>
    </linearGradient>
  </defs>
  <g>
    <g>
      <g transform="matrix(1, 0, 0, 1, -14.600959, -11.351256)">
        <path style="fill: url(#color-0);" d="M 255.759 65.098 C 255.574 65.305 254.675 65.538 253.538 65.641 C 247.724 66.158 243.363 67.374 238.553 69.806 C 232.791 72.729 228.404 76.351 215.162 89.027 L 205.648 98.159 L 199.701 97.926 C 196.423 97.823 190.133 97.719 185.693 97.745 C 178.795 97.771 177.077 97.849 173.8 98.34 C 158.602 100.591 146.286 106.282 132.305 117.484 C 123.398 124.65 118.667 130.134 116.658 135.696 C 115.575 138.645 115.469 140.611 116.156 143.509 C 117.425 148.657 119.01 150.83 129.265 161.359 L 133.362 165.549 L 133.362 167.231 C 133.362 168.706 133.15 169.404 131.908 172.353 C 128.419 180.606 127.283 186.918 128.182 193.463 C 130.322 209.269 139.837 222.489 153.792 229.008 C 162.831 233.25 171.764 234.182 181.993 231.957 C 185.138 231.258 187.067 230.586 191.058 228.775 C 193.04 227.869 193.675 227.714 195.128 227.714 L 196.873 227.714 L 201.498 232.034 C 211.991 241.891 215.664 244.322 221.109 245.099 C 222.801 245.357 223.514 245.331 225.311 244.995 C 229.804 244.116 232.315 242.356 240.694 234.182 C 250.314 224.817 253.433 220.807 257.794 212.296 C 262.895 202.336 265.934 191.419 266.833 179.907 C 267.15 175.794 266.912 171.655 266.04 165.705 C 265.749 163.79 265.511 161.152 265.511 159.858 L 265.511 157.478 L 269.555 153.52 L 273.572 149.588 L 275.185 149.588 C 276.691 149.588 276.797 149.64 277.854 150.674 C 278.885 151.735 303.306 179.493 354.712 238.036 L 377.97 264.527 L 378.05 266.105 C 378.102 267.476 377.944 268.123 376.807 271.046 C 375.274 275.03 374.772 277.125 374.349 281.626 C 373.794 287.525 374.825 294.742 376.939 299.942 C 379.688 306.72 382.622 311.066 388.727 317.43 L 390.789 319.577 L 390.789 321.259 L 390.789 322.914 L 374.032 342.627 C 364.835 353.492 353.549 366.789 349.003 372.196 L 340.678 382.001 L 337.533 382.466 C 322.6 384.613 317.684 386.14 310.415 390.9 C 301.799 396.565 296.434 402.696 291.254 412.76 C 289.985 415.217 288.717 417.468 288.426 417.778 L 287.897 418.373 L 259.961 418.373 L 232.025 418.373 L 230.677 419.77 C 229.857 420.624 229.223 421.581 228.985 422.28 C 228.483 423.909 228.483 449.805 228.985 451.435 C 229.223 452.211 229.91 453.168 231.284 454.565 C 232.342 455.651 233.32 456.867 233.399 457.255 L 233.584 457.954 L 339.647 457.954 L 445.71 457.954 L 445.895 457.255 C 445.974 456.867 446.952 455.651 448.009 454.565 C 449.384 453.168 450.071 452.211 450.309 451.435 C 450.811 449.805 450.811 423.909 450.309 422.28 C 450.071 421.581 449.437 420.624 448.617 419.77 L 447.269 418.373 L 416.161 418.373 L 385.08 418.373 L 384.366 417.649 C 383.996 417.261 383.309 415.916 382.86 414.622 C 381.829 411.725 379.926 408.362 376.226 402.826 L 373.345 398.531 L 373.345 396.927 L 373.345 395.323 L 390.313 375.223 C 420.76 339.16 425.253 333.961 430.143 329.02 C 433.42 325.76 435.006 324.492 438.098 322.785 C 444.679 319.112 448.829 315.412 453.348 309.255 C 456.996 304.262 459.639 298.39 460.722 292.776 C 461.356 289.62 461.356 282.144 460.749 278.6 C 457.973 262.793 445.763 249.419 429.667 244.529 C 426.02 243.417 422.557 242.822 416.954 242.305 C 413.36 241.994 411.933 241.761 411.563 241.451 C 411.298 241.218 395.81 224.506 377.177 204.302 C 358.544 184.098 333.224 156.676 320.935 143.379 L 298.575 119.191 L 298.575 110.628 C 298.548 97.719 298.311 96.348 295.086 90.036 C 289.985 80.076 284.329 74.359 275.158 69.91 C 269.74 67.297 265.538 66.184 259.115 65.641 C 257.873 65.538 256.974 65.331 256.763 65.098 C 256.393 64.632 256.155 64.632 255.759 65.098 Z M 262.657 75.73 C 267.15 76.48 271.828 78.291 275.422 80.645 C 282.506 85.25 287.104 92.028 288.611 100.048 C 289.483 104.808 289.377 112.129 288.347 116.035 C 287.792 118.208 286.232 121.39 284.541 123.874 C 281.713 127.987 279.096 130.832 269.106 140.715 L 261.177 148.553 L 259.459 148.553 L 257.714 148.553 L 236.121 127.418 L 214.502 106.256 L 214.502 104.549 L 214.502 102.842 L 224.096 93.554 C 233.716 84.215 237.495 80.93 240.852 78.99 C 242.94 77.774 246.64 76.532 250.05 75.86 C 253.116 75.265 259.512 75.187 262.657 75.73 Z M 195.683 107.42 L 203.005 108.222 L 229.249 133.885 C 243.68 148.01 255.521 159.729 255.6 159.936 C 255.653 160.143 255.97 162.523 256.314 165.239 C 257.08 171.448 257.133 181.873 256.446 186.4 C 254.675 197.809 250.182 209.01 244.235 216.823 C 241.513 220.419 237.416 224.894 233.108 229.034 C 227.056 234.828 225.628 235.734 222.748 235.734 C 221.188 235.734 220.765 235.63 219.84 235.009 C 216.087 232.552 205.278 222.307 170.073 187.875 C 134.445 153.029 129.688 148.113 126.966 143.612 C 125.988 142.008 125.961 141.931 125.961 139.292 C 125.961 137.791 126.094 136.369 126.252 136.058 C 126.728 135.179 129.662 132.178 133.203 128.918 C 139.546 123.123 148.215 116.708 152.894 114.431 C 155.933 112.931 161.906 110.654 165.474 109.671 C 176.628 106.515 182.891 106.049 195.683 107.42 Z M 299.421 134.377 C 312.477 147.932 378.261 219.1 395.361 238.166 L 399.511 242.796 L 399.511 244.555 C 399.511 246.211 399.484 246.314 398.586 247.09 C 398.057 247.53 397.026 248.203 396.26 248.565 C 394.277 249.548 391 251.695 388.436 253.661 L 386.216 255.395 L 384.446 255.395 L 382.648 255.395 L 381.036 253.713 C 379.239 251.825 356.509 226.033 317.314 181.408 C 303.015 165.11 289.589 149.872 287.527 147.518 L 283.748 143.25 L 283.748 141.62 L 283.748 139.964 L 286.496 136.834 C 288.003 135.101 289.959 133.006 290.831 132.178 L 292.443 130.703 L 294.135 130.703 L 295.853 130.703 L 299.421 134.377 Z M 164.998 196.205 L 185.957 216.72 L 185.957 218.427 C 185.957 220.445 185.64 220.833 183.209 221.894 C 180.513 223.058 178.821 223.316 173.562 223.316 C 161.615 223.316 155.272 220.962 147.898 213.745 C 143.379 209.373 140.63 204.975 139.071 199.749 C 138.04 196.257 137.802 193.825 137.908 188.755 C 137.987 184.978 138.146 183.451 138.78 180.502 C 139.705 175.975 139.89 175.716 142.322 175.716 L 144.066 175.716 L 164.998 196.205 Z M 421.685 252.29 C 429.852 253.299 435.957 256.274 441.798 262.095 C 448.934 269.209 451.472 275.444 451.419 285.662 C 451.392 289.775 450.785 294.225 449.833 296.993 C 447.56 303.564 440.741 311.092 433.579 314.869 C 431.253 316.111 427.209 317.508 424.011 318.18 C 420.945 318.827 413.994 318.801 410.875 318.154 C 405.774 317.094 402.629 315.774 398.427 313.032 C 393.802 310.005 389.705 305.452 387.168 300.537 C 384.498 295.389 383.547 291.379 383.547 285.403 C 383.547 280.747 383.864 278.6 385.212 274.719 C 389.388 262.69 400.277 253.946 413.096 252.29 C 415.501 252.006 419.201 252.006 421.685 252.29 Z M 409.792 327.286 C 413.466 327.985 413.783 328.269 413.783 330.908 C 413.783 332.745 413.73 332.952 412.937 333.909 C 410.083 337.324 374.825 379.077 371.046 383.501 C 368.535 386.476 366.156 389.063 365.812 389.296 C 365.284 389.632 364.676 389.71 362.826 389.606 C 360.712 389.503 360.289 389.399 357.751 388.209 C 356.218 387.485 354.527 386.528 353.972 386.062 C 353.047 385.234 352.994 385.131 352.994 383.553 L 352.994 381.897 L 368.905 363.09 C 394.647 332.615 397.528 329.33 400.436 327.26 C 401.493 326.484 401.519 326.484 404.268 326.614 C 405.801 326.691 408.285 326.976 409.792 327.286 Z M 344.589 392.995 C 354.686 394.987 362.773 400.058 368.429 407.896 C 369.566 409.448 370.649 411.052 370.861 411.466 C 371.178 412.035 372.816 417.726 372.816 418.218 C 372.816 418.321 356.509 418.373 336.581 418.373 L 300.346 418.373 L 300.531 417.52 C 300.636 417.08 301.006 415.838 301.35 414.803 C 301.694 413.768 301.984 412.682 301.984 412.346 C 301.984 411.621 302.592 410.664 305.077 407.405 C 311.763 398.712 320.115 394.133 332.511 392.4 C 334.44 392.116 342.105 392.504 344.589 392.995 Z M 440.133 428.773 L 440.741 429.316 L 440.741 436.844 C 440.741 444.191 440.741 444.346 440.16 444.941 L 439.605 445.536 L 339.673 445.536 L 239.768 445.536 L 239.161 444.967 L 238.553 444.424 L 238.553 436.896 C 238.553 429.549 238.553 429.394 239.134 428.799 L 239.689 428.204 L 339.621 428.204 L 439.525 428.204 L 440.133 428.773 Z"/>
        <path style="fill: url(#color-0);" d="M 100.324 209.605 C 98.078 210.071 96.149 210.64 85.656 213.822 C 82.616 214.753 78.969 215.814 77.595 216.202 C 72.705 217.573 69.613 219.358 68.609 221.376 L 68.001 222.592 L 68.635 223.911 C 69.402 225.515 71.04 227.197 71.807 227.197 C 72.89 227.197 90.651 222.126 99.981 219.151 C 105.346 217.444 105.478 217.34 106.271 214.883 C 106.668 213.589 106.694 213.201 106.43 212.218 C 106.06 210.847 105.795 210.485 104.712 209.942 C 103.258 209.192 102.624 209.166 100.324 209.605 Z"/>
        <path style="fill: url(#color-0);" d="M 122.182 233.664 C 121.468 233.923 120.279 234.595 119.539 235.165 C 116.235 237.596 104.13 249.393 100.377 253.817 C 98.792 255.679 97.946 257.154 97.946 258.111 C 97.946 259.042 98.95 261.008 99.717 261.603 C 100.06 261.862 100.88 262.276 101.514 262.535 L 102.677 262.949 L 104.474 261.707 C 106.403 260.362 121.363 246.03 124.561 242.46 C 126.939 239.821 127.653 238.579 127.442 237.415 C 127.177 236.07 125.829 234.259 124.666 233.664 C 124.085 233.38 123.556 233.147 123.53 233.147 C 123.477 233.173 122.869 233.38 122.182 233.664 Z"/>
        <path style="fill: url(#color-0);" d="M 148.004 255.084 C 147.079 255.524 146.682 255.99 145.335 258.266 C 141.661 264.423 133.573 279.686 131.617 284.162 L 130.745 286.154 L 131.512 287.163 C 132.807 288.922 135.318 290.474 136.401 290.215 C 137.961 289.827 139.494 287.758 143.617 280.514 C 147.423 273.762 152.999 262.483 154.241 259.016 C 155.193 256.352 151.017 253.713 148.004 255.084 Z"/>
      </g>
    </g>
    <path style="fill: url(#color-0);" d="M 414.893 277.332 C 411.166 278.651 408.787 282.247 409.078 286.05 C 409.342 289.077 411.193 291.741 414.021 293.087 C 415.289 293.708 415.818 293.811 417.747 293.811 C 419.677 293.811 420.205 293.708 421.474 293.087 C 423.218 292.259 424.963 290.526 425.755 288.818 C 426.654 286.93 426.575 283.696 425.597 281.756 C 424.751 280.023 422.954 278.341 421.236 277.565 C 419.492 276.815 416.69 276.711 414.893 277.332 Z"/>
  </g>
</svg>