<?xml version="1.0" encoding="utf-8"?>
<svg viewBox="0 0 500 500" xmlns="http://www.w3.org/2000/svg">
  <g stroke="null" transform="matrix(0.459512, 0, 0, 0.459512, 20.243994, 21.748661)" style="">
    <path d="m317.103 104.444 86.667 78.889" stroke-width="15" stroke-linecap="null" stroke-linejoin="null" stroke-opacity="null" fill="none"/>
    <path stroke-width="12.156" d="M500.655 110.999c5.101.109 9.86 1.8 14.436 4.938L977.033 480.63c10.628 8.535 12.136 24.286 4.179 34.57-7.843 10.135-24.525 11.758-34.57 3.798L499.895 166.462 53.148 518.997c-10.044 7.96-26.268 6.275-34.19-3.799-7.862-9.999-7.016-26.608 3.8-34.569l173.228-136.76V135.311A24.315 24.315 0 0 1 220.299 111h97.25a24.315 24.315 0 0 1 24.313 24.312v93.453L484.7 115.937c5.41-3.564 10.854-5.045 15.955-4.938zm-207.418 48.625H244.61v145.877l48.626-38.369V159.624zm510.568 278.457 48.625 38.369v388.244a24.315 24.315 0 0 1-24.312 24.313H597.146a24.315 24.315 0 0 1-24.312-24.313V718.817c0-40.828-32.11-72.938-72.939-72.938-40.828 0-72.938 32.11-72.938 72.938v145.877a24.315 24.315 0 0 1-24.313 24.313h-230.97a24.315 24.315 0 0 1-24.314-24.313V476.45l48.626-38.369v402.3h182.346V718.817c0-66.925 54.638-121.563 121.563-121.563 66.926 0 121.564 54.638 121.564 121.563v121.564h182.346v-402.3z" style="fill: rgb(31, 171, 166);"/>
  </g>
</svg>