<?xml version="1.0" encoding="utf-8"?>
<svg viewBox="0 0 500 500" xmlns="http://www.w3.org/2000/svg">
  <g transform="matrix(1, 0, 0, 1, -17.178505, 93.334999)">
    <path d="M 407.591 173.843 L 356.061 173.843 L 356.061 168.003 C 360.752 166.624 364.418 164.479 367.18 161.473 C 371.747 156.503 373.664 149.208 372.878 139.789 C 372.878 139.789 372.878 139.786 372.878 139.786 C 372.878 139.783 372.878 139.777 372.875 139.774 C 372.875 139.765 372.875 139.756 372.875 139.744 C 372.875 139.741 372.872 139.738 372.872 139.735 C 372.064 125.655 360.187 123.771 351.509 122.398 C 345.678 121.475 342.109 120.777 342.109 118.194 L 342.109 91.124 L 366.547 91.124 C 366.569 91.124 366.593 91.124 366.608 91.124 C 367.443 91.124 368.12 90.446 368.12 89.611 C 368.12 89.321 368.042 89.052 367.899 88.822 L 356.769 48.595 C 356.587 47.938 355.992 47.485 355.314 47.485 L 346.812 47.485 L 346.812 39.781 C 346.812 36.357 344.023 33.568 340.596 33.568 C 337.172 33.568 334.387 36.354 334.387 39.781 L 334.387 47.485 L 325.885 47.485 C 325.204 47.485 324.608 47.938 324.43 48.595 L 313.193 89.209 C 313.066 89.663 313.16 90.153 313.447 90.528 C 313.732 90.906 314.176 91.124 314.648 91.124 L 339.081 91.124 L 339.081 118.191 C 339.081 120.774 335.509 121.469 329.684 122.395 C 321.009 123.771 309.131 125.655 308.321 139.732 C 308.321 139.735 308.318 139.738 308.318 139.741 C 308.318 139.75 308.318 139.759 308.318 139.771 C 308.315 139.774 308.315 139.78 308.315 139.783 C 308.315 139.783 308.315 139.786 308.315 139.786 C 307.528 149.205 309.446 156.5 314.013 161.47 C 316.775 164.476 320.44 166.621 325.132 168 L 325.132 173.84 L 277.255 173.84 C 276.42 173.84 275.743 174.518 275.743 175.353 L 275.743 183.928 C 275.743 184.762 276.42 185.44 277.255 185.44 L 397.501 185.44 L 397.501 268.163 L 378.661 268.163 L 378.661 260.244 L 378.661 206.222 L 378.661 197.218 C 378.661 196.383 377.984 195.705 377.149 195.705 L 360.426 195.705 C 359.591 195.705 358.913 196.383 358.913 197.218 L 358.913 204.71 L 346.921 204.71 C 346.086 204.71 345.408 205.387 345.408 206.222 L 345.408 211.497 L 335.824 206.213 C 335.476 206.022 335.052 205.977 334.674 206.083 C 334.287 206.195 333.963 206.455 333.77 206.806 L 310.601 248.836 C 310.598 248.845 310.589 248.848 310.586 248.857 L 307.072 255.242 L 307.072 255.245 L 303.348 261.999 C 303.155 262.349 303.106 262.764 303.218 263.148 C 303.33 263.535 303.59 263.859 303.941 264.052 L 311.4 268.163 L 296.915 268.163 L 296.915 260.244 L 296.915 206.222 L 296.915 197.218 C 296.915 196.383 296.237 195.705 295.403 195.705 L 282.826 195.705 L 270.25 195.705 C 269.415 195.705 268.738 196.383 268.738 197.218 L 268.738 205.956 L 250.542 194.278 C 250.203 194.063 249.792 193.981 249.404 194.075 C 249.011 194.16 248.67 194.396 248.455 194.734 L 209.927 254.749 C 209.713 255.087 209.637 255.496 209.725 255.889 C 209.809 256.282 210.045 256.624 210.384 256.839 L 228.03 268.163 L 126.766 268.163 C 125.931 268.163 125.253 268.84 125.253 269.675 L 125.253 278.25 C 125.253 279.085 125.931 279.762 126.766 279.762 L 407.591 279.762 C 408.426 279.762 409.104 279.085 409.104 278.25 L 409.104 175.353 C 409.104 174.518 408.426 173.843 407.591 173.843 Z M 337.411 39.781 C 337.411 38.024 338.842 36.593 340.596 36.593 C 342.357 36.593 343.787 38.024 343.787 39.781 L 343.787 47.485 L 337.414 47.485 L 337.414 39.781 Z M 327.037 50.509 L 354.159 50.509 L 364.557 88.099 L 316.638 88.099 L 327.037 50.509 Z M 369.856 139.953 C 369.856 139.959 369.862 139.965 369.862 139.974 C 369.862 139.98 369.859 139.986 369.859 139.995 C 370.014 141.81 370.035 143.51 369.974 145.14 C 368.344 144.856 367.331 144.09 366.148 143.147 C 364.509 141.837 362.652 140.355 359.04 140.355 C 355.429 140.355 353.572 141.84 351.933 143.147 C 350.444 144.338 349.268 145.279 346.715 145.279 C 344.171 145.279 342.998 144.338 341.51 143.15 C 339.873 141.84 338.022 140.355 334.414 140.355 C 330.812 140.355 328.955 141.84 327.318 143.147 C 325.83 144.338 324.657 145.279 322.107 145.279 C 319.563 145.279 318.39 144.338 316.902 143.147 C 315.519 142.04 313.916 140.863 311.294 140.509 C 311.306 140.334 311.306 140.171 311.321 139.995 C 311.321 139.989 311.318 139.98 311.318 139.974 C 311.318 139.965 311.324 139.959 311.324 139.953 C 311.354 139.445 311.418 138.979 311.481 138.507 L 369.702 138.507 C 369.763 138.979 369.829 139.445 369.856 139.953 Z M 311.179 143.513 C 312.818 143.794 313.838 144.559 315.023 145.509 C 316.657 146.819 318.511 148.304 322.119 148.304 C 325.727 148.304 327.584 146.819 329.221 145.509 C 330.706 144.317 331.882 143.38 334.426 143.38 C 336.97 143.38 338.143 144.32 339.632 145.509 C 341.268 146.819 343.119 148.304 346.727 148.304 C 350.336 148.304 352.196 146.819 353.835 145.512 C 355.323 144.32 356.5 143.38 359.052 143.38 C 361.605 143.38 362.779 144.32 364.27 145.512 C 365.631 146.598 367.207 147.756 369.751 148.134 C 369.663 148.83 369.542 149.498 369.409 150.155 L 311.793 150.155 C 311.379 148.122 311.164 145.917 311.179 143.513 Z M 330.155 125.383 C 334.426 124.706 338.488 124.022 340.593 121.908 C 342.701 124.022 346.764 124.706 351.034 125.383 C 358.311 126.536 366.399 127.842 369.009 135.482 L 312.177 135.482 C 314.79 127.842 322.878 126.536 330.155 125.383 Z M 312.604 153.176 L 368.589 153.176 C 367.745 155.599 366.544 157.698 364.957 159.425 C 360.296 164.494 352.556 166.854 340.596 166.854 C 328.637 166.854 320.897 164.494 316.236 159.425 C 314.645 157.695 313.447 155.599 312.604 153.176 Z M 328.153 168.771 C 331.746 169.509 335.869 169.878 340.593 169.878 C 345.318 169.878 349.44 169.509 353.034 168.771 L 353.034 173.843 L 328.15 173.843 L 328.15 168.771 Z M 358.913 260.018 L 348.433 260.018 L 348.433 255.753 L 358.913 255.753 L 358.913 260.018 Z M 348.433 263.042 L 358.913 263.042 L 358.913 267.736 L 348.433 267.736 L 348.433 263.042 Z M 361.938 261.757 L 375.636 261.757 L 375.636 267.736 L 361.938 267.736 L 361.938 261.757 Z M 375.636 258.732 L 361.938 258.732 L 361.938 254.241 L 361.938 221.23 L 361.938 213.941 L 361.938 207.734 L 375.636 207.734 L 375.636 258.732 Z M 358.913 252.728 L 348.433 252.728 L 348.433 222.742 L 358.913 222.742 L 358.913 252.728 Z M 358.913 219.718 L 348.433 219.718 L 348.433 215.453 L 358.913 215.453 L 358.913 219.718 Z M 375.636 198.73 L 375.636 204.71 L 361.938 204.71 L 361.938 198.73 L 375.636 198.73 Z M 358.913 207.734 L 358.913 212.428 L 348.433 212.428 L 348.433 207.734 L 358.913 207.734 Z M 335.687 209.591 L 344.864 214.651 L 342.602 218.756 L 333.422 213.699 L 335.687 209.591 Z M 312.51 251.642 L 321.683 256.703 L 319.627 260.435 L 310.45 255.375 L 312.51 251.642 Z M 323.144 254.056 L 313.971 248.993 L 328.447 222.73 L 337.623 227.79 L 323.144 254.056 Z M 331.967 216.348 L 341.144 221.405 L 339.081 225.141 L 329.907 220.084 L 331.967 216.348 Z M 308.992 258.024 L 318.166 263.087 L 315.903 267.192 L 306.727 262.135 L 308.992 258.024 Z M 321.529 263.254 C 321.535 263.242 321.547 263.236 321.553 263.224 L 325.068 256.839 C 325.071 256.836 325.071 256.83 325.071 256.827 L 341.002 227.929 L 341.005 227.926 L 344.525 221.542 C 344.525 221.538 344.525 221.535 344.528 221.532 L 345.412 219.929 L 345.412 221.23 L 345.412 254.241 L 345.412 261.53 L 345.412 268.163 L 318.822 268.163 L 321.529 263.254 Z M 271.762 261.757 L 281.314 261.757 L 281.314 267.736 L 271.762 267.736 L 271.762 261.757 Z M 284.339 261.757 L 293.89 261.757 L 293.89 267.736 L 284.339 267.736 L 284.339 261.757 Z M 293.89 258.732 L 284.339 258.732 L 284.339 207.734 L 293.89 207.734 L 293.89 258.732 Z M 281.314 258.732 L 271.762 258.732 L 271.762 207.734 L 281.314 207.734 L 281.314 258.732 Z M 293.89 204.71 L 284.339 204.71 L 284.339 198.73 L 293.89 198.73 L 293.89 204.71 Z M 281.314 198.73 L 281.314 204.71 L 271.762 204.71 L 271.762 198.73 L 281.314 198.73 Z M 250.182 197.638 L 267.123 208.515 L 230.228 265.982 L 213.291 255.112 L 250.182 197.638 Z M 268.738 211.597 L 268.738 260.244 L 268.738 268.163 L 232.421 268.163 L 268.738 211.597 Z M 406.079 276.738 L 128.278 276.738 L 128.278 271.187 L 399.014 271.187 C 399.848 271.187 400.526 270.51 400.526 269.675 L 400.526 183.928 C 400.526 183.093 399.848 182.415 399.014 182.415 L 278.767 182.415 L 278.767 176.865 L 326.641 176.865 L 354.549 176.865 L 406.079 176.865 L 406.079 276.738 Z" style="fill: rgb(31, 171, 166);"/>
    <path d="M 248.294 219.203 C 249.277 219.839 250.412 220.171 251.573 220.171 C 253.657 220.171 255.575 219.122 256.7 217.371 C 257.58 216 257.873 214.373 257.526 212.779 C 257.178 211.191 256.234 209.833 254.87 208.959 C 252.127 207.202 248.213 208.058 246.459 210.792 C 244.65 213.617 245.472 217.389 248.294 219.203 Z M 249.008 212.431 C 249.574 211.548 250.539 211.022 251.588 211.022 C 252.172 211.022 252.744 211.191 253.243 211.509 C 253.929 211.95 254.401 212.628 254.577 213.43 C 254.752 214.231 254.604 215.048 254.162 215.737 C 253.279 217.107 251.316 217.555 249.934 216.663 C 248.512 215.746 248.095 213.847 249.008 212.431 Z" style="fill: rgb(31, 171, 166);"/>
    <path d="M 233.946 252.828 C 234.826 251.458 235.116 249.831 234.768 248.24 C 234.421 246.655 233.477 245.294 232.11 244.417 C 229.363 242.653 225.456 243.518 223.701 246.243 C 221.89 249.071 222.712 252.846 225.537 254.658 C 226.52 255.287 227.655 255.62 228.816 255.62 C 230.903 255.626 232.821 254.579 233.946 252.828 Z M 231.399 251.192 C 230.522 252.565 228.553 253.006 227.171 252.117 C 225.749 251.204 225.335 249.304 226.245 247.886 C 226.811 247.006 227.776 246.479 228.825 246.479 C 229.409 246.479 229.98 246.649 230.477 246.966 C 231.166 247.408 231.641 248.091 231.816 248.89 C 231.989 249.688 231.844 250.502 231.399 251.192 Z" style="fill: rgb(31, 171, 166);"/>
    <path d="M 128.949 138.487 C 128.949 138.49 128.949 138.493 128.949 138.496 C 128.952 150.132 133.67 160.678 141.289 168.346 C 141.32 168.382 141.332 168.424 141.362 168.458 C 141.392 168.491 141.438 168.503 141.474 168.53 C 149.141 176.152 159.694 180.871 171.336 180.871 C 182.974 180.871 193.527 176.149 201.195 168.533 C 201.231 168.503 201.273 168.488 201.31 168.458 C 201.343 168.421 201.355 168.379 201.385 168.343 C 209.001 160.678 213.72 150.132 213.723 138.496 C 213.723 138.493 213.723 138.49 213.723 138.487 C 213.723 138.484 213.723 138.481 213.723 138.478 C 213.72 126.845 209.001 116.298 201.388 108.634 C 201.358 108.598 201.343 108.552 201.31 108.516 C 201.276 108.48 201.231 108.468 201.192 108.44 C 193.863 101.154 183.879 96.572 172.848 96.179 L 172.848 62.448 C 176.777 61.731 179.768 58.301 179.768 54.17 C 179.768 49.518 175.988 45.737 171.336 45.737 C 166.687 45.737 162.903 49.518 162.903 54.17 C 162.903 58.301 165.894 61.731 169.823 62.448 L 169.823 96.176 C 158.79 96.569 148.808 101.154 141.477 108.437 C 141.441 108.468 141.398 108.48 141.362 108.513 C 141.326 108.546 141.317 108.592 141.286 108.628 C 133.667 116.292 128.952 126.842 128.949 138.475 C 128.949 138.481 128.949 138.484 128.949 138.487 Z M 138.755 136.974 L 132.049 136.974 C 132.421 127.265 136.311 118.464 142.496 111.789 L 147.224 116.516 C 147.52 116.812 147.907 116.958 148.294 116.958 C 148.681 116.958 149.069 116.809 149.365 116.516 C 149.955 115.926 149.955 114.967 149.365 114.378 L 144.635 109.647 C 151.313 103.462 160.111 99.572 169.82 99.2 L 169.82 105.903 C 169.82 106.737 170.498 107.415 171.333 107.415 C 172.168 107.415 172.845 106.737 172.845 105.903 L 172.845 99.2 C 182.554 99.572 191.356 103.462 198.034 109.647 L 193.306 114.375 C 192.717 114.964 192.717 115.923 193.306 116.513 C 193.603 116.809 193.99 116.955 194.377 116.955 C 194.764 116.955 195.151 116.806 195.448 116.513 L 200.175 111.786 C 206.361 118.464 210.25 127.262 210.622 136.971 L 203.917 136.971 C 203.082 136.971 202.405 137.649 202.405 138.484 C 202.405 139.319 203.082 139.996 203.917 139.996 L 210.616 139.996 C 210.244 149.705 206.355 158.507 200.169 165.182 L 195.439 160.454 C 194.849 159.865 193.89 159.865 193.3 160.454 C 192.711 161.044 192.711 162.003 193.3 162.593 L 198.031 167.32 C 191.353 173.506 182.551 177.395 172.842 177.767 L 172.842 171.065 C 172.842 170.23 172.164 169.553 171.33 169.553 C 170.495 169.553 169.817 170.23 169.817 171.065 L 169.817 177.767 C 160.108 177.395 151.307 173.509 144.632 167.32 L 149.362 162.593 C 149.952 162.003 149.952 161.044 149.362 160.454 C 148.772 159.865 147.813 159.865 147.224 160.454 L 142.493 165.182 C 136.308 158.507 132.418 149.705 132.046 139.996 L 138.749 139.996 C 139.583 139.996 140.261 139.319 140.261 138.484 C 140.261 137.649 139.589 136.974 138.755 136.974 Z M 165.928 54.17 C 165.928 51.188 168.353 48.762 171.336 48.762 C 174.318 48.762 176.744 51.188 176.744 54.17 C 176.744 57.152 174.318 59.578 171.336 59.578 C 168.353 59.578 165.928 57.152 165.928 54.17 Z" style="fill: rgb(31, 171, 166);"/>
    <path d="M 162.189 148.577 C 162.561 148.577 162.933 148.441 163.224 148.169 L 171.659 140.256 L 191.625 148.462 C 191.812 148.538 192.006 148.577 192.199 148.577 C 192.792 148.577 193.358 148.223 193.597 147.639 C 193.914 146.868 193.545 145.985 192.774 145.667 L 172.845 137.477 L 172.845 113.625 C 172.845 112.79 172.168 112.112 171.333 112.112 C 170.498 112.112 169.82 112.79 169.82 113.625 L 169.82 137.833 L 161.152 145.964 C 160.544 146.535 160.514 147.491 161.085 148.102 C 161.385 148.414 161.787 148.577 162.189 148.577 Z" style="fill: rgb(31, 171, 166);"/>
  </g>
</svg>