<?xml version="1.0" encoding="utf-8"?>
<svg viewBox="0 0 500 500" xmlns="http://www.w3.org/2000/svg">
  <defs>
    <linearGradient id="color-0">
      <stop style="stop-color: rgb(31, 171, 166);"/>
    </linearGradient>
  </defs>
  <path style="stroke: rgb(0, 0, 0); fill: rgb(31, 171, 166);" d="M 48.752 104.514"/>
  <path style="stroke: rgb(0, 0, 0); fill: url(#color-0);" d="M 66.304 104.515"/>
  <path style="stroke: rgb(0, 0, 0); fill: url(#color-0);" d="M 78.445 134.743"/>
  <path style="stroke: rgb(0, 0, 0); fill: url(#color-0);" d="M 48.644 104.515"/>
  <path style="stroke: rgb(0, 0, 0); fill: url(#color-0);" d="M 60.784 134.743"/>
  <g transform="matrix(0.158337, 0, 0, -0.158337, -38.759624, 631.998718)" fill="#000000" stroke="none" style="">
    <g transform="matrix(0.631564, 0, 0, 0.631564, -4707.642578, -2614.624756)" fill="#000000" stroke="none">
      <path style="stroke: rgb(0, 0, 0); fill: url(#color-0);" d="M 8280.677 9341.516"/>
      <path style="stroke: rgb(0, 0, 0); fill: url(#color-0);" d="M 8016.885 9402.308"/>
      <path style="stroke: rgb(0, 0, 0); fill: url(#color-0);" d="M 8173.451 9414.763"/>
      <path style="stroke: rgb(0, 0, 0); fill: url(#color-0);" d="M 8294.854 9112.484"/>
      <path style="stroke: rgb(0, 0, 0); fill: url(#color-0);" d="M 8173.449 9414.767"/>
      <path style="stroke: rgb(0, 0, 0); fill: url(#color-0);" d="M 8382.961 9319.826"/>
      <path style="stroke: rgb(0, 0, 0); fill: url(#color-0);" d="M 8265.696 9379.344"/>
      <path style="stroke: rgb(0, 0, 0); fill: url(#color-0);" d="M 8384.166 9084.367"/>
      <g transform="matrix(0.304724, 0, 0, 0.298848, 7474.564453, 5664.043457)" fill="#000000" stroke="none" style="">
        <g transform="matrix(1.102921, 0, 0, 1.100755, -959.390015, -732.216797)" fill="#000000" stroke="none">
          <path style="stroke: rgb(0, 0, 0); fill: url(#color-0);" d="M 35.368 103.375" transform="matrix(29.754255, 0, 0, -30.398991, 3568.479892, 15944.943384)"/>
          <path style="stroke: rgb(0, 0, 0); fill: url(#color-0);" d="M 0 99.162" transform="matrix(29.754255, 0, 0, -30.398991, 4982.054965, 14897.974634)"/>
          <g transform="matrix(4.449027, 0, 0, 4.545431, 1417.935913, -3323.695068)" fill="#000000" stroke="none" style="">
            <g transform="matrix(0.631564, 0, 0, 0.631564, -4707.642578, -2614.624756)" fill="#000000" stroke="none">
              <path style="stroke: rgb(0, 0, 0); fill: url(#color-0);" d="M 8280.677 9341.516"/>
              <path style="stroke: rgb(0, 0, 0); fill: url(#color-0);" d="M 8016.885 9402.308"/>
              <path style="stroke: rgb(0, 0, 0); fill: url(#color-0);" d="M 8173.451 9414.763"/>
              <path style="stroke: rgb(0, 0, 0); fill: url(#color-0);" d="M 8294.854 9112.484"/>
              <path style="stroke: rgb(0, 0, 0); fill: url(#color-0);" d="M 8173.449 9414.767"/>
              <path style="stroke: rgb(0, 0, 0); fill: url(#color-0);" d="M 8382.961 9319.826"/>
              <path style="stroke: rgb(0, 0, 0); fill: url(#color-0);" d="M 8265.696 9379.344"/>
              <path style="stroke: rgb(0, 0, 0); fill: url(#color-0);" d="M 8384.166 9084.367"/>
              <g transform="matrix(1.545121, 0, 0, 1.545121, 7563.568359, 4231.925293)" fill="#000000" stroke="none" style="">
                <g transform="matrix(0.631564, 0, 0, 0.631564, -4707.642578, -2614.624756)" fill="#000000" stroke="none">
                  <path style="stroke: rgb(0, 0, 0); fill: url(#color-0);" d="M 8280.677 9341.516"/>
                  <path style="stroke: rgb(0, 0, 0); fill: url(#color-0);" d="M 8016.885 9402.308"/>
                  <path style="stroke: rgb(0, 0, 0); fill: url(#color-0);" d="M 8173.451 9414.763"/>
                  <path style="stroke: rgb(0, 0, 0); fill: url(#color-0);" d="M 8294.854 9112.484"/>
                  <g transform="matrix(1.538625, 0, 0, 1.538625, 7534.930664, 4247.550293)" fill="#000000" stroke="none" style="">
                    <g transform="matrix(0.631564, 0, 0.000111, 0.631564, -4708.52832, -2614.624756)" fill="#000000" stroke="none" style="">
                      <path style="stroke: rgb(0, 0, 0); fill: rgb(31, 171, 166);" d="M 7569.285 9577.716"/>
                      <path style="fill: rgb(216, 216, 216); stroke: rgb(0, 0, 0);" d="M 5293.237 9836.277"/>
                      <path style="fill: rgb(216, 216, 216); stroke: rgb(0, 0, 0);" d="M 5428.863 9498.732"/>
                      <g transform="matrix(1.76815, 0, -0.000311, 1.76815, 6792.576172, 3687.288574)" fill="#000000" stroke="none" style="">
                        <g transform="matrix(0.631564, 0, 0, 0.631564, -4707.642578, -2614.624756)" fill="#000000" stroke="none">
                          <path style="stroke: rgb(0, 0, 0); fill: url(#color-0);" d="M 8280.677 9341.516"/>
                          <path style="stroke: rgb(0, 0, 0); fill: url(#color-0);" d="M 8016.885 9402.308"/>
                          <path style="stroke: rgb(0, 0, 0); fill: url(#color-0);" d="M 8173.451 9414.763"/>
                          <path style="stroke: rgb(0, 0, 0); fill: url(#color-0);" d="M 8294.854 9112.484"/>
                          <path style="stroke: rgb(0, 0, 0); fill: url(#color-0);" d="M 8173.449 9414.767"/>
                          <path style="stroke: rgb(0, 0, 0); fill: url(#color-0);" d="M 8382.961 9319.826"/>
                          <path style="stroke: rgb(0, 0, 0); fill: url(#color-0);" d="M 8265.696 9379.344"/>
                          <path style="stroke: rgb(0, 0, 0); fill: url(#color-0);" d="M 8384.166 9084.367"/>
                          <g transform="matrix(0.304724, 0, 0, 0.298848, 7474.564453, 5664.043457)" fill="#000000" stroke="none" style="">
                            <g transform="matrix(1.102921, 0, 0, 1.100755, -959.390015, -732.216797)" fill="#000000" stroke="none">
                              <path style="stroke: rgb(0, 0, 0); fill: url(#color-0);" d="M 35.368 103.375" transform="matrix(29.754255, 0, 0, -30.398991, 3568.479892, 15944.943384)"/>
                              <path style="stroke: rgb(0, 0, 0); fill: url(#color-0);" d="M 0 99.162" transform="matrix(29.754255, 0, 0, -30.398991, 4982.054965, 14897.974634)"/>
                              <path style="stroke: rgb(0, 0, 0); fill: url(#color-0);" d="M 4704.223 12067.001"/>
                              <path style="stroke: rgb(0, 0, 0); fill: url(#color-0);" d="M 5065.449 11148.103"/>
                              <g transform="matrix(4.7112, 0, 0, 4.813285, 2563.381104, -3967.982422)" fill="#000000" stroke="none" style="">
                                <g transform="matrix(0.631564, 0, 0, 0.631564, -4707.642578, -2614.624756)" fill="#000000" stroke="none">
                                  <path style="stroke: rgb(0, 0, 0); fill: url(#color-0);" d="M 8280.677 9341.516"/>
                                  <path style="stroke: rgb(0, 0, 0); fill: url(#color-0);" d="M 8016.885 9402.308"/>
                                  <g transform="matrix(1.170113, 0, 0, 1.170113, 8482.695313, 5139.725098)" fill="#000000" stroke="none" style="">
                                    <path style="stroke: rgb(0, 0, 0); fill: url(#color-0);" d="M -586.434 3582.266"/>
                                    <path style="stroke: rgb(0, 0, 0); fill: url(#color-0);" d="M -488.581 3338.623"/>
                                    <g transform="matrix(1.276229, 0, 0, 1.276229, -1166.372192, -669.361755)" fill="#000000" stroke="none" style="">
                                      <g transform="matrix(0.631564, 0, 0, 0.631564, -4707.642578, -2614.624756)" fill="#000000" stroke="none">
                                        <path style="stroke: rgb(0, 0, 0); fill: url(#color-0);" d="M 8280.677 9341.516"/>
                                        <path style="stroke: rgb(0, 0, 0); fill: url(#color-0);" d="M 8016.885 9402.308"/>
                                        <g transform="matrix(0.895112, 0, 0, 0.895112, 7189.253906, 5442.646484)" fill="#000000" stroke="none" style="">
                                          <path d="M3719 5153 c-12 -13 -14 -184 -17 -1000 l-2 -983 -278 0 -278 0 -324 393 c-179 215 -343 409 -365 430 -22 21 -78 57 -124 80 l-84 42 -534 3 c-366 2 -539 -1 -553 -8 -23 -12 -28 -73 -7 -87 6 -4 244 -11 527 -14 351 -4 526 -9 550 -17 104 -34 132 -62 450 -447 l307 -370 -644 -5 -645 -5 -19 -24 c-18 -22 -19 -44 -19 -386 0 -406 6 -476 55 -613 90 -250 298 -441 562 -514 74 -21 105 -22 561 -27 l482 -6 -96 -110 c-52 -60 -99 -110 -102 -110 -4 0 -32 16 -62 36 -91 59 -134 71 -257 77 -134 5 -214 -14 -308 -76 -237 -155 -316 -441 -192 -692 41 -83 151 -195 229 -232 214 -104 457 -67 620 95 101 100 158 233 158 372 0 93 -23 186 -66 263 -19 35 -31 69 -27 75 4 7 65 78 136 160 l129 147 403 0 403 0 119 -143 c65 -78 124 -150 131 -159 11 -13 7 -26 -24 -82 -47 -87 -64 -153 -64 -257 0 -146 52 -273 154 -374 210 -208 543 -208 751 0 208 207 208 542 0 751 -111 111 -218 154 -385 154 -110 0 -199 -26 -285 -84 l-52 -34 -91 108 c-51 60 -92 111 -92 114 0 3 143 6 319 6 343 0 431 8 555 54 197 71 370 232 460 428 72 155 71 142 71 743 0 460 -3 558 -18 664 -37 262 -94 459 -192 659 -174 359 -435 616 -809 798 -292 142 -653 224 -991 224 -92 0 -115 -3 -126 -17z m351 -114 c126 -13 269 -41 382 -73 109 -32 257 -86 263 -96 3 -5 -197 -345 -445 -756 l-450 -748 0 845 0 845 73 -3 c39 -2 119 -8 177 -14z m942 -326 c178 -117 368 -322 478 -517 26 -47 30 -60 19 -67 -8 -5 -349 -183 -759 -395 -410 -213 -764 -398 -788 -411 l-44 -25 14 24 c7 14 213 356 457 761 l444 737 56 -32 c31 -17 86 -51 123 -75z m643 -924 c39 -135 72 -338 81 -502 l7 -117 -908 0 c-500 0 -906 2 -904 4 2 2 310 162 684 356 374 194 743 386 820 426 l140 73 23 -62 c13 -34 39 -114 57 -178z m-2018 -1401 l550 -663 -889 -3 c-1006 -2 -967 -5 -1128 74 -79 39 -109 62 -180 133 -92 93 -140 171 -181 296 -22 67 -23 86 -27 448 l-3 377 654 0 655 0 549 -662z m2101 280 c-4 -368 -5 -386 -27 -453 -63 -192 -185 -333 -366 -421 -143 -70 -174 -74 -615 -74 l-386 0 -544 657 c-300 361 -546 661 -548 665 -2 4 557 8 1243 8 l1246 0 -3 -382z m-2863 -1303 c84 -22 150 -61 206 -123 81 -88 111 -165 111 -281 -1 -235 -184 -414 -420 -413 -119 1 -206 39 -289 124 -162 167 -161 420 3 583 106 105 250 146 389 110z m2200 0 c168 -44 295 -184 314 -347 46 -390 -410 -626 -692 -359 -122 116 -164 280 -111 436 46 133 153 231 294 269 72 19 123 19 195 1z" style="fill: url(#color-0);"/>
                                        </g>
                                      </g>
                                    </g>
                                  </g>
                                </g>
                              </g>
                            </g>
                          </g>
                        </g>
                      </g>
                    </g>
                  </g>
                </g>
              </g>
            </g>
          </g>
        </g>
      </g>
    </g>
  </g>
</svg>