<?xml version="1.0" encoding="utf-8"?>
<svg viewBox="0 0 500 500" xmlns="http://www.w3.org/2000/svg">
  <defs>
    <linearGradient id="color-0">
      <stop style="stop-color: rgb(31, 171, 166);"/>
    </linearGradient>
  </defs>
  <path style="stroke: rgb(0, 0, 0); fill: rgb(31, 171, 166);" d="M 48.752 104.514"/>
  <path style="stroke: rgb(0, 0, 0); fill: url(#color-0);" d="M 66.304 104.515"/>
  <path style="stroke: rgb(0, 0, 0); fill: url(#color-0);" d="M 78.445 134.743"/>
  <path style="stroke: rgb(0, 0, 0); fill: url(#color-0);" d="M 48.644 104.515"/>
  <path style="stroke: rgb(0, 0, 0); fill: url(#color-0);" d="M 60.784 134.743"/>
  <g transform="matrix(0.158337, 0, 0, -0.158337, -38.759624, 631.998718)" fill="#000000" stroke="none" style="">
    <g transform="matrix(0.631564, 0, 0, 0.631564, -4707.642578, -2614.624756)" fill="#000000" stroke="none">
      <path style="stroke: rgb(0, 0, 0); fill: url(#color-0);" d="M 8280.677 9341.516"/>
      <path style="stroke: rgb(0, 0, 0); fill: url(#color-0);" d="M 8016.885 9402.308"/>
      <path style="stroke: rgb(0, 0, 0); fill: url(#color-0);" d="M 8173.451 9414.763"/>
      <path style="stroke: rgb(0, 0, 0); fill: url(#color-0);" d="M 8294.854 9112.484"/>
      <path style="stroke: rgb(0, 0, 0); fill: url(#color-0);" d="M 8173.449 9414.767"/>
      <path style="stroke: rgb(0, 0, 0); fill: url(#color-0);" d="M 8382.961 9319.826"/>
      <path style="stroke: rgb(0, 0, 0); fill: url(#color-0);" d="M 8265.696 9379.344"/>
      <path style="stroke: rgb(0, 0, 0); fill: url(#color-0);" d="M 8384.166 9084.367"/>
      <g transform="matrix(0.304724, 0, 0, 0.298848, 7474.564453, 5664.043457)" fill="#000000" stroke="none" style="">
        <g transform="matrix(1.102921, 0, 0, 1.100755, -959.390015, -732.216797)" fill="#000000" stroke="none">
          <path style="stroke: rgb(0, 0, 0); fill: url(#color-0);" d="M 35.368 103.375" transform="matrix(29.754255, 0, 0, -30.398991, 3568.479892, 15944.943384)"/>
          <path style="stroke: rgb(0, 0, 0); fill: url(#color-0);" d="M 0 99.162" transform="matrix(29.754255, 0, 0, -30.398991, 4982.054965, 14897.974634)"/>
          <g transform="matrix(4.449027, 0, 0, 4.545431, 1417.935913, -3323.695068)" fill="#000000" stroke="none" style="">
            <g transform="matrix(0.631564, 0, 0, 0.631564, -4707.642578, -2614.624756)" fill="#000000" stroke="none">
              <path style="stroke: rgb(0, 0, 0); fill: url(#color-0);" d="M 8280.677 9341.516"/>
              <path style="stroke: rgb(0, 0, 0); fill: url(#color-0);" d="M 8016.885 9402.308"/>
              <path style="stroke: rgb(0, 0, 0); fill: url(#color-0);" d="M 8173.451 9414.763"/>
              <path style="stroke: rgb(0, 0, 0); fill: url(#color-0);" d="M 8294.854 9112.484"/>
              <path style="stroke: rgb(0, 0, 0); fill: url(#color-0);" d="M 8173.449 9414.767"/>
              <path style="stroke: rgb(0, 0, 0); fill: url(#color-0);" d="M 8382.961 9319.826"/>
              <path style="stroke: rgb(0, 0, 0); fill: url(#color-0);" d="M 8265.696 9379.344"/>
              <path style="stroke: rgb(0, 0, 0); fill: url(#color-0);" d="M 8384.166 9084.367"/>
              <g transform="matrix(1.545121, 0, 0, 1.545121, 7563.568359, 4231.925293)" fill="#000000" stroke="none" style="">
                <g transform="matrix(0.631564, 0, 0, 0.631564, -4707.642578, -2614.624756)" fill="#000000" stroke="none">
                  <path style="stroke: rgb(0, 0, 0); fill: url(#color-0);" d="M 8280.677 9341.516"/>
                  <path style="stroke: rgb(0, 0, 0); fill: url(#color-0);" d="M 8016.885 9402.308"/>
                  <path style="stroke: rgb(0, 0, 0); fill: url(#color-0);" d="M 8173.451 9414.763"/>
                  <path style="stroke: rgb(0, 0, 0); fill: url(#color-0);" d="M 8294.854 9112.484"/>
                  <g transform="matrix(1.538625, 0, 0, 1.538625, 7534.930664, 4247.550293)" fill="#000000" stroke="none" style="">
                    <g transform="matrix(0.631564, 0, 0.000111, 0.631564, -4708.52832, -2614.624756)" fill="#000000" stroke="none" style="">
                      <path style="stroke: rgb(0, 0, 0); fill: rgb(31, 171, 166);" d="M 7822.492 9667.569"/>
                      <path style="stroke: rgb(0, 0, 0); fill: url(#color-0);" d="M 8018.495 9667.557"/>
                      <path style="stroke: rgb(0, 0, 0); fill: url(#color-0);" d="M 8154.133 9330.001"/>
                      <g transform="matrix(1.76815, 0, -0.000311, 1.76815, 7216.057617, 3777.141357)" fill="#000000" stroke="none" style="">
                        <g transform="matrix(0.631564, 0, 0, 0.631564, -4707.642578, -2614.624756)" fill="#000000" stroke="none">
                          <path style="stroke: rgb(0, 0, 0); fill: url(#color-0);" d="M 8280.677 9341.516"/>
                          <path style="stroke: rgb(0, 0, 0); fill: url(#color-0);" d="M 8016.885 9402.308"/>
                          <path style="stroke: rgb(0, 0, 0); fill: url(#color-0);" d="M 8173.451 9414.763"/>
                          <path style="stroke: rgb(0, 0, 0); fill: url(#color-0);" d="M 8294.854 9112.484"/>
                          <path style="stroke: rgb(0, 0, 0); fill: url(#color-0);" d="M 8173.449 9414.767"/>
                          <path style="stroke: rgb(0, 0, 0); fill: url(#color-0);" d="M 8382.961 9319.826"/>
                          <path style="stroke: rgb(0, 0, 0); fill: url(#color-0);" d="M 8265.696 9379.344"/>
                          <path style="stroke: rgb(0, 0, 0); fill: url(#color-0);" d="M 8384.166 9084.367"/>
                          <g transform="matrix(0.304724, 0, 0, 0.298848, 7474.564453, 5664.043457)" fill="#000000" stroke="none" style="">
                            <g transform="matrix(1.102921, 0, 0, 1.100755, -959.390015, -732.216797)" fill="#000000" stroke="none">
                              <path style="stroke: rgb(0, 0, 0); fill: url(#color-0);" d="M 35.368 103.375" transform="matrix(29.754255, 0, 0, -30.398991, 3568.479892, 15944.943384)"/>
                              <path style="stroke: rgb(0, 0, 0); fill: url(#color-0);" d="M 0 99.162" transform="matrix(29.754255, 0, 0, -30.398991, 4982.054965, 14897.974634)"/>
                              <path style="stroke: rgb(0, 0, 0); fill: url(#color-0);" d="M 4704.223 12067.001"/>
                              <path style="stroke: rgb(0, 0, 0); fill: url(#color-0);" d="M 5065.449 11148.103"/>
                              <g transform="matrix(4.7112, 0, 0, 4.813285, 2563.381104, -3967.982422)" fill="#000000" stroke="none" style="">
                                <g transform="matrix(0.631564, 0, 0, 0.631564, -4707.642578, -2614.624756)" fill="#000000" stroke="none">
                                  <path style="stroke: rgb(0, 0, 0); fill: url(#color-0);" d="M 8280.677 9341.516"/>
                                  <path style="stroke: rgb(0, 0, 0); fill: url(#color-0);" d="M 8016.885 9402.308"/>
                                  <g transform="matrix(1.170113, 0, 0, 1.170113, 8482.695313, 5139.725098)" fill="#000000" stroke="none" style="">
                                    <g transform="matrix(0.581925, 0, 0, 0.581925, -2134.385742, -679.854431)" fill="#000000" stroke="none" style="">
                                      <path d="M3630 8291 c-82 -27 -144 -87 -173 -168 -17 -46 -17 -61 -2 -239 8 -104 18 -214 21 -245 l6 -57 -58 -26 c-161 -74 -265 -213 -295 -395 -10 -57 -16 -71 -39 -84 -44 -27 -113 -104 -142 -160 -84 -162 -74 -411 23 -554 93 -135 264 -202 480 -188 118 8 124 3 124 -94 -1 -71 -20 -117 -105 -256 -93 -151 -152 -292 -182 -430 -18 -88 -16 -358 5 -475 46 -253 157 -488 291 -620 l46 -44 0 -646 0 -647 -57 -12 c-124 -28 -232 -108 -274 -205 -27 -61 -35 -172 -24 -341 l7 -115 1613 0 c1404 0 1624 2 1700 15 237 42 414 170 510 370 148 309 121 714 -89 1345 -111 333 -136 457 -136 665 0 111 4 140 24 198 76 215 259 347 481 347 139 0 267 -53 365 -150 199 -199 198 -520 -1 -719 -70 -71 -146 -111 -269 -145 -54 -14 -100 -33 -107 -43 -14 -18 -17 -70 -7 -98 9 -21 56 -45 91 -45 64 1 174 32 263 76 79 39 110 62 181 133 71 71 94 102 133 181 61 125 79 212 73 355 -4 91 -10 125 -36 196 -108 295 -367 479 -674 479 -124 0 -205 -19 -317 -73 -69 -33 -102 -58 -176 -132 -75 -74 -99 -106 -133 -176 -58 -120 -81 -219 -88 -375 -9 -212 19 -360 142 -733 130 -396 170 -595 169 -841 -1 -124 -5 -170 -22 -231 -75 -276 -253 -399 -577 -399 l-104 0 60 83 c247 342 334 812 243 1317 -84 471 -250 795 -583 1143 -117 121 -281 268 -559 501 -346 290 -492 440 -580 595 -80 144 -95 222 -132 701 -12 146 -29 308 -40 360 -51 252 -193 399 -447 463 -49 12 -96 31 -108 42 -11 11 -79 140 -152 288 -133 268 -133 268 -177 288 -50 22 -148 33 -186 20z m258 -498 l137 -301 79 -12 c253 -37 357 -124 400 -332 9 -43 25 -194 36 -335 35 -449 54 -566 111 -692 104 -229 259 -395 769 -821 590 -495 804 -776 924 -1213 125 -456 110 -882 -42 -1201 -65 -136 -118 -213 -215 -314 l-81 -82 -909 0 -910 0 7 65 c14 138 68 250 144 302 60 40 110 45 519 50 l393 5 25 30 c31 37 32 79 2 114 -23 26 -26 27 -153 29 -111 1 -140 5 -209 29 -112 38 -211 103 -295 193 -196 210 -235 503 -103 773 38 77 61 109 127 176 67 66 99 89 176 127 106 52 211 77 320 77 l70 0 0 79 c0 92 2 91 -125 91 -250 0 -505 -124 -659 -321 -68 -87 -128 -206 -157 -315 -17 -61 -22 -108 -22 -209 -1 -160 15 -232 83 -372 43 -88 64 -117 146 -202 107 -112 108 -105 -20 -116 -270 -23 -431 -209 -462 -532 l-7 -73 -258 0 -259 0 0 75 c0 139 54 188 224 201 39 3 86 7 104 10 l32 5 0 782 0 783 -60 52 c-162 143 -265 378 -292 669 -20 215 15 398 109 561 139 238 163 288 179 360 30 135 0 256 -81 331 -57 52 -106 65 -221 57 -181 -14 -292 28 -344 129 -22 44 -25 62 -25 155 0 90 3 112 23 152 28 57 88 110 141 126 21 7 45 19 52 28 8 10 16 58 19 122 5 71 13 118 24 140 49 94 154 164 267 177 l59 7 -5 51 c-3 29 -12 162 -20 297 -8 135 -17 267 -20 293 l-6 48 61 -3 62 -3 136 -302z" style="fill: url(#color-0);"/>
                                    </g>
                                  </g>
                                </g>
                              </g>
                            </g>
                          </g>
                        </g>
                      </g>
                    </g>
                  </g>
                </g>
              </g>
            </g>
          </g>
        </g>
      </g>
    </g>
  </g>
</svg>