<?xml version="1.0" encoding="utf-8"?>
<svg viewBox="0 0 500 500" xmlns="http://www.w3.org/2000/svg">
  <defs>
    <linearGradient id="color-0">
      <stop style="stop-color: rgb(31, 171, 166);"/>
    </linearGradient>
  </defs>
  <path style="stroke: rgb(0, 0, 0); fill: rgb(31, 171, 166);" d="M 48.752 104.514"/>
  <path style="stroke: rgb(0, 0, 0); fill: url(#color-0);" d="M 66.304 104.515"/>
  <path style="stroke: rgb(0, 0, 0); fill: url(#color-0);" d="M 78.445 134.743"/>
  <path style="stroke: rgb(0, 0, 0); fill: url(#color-0);" d="M 48.644 104.515"/>
  <path style="stroke: rgb(0, 0, 0); fill: url(#color-0);" d="M 60.784 134.743"/>
  <g transform="matrix(0.158337, 0, 0, -0.158337, -38.759624, 631.998718)" fill="#000000" stroke="none" style="">
    <g transform="matrix(0.631564, 0, 0, 0.631564, -4707.642578, -2614.624756)" fill="#000000" stroke="none">
      <path style="stroke: rgb(0, 0, 0); fill: url(#color-0);" d="M 8280.677 9341.516"/>
      <path style="stroke: rgb(0, 0, 0); fill: url(#color-0);" d="M 8016.885 9402.308"/>
      <path style="stroke: rgb(0, 0, 0); fill: url(#color-0);" d="M 8173.451 9414.763"/>
      <path style="stroke: rgb(0, 0, 0); fill: url(#color-0);" d="M 8294.854 9112.484"/>
      <path style="stroke: rgb(0, 0, 0); fill: url(#color-0);" d="M 8173.449 9414.767"/>
      <path style="stroke: rgb(0, 0, 0); fill: url(#color-0);" d="M 8382.961 9319.826"/>
      <path style="stroke: rgb(0, 0, 0); fill: url(#color-0);" d="M 8265.696 9379.344"/>
      <path style="stroke: rgb(0, 0, 0); fill: url(#color-0);" d="M 8384.166 9084.367"/>
      <g transform="matrix(0.304724, 0, 0, 0.298848, 7474.564453, 5664.043457)" fill="#000000" stroke="none" style="">
        <g transform="matrix(1.102921, 0, 0, 1.100755, -959.390015, -732.216797)" fill="#000000" stroke="none">
          <path style="stroke: rgb(0, 0, 0); fill: url(#color-0);" d="M 35.368 103.375" transform="matrix(29.754255, 0, 0, -30.398991, 3568.479892, 15944.943384)"/>
          <path style="stroke: rgb(0, 0, 0); fill: url(#color-0);" d="M 0 99.162" transform="matrix(29.754255, 0, 0, -30.398991, 4982.054965, 14897.974634)"/>
          <g transform="matrix(4.449027, 0, 0, 4.545431, 1417.935913, -3323.695068)" fill="#000000" stroke="none" style="">
            <g transform="matrix(0.631564, 0, 0, 0.631564, -4707.642578, -2614.624756)" fill="#000000" stroke="none">
              <path style="stroke: rgb(0, 0, 0); fill: url(#color-0);" d="M 8280.677 9341.516"/>
              <path style="stroke: rgb(0, 0, 0); fill: url(#color-0);" d="M 8016.885 9402.308"/>
              <path style="stroke: rgb(0, 0, 0); fill: url(#color-0);" d="M 8173.451 9414.763"/>
              <path style="stroke: rgb(0, 0, 0); fill: url(#color-0);" d="M 8294.854 9112.484"/>
              <path style="stroke: rgb(0, 0, 0); fill: url(#color-0);" d="M 8173.449 9414.767"/>
              <path style="stroke: rgb(0, 0, 0); fill: url(#color-0);" d="M 8382.961 9319.826"/>
              <path style="stroke: rgb(0, 0, 0); fill: url(#color-0);" d="M 8265.696 9379.344"/>
              <path style="stroke: rgb(0, 0, 0); fill: url(#color-0);" d="M 8384.166 9084.367"/>
              <g transform="matrix(1.545121, 0, 0, 1.545121, 7563.568359, 4231.925293)" fill="#000000" stroke="none" style="">
                <g transform="matrix(0.631564, 0, 0, 0.631564, -4707.642578, -2614.624756)" fill="#000000" stroke="none">
                  <path style="stroke: rgb(0, 0, 0); fill: url(#color-0);" d="M 8280.677 9341.516"/>
                  <path style="stroke: rgb(0, 0, 0); fill: url(#color-0);" d="M 8016.885 9402.308"/>
                  <path style="stroke: rgb(0, 0, 0); fill: url(#color-0);" d="M 8173.451 9414.763"/>
                  <path style="stroke: rgb(0, 0, 0); fill: url(#color-0);" d="M 8294.854 9112.484"/>
                  <g transform="matrix(1.538625, 0, 0, 1.538625, 7534.930664, 4247.550293)" fill="#000000" stroke="none" style="">
                    <g transform="matrix(0.631564, 0, 0.000111, 0.631564, -4708.52832, -2614.624756)" fill="#000000" stroke="none" style="">
                      <path style="stroke: rgb(0, 0, 0); fill: rgb(31, 171, 166);" d="M 7993.71 9623.116"/>
                      <path style="stroke: rgb(0, 0, 0); fill: url(#color-0);" d="M 8189.713 9623.105"/>
                      <path style="stroke: rgb(0, 0, 0); fill: url(#color-0);" d="M 8325.351 9285.549"/>
                      <path style="stroke: rgb(0, 0, 0); fill: url(#color-0);" d="M 7992.504 9623.105"/>
                      <path style="stroke: rgb(0, 0, 0); fill: url(#color-0);" d="M 8128.131 9285.549"/>
                      <g transform="matrix(1.76815, 0, -0.000311, 1.76815, 7017.50293, 3732.689453)" fill="#000000" stroke="none" style="">
                        <g transform="matrix(0.631564, 0, 0, 0.631564, -4707.642578, -2614.624756)" fill="#000000" stroke="none">
                          <path style="stroke: rgb(0, 0, 0); fill: url(#color-0);" d="M 8280.677 9341.516"/>
                          <path style="stroke: rgb(0, 0, 0); fill: url(#color-0);" d="M 8016.885 9402.308"/>
                          <path style="stroke: rgb(0, 0, 0); fill: url(#color-0);" d="M 8173.451 9414.763"/>
                          <path style="stroke: rgb(0, 0, 0); fill: url(#color-0);" d="M 8294.854 9112.484"/>
                          <path style="stroke: rgb(0, 0, 0); fill: url(#color-0);" d="M 8173.449 9414.767"/>
                          <path style="stroke: rgb(0, 0, 0); fill: url(#color-0);" d="M 8382.961 9319.826"/>
                          <path style="stroke: rgb(0, 0, 0); fill: url(#color-0);" d="M 8265.696 9379.344"/>
                          <path style="stroke: rgb(0, 0, 0); fill: url(#color-0);" d="M 8384.166 9084.367"/>
                          <g transform="matrix(0.304724, 0, 0, 0.298848, 7474.564453, 5664.043457)" fill="#000000" stroke="none" style="">
                            <g transform="matrix(1.102921, 0, 0, 1.100755, -959.390015, -732.216797)" fill="#000000" stroke="none">
                              <path style="stroke: rgb(0, 0, 0); fill: url(#color-0);" d="M 35.368 103.375" transform="matrix(29.754255, 0, 0, -30.398991, 3568.479892, 15944.943384)"/>
                              <path style="stroke: rgb(0, 0, 0); fill: url(#color-0);" d="M 0 99.162" transform="matrix(29.754255, 0, 0, -30.398991, 4982.054965, 14897.974634)"/>
                              <g transform="matrix(4.449027, 0, 0, 4.545431, 1417.935913, -3323.695068)" fill="#000000" stroke="none" style="">
                                <g transform="matrix(0.631564, 0, 0, 0.631564, -4707.642578, -2614.624756)" fill="#000000" stroke="none">
                                  <path style="stroke: rgb(0, 0, 0); fill: url(#color-0);" d="M 8280.677 9341.516"/>
                                  <path style="stroke: rgb(0, 0, 0); fill: url(#color-0);" d="M 8016.885 9402.308"/>
                                  <path style="stroke: rgb(0, 0, 0); fill: url(#color-0);" d="M 8173.451 9414.763"/>
                                  <path style="stroke: rgb(0, 0, 0); fill: url(#color-0);" d="M 8294.854 9112.484"/>
                                  <path style="stroke: rgb(0, 0, 0); fill: url(#color-0);" d="M 8173.449 9414.767"/>
                                  <path style="stroke: rgb(0, 0, 0); fill: url(#color-0);" d="M 8382.961 9319.826"/>
                                  <path style="stroke: rgb(0, 0, 0); fill: url(#color-0);" d="M 8265.696 9379.344"/>
                                  <path style="stroke: rgb(0, 0, 0); fill: url(#color-0);" d="M 8384.166 9084.367"/>
                                  <g transform="matrix(1.545121, 0, 0, 1.545121, 7563.568359, 4231.925293)" fill="#000000" stroke="none" style="">
                                    <g transform="matrix(0.631564, 0, 0, 0.631564, -4707.642578, -2614.624756)" fill="#000000" stroke="none">
                                      <path style="stroke: rgb(0, 0, 0); fill: url(#color-0);" d="M 8280.677 9341.516"/>
                                      <path style="stroke: rgb(0, 0, 0); fill: url(#color-0);" d="M 8016.885 9402.308"/>
                                      <path style="stroke: rgb(0, 0, 0); fill: url(#color-0);" d="M 8173.451 9414.763"/>
                                      <path style="stroke: rgb(0, 0, 0); fill: url(#color-0);" d="M 8294.854 9112.484"/>
                                      <g transform="matrix(1.538625, 0, 0, 1.538625, 7534.930664, 4247.550293)" fill="#000000" stroke="none" style="">
                                        <g transform="matrix(0.631564, 0, 0, 0.631564, -4707.642578, -2614.624756)" fill="#000000" stroke="none">
                                          <path d="M 9093.76 10231.843 C 9027.807 10228.255 8964.19 10203.14 8904.95 10157.693 C 8827.323 10098.493 8770.125 10015.074 8749.406 9931.955 C 8743.569 9908.035 8742.11 9898.466 8739.191 9851.226 C 8736.273 9804.882 8720.224 9782.757 8650.185 9728.64 C 8603.784 9692.761 8550.672 9638.942 8531.12 9607.847 C 8506.023 9568.081 8490.557 9523.233 8484.135 9472.404 C 8482.677 9459.548 8480.634 9419.483 8479.466 9383.304 C 8478.591 9347.127 8476.548 9310.351 8474.798 9301.979 C 8471.003 9281.946 8460.206 9270.285 8440.945 9265.502 C 8374.409 9248.16 8255.052 9133.347 8215.656 9048.733 C 8181.22 8975.181 8172.174 8863.059 8193.186 8773.362 C 8202.523 8733.895 8208.944 8718.347 8233.457 8672.302 C 8244.838 8651.074 8253.01 8632.836 8251.551 8631.64 C 8184.722 8571.842 8144.45 8533.57 8130.442 8516.527 C 8038.226 8405.004 8011.378 8264.478 8056.61 8131.427 C 8086.085 8044.719 8138.322 7976.249 8216.822 7922.431 C 8276.939 7880.573 8335.304 7857.55 8393.378 7852.468 C 8405.343 7851.271 8418.183 7848.581 8421.977 7846.189 C 8429.856 7841.105 8430.148 7834.827 8423.728 7800.443 C 8410.596 7730.179 8442.114 7613.573 8496.684 7528.062 C 8538.707 7462.583 8623.921 7391.423 8689.289 7366.905 C 8732.187 7351.058 8755.826 7347.769 8808.937 7349.563 C 8872.848 7351.656 8928.879 7365.111 9008.839 7397.701 C 9045.901 7412.651 9047.944 7412.352 9052.905 7393.814 C 9064.577 7349.264 9066.329 7211.43 9066.913 6356.912 L 9067.496 5665.345 L 8792.596 5664.448 C 8641.138 5664.148 9328.388 5663.849 10319.429 5663.849 C 11310.47 5663.849 11997.72 5664.148 11846.555 5664.448 L 11571.363 5665.345 L 11571.363 6164.661 L 11571.363 6663.976 L 11617.471 6640.355 C 11687.217 6604.476 11733.034 6592.517 11804.823 6590.723 C 11994.219 6585.639 12147.135 6701.349 12192.952 6883.435 C 12202.582 6922.006 12206.376 6955.792 12207.252 7006.321 C 12207.834 7045.19 12210.17 7060.738 12217.464 7072.099 C 12222.426 7079.873 12227.387 7081.069 12264.449 7084.357 C 12377.094 7093.627 12506.957 7199.171 12567.656 7330.727 C 12607.345 7416.836 12615.808 7526.865 12588.668 7608.191 C 12567.073 7673.072 12543.143 7707.158 12457.347 7796.556 L 12390.227 7865.923 L 12415.615 7919.142 C 12429.33 7948.144 12443.922 7982.828 12448.007 7995.984 C 12475.732 8089.568 12467.268 8205.577 12425.829 8295.873 C 12400.44 8350.587 12322.231 8433.109 12253.652 8477.061 C 12227.387 8493.506 12207.252 8502.177 12187.991 8504.568 C 12159.391 8507.856 12155.014 8516.826 12153.263 8572.738 C 12149.761 8684.86 12149.178 8692.933 12142.175 8724.028 C 12115.91 8840.635 12054.626 8930.033 11964.743 8983.254 C 11951.612 8990.729 11936.728 9001.492 11931.475 9007.174 C 11912.507 9026.608 11899.375 9060.394 11885.076 9127.667 C 11847.138 9304.969 11741.205 9421.874 11583.035 9460.145 C 11549.475 9468.218 11460.469 9470.311 11428.368 9464.032 C 11324.478 9443.103 11232.844 9380.613 11171.852 9289.422 C 11131.289 9228.427 11112.32 9171.918 11108.527 9100.758 C 11105.024 9035.577 11095.686 9020.927 11032.943 8979.666 C 10937.516 8916.877 10873.315 8821.799 10848.802 8707.584 C 10844.716 8689.046 10843.841 8673.498 10844.716 8638.816 C 10845.009 8614.298 10845.592 8580.213 10845.885 8563.469 L 10846.175 8532.972 L 10836.545 8522.806 C 10830.126 8515.93 10814.95 8506.961 10792.188 8496.795 C 10754.543 8480.051 10716.021 8457.627 10688.589 8436.996 C 10574.777 8350.887 10519.914 8145.18 10569.524 7990.602 C 10573.61 7977.446 10584.7 7949.939 10594.622 7929.308 C 10621.178 7872.499 10620.011 7860.241 10586.158 7837.817 C 10576.82 7831.539 10560.478 7820.774 10549.972 7814.197 C 10528.961 7800.443 10507.366 7775.327 10481.101 7734.964 C 10430.031 7656.628 10406.685 7583.973 10406.394 7501.152 C 10406.102 7376.174 10449.875 7275.114 10538.299 7197.676 C 10602.209 7141.465 10672.54 7103.493 10736.741 7090.039 C 10785.184 7079.873 10788.394 7074.791 10792.188 6996.753 C 10795.982 6918.418 10806.779 6870.28 10832.752 6816.462 C 10886.74 6704.938 10986.251 6627.199 11110.277 6599.394 C 11148.798 6590.723 11229.926 6591.321 11270.781 6600.589 C 11308.135 6609.26 11320.683 6614.044 11382.552 6642.149 C 11409.69 6654.408 11432.162 6663.976 11432.745 6663.378 C 11434.788 6661.285 11434.788 6634.376 11434.496 6158.083 L 11434.204 5665.345 L 10317.971 5665.345 L 9201.736 5665.345 L 9201.736 6098.285 C 9202.027 6778.49 9206.989 7411.156 9212.242 7417.136 C 9213.993 7419.229 9237.922 7406.971 9267.397 7389.031 C 9361.949 7331.027 9512.531 7329.83 9616.129 7386.639 C 9733.151 7450.623 9803.482 7539.423 9829.453 7656.628 C 9833.248 7673.371 9835.874 7702.374 9837.625 7742.14 C 9840.543 7806.423 9843.461 7819.877 9856.011 7828.25 C 9860.095 7830.939 9880.815 7837.518 9902.41 7843.199 C 9950.27 7855.757 9974.2 7864.726 10010.094 7884.459 C 10108.147 7937.979 10185.482 8030.965 10220.208 8137.706 C 10233.341 8177.172 10237.718 8205.278 10237.718 8245.94 C 10237.718 8306.337 10224.586 8360.753 10195.112 8420.552 C 10172.641 8466.896 10146.669 8502.774 10097.642 8554.798 C 10029.646 8627.453 10028.188 8631.939 10055.036 8692.036 C 10069.626 8724.326 10082.175 8762.598 10089.471 8796.683 C 10098.517 8840.335 10098.517 8918.671 10089.471 8962.325 C 10072.837 9040.66 10041.027 9102.252 9988.79 9156.968 C 9947.351 9200.023 9917.294 9220.054 9835.874 9257.728 L 9785.972 9281.349 L 9784.805 9378.521 C 9783.637 9465.527 9782.761 9478.384 9777.217 9498.715 C 9753.287 9588.412 9678.288 9690.667 9602.997 9736.114 C 9542.005 9772.891 9534.417 9786.046 9518.368 9883.816 C 9503.776 9972.019 9447.454 10086.234 9397.551 10128.99 C 9345.314 10173.24 9277.902 10206.429 9207.864 10221.976 C 9184.811 10227.358 9122.942 10234.235 9111.269 10233.038 C 9108.935 10232.74 9101.056 10232.142 9093.76 10231.843 Z M 9196.775 10102.678 C 9256.599 10086.533 9326.638 10034.508 9359.906 9981.288 C 9391.131 9931.655 9397.259 9899.663 9397.259 9788.438 C 9397.259 9728.042 9398.134 9707.71 9401.053 9705.319 C 9402.804 9703.823 9425.566 9692.761 9451.247 9680.802 C 9519.826 9649.107 9555.72 9625.787 9593.658 9588.412 C 9630.719 9552.234 9650.856 9517.252 9657.277 9479.579 C 9662.237 9448.185 9659.028 9377.923 9648.229 9292.112 C 9643.269 9251.749 9639.767 9214.374 9640.642 9208.694 C 9643.852 9188.362 9658.735 9180.589 9720.019 9167.134 C 9742.782 9162.051 9771.672 9153.679 9784.22 9148.596 C 9859.511 9117.799 9926.048 9057.104 9960.191 8988.935 C 9993.168 8922.857 9989.374 8831.366 9950.561 8749.442 C 9937.138 8721.337 9930.717 8711.77 9905.329 8683.664 C 9868.559 8642.702 9856.886 8621.474 9858.929 8597.256 C 9861.262 8567.057 9885.776 8542.54 9941.516 8514.136 C 10035.775 8465.699 10090.347 8403.509 10112.525 8318.894 C 10120.695 8287.202 10121.572 8224.113 10114.276 8193.916 C 10095.307 8115.879 10029.938 8028.873 9960.483 7989.107 C 9930.717 7972.064 9915.251 7969.673 9817.489 7966.083 C 9792.684 7965.188 9758.54 7963.692 9741.906 7962.796 L 9711.848 7961.002 L 9713.599 7929.009 C 9714.474 7911.668 9716.225 7860.241 9717.101 7815.094 C 9719.728 7702.374 9714.766 7665 9690.544 7613.275 C 9659.903 7548.393 9593.95 7493.976 9521.286 7473.645 C 9487.142 7464.376 9423.523 7464.078 9387.338 7473.645 C 9333.933 7487.399 9284.614 7515.802 9244.926 7555.569 C 9202.027 7598.624 9200.86 7606.995 9210.2 7807.619 C 9212.242 7856.952 9213.408 7862.932 9220.997 7862.932 C 9231.503 7862.932 9322.552 7885.357 9349.401 7894.625 C 9540.254 7959.805 9700.175 8139.2 9741.323 8333.545 C 9748.035 8364.641 9753.579 8421.748 9751.828 8441.481 C 9751.244 8448.059 9750.077 8465.102 9749.201 8479.453 C 9747.159 8515.93 9740.738 8530.282 9722.937 8537.158 C 9694.921 8548.222 9670.408 8537.757 9657.569 8509.351 C 9650.564 8493.207 9648.814 8483.638 9642.685 8416.067 C 9638.892 8375.702 9628.677 8339.525 9608.834 8297.068 C 9535.293 8140.098 9379.458 8005.252 9257.183 7992.694 C 9221.58 7989.107 9216.326 7993.891 9210.782 8033.357 C 9205.53 8072.525 9204.946 8098.238 9203.196 8363.743 C 9200.569 8805.951 9199.109 8842.728 9180.433 8877.111 C 9169.052 8898.639 9141.62 8911.796 9120.609 8905.815 C 9094.636 8898.34 9078.002 8867.246 9074.792 8819.705 C 9073.917 8804.157 9072.166 8784.723 9071.29 8776.351 C 9070.414 8768.279 9069.247 8658.847 9068.372 8533.272 C 9067.204 8344.907 9066.329 8305.439 9063.118 8306.636 C 9060.784 8307.533 9053.488 8309.626 9046.484 8311.42 C 8887.44 8353.278 8742.694 8475.266 8688.998 8612.206 C 8673.822 8650.476 8667.695 8679.777 8664.777 8726.12 C 8660.691 8787.116 8653.978 8810.735 8635.885 8826.582 C 8624.796 8835.851 8612.831 8838.84 8595.904 8836.15 C 8510.109 8822.994 8546.586 8595.163 8660.399 8432.512 C 8709.717 8362.248 8782.674 8299.161 8861.758 8258.497 C 8903.198 8236.971 8933.548 8225.011 8985.785 8209.763 C 9009.131 8202.886 9037.147 8194.813 9048.235 8191.524 L 9068.08 8185.544 L 9066.62 7921.834 C 9065.744 7776.823 9064.286 7653.339 9063.411 7647.659 C 9053.488 7593.841 9049.695 7584.87 9024.014 7557.362 C 8974.404 7503.246 8901.447 7471.552 8825.281 7470.955 C 8773.627 7470.356 8732.772 7480.522 8685.787 7505.338 C 8636.761 7531.351 8599.7 7569.622 8578.395 7616.264 C 8550.672 7677.259 8547.461 7720.612 8555.634 7914.359 L 8557.676 7961.002 L 8544.835 7962.796 C 8537.831 7963.692 8507.191 7966.683 8476.548 7969.074 C 8411.471 7974.754 8392.793 7977.446 8355.441 7987.612 C 8262.64 8012.727 8198.73 8071.329 8172.174 8155.944 C 8147.369 8234.578 8154.956 8331.452 8190.851 8397.23 C 8220.033 8450.749 8259.139 8486.629 8328.593 8523.703 C 8401.841 8562.572 8425.479 8581.708 8425.479 8601.142 C 8425.479 8612.505 8414.973 8628.948 8389 8658.25 C 8355.732 8695.326 8337.056 8722.533 8321.589 8755.422 C 8282.775 8839.141 8291.823 8961.427 8342.893 9040.063 C 8387.542 9108.83 8452.91 9149.792 8558.26 9175.207 C 8585.692 9181.784 8594.738 9186.867 8604.659 9200.62 C 8613.999 9213.478 8612.539 9263.109 8600.575 9338.456 C 8592.986 9386.893 8591.527 9403.038 8592.986 9423.369 C 8597.948 9491.838 8623.045 9545.357 8672.947 9594.692 C 8704.465 9625.787 8727.81 9640.736 8794.056 9672.131 C 8833.744 9690.967 8846 9698.143 8847.167 9702.927 C 8847.751 9706.514 8849.21 9721.464 8850.085 9736.114 C 8860.591 9899.066 8875.474 9962.451 8914.871 10010.29 C 8953.975 10057.53 9024.889 10098.791 9084.422 10108.359 C 9111.269 10112.546 9170.802 10109.555 9196.775 10102.678 Z M 11562.608 9341.146 C 11640.817 9319.022 11703.268 9270.883 11734.494 9208.394 C 11759.006 9159.659 11763.968 9132.749 11766.594 9036.474 C 11769.22 8934.519 11768.637 8935.714 11831.671 8910.898 C 11880.406 8891.762 11926.223 8866.946 11948.985 8847.81 C 12006.767 8799.075 12030.405 8732.997 12030.696 8620.877 C 12030.988 8566.758 12026.319 8537.457 12012.02 8503.073 C 11988.09 8445.967 12014.355 8410.983 12084.685 8405.303 C 12096.94 8404.407 12114.45 8401.715 12123.498 8399.622 C 12173.4 8387.065 12246.94 8336.236 12291.296 8283.613 C 12326.025 8242.95 12340.908 8202.288 12343.825 8140.994 C 12348.495 8043.822 12312.892 7944.557 12255.986 7894.625 C 12202.874 7848.281 12219.215 7806.124 12308.515 7756.491 C 12348.787 7734.366 12372.717 7717.622 12396.938 7694.301 C 12432.249 7659.917 12466.392 7602.81 12479.525 7555.868 C 12489.447 7521.484 12488.572 7466.171 12478.066 7425.507 C 12445.965 7302.323 12381.763 7240.132 12259.196 7214.12 C 12238.768 7209.636 12100.151 7193.191 12083.81 7193.191 C 12082.35 7193.191 12082.058 7171.664 12083.225 7141.465 C 12091.396 6920.212 12089.936 6904.664 12056.085 6844.866 C 12038.284 6813.472 11992.468 6765.333 11963.286 6747.993 C 11935.853 6731.549 11905.795 6719.589 11875.153 6713.309 C 11838.675 6705.536 11780.31 6708.227 11744.998 6718.99 C 11695.096 6734.538 11651.907 6759.952 11612.801 6797.027 C 11576.615 6831.411 11571.946 6852.938 11571.653 6997.352 L 11571.071 7099.009 L 11625.934 7110.071 C 11655.992 7116.052 11693.346 7125.32 11708.521 7130.402 C 11833.714 7173.457 11954.238 7271.526 12033.031 7395.011 C 12063.089 7441.653 12082.35 7483.213 12099.567 7536.733 C 12120.287 7601.315 12127.291 7640.482 12126.999 7689.517 C 12126.707 7735.263 12121.454 7756.192 12105.695 7771.44 C 12088.77 7787.885 12051.708 7782.503 12034.199 7760.976 C 12023.401 7747.82 12015.23 7722.108 12013.479 7694.899 C 12010.268 7648.555 12009.101 7638.988 12003.556 7612.676 C 11969.413 7452.716 11832.547 7296.642 11679.921 7243.721 C 11657.743 7235.946 11587.412 7220.101 11575.739 7220.101 C 11571.946 7220.101 11571.363 7257.175 11571.363 7530.454 C 11571.363 7980.436 11566.401 8077.907 11541.305 8124.251 C 11529.047 8147.273 11506.576 8155.645 11485.273 8145.18 C 11461.636 8133.818 11446.461 8087.475 11441.5 8010.933 C 11440.332 7996.283 11438.874 7978.642 11438.29 7972.064 C 11437.414 7965.486 11436.248 7868.912 11435.08 7757.687 C 11433.912 7613.275 11432.453 7554.97 11430.119 7554.97 C 11416.695 7554.97 11339.653 7574.106 11319.517 7582.777 C 11254.731 7609.686 11192.572 7657.226 11143.546 7717.025 C 11075.55 7800.145 11037.613 7890.141 11032.652 7979.538 C 11030.609 8017.809 11027.107 8032.759 11015.726 8052.792 C 10995.59 8087.774 10948.023 8091.959 10927.302 8060.267 C 10917.088 8045.018 10913.588 8028.573 10913.588 7994.489 C 10913.879 7901.801 10965.532 7762.77 11036.445 7663.505 C 11083.429 7597.428 11166.891 7530.454 11263.485 7481.419 C 11316.306 7454.51 11354.244 7441.354 11386.052 7439.26 C 11398.893 7438.364 11411.734 7436.271 11414.36 7434.776 C 11423.407 7430.291 11428.368 7415.641 11431.577 7385.442 C 11435.08 7352.852 11433.621 6889.117 11430.119 6868.785 C 11422.822 6827.823 11413.192 6811.08 11381.092 6783.573 C 11341.404 6749.488 11290.042 6723.774 11241.015 6713.609 C 11211.832 6707.33 11157.553 6707.33 11128.371 6713.609 C 11099.48 6719.589 11063.001 6734.837 11036.445 6751.879 C 10976.33 6790.449 10941.019 6837.989 10924.384 6902.871 C 10913.879 6943.533 10912.42 7017.683 10921.174 7079.574 C 10929.638 7139.372 10929.928 7179.138 10921.758 7194.387 C 10908.918 7219.501 10890.533 7223.987 10851.137 7211.43 C 10816.701 7200.367 10779.347 7202.759 10731.488 7219.203 C 10629.348 7254.185 10556.684 7329.83 10530.712 7427.9 C 10526.334 7444.642 10525.166 7458.696 10525.458 7499.657 C 10525.458 7546.001 10526.334 7552.878 10533.338 7576.797 C 10554.349 7647.359 10599.29 7707.456 10658.532 7744.83 C 10668.162 7751.109 10692.967 7763.069 10713.978 7771.739 C 10771.468 7795.958 10786.351 7809.114 10786.351 7836.621 C 10786.351 7860.54 10775.261 7880.871 10736.741 7927.215 C 10708.433 7961.301 10694.425 7982.828 10687.13 8004.056 C 10671.664 8049.203 10671.664 8195.411 10687.13 8237.868 C 10690.341 8246.538 10697.052 8259.694 10701.722 8266.87 C 10716.021 8289.294 10753.375 8328.463 10779.931 8348.793 C 10814.95 8375.702 10841.798 8388.26 10882.654 8396.931 C 10945.104 8410.386 10968.158 8422.346 10979.248 8447.162 C 10987.126 8465.102 10985.96 8484.835 10974.578 8530.88 C 10961.154 8586.193 10957.36 8622.969 10961.446 8660.941 C 10968.45 8727.317 10992.963 8782.631 11035.57 8828.077 C 11068.838 8863.956 11099.48 8883.988 11163.974 8912.692 C 11180.607 8919.867 11196.658 8929.435 11202.203 8935.116 C 11218.253 8951.56 11224.381 8980.563 11228.466 9060.394 C 11234.888 9183.878 11258.817 9235.902 11334.108 9291.215 C 11384.01 9327.693 11425.741 9345.033 11470.682 9348.323 C 11501.324 9350.714 11539.845 9347.724 11562.608 9341.146 Z" style="fill: url(#color-0);"/>
                                        </g>
                                      </g>
                                    </g>
                                  </g>
                                </g>
                              </g>
                            </g>
                          </g>
                        </g>
                      </g>
                    </g>
                  </g>
                </g>
              </g>
            </g>
          </g>
        </g>
      </g>
    </g>
  </g>
</svg>