<?xml version="1.0" encoding="utf-8"?>
<svg viewBox="0 0 500 500" xmlns="http://www.w3.org/2000/svg">
  <defs>
    <linearGradient id="color-0">
      <stop style="stop-color: rgb(31, 171, 166);"/>
    </linearGradient>
  </defs>
  <path style="stroke: rgb(0, 0, 0); fill: rgb(31, 171, 166);" d="M 60.112 114.745"/>
  <path style="stroke: rgb(0, 0, 0); fill: url(#color-0);" d="M 76.303 114.746"/>
  <path style="stroke: rgb(0, 0, 0); fill: url(#color-0);" d="M 87.502 142.63"/>
  <path style="stroke: rgb(0, 0, 0); fill: url(#color-0);" d="M 60.012 114.746"/>
  <path style="stroke: rgb(0, 0, 0); fill: url(#color-0);" d="M 71.211 142.63"/>
  <path style="stroke: rgb(0, 0, 0); fill: url(#color-0);" d="M 59.257 114.746"/>
  <path style="stroke: rgb(0, 0, 0); fill: url(#color-0);" d="M 70.456 142.63"/>
  <path style="fill: rgb(216, 216, 216); stroke: rgb(0, 0, 0);" d="M 64.311 114.746"/>
  <path style="fill: rgb(216, 216, 216); stroke: rgb(0, 0, 0);" d="M 75.509 142.63"/>
  <g transform="matrix(0.922463, 0, 0, 0.922463, 39.802784, 39.803696)" style=""/>
  <g transform="matrix(0.922463, 0, 0, 0.922463, 39.802784, 39.803696)" style=""/>
  <g transform="matrix(0.922463, 0, 0, 0.922463, 39.802784, 39.803696)" style=""/>
  <g transform="matrix(0.922463, 0, 0, 0.922463, 39.802784, 39.803696)" style=""/>
  <g transform="matrix(0.922463, 0, 0, 0.922463, 39.802784, 39.803696)" style=""/>
  <g transform="matrix(0.922463, 0, 0, 0.922463, 39.802784, 39.803696)" style=""/>
  <g transform="matrix(0.922463, 0, 0, 0.922463, 39.802784, 39.803696)" style=""/>
  <g transform="matrix(0.922463, 0, 0, 0.922463, 39.802784, 39.803696)" style=""/>
  <g transform="matrix(0.922463, 0, 0, 0.922463, 39.802784, 39.803696)" style=""/>
  <g transform="matrix(0.922463, 0, 0, 0.922463, 39.802784, 39.803696)" style=""/>
  <g transform="matrix(0.922463, 0, 0, 0.922463, 39.802784, 39.803696)" style=""/>
  <g transform="matrix(0.922463, 0, 0, 0.922463, 39.802784, 39.803696)" style=""/>
  <g transform="matrix(0.922463, 0, 0, 0.922463, 39.802784, 39.803696)" style=""/>
  <g transform="matrix(0.922463, 0, 0, 0.922463, 39.802784, 39.803696)" style=""/>
  <g transform="matrix(0.922463, 0, 0, 0.922463, 39.802784, 39.803696)" style=""/>
  <g id="layer101" fill="#274547" stroke="none" transform="matrix(0.082955, 0, 0, 0.101147, 19.384523, 19.385433)" style=""/>
  <g id="layer104" fill="#ffffff" stroke="none" transform="matrix(0.082955, 0, 0, 0.101147, 19.384523, 19.385433)" style=""/>
  <path style="stroke: rgb(0, 0, 0); fill: rgb(31, 171, 166);" d="M 85.991 137.388"/>
  <path style="stroke: rgb(0, 0, 0); fill: url(#color-0);" d="M 100.987 137.389"/>
  <path style="stroke: rgb(0, 0, 0); fill: url(#color-0);" d="M 111.36 163.215"/>
  <path style="stroke: rgb(0, 0, 0); fill: url(#color-0);" d="M 85.899 137.389"/>
  <path style="stroke: rgb(0, 0, 0); fill: url(#color-0);" d="M 96.271 163.215"/>
  <path style="stroke: rgb(0, 0, 0); fill: url(#color-0);" d="M 85.199 137.389"/>
  <path style="stroke: rgb(0, 0, 0); fill: url(#color-0);" d="M 95.572 163.215"/>
  <path style="fill: rgb(216, 216, 216); stroke: rgb(0, 0, 0);" d="M 89.88 137.389"/>
  <path style="fill: rgb(216, 216, 216); stroke: rgb(0, 0, 0);" d="M 100.253 163.215"/>
  <g transform="matrix(0.854382, 0, 0, 0.854382, 67.180336, 67.977364)" style=""/>
  <g transform="matrix(0.854382, 0, 0, 0.854382, 67.180336, 67.977364)" style=""/>
  <g transform="matrix(0.854382, 0, 0, 0.854382, 67.180336, 67.977364)" style=""/>
  <g transform="matrix(0.854382, 0, 0, 0.854382, 67.180336, 67.977364)" style=""/>
  <g transform="matrix(0.854382, 0, 0, 0.854382, 67.180336, 67.977364)" style=""/>
  <g transform="matrix(0.854382, 0, 0, 0.854382, 67.180336, 67.977364)" style=""/>
  <g transform="matrix(0.854382, 0, 0, 0.854382, 67.180336, 67.977364)" style=""/>
  <g transform="matrix(0.854382, 0, 0, 0.854382, 67.180336, 67.977364)" style=""/>
  <g transform="matrix(0.854382, 0, 0, 0.854382, 67.180336, 67.977364)" style=""/>
  <g transform="matrix(0.854382, 0, 0, 0.854382, 67.180336, 67.977364)" style=""/>
  <g transform="matrix(0.854382, 0, 0, 0.854382, 67.180336, 67.977364)" style=""/>
  <g transform="matrix(0.854382, 0, 0, 0.854382, 67.180336, 67.977364)" style=""/>
  <g transform="matrix(0.854382, 0, 0, 0.854382, 67.180336, 67.977364)" style=""/>
  <g transform="matrix(0.854382, 0, 0, 0.854382, 67.180336, 67.977364)" style=""/>
  <g transform="matrix(0.854382, 0, 0, 0.854382, 67.180336, 67.977364)" style=""/>
  <g id="g-3" fill="#274547" stroke="none" transform="matrix(0.076833, 0, 0, 0.093682, 48.268997, 49.066032)" style=""/>
  <g id="g-5" fill="#ffffff" stroke="none" transform="matrix(0.076833, 0, 0, 0.093682, 48.268997, 49.066032)" style=""/>
  <g id="g-1" fill="#f9a74c" stroke="none" transform="matrix(0.039526, 0, 0, 0.039783, 58.897079, 90.001366)" style=""/>
  <g id="g-2" fill="#92b7e3" stroke="none" transform="matrix(0.039526, 0, 0, 0.039783, 58.897079, 90.001366)" style=""/>
  <path style="stroke: rgb(0, 0, 0); fill: rgb(31, 171, 166);" d="M 77.999 100.431"/>
  <path style="stroke: rgb(0, 0, 0); fill: url(#color-0);" d="M 95.551 100.432"/>
  <path style="stroke: rgb(0, 0, 0); fill: url(#color-0);" d="M 107.692 130.66"/>
  <path style="stroke: rgb(0, 0, 0); fill: url(#color-0);" d="M 77.891 100.432"/>
  <path style="stroke: rgb(0, 0, 0); fill: url(#color-0);" d="M 90.031 130.66"/>
  <path style="stroke: rgb(0, 0, 0); fill: url(#color-0);" d="M 77.072 100.432"/>
  <path style="stroke: rgb(0, 0, 0); fill: url(#color-0);" d="M 89.213 130.66"/>
  <path style="stroke: rgb(0, 0, 0); fill: url(#color-0);" d="M 45.733 103.375"/>
  <path style="stroke: rgb(0, 0, 0); fill: url(#color-0);" d="M 57.874 133.603"/>
  <g transform="matrix(0.158337, 0, 0, -0.158337, -62.791637, 633.784912)" fill="#000000" stroke="none" style="">
    <g transform="matrix(0.631564, 0, 0, 0.631564, -4707.642578, -2614.624756)" fill="#000000" stroke="none">
      <path style="stroke: rgb(0, 0, 0); fill: url(#color-0);" d="M 8280.677 9341.516"/>
      <path style="stroke: rgb(0, 0, 0); fill: url(#color-0);" d="M 8016.885 9402.308"/>
      <path style="stroke: rgb(0, 0, 0); fill: url(#color-0);" d="M 8173.451 9414.763"/>
      <path style="stroke: rgb(0, 0, 0); fill: url(#color-0);" d="M 8294.854 9112.484"/>
      <path style="stroke: rgb(0, 0, 0); fill: url(#color-0);" d="M 8173.449 9414.767"/>
      <path style="stroke: rgb(0, 0, 0); fill: url(#color-0);" d="M 8382.961 9319.826"/>
      <path style="stroke: rgb(0, 0, 0); fill: url(#color-0);" d="M 8265.696 9379.344"/>
      <path style="stroke: rgb(0, 0, 0); fill: url(#color-0);" d="M 8384.166 9084.367"/>
      <g transform="matrix(0.304724, 0, 0, 0.298848, 7474.564453, 5664.043457)" fill="#000000" stroke="none" style="">
        <g transform="matrix(1.102921, 0, 0, 1.100755, -959.390015, -732.216797)" fill="#000000" stroke="none">
          <path style="stroke: rgb(0, 0, 0); fill: url(#color-0);" d="M 35.368 103.375" transform="matrix(29.754255, 0, 0, -30.398991, 3568.479892, 15944.943384)"/>
          <path style="stroke: rgb(0, 0, 0); fill: url(#color-0);" d="M 0 99.162" transform="matrix(29.754255, 0, 0, -30.398991, 4982.054965, 14897.974634)"/>
          <path style="stroke: rgb(0, 0, 0); fill: url(#color-0);" d="M 4704.223 12067.001"/>
          <path style="stroke: rgb(0, 0, 0); fill: url(#color-0);" d="M 5065.449 11148.103"/>
          <g transform="matrix(4.7112, 0, 0, 4.813285, 2563.381104, -3967.982422)" fill="#000000" stroke="none" style="">
            <g transform="matrix(0.631564, 0, 0, 0.631564, -4707.642578, -2614.624756)" fill="#000000" stroke="none">
              <path style="stroke: rgb(0, 0, 0); fill: url(#color-0);" d="M 8280.677 9341.516"/>
              <path style="stroke: rgb(0, 0, 0); fill: url(#color-0);" d="M 8016.885 9402.308"/>
              <g transform="matrix(1.170113, 0, 0, 1.170113, 8482.695313, 5139.725098)" fill="#000000" stroke="none" style="">
                <path style="stroke: rgb(0, 0, 0); fill: url(#color-0);" d="M -768.33 3653.526"/>
                <path style="stroke: rgb(0, 0, 0); fill: url(#color-0);" d="M -664.577 3395.192"/>
                <path style="stroke: rgb(0, 0, 0); fill: url(#color-0);" d="M -653.721 3653.525"/>
                <path style="stroke: rgb(0, 0, 0); fill: url(#color-0);" d="M -549.967 3395.191"/>
                <g transform="matrix(1.307508, 0, 0, 1.307508, -1189.832886, -744.59906)" fill="#000000" stroke="none" style="">
                  <g transform="matrix(0.631564, 0, 0, 0.631564, -4707.642578, -2614.624756)" fill="#000000" stroke="none">
                    <path style="stroke: rgb(0, 0, 0); fill: url(#color-0);" d="M 8280.677 9341.516"/>
                    <path style="stroke: rgb(0, 0, 0); fill: url(#color-0);" d="M 8016.885 9402.308"/>
                    <path style="stroke: rgb(0, 0, 0); fill: url(#color-0);" d="M 8173.451 9414.763"/>
                    <path style="stroke: rgb(0, 0, 0); fill: url(#color-0);" d="M 8294.854 9112.484"/>
                    <path style="stroke: rgb(0, 0, 0); fill: url(#color-0);" d="M 8173.449 9414.767"/>
                    <path style="stroke: rgb(0, 0, 0); fill: url(#color-0);" d="M 8382.961 9319.826"/>
                    <path style="stroke: rgb(0, 0, 0); fill: url(#color-0);" d="M 8265.696 9379.344"/>
                    <path style="stroke: rgb(0, 0, 0); fill: url(#color-0);" d="M 8384.166 9084.367"/>
                    <g transform="matrix(0.304724, 0, 0, 0.298848, 7474.564453, 5664.043457)" fill="#000000" stroke="none" style="">
                      <g transform="matrix(1.102921, 0, 0, 1.100755, -959.390015, -732.216797)" fill="#000000" stroke="none">
                        <g style="" transform="matrix(0.886146, 0, 0, 0.886146, 1062.891357, 866.400146)">
                          <path d="M 9028.288 14577.24 C 9021.859 14569.892 8990.633 14561.627 8951.14 14557.953 C 8749.084 14539.584 8597.541 14496.417 8430.386 14410.084 C 8230.167 14306.301 8077.706 14177.72 7617.569 13727.686 L 7286.932 13403.477 L 7080.284 13411.743 C 6966.397 13415.417 6747.809 13419.091 6593.512 13418.172 C 6353.8 13417.254 6294.101 13414.499 6180.215 13397.048 C 5652.114 13317.144 5224.122 13115.088 4738.269 12717.405 C 4428.756 12462.998 4264.356 12268.289 4194.554 12070.825 C 4156.899 11966.124 4153.225 11896.322 4177.104 11793.457 C 4221.189 11610.688 4276.295 11533.54 4632.649 11159.736 L 4775.007 11010.949 L 4775.007 10951.251 C 4775.007 10898.9 4767.659 10874.102 4724.493 10769.4 C 4603.259 10476.419 4563.766 10252.32 4594.993 10019.956 C 4669.386 9458.791 5000.024 8989.469 5484.958 8758.023 C 5799.064 8607.399 6109.496 8574.336 6464.931 8653.321 C 6574.225 8678.119 6641.271 8701.998 6779.955 8766.289 C 6848.837 8798.434 6870.88 8803.945 6921.394 8803.945 L 6982.011 8803.945 L 7142.737 8650.566 C 7507.357 8300.641 7635.02 8214.308 7824.218 8186.755 C 7882.998 8177.571 7907.795 8178.489 7970.249 8190.429 C 8126.383 8221.656 8213.635 8284.11 8504.779 8574.336 C 8839.09 8906.81 8947.466 9049.168 9099.008 9351.333 C 9276.266 9704.932 9381.887 10092.512 9413.114 10501.217 C 9424.135 10647.248 9415.869 10794.198 9385.56 11005.438 C 9375.458 11073.403 9367.192 11167.083 9367.192 11213.005 L 9367.192 11297.501 L 9507.713 11438.022 L 9647.315 11577.625 L 9703.34 11577.625 C 9755.691 11577.625 9759.364 11575.788 9796.102 11539.05 C 9831.921 11501.394 10680.557 10515.912 12466.917 8437.489 L 13275.141 7497.009 L 13277.896 7440.984 C 13279.733 7392.307 13274.223 7369.346 13234.73 7265.563 C 13181.461 7124.124 13164.01 7049.73 13149.315 6889.922 C 13130.028 6680.519 13165.847 6424.275 13239.322 6239.669 C 13334.84 5999.038 13436.786 5844.741 13648.945 5618.805 L 13720.583 5542.575 L 13720.583 5482.877 L 13720.583 5424.097 L 13138.294 4724.248 C 12818.678 4338.504 12426.505 3866.428 12268.534 3674.474 L 11979.227 3326.387 L 11869.933 3309.855 C 11351.016 3233.625 11180.186 3179.437 10927.616 3010.444 C 10628.206 2809.307 10441.763 2591.637 10261.749 2234.365 C 10217.664 2147.114 10173.579 2067.21 10163.477 2056.188 L 10145.108 2035.064 L 9174.32 2035.064 L 8203.532 2035.064 L 8156.692 1985.469 C 8128.22 1955.16 8106.178 1921.178 8097.912 1896.38 C 8080.461 1838.519 8080.461 919.163 8097.912 861.302 C 8106.178 833.749 8130.057 799.766 8177.816 750.171 C 8214.553 711.596 8248.535 668.43 8251.291 654.653 L 8257.72 629.856 L 11943.408 629.856 L 15629.095 629.856 L 15635.524 654.653 C 15638.28 668.43 15672.262 711.596 15708.999 750.171 C 15756.758 799.766 15780.637 833.749 15788.903 861.302 C 15806.354 919.163 15806.354 1838.519 15788.903 1896.38 C 15780.637 1921.178 15758.595 1955.16 15730.123 1985.469 L 15683.283 2035.064 L 14602.283 2035.064 L 13522.201 2035.064 L 13497.403 2060.78 C 13484.545 2074.557 13460.665 2122.316 13445.052 2168.238 C 13409.233 2271.103 13343.105 2390.499 13214.524 2587.045 L 13114.415 2739.505 L 13114.415 2796.448 L 13114.415 2853.392 L 13704.051 3567.017 C 14762.091 4847.318 14918.225 5031.924 15088.136 5207.346 C 15202.022 5323.069 15257.128 5368.072 15364.585 5428.689 C 15593.276 5559.107 15737.471 5690.443 15894.523 5909.031 C 16021.268 6086.29 16113.111 6294.775 16150.767 6494.076 C 16172.81 6606.125 16172.81 6871.553 16151.686 6997.379 C 16055.25 7558.544 15630.932 8033.376 15071.604 8206.961 C 14944.86 8246.454 14824.544 8267.578 14629.836 8285.946 C 14504.928 8296.968 14455.333 8305.234 14442.475 8316.255 C 14433.29 8324.521 13895.086 8917.831 13247.588 9635.13 C 12600.09 10352.43 11720.227 11325.973 11293.154 11798.05 L 10516.156 12656.788 L 10516.156 12960.791 C 10515.238 13419.091 10506.972 13467.768 10394.923 13691.867 C 10217.664 14045.465 10021.119 14248.439 9702.421 14406.411 C 9514.142 14499.173 9368.11 14538.666 9144.93 14557.953 C 9101.763 14561.627 9070.537 14568.974 9063.189 14577.24 C 9050.331 14593.772 9042.065 14593.772 9028.288 14577.24 Z M 9268.001 14199.762 C 9424.135 14173.128 9586.698 14108.837 9711.606 14025.259 C 9957.747 13861.778 10117.555 13621.147 10169.906 13336.432 C 10200.214 13167.439 10196.54 12907.521 10160.721 12768.837 C 10141.434 12691.689 10087.246 12578.721 10028.466 12490.551 C 9930.194 12344.52 9839.268 12243.492 9492.099 11892.649 L 9216.568 11614.362 L 9156.87 11614.362 L 9096.253 11614.362 L 8345.89 12364.725 L 7594.608 13116.007 L 7594.608 13176.624 L 7594.608 13237.24 L 7928.001 13566.959 C 8262.312 13898.515 8393.648 14015.156 8510.29 14084.039 C 8582.847 14127.206 8711.428 14171.291 8829.906 14195.17 C 8936.445 14216.294 9158.707 14219.05 9268.001 14199.762 Z M 6940.681 13074.677 L 7195.088 13046.205 L 8107.096 12135.116 C 8608.563 11633.649 9020.023 11217.597 9022.778 11210.25 C 9024.615 11202.902 9035.636 11118.406 9047.576 11021.97 C 9074.21 10801.545 9076.047 10431.415 9052.168 10270.689 C 8990.633 9865.658 8834.498 9467.975 8627.85 9190.607 C 8533.251 9062.944 8390.893 8904.055 8241.188 8757.105 C 8030.866 8551.375 7981.27 8519.229 7881.161 8519.229 C 7826.973 8519.229 7812.278 8522.903 7780.133 8544.946 C 7649.715 8632.197 7274.074 8995.898 6050.716 10218.338 C 4812.663 11455.473 4647.344 11629.976 4552.745 11789.784 C 4518.763 11846.727 4517.844 11849.482 4517.844 11943.163 C 4517.844 11996.432 4522.437 12046.946 4527.947 12057.967 C 4544.479 12089.194 4646.426 12195.733 4769.496 12311.456 C 4989.921 12517.186 5291.168 12744.958 5453.732 12825.781 C 5559.352 12879.05 5766.919 12959.872 5890.908 12994.773 C 6278.488 13106.822 6496.158 13123.354 6940.681 13074.677 Z M 10545.546 12117.666 C 10999.254 11636.405 13285.244 9109.784 13879.473 8432.896 L 14023.667 8268.496 L 14023.667 8206.042 C 14023.667 8147.262 14022.749 8143.589 13991.522 8116.036 C 13973.153 8100.422 13937.334 8076.543 13910.7 8063.685 C 13841.817 8028.784 13727.931 7952.554 13638.842 7882.753 L 13561.694 7821.217 L 13500.158 7821.217 L 13437.705 7821.217 L 13381.68 7880.916 C 13319.226 7947.962 12529.37 8863.643 11167.328 10447.947 C 10670.454 11026.562 10203.888 11567.522 10132.25 11651.1 L 10000.913 11802.642 L 10000.913 11860.503 L 10000.913 11919.283 L 10096.431 12030.414 C 10148.782 12091.949 10216.746 12166.343 10247.054 12195.733 L 10303.079 12248.084 L 10361.859 12248.084 L 10421.557 12248.084 L 10545.546 12117.666 Z M 5874.376 9922.601 L 6602.696 9194.281 L 6602.696 9133.664 C 6602.696 9062.026 6591.675 9048.249 6507.179 9010.593 C 6413.498 8969.264 6354.718 8960.079 6171.949 8960.079 C 5756.816 8960.079 5536.391 9043.657 5280.147 9299.901 C 5123.094 9455.117 5027.577 9611.251 4973.389 9796.775 C 4937.57 9920.764 4929.304 10007.097 4932.978 10187.111 C 4935.733 10321.203 4941.244 10375.391 4963.286 10480.092 C 4995.432 10640.819 5001.861 10650.003 5086.357 10650.003 L 5146.974 10650.003 L 5874.376 9922.601 Z M 14794.236 7931.43 C 15078.033 7895.611 15290.192 7789.99 15493.167 7583.342 C 15741.145 7330.772 15829.314 7109.429 15827.478 6746.646 C 15826.559 6600.615 15805.435 6442.643 15772.371 6344.371 C 15693.386 6111.088 15456.429 5843.822 15207.533 5709.731 C 15126.71 5665.646 14986.189 5616.05 14875.058 5592.171 C 14768.52 5569.21 14526.971 5570.128 14418.595 5593.089 C 14241.337 5630.745 14132.043 5677.585 13986.011 5774.94 C 13825.285 5882.397 13682.927 6044.042 13594.757 6218.545 C 13501.995 6401.314 13468.931 6543.671 13468.931 6755.83 C 13468.931 6921.149 13479.953 6997.379 13526.793 7135.145 C 13671.906 7562.218 14050.302 7872.65 14495.744 7931.43 C 14579.322 7941.533 14707.903 7941.533 14794.236 7931.43 Z M 14380.939 5268.881 C 14508.602 5244.083 14519.623 5233.98 14519.623 5140.3 C 14519.623 5075.091 14517.786 5067.743 14490.233 5033.761 C 14391.042 4912.527 13165.847 3430.17 13034.511 3273.117 C 12947.259 3167.497 12864.6 3075.653 12852.66 3067.387 C 12834.291 3055.448 12813.167 3052.692 12748.877 3056.366 C 12675.402 3060.04 12660.707 3063.714 12572.537 3105.962 C 12519.268 3131.678 12460.488 3165.66 12441.2 3182.192 C 12409.055 3211.582 12407.218 3215.256 12407.218 3271.28 L 12407.218 3330.06 L 12960.117 3997.764 C 13854.675 5079.683 13954.785 5196.324 14055.813 5269.799 C 14092.55 5297.352 14093.469 5297.352 14188.986 5292.76 C 14242.255 5290.005 14328.588 5279.902 14380.939 5268.881 Z M 12115.155 2936.051 C 12465.998 2865.331 12747.04 2685.318 12943.585 2407.031 C 12983.078 2351.925 13020.734 2294.982 13028.082 2280.287 C 13039.103 2260.081 13096.046 2058.025 13096.046 2040.575 C 13096.046 2036.901 12529.37 2035.064 11836.869 2035.064 L 10577.692 2035.064 L 10584.121 2065.373 C 10587.794 2080.986 10600.653 2125.071 10612.592 2161.809 C 10624.532 2198.546 10634.635 2237.12 10634.635 2249.06 C 10634.635 2274.776 10655.759 2308.758 10742.092 2424.482 C 10974.456 2733.076 11264.683 2895.64 11695.43 2957.175 C 11762.475 2967.278 12028.822 2953.501 12115.155 2936.051 Z M 15435.305 1665.853 L 15456.429 1646.565 L 15456.429 1379.3 C 15456.429 1118.464 15456.429 1112.953 15436.223 1091.829 L 15416.936 1070.705 L 11944.326 1070.705 L 8472.634 1070.705 L 8451.51 1090.911 L 8430.386 1110.198 L 8430.386 1377.463 C 8430.386 1638.299 8430.386 1643.81 8450.592 1664.934 L 8469.879 1686.058 L 11942.489 1686.058 L 15414.181 1686.058 L 15435.305 1665.853 Z" style="fill: url(#color-0);"/>
                          <path d="M 14558.198 7042.383 C 14428.698 6995.542 14346.039 6867.88 14356.142 6732.869 C 14365.326 6625.412 14429.616 6530.813 14527.889 6483.055 C 14571.974 6461.012 14590.343 6457.338 14657.389 6457.338 C 14724.435 6457.338 14742.803 6461.012 14786.888 6483.055 C 14847.505 6512.445 14908.122 6573.98 14935.675 6634.597 C 14966.902 6701.643 14964.147 6816.447 14930.165 6885.33 C 14900.775 6946.865 14838.321 7006.564 14778.623 7034.117 C 14718.006 7060.751 14620.651 7064.425 14558.198 7042.383 Z" style="fill: url(#color-0);"/>
                          <path d="M 3626.96 9446.851 C 3548.893 9430.319 3481.847 9410.113 3117.228 9297.146 C 3011.608 9264.082 2884.863 9226.426 2837.105 9212.649 C 2667.194 9163.972 2559.737 9100.6 2524.836 9028.962 L 2503.712 8985.795 L 2525.754 8938.955 C 2552.389 8882.012 2609.332 8822.314 2635.967 8822.314 C 2673.623 8822.314 3290.812 9002.327 3615.021 9107.948 C 3801.463 9168.564 3806.056 9172.238 3833.609 9259.49 C 3847.385 9305.412 3848.304 9319.188 3839.119 9354.089 C 3826.261 9402.766 3817.077 9415.624 3779.421 9434.911 C 3728.907 9461.546 3706.864 9462.464 3626.96 9446.851 Z" style="fill: url(#color-0);"/>
                          <path d="M 4386.508 8592.704 C 4361.71 8583.52 4320.38 8559.641 4294.664 8539.435 C 4179.86 8453.102 3759.215 8034.295 3628.797 7877.242 C 3573.691 7811.115 3544.301 7758.764 3544.301 7724.781 C 3544.301 7691.718 3579.202 7621.917 3605.836 7600.792 C 3617.776 7591.608 3646.248 7576.913 3668.29 7567.729 L 3708.701 7553.034 L 3771.155 7597.119 C 3838.201 7644.877 4358.036 8153.692 4469.167 8280.436 C 4551.826 8374.116 4576.624 8418.201 4569.277 8459.531 C 4560.092 8507.29 4513.252 8571.58 4472.841 8592.704 C 4452.635 8602.807 4434.267 8611.073 4433.348 8611.073 C 4431.511 8610.155 4410.387 8602.807 4386.508 8592.704 Z" style="fill: url(#color-0);"/>
                          <path d="M 5283.821 7832.239 C 5251.675 7816.625 5237.899 7800.093 5191.059 7719.271 C 5063.396 7500.683 4782.354 6958.805 4714.39 6799.915 L 4684.081 6729.196 L 4710.716 6693.377 C 4755.72 6630.923 4842.971 6575.817 4880.627 6585.001 C 4934.815 6598.778 4988.084 6672.253 5131.36 6929.415 C 5263.615 7169.127 5457.405 7569.566 5500.572 7692.636 C 5533.636 7787.235 5388.523 7880.916 5283.821 7832.239 Z" style="fill: url(#color-0);"/>
                        </g>
                      </g>
                    </g>
                  </g>
                </g>
              </g>
            </g>
          </g>
        </g>
      </g>
    </g>
  </g>
</svg>