<?xml version="1.0" encoding="utf-8"?>
<svg viewBox="0 0 500 500" xmlns="http://www.w3.org/2000/svg">
  <defs>
    <linearGradient id="color-0">
      <stop style="stop-color: rgb(31, 171, 166);"/>
    </linearGradient>
  </defs>
  <path style="stroke: rgb(0, 0, 0); fill: rgb(31, 171, 166);" d="M 48.752 104.514"/>
  <path style="stroke: rgb(0, 0, 0); fill: url(#color-0);" d="M 66.304 104.515"/>
  <path style="stroke: rgb(0, 0, 0); fill: url(#color-0);" d="M 78.445 134.743"/>
  <path style="stroke: rgb(0, 0, 0); fill: url(#color-0);" d="M 48.644 104.515"/>
  <path style="stroke: rgb(0, 0, 0); fill: url(#color-0);" d="M 60.784 134.743"/>
  <g transform="matrix(0.158337, 0, 0, -0.158337, -38.759624, 631.998718)" fill="#000000" stroke="none" style="">
    <g transform="matrix(0.631564, 0, 0, 0.631564, -4707.642578, -2614.624756)" fill="#000000" stroke="none">
      <path style="stroke: rgb(0, 0, 0); fill: url(#color-0);" d="M 8280.677 9341.516"/>
      <path style="stroke: rgb(0, 0, 0); fill: url(#color-0);" d="M 8016.885 9402.308"/>
      <path style="stroke: rgb(0, 0, 0); fill: url(#color-0);" d="M 8173.451 9414.763"/>
      <path style="stroke: rgb(0, 0, 0); fill: url(#color-0);" d="M 8294.854 9112.484"/>
      <path style="stroke: rgb(0, 0, 0); fill: url(#color-0);" d="M 8173.449 9414.767"/>
      <path style="stroke: rgb(0, 0, 0); fill: url(#color-0);" d="M 8382.961 9319.826"/>
      <path style="stroke: rgb(0, 0, 0); fill: url(#color-0);" d="M 8265.696 9379.344"/>
      <path style="stroke: rgb(0, 0, 0); fill: url(#color-0);" d="M 8384.166 9084.367"/>
      <g transform="matrix(0.304724, 0, 0, 0.298848, 7474.564453, 5664.043457)" fill="#000000" stroke="none" style="">
        <g transform="matrix(1.102921, 0, 0, 1.100755, -959.390015, -732.216797)" fill="#000000" stroke="none">
          <path style="stroke: rgb(0, 0, 0); fill: url(#color-0);" d="M 35.368 103.375" transform="matrix(29.754255, 0, 0, -30.398991, 3568.479892, 15944.943384)"/>
          <path style="stroke: rgb(0, 0, 0); fill: url(#color-0);" d="M 0 99.162" transform="matrix(29.754255, 0, 0, -30.398991, 4982.054965, 14897.974634)"/>
          <g transform="matrix(4.449027, 0, 0, 4.545431, 1417.935913, -3323.695068)" fill="#000000" stroke="none" style="">
            <g transform="matrix(0.631564, 0, 0, 0.631564, -4707.642578, -2614.624756)" fill="#000000" stroke="none">
              <path style="stroke: rgb(0, 0, 0); fill: url(#color-0);" d="M 8280.677 9341.516"/>
              <path style="stroke: rgb(0, 0, 0); fill: url(#color-0);" d="M 8016.885 9402.308"/>
              <path style="stroke: rgb(0, 0, 0); fill: url(#color-0);" d="M 8173.451 9414.763"/>
              <path style="stroke: rgb(0, 0, 0); fill: url(#color-0);" d="M 8294.854 9112.484"/>
              <path style="stroke: rgb(0, 0, 0); fill: url(#color-0);" d="M 8173.449 9414.767"/>
              <path style="stroke: rgb(0, 0, 0); fill: url(#color-0);" d="M 8382.961 9319.826"/>
              <path style="stroke: rgb(0, 0, 0); fill: url(#color-0);" d="M 8265.696 9379.344"/>
              <path style="stroke: rgb(0, 0, 0); fill: url(#color-0);" d="M 8384.166 9084.367"/>
              <g transform="matrix(1.545121, 0, 0, 1.545121, 7563.568359, 4231.925293)" fill="#000000" stroke="none" style="">
                <g transform="matrix(0.631564, 0, 0, 0.631564, -4707.642578, -2614.624756)" fill="#000000" stroke="none">
                  <path style="stroke: rgb(0, 0, 0); fill: url(#color-0);" d="M 8280.677 9341.516"/>
                  <path style="stroke: rgb(0, 0, 0); fill: url(#color-0);" d="M 8016.885 9402.308"/>
                  <path style="stroke: rgb(0, 0, 0); fill: url(#color-0);" d="M 8173.451 9414.763"/>
                  <path style="stroke: rgb(0, 0, 0); fill: url(#color-0);" d="M 8294.854 9112.484"/>
                  <g transform="matrix(1.538625, 0, 0, 1.538625, 7534.930664, 4247.550293)" fill="#000000" stroke="none" style="">
                    <g transform="matrix(0.631564, 0, 0.000111, 0.631564, -4708.52832, -2614.624756)" fill="#000000" stroke="none" style="">
                      <path style="stroke: rgb(0, 0, 0); fill: rgb(31, 171, 166);" d="M 7569.285 9577.716"/>
                      <path style="fill: rgb(216, 216, 216); stroke: rgb(0, 0, 0);" d="M 5293.237 9836.277"/>
                      <path style="fill: rgb(216, 216, 216); stroke: rgb(0, 0, 0);" d="M 5428.863 9498.732"/>
                      <g transform="matrix(1.76815, 0, -0.000311, 1.76815, 6792.576172, 3687.288574)" fill="#000000" stroke="none" style="">
                        <g transform="matrix(0.631564, 0, 0, 0.631564, -4707.642578, -2614.624756)" fill="#000000" stroke="none">
                          <path style="stroke: rgb(0, 0, 0); fill: url(#color-0);" d="M 8280.677 9341.516"/>
                          <path style="stroke: rgb(0, 0, 0); fill: url(#color-0);" d="M 8016.885 9402.308"/>
                          <path style="stroke: rgb(0, 0, 0); fill: url(#color-0);" d="M 8173.451 9414.763"/>
                          <path style="stroke: rgb(0, 0, 0); fill: url(#color-0);" d="M 8294.854 9112.484"/>
                          <path style="stroke: rgb(0, 0, 0); fill: url(#color-0);" d="M 8173.449 9414.767"/>
                          <path style="stroke: rgb(0, 0, 0); fill: url(#color-0);" d="M 8382.961 9319.826"/>
                          <path style="stroke: rgb(0, 0, 0); fill: url(#color-0);" d="M 8265.696 9379.344"/>
                          <path style="stroke: rgb(0, 0, 0); fill: url(#color-0);" d="M 8384.166 9084.367"/>
                          <path style="stroke: rgb(0, 0, 0); fill: rgb(31, 171, 166);" d="M 8495.608 9378.198"/>
                          <path style="stroke: rgb(0, 0, 0); fill: url(#color-0);" d="M 8671.128 9378.188"/>
                          <path style="stroke: rgb(0, 0, 0); fill: url(#color-0);" d="M 8792.538 9075.907"/>
                          <path style="stroke: rgb(0, 0, 0); fill: url(#color-0);" d="M 8494.528 9378.188"/>
                          <path style="stroke: rgb(0, 0, 0); fill: url(#color-0);" d="M 8615.928 9075.907"/>
                          <path style="stroke: rgb(0, 0, 0); fill: url(#color-0);" d="M 8486.338 9378.188"/>
                          <path style="stroke: rgb(0, 0, 0); fill: url(#color-0);" d="M 8607.748 9075.907"/>
                          <path style="fill: rgb(216, 216, 216); stroke: rgb(0, 0, 0);" d="M 8541.128 9378.188"/>
                          <path style="fill: rgb(216, 216, 216); stroke: rgb(0, 0, 0);" d="M 8662.528 9075.907"/>
                          <g transform="matrix(1.58337, 0, 0, 1.583371, 7821.615723, 4103.346191)" fill="#000000" stroke="none" style="">
                            <g transform="matrix(0.631564, 0, 0, 0.631564, -4707.642578, -2614.624756)" fill="#000000" stroke="none">
                              <path style="fill: rgb(216, 216, 216); stroke: rgb(0, 0, 0);" d="M 8280.677 9341.516"/>
                              <path style="fill: rgb(216, 216, 216); stroke: rgb(0, 0, 0);" d="M 8016.885 9402.308"/>
                              <path style="fill: rgb(216, 216, 216); stroke: rgb(0, 0, 0);" d="M 8173.451 9414.763"/>
                              <path style="fill: rgb(216, 216, 216); stroke: rgb(0, 0, 0);" d="M 8294.854 9112.484"/>
                              <path style="fill: rgb(216, 216, 216); stroke: rgb(0, 0, 0);" d="M 8173.449 9414.767"/>
                              <path style="fill: rgb(216, 216, 216); stroke: rgb(0, 0, 0);" d="M 8382.961 9319.826"/>
                              <path style="fill: rgb(216, 216, 216); stroke: rgb(0, 0, 0);" d="M 8265.696 9379.344"/>
                              <path style="fill: rgb(216, 216, 216); stroke: rgb(0, 0, 0);" d="M 8384.166 9084.367"/>
                              <g transform="matrix(0.304724, 0, 0, 0.298848, 7474.564453, 5664.043457)" fill="#000000" stroke="none" style="">
                                <g transform="matrix(1.102921, 0, 0, 1.100755, -959.390015, -732.216797)" fill="#000000" stroke="none">
                                  <path style="fill: rgb(216, 216, 216); stroke: rgb(0, 0, 0);" d="M 35.368 103.375" transform="matrix(29.754255, 0, 0, -30.398991, 3568.479892, 15944.943384)"/>
                                  <path style="fill: rgb(216, 216, 216); stroke: rgb(0, 0, 0);" d="M 0 99.162" transform="matrix(29.754255, 0, 0, -30.398991, 4982.054965, 14897.974634)"/>
                                  <path style="fill: rgb(216, 216, 216); stroke: rgb(0, 0, 0);" d="M 4704.223 12067.001"/>
                                  <path style="fill: rgb(216, 216, 216); stroke: rgb(0, 0, 0);" d="M 5065.449 11148.103"/>
                                  <g transform="matrix(4.7112, 0, 0, 4.813285, 2563.381104, -3967.982422)" fill="#000000" stroke="none" style="">
                                    <g transform="matrix(0.631564, 0, 0, 0.631564, -4953.947266, -2554.210449)" fill="#000000" stroke="none">
                                      <path style="stroke: rgb(0, 0, 0); fill: url(#color-0);" d="M 8280.677 9341.516"/>
                                      <path style="stroke: rgb(0, 0, 0); fill: url(#color-0);" d="M 8016.885 9402.308"/>
                                      <g transform="matrix(1.170113, 0, 0, 1.170113, 8482.695313, 5139.725098)" fill="#000000" stroke="none" style="">
                                        <path style="stroke: rgb(0, 0, 0); fill: url(#color-0);" d="M -545.69 3604.078"/>
                                        <path style="stroke: rgb(0, 0, 0); fill: url(#color-0);" d="M -446.032 3355.938"/>
                                        <g transform="matrix(1.299778, 0, 0, 1.299778, -1136.329468, -726.005432)" fill="#000000" stroke="none" style="">
                                          <g transform="matrix(0.631564, 0, 0, 0.631564, -4707.642578, -2614.624756)" fill="#000000" stroke="none">
                                            <path style="stroke: rgb(0, 0, 0); fill: url(#color-0);" d="M 8280.677 9341.516"/>
                                            <path style="stroke: rgb(0, 0, 0); fill: url(#color-0);" d="M 8016.885 9402.308"/>
                                            <path style="stroke: rgb(0, 0, 0); fill: url(#color-0);" d="M 8173.451 9414.763"/>
                                            <path style="stroke: rgb(0, 0, 0); fill: url(#color-0);" d="M 8294.854 9112.484"/>
                                            <path style="stroke: rgb(0, 0, 0); fill: url(#color-0);" d="M 8173.449 9414.767"/>
                                            <path style="stroke: rgb(0, 0, 0); fill: url(#color-0);" d="M 8382.961 9319.826"/>
                                            <g transform="matrix(1.480844, 0, 0, 1.480844, 7610.119629, 4569.65625)" fill="#000000" stroke="none" style="">
                                              <g transform="matrix(0.631564, 0, 0, 0.631564, -4707.642578, -2614.624756)" fill="#000000" stroke="none">
                                                <g transform="matrix(1.538201, 0, 0, 1.538201, 6364.547852, 4834.387207)" fill="#000000" stroke="none" style="">
                                                  <path d="M2470 3290 c-410 -43 -661 -208 -785 -515 -47 -117 -95 -440 -82 -558 l5 -54 -40 -12 c-60 -18 -71 -53 -66 -214 3 -126 4 -129 31 -152 15 -13 27 -28 27 -34 0 -5 -29 -32 -64 -59 -113 -89 -161 -220 -137 -379 20 -135 80 -236 184 -307 l55 -38 4 -112 c4 -104 7 -118 41 -190 48 -102 121 -175 224 -224 l78 -37 181 -3 c168 -3 185 -2 222 17 22 11 44 25 47 31 4 6 16 3 32 -10 14 -11 37 -20 52 -20 14 0 35 -7 45 -15 11 -8 31 -15 45 -15 14 0 35 -7 45 -15 26 -20 46 -19 76 2 14 10 33 16 43 15 10 -2 29 4 42 12 13 9 35 16 48 16 14 0 36 9 50 20 16 13 28 16 32 10 3 -6 25 -20 47 -31 37 -19 54 -20 222 -17 l181 3 78 37 c174 83 267 235 267 439 l0 86 56 38 c105 72 165 172 185 308 15 102 5 172 -38 258 -28 56 -48 80 -99 121 -35 27 -64 54 -64 59 0 6 12 21 28 34 27 23 27 25 30 157 4 160 -9 197 -70 211 l-36 9 5 55 c3 30 1 107 -6 172 -34 338 -96 499 -250 651 -169 166 -396 244 -741 254 -80 3 -183 1 -230 -4z m501 -80 c345 -73 542 -250 623 -563 17 -66 41 -256 33 -264 -3 -3 -57 2 -119 11 -209 30 -331 37 -720 43 -479 7 -894 -15 -1081 -57 l-39 -8 7 76 c43 478 283 720 771 782 117 15 416 4 525 -20z m339 -849 c139 -14 301 -41 323 -53 19 -10 20 -55 1 -51 -221 40 -430 54 -896 60 -523 7 -833 -10 -1036 -55 -42 -10 -42 -10 -42 18 0 19 6 31 18 34 66 20 238 40 517 60 109 8 1017 -3 1115 -13z m-360 -102 c157 -6 337 -16 400 -22 l115 -12 3 -42 c5 -62 -24 -214 -61 -323 -38 -113 -36 -112 -182 -76 -128 33 -243 90 -326 164 -89 79 -153 106 -249 106 -95 0 -158 -27 -250 -108 -82 -72 -197 -129 -325 -162 -146 -36 -144 -37 -182 76 -37 109 -66 261 -61 323 l3 42 120 12 c105 11 426 27 640 31 39 1 198 -3 355 -9z m-1240 -79 c0 -11 -13 -133 -30 -272 l-30 -253 -32 -25 c-112 -86 -173 -181 -187 -291 l-7 -64 -9 49 c-12 72 -1 156 28 213 24 46 117 143 138 143 22 0 38 72 58 265 12 116 26 220 31 233 12 27 40 29 40 2z m1924 -12 c3 -18 15 -121 27 -228 11 -107 25 -207 31 -222 6 -15 25 -37 43 -48 54 -33 111 -103 134 -164 22 -58 27 -156 11 -206 -7 -23 -8 -21 -9 11 -2 58 -38 160 -76 211 -19 26 -59 65 -90 88 -30 22 -55 43 -55 45 0 2 -13 117 -30 255 -36 299 -35 290 -10 290 14 0 21 -9 24 -32z m-867 -196 c22 -12 70 -47 105 -77 106 -94 231 -146 455 -191 25 -5 46 -39 73 -118 l17 -51 -91 -142 c-50 -79 -94 -143 -98 -143 -3 0 -98 63 -210 141 -111 77 -219 148 -238 157 -48 22 -212 22 -260 0 -19 -9 -127 -80 -238 -157 -112 -78 -207 -141 -210 -141 -4 0 -48 64 -98 143 l-91 142 22 61 c30 79 46 104 70 109 222 43 346 96 459 194 87 76 149 103 231 97 35 -2 78 -12 102 -24z m-899 -212 l22 -45 -22 -52 c-12 -29 -25 -53 -28 -53 -8 0 -33 57 -51 114 -12 41 -9 192 6 215 5 9 15 -11 29 -60 12 -41 32 -94 44 -119z m1647 67 c-1 -82 -5 -113 -24 -159 -12 -32 -26 -58 -30 -58 -4 0 -17 24 -29 53 l-22 52 25 50 c13 28 32 80 42 117 24 93 38 73 38 -55z m-1745 -217 c11 -21 69 -115 128 -207 59 -92 111 -173 115 -179 9 -16 -112 -52 -211 -64 -97 -11 -133 -28 -171 -81 l-29 -39 -40 46 c-124 140 -90 367 72 478 58 41 71 62 81 141 l7 50 14 -52 c7 -29 23 -71 34 -93z m1819 68 c2 -46 21 -75 76 -112 94 -65 145 -161 146 -273 1 -83 -23 -151 -73 -207 l-40 -46 -29 39 c-38 53 -74 70 -169 81 -105 12 -223 47 -213 63 4 7 60 95 125 195 111 174 157 264 159 315 1 21 1 21 9 -3 4 -14 8 -37 9 -52z m-848 -180 c30 -10 172 -98 159 -98 -3 0 -33 10 -65 22 -50 18 -81 22 -185 22 -104 0 -135 -4 -185 -22 -32 -12 -62 -22 -65 -22 -11 0 127 88 155 98 41 14 144 15 186 0z m39 -122 c30 -8 165 -66 300 -130 241 -113 338 -146 430 -146 49 0 97 -25 115 -61 14 -26 16 -55 13 -158 -3 -111 -6 -133 -30 -184 -31 -66 -116 -161 -170 -188 -49 -25 -49 -25 -32 16 30 73 10 168 -48 222 -43 40 -91 53 -200 53 -136 1 -172 16 -223 97 -83 130 -109 143 -285 143 -176 0 -202 -13 -285 -143 -51 -81 -87 -96 -223 -97 -109 0 -157 -13 -201 -53 -55 -51 -76 -151 -47 -222 17 -41 17 -41 -32 -16 -58 30 -128 106 -164 179 -31 63 -33 74 -36 193 -3 103 -1 132 13 158 18 36 66 61 115 61 92 0 189 33 430 146 135 64 268 122 295 129 66 18 198 18 265 1z m18 -410 c20 -10 51 -44 76 -84 77 -118 107 -134 271 -140 76 -3 130 -10 148 -19 66 -33 88 -138 44 -204 -37 -55 -66 -64 -209 -64 -140 0 -159 7 -205 75 -21 30 -23 45 -23 150 0 104 -2 120 -21 144 -11 14 -29 26 -39 26 -10 0 -32 14 -48 30 -18 17 -41 30 -55 30 -14 0 -39 8 -56 18 -30 16 -32 16 -62 0 -17 -10 -42 -18 -56 -18 -15 0 -36 -12 -53 -30 -15 -16 -35 -30 -43 -30 -8 0 -25 -9 -38 -19 -23 -18 -24 -27 -29 -153 -4 -113 -8 -137 -25 -160 -36 -48 -71 -61 -176 -66 -178 -8 -248 28 -257 131 -3 37 1 63 12 85 29 56 57 66 196 73 170 8 199 23 275 141 63 96 92 109 240 105 72 -2 109 -8 133 -21z m-130 -311 c2 -214 -4 -264 -28 -225 -11 16 -14 408 -4 435 4 9 12 14 18 12 8 -2 12 -71 14 -222z" style="fill: url(#color-0);"/>
                                                  <path d="M2050 2228 c-169 -11 -186 -20 -184 -98 3 -90 58 -205 117 -240 18 -11 49 -20 69 -20 51 0 214 60 305 112 134 76 212 189 167 239 -16 17 -32 19 -178 18 -89 -1 -222 -6 -296 -11z m425 -60 c-3 -13 -28 -44 -55 -69 -74 -70 -287 -169 -366 -169 -44 0 -96 61 -118 139 -25 90 -26 88 59 96 80 8 320 21 423 23 61 2 63 1 57 -20z" style="fill: url(#color-0);"/>
                                                  <path d="M2775 2217 c-40 -62 53 -178 206 -254 103 -52 221 -93 266 -93 75 0 138 65 173 178 33 106 23 154 -33 167 -43 9 -331 25 -463 25 -128 0 -134 -1 -149 -23z m290 -37 c105 -5 219 -12 254 -16 l63 -7 -5 -41 c-15 -105 -72 -186 -132 -186 -40 0 -191 55 -263 96 -89 52 -162 122 -162 159 0 7 23 6 245 -5z" style="fill: url(#color-0);"/>
                                                  <path d="M2097 1143 c-15 -14 -4 -40 56 -134 53 -85 66 -99 86 -97 14 2 26 8 28 14 5 16 -134 224 -150 224 -8 0 -17 -3 -20 -7z" style="fill: url(#color-0);"/>
                                                  <path d="M3100 1044 c-39 -59 -69 -112 -67 -118 2 -6 14 -12 28 -14 21 -2 33 12 87 98 63 99 72 132 40 138 -13 2 -38 -27 -88 -104z" style="fill: url(#color-0);"/>
                                                  <path d="M2130 707 c-39 -13 -80 -67 -80 -104 0 -58 64 -123 121 -123 14 0 41 10 60 23 113 76 29 247 -101 204z" style="fill: url(#color-0);"/>
                                                  <path d="M3096 710 c-63 -19 -95 -82 -73 -148 13 -41 66 -82 104 -82 58 0 123 64 123 120 0 38 -36 90 -75 106 -38 16 -39 16 -79 4z" style="fill: url(#color-0);"/>
                                                  <path style="stroke: rgb(0, 0, 0); fill: url(#color-0);" d="M 2723.016 799.958 L 2723.016 475.093 L 2822.558 511.809 L 2822.558 747.625 L 2723.016 799.958 Z"/>
                                                  <path style="stroke: rgb(0, 0, 0); fill: url(#color-0);" d="M 2576.322 779.002 L 2576.322 482.635 C 2576.322 482.635 2492.497 532.765 2482.019 532.765 L 2482.019 742.917 L 2576.322 779.002 Z"/>
                                                </g>
                                              </g>
                                            </g>
                                          </g>
                                        </g>
                                      </g>
                                    </g>
                                  </g>
                                </g>
                              </g>
                            </g>
                          </g>
                        </g>
                      </g>
                    </g>
                  </g>
                </g>
              </g>
            </g>
          </g>
        </g>
      </g>
    </g>
  </g>
</svg>