<?xml version="1.0" encoding="utf-8"?>
<svg viewBox="0 0 500 500" xmlns="http://www.w3.org/2000/svg">
  <defs>
    <linearGradient id="color-0">
      <stop style="stop-color: rgb(31, 171, 166);"/>
    </linearGradient>
  </defs>
  <path style="stroke: rgb(0, 0, 0); fill: rgb(31, 171, 166);" d="M 48.752 104.514"/>
  <path style="stroke: rgb(0, 0, 0); fill: url(#color-0);" d="M 66.304 104.515"/>
  <path style="stroke: rgb(0, 0, 0); fill: url(#color-0);" d="M 78.445 134.743"/>
  <path style="stroke: rgb(0, 0, 0); fill: url(#color-0);" d="M 48.644 104.515"/>
  <path style="stroke: rgb(0, 0, 0); fill: url(#color-0);" d="M 60.784 134.743"/>
  <g transform="matrix(0.158337, 0, 0, -0.158337, -38.759624, 631.998718)" fill="#000000" stroke="none" style="">
    <g transform="matrix(0.631564, 0, 0, 0.631564, -4707.642578, -2614.624756)" fill="#000000" stroke="none">
      <path style="stroke: rgb(0, 0, 0); fill: url(#color-0);" d="M 8280.677 9341.516"/>
      <path style="stroke: rgb(0, 0, 0); fill: url(#color-0);" d="M 8016.885 9402.308"/>
      <path style="stroke: rgb(0, 0, 0); fill: url(#color-0);" d="M 8173.451 9414.763"/>
      <path style="stroke: rgb(0, 0, 0); fill: url(#color-0);" d="M 8294.854 9112.484"/>
      <path style="stroke: rgb(0, 0, 0); fill: url(#color-0);" d="M 8173.449 9414.767"/>
      <path style="stroke: rgb(0, 0, 0); fill: url(#color-0);" d="M 8382.961 9319.826"/>
      <path style="stroke: rgb(0, 0, 0); fill: url(#color-0);" d="M 8265.696 9379.344"/>
      <path style="stroke: rgb(0, 0, 0); fill: url(#color-0);" d="M 8384.166 9084.367"/>
      <g transform="matrix(0.304724, 0, 0, 0.298848, 7474.564453, 5664.043457)" fill="#000000" stroke="none" style="">
        <g transform="matrix(1.102921, 0, 0, 1.100755, -959.390015, -732.216797)" fill="#000000" stroke="none">
          <path style="stroke: rgb(0, 0, 0); fill: url(#color-0);" d="M 35.368 103.375" transform="matrix(29.754255, 0, 0, -30.398991, 3568.479892, 15944.943384)"/>
          <path style="stroke: rgb(0, 0, 0); fill: url(#color-0);" d="M 0 99.162" transform="matrix(29.754255, 0, 0, -30.398991, 4982.054965, 14897.974634)"/>
          <g transform="matrix(4.449027, 0, 0, 4.545431, 1417.935913, -3323.695068)" fill="#000000" stroke="none" style="">
            <g transform="matrix(0.631564, 0, 0, 0.631564, -4707.642578, -2614.624756)" fill="#000000" stroke="none">
              <path style="stroke: rgb(0, 0, 0); fill: url(#color-0);" d="M 8280.677 9341.516"/>
              <path style="stroke: rgb(0, 0, 0); fill: url(#color-0);" d="M 8016.885 9402.308"/>
              <path style="stroke: rgb(0, 0, 0); fill: url(#color-0);" d="M 8173.451 9414.763"/>
              <path style="stroke: rgb(0, 0, 0); fill: url(#color-0);" d="M 8294.854 9112.484"/>
              <path style="stroke: rgb(0, 0, 0); fill: url(#color-0);" d="M 8173.449 9414.767"/>
              <path style="stroke: rgb(0, 0, 0); fill: url(#color-0);" d="M 8382.961 9319.826"/>
              <path style="stroke: rgb(0, 0, 0); fill: url(#color-0);" d="M 8265.696 9379.344"/>
              <path style="stroke: rgb(0, 0, 0); fill: url(#color-0);" d="M 8384.166 9084.367"/>
              <g transform="matrix(1.545121, 0, 0, 1.545121, 7563.568359, 4231.925293)" fill="#000000" stroke="none" style="">
                <g transform="matrix(0.631564, 0, 0, 0.631564, -4707.642578, -2614.624756)" fill="#000000" stroke="none">
                  <path style="stroke: rgb(0, 0, 0); fill: url(#color-0);" d="M 8280.677 9341.516"/>
                  <path style="stroke: rgb(0, 0, 0); fill: url(#color-0);" d="M 8016.885 9402.308"/>
                  <path style="stroke: rgb(0, 0, 0); fill: url(#color-0);" d="M 8173.451 9414.763"/>
                  <path style="stroke: rgb(0, 0, 0); fill: url(#color-0);" d="M 8294.854 9112.484"/>
                  <g transform="matrix(1.538625, 0, 0, 1.538625, 7534.930664, 4247.550293)" fill="#000000" stroke="none" style="">
                    <g transform="matrix(0.631564, 0, 0.000111, 0.631564, -4708.52832, -2614.624756)" fill="#000000" stroke="none" style="">
                      <path style="stroke: rgb(0, 0, 0); fill: rgb(31, 171, 166);" d="M 7569.285 9577.716"/>
                      <path style="fill: rgb(216, 216, 216); stroke: rgb(0, 0, 0);" d="M 5293.237 9836.277"/>
                      <path style="fill: rgb(216, 216, 216); stroke: rgb(0, 0, 0);" d="M 5428.863 9498.732"/>
                      <g transform="matrix(1.76815, 0, -0.000311, 1.76815, 6792.576172, 3687.288574)" fill="#000000" stroke="none" style="">
                        <g transform="matrix(0.631564, 0, 0, 0.631564, -4707.642578, -2614.624756)" fill="#000000" stroke="none">
                          <path style="stroke: rgb(0, 0, 0); fill: url(#color-0);" d="M 8280.677 9341.516"/>
                          <path style="stroke: rgb(0, 0, 0); fill: url(#color-0);" d="M 8016.885 9402.308"/>
                          <path style="stroke: rgb(0, 0, 0); fill: url(#color-0);" d="M 8173.451 9414.763"/>
                          <path style="stroke: rgb(0, 0, 0); fill: url(#color-0);" d="M 8294.854 9112.484"/>
                          <path style="stroke: rgb(0, 0, 0); fill: url(#color-0);" d="M 8173.449 9414.767"/>
                          <path style="stroke: rgb(0, 0, 0); fill: url(#color-0);" d="M 8382.961 9319.826"/>
                          <path style="stroke: rgb(0, 0, 0); fill: url(#color-0);" d="M 8265.696 9379.344"/>
                          <path style="stroke: rgb(0, 0, 0); fill: url(#color-0);" d="M 8384.166 9084.367"/>
                          <path style="stroke: rgb(0, 0, 0); fill: rgb(31, 171, 166);" d="M 8493.002 9433.483"/>
                          <path style="stroke: rgb(0, 0, 0); fill: url(#color-0);" d="M 8668.522 9433.473"/>
                          <path style="stroke: rgb(0, 0, 0); fill: url(#color-0);" d="M 8789.932 9131.193"/>
                          <path style="stroke: rgb(0, 0, 0); fill: url(#color-0);" d="M 8491.922 9433.473"/>
                          <path style="stroke: rgb(0, 0, 0); fill: url(#color-0);" d="M 8613.322 9131.193"/>
                          <path style="stroke: rgb(0, 0, 0); fill: url(#color-0);" d="M 8483.732 9433.473"/>
                          <path style="stroke: rgb(0, 0, 0); fill: url(#color-0);" d="M 8605.142 9131.193"/>
                          <path style="fill: rgb(216, 216, 216); stroke: rgb(0, 0, 0);" d="M 8538.522 9433.473"/>
                          <path style="fill: rgb(216, 216, 216); stroke: rgb(0, 0, 0);" d="M 8659.922 9131.193"/>
                          <g transform="matrix(1.58337, 0, 0, 1.583371, 7819.009766, 4158.631836)" fill="#000000" stroke="none" style="">
                            <g transform="matrix(0.631564, 0, 0, 0.631564, -4707.642578, -2614.624756)" fill="#000000" stroke="none">
                              <path style="fill: rgb(216, 216, 216); stroke: rgb(0, 0, 0);" d="M 8280.677 9341.516"/>
                              <path style="fill: rgb(216, 216, 216); stroke: rgb(0, 0, 0);" d="M 8016.885 9402.308"/>
                              <path style="fill: rgb(216, 216, 216); stroke: rgb(0, 0, 0);" d="M 8173.451 9414.763"/>
                              <path style="fill: rgb(216, 216, 216); stroke: rgb(0, 0, 0);" d="M 8294.854 9112.484"/>
                              <path style="fill: rgb(216, 216, 216); stroke: rgb(0, 0, 0);" d="M 8173.449 9414.767"/>
                              <path style="fill: rgb(216, 216, 216); stroke: rgb(0, 0, 0);" d="M 8382.961 9319.826"/>
                              <path style="fill: rgb(216, 216, 216); stroke: rgb(0, 0, 0);" d="M 8265.696 9379.344"/>
                              <path style="fill: rgb(216, 216, 216); stroke: rgb(0, 0, 0);" d="M 8384.166 9084.367"/>
                              <g transform="matrix(0.304724, 0, 0, 0.298848, 7474.564453, 5664.043457)" fill="#000000" stroke="none" style="">
                                <g transform="matrix(1.102921, 0, 0, 1.100755, -959.390015, -732.216797)" fill="#000000" stroke="none">
                                  <path style="fill: rgb(216, 216, 216); stroke: rgb(0, 0, 0);" d="M 35.368 103.375" transform="matrix(29.754255, 0, 0, -30.398991, 3568.479892, 15944.943384)"/>
                                  <path style="fill: rgb(216, 216, 216); stroke: rgb(0, 0, 0);" d="M 0 99.162" transform="matrix(29.754255, 0, 0, -30.398991, 4982.054965, 14897.974634)"/>
                                  <path style="fill: rgb(216, 216, 216); stroke: rgb(0, 0, 0);" d="M 4704.223 12067.001"/>
                                  <path style="fill: rgb(216, 216, 216); stroke: rgb(0, 0, 0);" d="M 5065.449 11148.103"/>
                                  <g transform="matrix(4.7112, 0, 0, 4.813285, 2563.381104, -3967.982422)" fill="#000000" stroke="none" style="">
                                    <g transform="matrix(0.631564, 0, 0, 0.631564, -4953.947266, -2554.210449)" fill="#000000" stroke="none">
                                      <path style="stroke: rgb(0, 0, 0); fill: url(#color-0);" d="M 8280.677 9341.516"/>
                                      <path style="stroke: rgb(0, 0, 0); fill: url(#color-0);" d="M 8016.885 9402.308"/>
                                      <g transform="matrix(1.170113, 0, 0, 1.170113, 8482.695313, 5139.725098)" fill="#000000" stroke="none" style="">
                                        <path style="stroke: rgb(0, 0, 0); fill: url(#color-0);" d="M -545.69 3604.078"/>
                                        <path style="stroke: rgb(0, 0, 0); fill: url(#color-0);" d="M -446.032 3355.938"/>
                                        <g transform="matrix(1.299778, 0, 0, 1.299778, -1136.329468, -726.005432)" fill="#000000" stroke="none" style="">
                                          <g transform="matrix(0.631564, 0, 0, 0.631564, -4707.642578, -2614.624756)" fill="#000000" stroke="none">
                                            <path style="stroke: rgb(0, 0, 0); fill: url(#color-0);" d="M 8280.677 9341.516"/>
                                            <path style="stroke: rgb(0, 0, 0); fill: url(#color-0);" d="M 8016.885 9402.308"/>
                                            <path style="stroke: rgb(0, 0, 0); fill: url(#color-0);" d="M 8173.451 9414.763"/>
                                            <path style="stroke: rgb(0, 0, 0); fill: url(#color-0);" d="M 8294.854 9112.484"/>
                                            <path style="stroke: rgb(0, 0, 0); fill: url(#color-0);" d="M 8173.449 9414.767"/>
                                            <path style="stroke: rgb(0, 0, 0); fill: url(#color-0);" d="M 8382.961 9319.826"/>
                                            <path style="stroke: rgb(0, 0, 0); fill: url(#color-0);" d="M 8169.422 9375.412"/>
                                            <path style="stroke: rgb(0, 0, 0); fill: url(#color-0);" d="M 8295.813 9060.714"/>
                                            <g transform="matrix(1.648422, 0, 0, 1.648422, 7420.354004, 3883.859375)" fill="#000000" stroke="none" style="">
                                              <g transform="matrix(0.631564, 0, 0, 0.631564, -4707.642578, -2614.624756)" fill="#000000" stroke="none">
                                                <path style="stroke: rgb(0, 0, 0); fill: url(#color-0);" d="M 8280.677 9341.516"/>
                                                <path style="stroke: rgb(0, 0, 0); fill: url(#color-0);" d="M 8016.885 9402.308"/>
                                                <path style="stroke: rgb(0, 0, 0); fill: url(#color-0);" d="M 8173.451 9414.763"/>
                                                <path style="stroke: rgb(0, 0, 0); fill: url(#color-0);" d="M 8294.854 9112.484"/>
                                                <path style="stroke: rgb(0, 0, 0); fill: url(#color-0);" d="M 8173.449 9414.767"/>
                                                <path style="stroke: rgb(0, 0, 0); fill: url(#color-0);" d="M 8382.961 9319.826"/>
                                                <path style="stroke: rgb(0, 0, 0); fill: url(#color-0);" d="M 8265.696 9379.344"/>
                                                <path style="stroke: rgb(0, 0, 0); fill: url(#color-0);" d="M 8384.166 9084.367"/>
                                                <g transform="matrix(0.304724, 0, 0, 0.298848, 7474.564453, 5664.043457)" fill="#000000" stroke="none" style="">
                                                  <g transform="matrix(1.102921, 0, 0, 1.100755, -959.390015, -732.216797)" fill="#000000" stroke="none">
                                                    <path style="stroke: rgb(0, 0, 0); fill: url(#color-0);" d="M 35.368 103.375" transform="matrix(29.754255, 0, 0, -30.398991, 3568.479892, 15944.943384)"/>
                                                    <path style="stroke: rgb(0, 0, 0); fill: url(#color-0);" d="M 0 99.162" transform="matrix(29.754255, 0, 0, -30.398991, 4982.054965, 14897.974634)"/>
                                                    <path style="stroke: rgb(0, 0, 0); fill: url(#color-0);" d="M 4704.223 12067.001"/>
                                                    <path style="stroke: rgb(0, 0, 0); fill: url(#color-0);" d="M 5065.449 11148.103"/>
                                                    <g transform="matrix(4.7112, 0, 0, 4.813285, 2563.381104, -3967.982422)" fill="#000000" stroke="none" style="">
                                                      <g transform="matrix(0.631564, 0, 0, 0.631564, -4707.642578, -2614.624756)" fill="#000000" stroke="none">
                                                        <path style="stroke: rgb(0, 0, 0); fill: url(#color-0);" d="M 8280.677 9341.516"/>
                                                        <path style="stroke: rgb(0, 0, 0); fill: url(#color-0);" d="M 8016.885 9402.308"/>
                                                        <g transform="matrix(1.170113, 0, 0, 1.170113, 8482.695313, 5139.725098)" fill="#000000" stroke="none" style="">
                                                          <path style="stroke: rgb(0, 0, 0); fill: url(#color-0);" d="M -768.33 3653.526"/>
                                                          <path style="stroke: rgb(0, 0, 0); fill: url(#color-0);" d="M -664.577 3395.192"/>
                                                          <g transform="matrix(1.394504, 0, 0, 1.394504, -1458.033447, -953.856506)" fill="#000000" stroke="none" style="">
                                                            <g transform="matrix(0.631564, 0, 0, 0.631564, -4707.642578, -2614.624756)" fill="#000000" stroke="none">
                                                              <path style="stroke: rgb(0, 0, 0); fill: url(#color-0);" d="M 8280.677 9341.516"/>
                                                              <path style="stroke: rgb(0, 0, 0); fill: url(#color-0);" d="M 8016.885 9402.308"/>
                                                              <path style="stroke: rgb(0, 0, 0); fill: url(#color-0);" d="M 8173.451 9414.763"/>
                                                              <path style="stroke: rgb(0, 0, 0); fill: url(#color-0);" d="M 8294.854 9112.484"/>
                                                              <path style="stroke: rgb(0, 0, 0); fill: url(#color-0);" d="M 8119.632 9451.535"/>
                                                              <g transform="matrix(1.623074, 0, 0, 1.623074, 7257.633301, 4354.282715)" fill="#000000" stroke="none" style="">
                                                                <g transform="matrix(0.631564, 0, 0, 0.631564, -4707.642578, -2614.624756)" fill="#000000" stroke="none">
                                                                  <g transform="matrix(1.538201, 0, 0, 1.538201, 6364.547852, 4834.387207)" fill="#000000" stroke="none" style="">
                                                                    <g transform="matrix(0.65011, 0, 0, 0.65011, -662.624512, -1757.25647)" fill="#000000" stroke="none">
                                                                      <path d="M 2814.026 7291.741 C 2806.856 7288.482 2795.124 7279.358 2787.954 7271.535 C 2774.918 7257.196 2774.918 7246.768 2772.963 5552.754 C 2772.311 4383.435 2773.615 3840.49 2778.178 3822.891 C 2791.213 3774.659 2714.953 3777.917 3760.431 3777.917 C 4662.515 3777.917 4698.364 3778.569 4714.006 3789.65 C 4723.131 3796.82 4734.212 3813.115 4738.775 3826.151 C 4745.293 3845.705 4746.596 4198.977 4745.293 5550.147 C 4743.338 7160.73 4742.685 7249.375 4731.605 7265.67 C 4725.739 7274.795 4712.703 7285.876 4703.577 7289.786 C 4684.024 7298.911 2835.535 7300.215 2814.026 7291.741 Z M 4603.201 5537.763 L 4603.201 3914.794 L 3755.868 3914.794 L 2908.536 3914.794 L 2908.536 5537.763 L 2908.536 7160.73 L 3755.868 7160.73 L 4603.201 7160.73 L 4603.201 5537.763 Z" style="fill: url(#color-0);"/>
                                                                      <path d="M 4103.927 5597.076 C 4032.882 5564.486 4021.801 5465.414 4083.069 5417.832 C 4175.625 5347.439 4296.858 5464.11 4231.027 5559.923 C 4201.044 5603.594 4149.553 5618.585 4103.927 5597.076 Z" style="fill: url(#color-0);"/>
                                                                      <path d="M 5341.684 7285.223 C 5327.997 7276.098 5318.872 7264.366 5314.309 7247.42 C 5309.095 7230.473 5307.14 6866.771 5307.14 6096.35 C 5307.14 4870.977 5305.184 4941.371 5343.639 4915.299 C 5361.89 4902.264 5382.747 4902.264 6343.493 4900.308 C 6883.178 4899.004 7337.479 4900.308 7353.122 4902.264 C 7372.676 4905.522 7388.319 4912.692 7400.702 4925.076 L 7418.953 4943.326 L 7418.953 6100.913 L 7418.953 7257.848 L 7403.31 7276.098 L 7387.668 7294.349 L 6374.778 7296.304 C 5381.444 7297.607 5361.89 7297.607 5341.684 7285.223 Z M 6296.563 6667.322 L 6294.608 6173.262 L 5872.897 6171.307 L 5450.534 6170.004 L 5450.534 6665.367 L 5450.534 7160.73 L 5874.201 7160.73 L 6297.867 7160.73 L 6296.563 6667.322 Z M 7282.076 6665.367 L 7282.076 6170.004 L 6860.366 6171.307 L 6438.003 6173.262 L 6436.047 6658.849 C 6435.396 6926.084 6436.047 7148.347 6438.003 7152.909 C 6439.958 7158.775 6531.209 7160.73 6861.669 7160.73 L 7282.076 7160.73 L 7282.076 6665.367 Z M 6296.563 5536.459 L 6297.867 5042.399 L 5874.201 5042.399 L 5450.534 5042.399 L 5450.534 5537.763 L 5450.534 6033.127 L 5872.897 6031.823 L 6294.608 6029.867 L 6296.563 5536.459 Z M 7282.076 5537.763 L 7282.076 5042.399 L 6858.41 5042.399 L 6434.744 5042.399 L 6434.744 5533.2 C 6434.744 5803.695 6436.699 6026.609 6439.306 6028.564 C 6441.262 6031.171 6632.238 6033.127 6862.972 6033.127 L 7282.076 6033.127 L 7282.076 5537.763 Z" style="fill: url(#color-0);"/>
                                                                      <path d="M 5814.236 4808.405 C 5781.646 4797.324 5758.181 4779.726 5742.538 4753.003 L 5727.547 4726.279 L 5727.547 4299.353 C 5727.547 3890.027 5728.198 3871.125 5739.931 3847.008 C 5747.752 3831.365 5764.047 3815.07 5780.993 3804.641 C 5795.985 3795.516 5809.021 3785.74 5809.021 3783.132 C 5809.021 3780.525 5780.993 3777.266 5746.449 3776.614 C 5696.26 3775.311 5681.921 3772.704 5676.706 3763.578 C 5671.493 3755.757 5672.144 3749.891 5678.011 3742.721 C 5685.832 3733.596 5744.494 3732.292 6256.152 3732.292 C 6812.132 3732.292 6825.82 3732.292 6832.338 3744.676 C 6835.597 3751.846 6838.856 3762.926 6838.856 3769.444 C 6838.856 3777.266 6850.588 3787.043 6873.402 3797.471 C 6902.08 3811.159 6909.901 3819.633 6925.545 3848.963 L 6943.143 3884.812 L 6943.143 4258.29 L 6943.143 4631.768 L 6962.045 4631.768 C 6984.858 4631.768 6997.894 4646.108 6992.028 4664.358 C 6988.768 4674.135 6982.251 4677.394 6966.608 4677.394 C 6946.402 4677.394 6944.447 4679.349 6940.536 4704.769 C 6934.018 4744.529 6912.509 4777.77 6881.875 4795.369 C 6848.633 4814.923 6776.284 4816.878 6743.043 4799.28 C 6712.408 4782.984 6688.943 4748.44 6683.729 4711.939 C 6679.167 4680.653 6679.167 4680.653 6652.443 4678.697 L 6625.72 4676.742 L 6621.157 4708.029 C 6615.942 4746.485 6591.175 4783.636 6559.888 4798.628 C 6527.299 4814.923 6459.511 4814.923 6426.27 4798.628 C 6395.636 4783.636 6368.26 4743.877 6363.698 4708.029 C 6359.787 4681.305 6359.136 4680.653 6333.715 4680.653 C 6308.295 4680.653 6307.644 4681.305 6303.733 4708.029 C 6299.171 4743.877 6271.795 4783.636 6241.161 4798.628 C 6207.919 4814.923 6140.132 4814.923 6107.542 4798.628 C 6076.257 4783.636 6051.489 4746.485 6046.274 4708.029 L 6041.711 4676.742 L 6014.988 4678.697 C 5988.264 4680.653 5988.264 4680.653 5983.701 4711.939 C 5979.14 4747.788 5955.023 4782.984 5926.344 4797.976 C 5902.879 4810.36 5838.352 4816.226 5814.236 4808.405 Z M 5913.96 4743.877 C 5928.299 4731.493 5934.166 4719.761 5934.817 4703.466 L 5936.121 4680.653 L 5890.495 4678.697 C 5857.254 4677.394 5842.914 4674.135 5837.048 4666.313 C 5830.53 4657.84 5828.575 4563.33 5828.575 4245.906 C 5828.575 3957.813 5826.619 3836.579 5821.406 3836.579 C 5817.494 3836.579 5805.762 3845.053 5795.334 3855.481 L 5776.432 3875.035 L 5777.735 4302.613 L 5779.69 4730.841 L 5799.244 4746.485 C 5814.888 4758.869 5826.619 4762.127 5855.95 4762.127 C 5887.888 4762.127 5896.361 4759.52 5913.96 4743.877 Z M 6228.125 4749.091 C 6245.724 4735.404 6262.67 4694.993 6255.5 4683.912 C 6252.893 4680.001 6219.652 4677.394 6173.375 4677.394 L 6095.811 4677.394 L 6095.811 4700.859 C 6095.811 4717.805 6101.024 4728.886 6114.713 4743.225 C 6131.659 4760.172 6138.829 4762.127 6172.722 4762.127 C 6201.401 4762.127 6215.741 4758.869 6228.125 4749.091 Z M 6552.719 4743.225 C 6566.406 4728.886 6571.621 4717.805 6571.621 4700.859 L 6571.621 4677.394 L 6494.057 4677.394 C 6447.78 4677.394 6414.538 4680.001 6411.931 4683.912 C 6404.761 4694.993 6421.708 4735.404 6439.306 4749.091 C 6451.69 4758.869 6466.029 4762.127 6494.709 4762.127 C 6528.602 4762.127 6535.772 4760.172 6552.719 4743.225 Z M 6866.884 4747.136 C 6879.919 4736.707 6886.437 4724.975 6889.044 4704.769 L 6892.955 4677.394 L 6813.437 4677.394 C 6725.444 4677.394 6721.533 4679.349 6733.917 4717.805 C 6743.694 4747.788 6769.114 4761.476 6812.784 4762.127 C 6840.16 4762.127 6853.196 4758.869 6866.884 4747.136 Z M 5939.38 4260.245 C 5939.38 3940.866 5938.076 3885.464 5929.603 3869.169 C 5919.826 3850.919 5902.228 3836.579 5887.888 3836.579 C 5882.674 3836.579 5880.719 3957.161 5880.719 4234.174 L 5880.719 4631.768 L 5910.049 4631.768 L 5939.38 4631.768 L 5939.38 4260.245 Z M 6043.667 4262.202 C 6043.667 4027.555 6046.274 3882.856 6050.185 3867.865 C 6059.31 3835.927 6084.73 3806.597 6112.105 3796.168 C 6124.489 3792.258 6134.919 3785.74 6134.919 3783.132 C 6134.919 3780.525 6082.123 3777.917 6017.596 3777.917 C 5943.942 3777.917 5900.273 3780.525 5900.273 3784.435 C 5900.273 3788.347 5904.834 3790.953 5910.049 3790.953 C 5924.388 3790.953 5966.104 3830.713 5975.88 3854.178 C 5983.05 3871.125 5985.006 3949.992 5985.006 4249.166 C 5985.006 4455.132 5986.961 4625.25 5989.568 4627.205 C 5991.524 4629.813 6005.211 4631.768 6018.899 4631.768 L 6043.667 4631.768 L 6043.667 4262.202 Z M 6147.954 4234.174 C 6147.954 3996.921 6145.347 3836.579 6142.088 3836.579 C 6127.096 3836.579 6114.06 3846.356 6105.587 3863.302 C 6097.114 3878.946 6095.811 3940.214 6095.811 4256.987 L 6095.811 4631.768 L 6121.883 4631.768 L 6147.954 4631.768 L 6147.954 4234.174 Z M 6252.242 4263.505 C 6252.242 4062.752 6252.242 3892.634 6252.242 3885.464 C 6252.242 3869.82 6222.91 3836.579 6209.874 3836.579 C 6201.401 3836.579 6200.098 3890.027 6200.098 4234.825 L 6200.098 4632.42 L 6226.17 4630.465 L 6252.242 4628.51 L 6252.242 4263.505 Z M 6363.047 4253.727 C 6363.047 3950.644 6365.002 3871.125 6372.171 3854.178 C 6381.948 3830.713 6423.663 3790.953 6438.003 3790.953 C 6443.217 3790.953 6447.78 3788.347 6447.78 3784.435 C 6447.78 3780.525 6405.413 3777.917 6333.715 3777.917 C 6262.018 3777.917 6219.652 3780.525 6219.652 3784.435 C 6219.652 3788.347 6224.214 3790.953 6229.428 3790.953 C 6243.768 3790.953 6285.483 3830.713 6295.259 3854.178 C 6302.429 3871.125 6304.385 3950.644 6304.385 4253.727 L 6304.385 4631.768 L 6333.715 4631.768 L 6363.047 4631.768 L 6363.047 4253.727 Z M 6467.334 4234.174 C 6467.334 3879.598 6466.029 3836.579 6457.556 3836.579 C 6443.217 3836.579 6417.145 3865.91 6413.234 3887.419 C 6411.279 3897.197 6409.324 4068.618 6409.324 4268.719 L 6408.672 4631.768 L 6438.003 4631.768 L 6467.334 4631.768 L 6467.334 4234.174 Z M 6571.621 4256.987 C 6571.621 3940.214 6570.317 3878.946 6561.844 3863.302 C 6553.371 3846.356 6540.335 3836.579 6525.343 3836.579 C 6522.084 3836.579 6519.477 3996.921 6519.477 4234.174 L 6519.477 4631.768 L 6545.549 4631.768 L 6571.621 4631.768 L 6571.621 4256.987 Z M 6682.425 4243.951 C 6685.033 3959.768 6687.64 3855.481 6693.506 3845.705 C 6704.587 3826.151 6746.301 3790.953 6757.382 3790.953 C 6762.596 3790.953 6767.158 3788.347 6767.158 3784.435 C 6767.158 3780.525 6723.489 3777.917 6649.835 3777.917 C 6585.309 3777.917 6532.513 3780.525 6532.513 3783.132 C 6532.513 3785.74 6542.941 3792.258 6555.326 3796.168 C 6582.701 3806.597 6608.121 3835.927 6617.247 3867.865 C 6621.157 3882.856 6623.765 4027.555 6623.765 4262.202 L 6623.765 4632.42 L 6651.791 4630.465 L 6679.167 4628.51 L 6682.425 4243.951 Z M 6786.712 4234.174 C 6786.712 3957.161 6784.757 3836.579 6779.543 3836.579 C 6765.203 3836.579 6747.604 3850.919 6737.828 3869.169 C 6729.355 3885.464 6728.051 3940.866 6728.051 4260.245 L 6728.051 4631.768 L 6757.382 4631.768 L 6786.712 4631.768 L 6786.712 4234.174 Z M 6890.999 4253.076 L 6890.999 3874.383 L 6872.098 3855.481 C 6861.669 3845.053 6849.937 3836.579 6846.026 3836.579 C 6840.812 3836.579 6838.856 3954.554 6838.856 4234.174 L 6838.856 4631.768 L 6864.928 4631.768 L 6890.999 4631.768 L 6890.999 4253.076 Z" style="fill: url(#color-0);"/>
                                                                    </g>
                                                                  </g>
                                                                </g>
                                                              </g>
                                                            </g>
                                                          </g>
                                                        </g>
                                                      </g>
                                                    </g>
                                                  </g>
                                                </g>
                                              </g>
                                            </g>
                                          </g>
                                        </g>
                                      </g>
                                    </g>
                                  </g>
                                </g>
                              </g>
                            </g>
                          </g>
                        </g>
                      </g>
                    </g>
                  </g>
                </g>
              </g>
            </g>
          </g>
        </g>
      </g>
    </g>
  </g>
</svg>