<?xml version="1.0" encoding="utf-8"?>
<svg viewBox="0 0 500 500" xmlns="http://www.w3.org/2000/svg">
  <defs>
    <linearGradient id="color-0">
      <stop style="stop-color: rgb(31, 171, 166);"/>
    </linearGradient>
  </defs>
  <path style="stroke: rgb(0, 0, 0); fill: rgb(31, 171, 166);" d="M 48.752 104.514"/>
  <path style="stroke: rgb(0, 0, 0); fill: url(#color-0);" d="M 66.304 104.515"/>
  <path style="stroke: rgb(0, 0, 0); fill: url(#color-0);" d="M 78.445 134.743"/>
  <path style="stroke: rgb(0, 0, 0); fill: url(#color-0);" d="M 48.644 104.515"/>
  <path style="stroke: rgb(0, 0, 0); fill: url(#color-0);" d="M 60.784 134.743"/>
  <g transform="matrix(0.158337, 0, 0, -0.158337, -38.759624, 631.998718)" fill="#000000" stroke="none" style="">
    <g transform="matrix(0.631564, 0, 0, 0.631564, -4707.642578, -2614.624756)" fill="#000000" stroke="none">
      <path style="stroke: rgb(0, 0, 0); fill: url(#color-0);" d="M 8280.677 9341.516"/>
      <path style="stroke: rgb(0, 0, 0); fill: url(#color-0);" d="M 8016.885 9402.308"/>
      <path style="stroke: rgb(0, 0, 0); fill: url(#color-0);" d="M 8173.451 9414.763"/>
      <path style="stroke: rgb(0, 0, 0); fill: url(#color-0);" d="M 8294.854 9112.484"/>
      <path style="stroke: rgb(0, 0, 0); fill: url(#color-0);" d="M 8173.449 9414.767"/>
      <path style="stroke: rgb(0, 0, 0); fill: url(#color-0);" d="M 8382.961 9319.826"/>
      <path style="stroke: rgb(0, 0, 0); fill: url(#color-0);" d="M 8265.696 9379.344"/>
      <path style="stroke: rgb(0, 0, 0); fill: url(#color-0);" d="M 8384.166 9084.367"/>
      <g transform="matrix(0.304724, 0, 0, 0.298848, 7474.564453, 5664.043457)" fill="#000000" stroke="none" style="">
        <g transform="matrix(1.102921, 0, 0, 1.100755, -959.390015, -732.216797)" fill="#000000" stroke="none">
          <path style="stroke: rgb(0, 0, 0); fill: url(#color-0);" d="M 35.368 103.375" transform="matrix(29.754255, 0, 0, -30.398991, 3568.479892, 15944.943384)"/>
          <path style="stroke: rgb(0, 0, 0); fill: url(#color-0);" d="M 0 99.162" transform="matrix(29.754255, 0, 0, -30.398991, 4982.054965, 14897.974634)"/>
          <g transform="matrix(4.449027, 0, 0, 4.545431, 1417.935913, -3323.695068)" fill="#000000" stroke="none" style="">
            <g transform="matrix(0.631564, 0, 0, 0.631564, -4707.642578, -2614.624756)" fill="#000000" stroke="none">
              <path style="stroke: rgb(0, 0, 0); fill: url(#color-0);" d="M 8280.677 9341.516"/>
              <path style="stroke: rgb(0, 0, 0); fill: url(#color-0);" d="M 8016.885 9402.308"/>
              <path style="stroke: rgb(0, 0, 0); fill: url(#color-0);" d="M 8173.451 9414.763"/>
              <path style="stroke: rgb(0, 0, 0); fill: url(#color-0);" d="M 8294.854 9112.484"/>
              <path style="stroke: rgb(0, 0, 0); fill: url(#color-0);" d="M 8173.449 9414.767"/>
              <path style="stroke: rgb(0, 0, 0); fill: url(#color-0);" d="M 8382.961 9319.826"/>
              <path style="stroke: rgb(0, 0, 0); fill: url(#color-0);" d="M 8265.696 9379.344"/>
              <path style="stroke: rgb(0, 0, 0); fill: url(#color-0);" d="M 8384.166 9084.367"/>
              <g transform="matrix(1.545121, 0, 0, 1.545121, 7563.568359, 4231.925293)" fill="#000000" stroke="none" style="">
                <g transform="matrix(0.631564, 0, 0, 0.631564, -4707.642578, -2614.624756)" fill="#000000" stroke="none">
                  <path style="stroke: rgb(0, 0, 0); fill: url(#color-0);" d="M 8280.677 9341.516"/>
                  <path style="stroke: rgb(0, 0, 0); fill: url(#color-0);" d="M 8016.885 9402.308"/>
                  <path style="stroke: rgb(0, 0, 0); fill: url(#color-0);" d="M 8173.451 9414.763"/>
                  <path style="stroke: rgb(0, 0, 0); fill: url(#color-0);" d="M 8294.854 9112.484"/>
                  <g transform="matrix(1.538625, 0, 0, 1.538625, 7534.930664, 4247.550293)" fill="#000000" stroke="none" style="">
                    <g transform="matrix(0.631564, 0, 0.000111, 0.631564, -4708.52832, -2614.624756)" fill="#000000" stroke="none" style="">
                      <path style="stroke: rgb(0, 0, 0); fill: rgb(31, 171, 166);" d="M 7569.285 9577.716"/>
                      <path style="fill: rgb(216, 216, 216); stroke: rgb(0, 0, 0);" d="M 5293.237 9836.277"/>
                      <path style="fill: rgb(216, 216, 216); stroke: rgb(0, 0, 0);" d="M 5428.863 9498.732"/>
                      <g transform="matrix(1.76815, 0, -0.000311, 1.76815, 6792.576172, 3687.288574)" fill="#000000" stroke="none" style="">
                        <g transform="matrix(0.631564, 0, 0, 0.631564, -4707.642578, -2614.624756)" fill="#000000" stroke="none">
                          <path style="stroke: rgb(0, 0, 0); fill: url(#color-0);" d="M 8280.677 9341.516"/>
                          <path style="stroke: rgb(0, 0, 0); fill: url(#color-0);" d="M 8016.885 9402.308"/>
                          <path style="stroke: rgb(0, 0, 0); fill: url(#color-0);" d="M 8173.451 9414.763"/>
                          <path style="stroke: rgb(0, 0, 0); fill: url(#color-0);" d="M 8294.854 9112.484"/>
                          <path style="stroke: rgb(0, 0, 0); fill: url(#color-0);" d="M 8173.449 9414.767"/>
                          <path style="stroke: rgb(0, 0, 0); fill: url(#color-0);" d="M 8382.961 9319.826"/>
                          <path style="stroke: rgb(0, 0, 0); fill: url(#color-0);" d="M 8265.696 9379.344"/>
                          <path style="stroke: rgb(0, 0, 0); fill: url(#color-0);" d="M 8384.166 9084.367"/>
                          <path style="stroke: rgb(0, 0, 0); fill: rgb(31, 171, 166);" d="M 8575.236 9433.483"/>
                          <path style="stroke: rgb(0, 0, 0); fill: url(#color-0);" d="M 8750.756 9433.473"/>
                          <path style="stroke: rgb(0, 0, 0); fill: url(#color-0);" d="M 8872.166 9131.193"/>
                          <path style="stroke: rgb(0, 0, 0); fill: url(#color-0);" d="M 8574.156 9433.473"/>
                          <path style="stroke: rgb(0, 0, 0); fill: url(#color-0);" d="M 8695.556 9131.193"/>
                          <path style="stroke: rgb(0, 0, 0); fill: url(#color-0);" d="M 8565.966 9433.473"/>
                          <path style="stroke: rgb(0, 0, 0); fill: url(#color-0);" d="M 8687.376 9131.193"/>
                          <path style="fill: rgb(216, 216, 216); stroke: rgb(0, 0, 0);" d="M 8620.756 9433.473"/>
                          <path style="fill: rgb(216, 216, 216); stroke: rgb(0, 0, 0);" d="M 8742.156 9131.193"/>
                          <g transform="matrix(1.58337, 0, 0, 1.583371, 7901.244629, 4158.631348)" fill="#000000" stroke="none" style="">
                            <g transform="matrix(0.631564, 0, 0, 0.631564, -4707.642578, -2614.624756)" fill="#000000" stroke="none">
                              <path style="fill: rgb(216, 216, 216); stroke: rgb(0, 0, 0);" d="M 8280.677 9341.516"/>
                              <path style="fill: rgb(216, 216, 216); stroke: rgb(0, 0, 0);" d="M 8016.885 9402.308"/>
                              <path style="fill: rgb(216, 216, 216); stroke: rgb(0, 0, 0);" d="M 8173.451 9414.763"/>
                              <path style="fill: rgb(216, 216, 216); stroke: rgb(0, 0, 0);" d="M 8294.854 9112.484"/>
                              <path style="fill: rgb(216, 216, 216); stroke: rgb(0, 0, 0);" d="M 8173.449 9414.767"/>
                              <path style="fill: rgb(216, 216, 216); stroke: rgb(0, 0, 0);" d="M 8382.961 9319.826"/>
                              <path style="fill: rgb(216, 216, 216); stroke: rgb(0, 0, 0);" d="M 8265.696 9379.344"/>
                              <path style="fill: rgb(216, 216, 216); stroke: rgb(0, 0, 0);" d="M 8384.166 9084.367"/>
                              <g transform="matrix(0.304724, 0, 0, 0.298848, 7474.564453, 5664.043457)" fill="#000000" stroke="none" style="">
                                <g transform="matrix(1.102921, 0, 0, 1.100755, -959.390015, -732.216797)" fill="#000000" stroke="none">
                                  <path style="fill: rgb(216, 216, 216); stroke: rgb(0, 0, 0);" d="M 35.368 103.375" transform="matrix(29.754255, 0, 0, -30.398991, 3568.479892, 15944.943384)"/>
                                  <path style="fill: rgb(216, 216, 216); stroke: rgb(0, 0, 0);" d="M 0 99.162" transform="matrix(29.754255, 0, 0, -30.398991, 4982.054965, 14897.974634)"/>
                                  <path style="fill: rgb(216, 216, 216); stroke: rgb(0, 0, 0);" d="M 4704.223 12067.001"/>
                                  <path style="fill: rgb(216, 216, 216); stroke: rgb(0, 0, 0);" d="M 5065.449 11148.103"/>
                                  <g transform="matrix(4.7112, 0, 0, 4.813285, 2563.381104, -3967.982422)" fill="#000000" stroke="none" style="">
                                    <g transform="matrix(0.631564, 0, 0, 0.631564, -4953.947266, -2554.210449)" fill="#000000" stroke="none">
                                      <path style="stroke: rgb(0, 0, 0); fill: url(#color-0);" d="M 8280.677 9341.516"/>
                                      <path style="stroke: rgb(0, 0, 0); fill: url(#color-0);" d="M 8016.885 9402.308"/>
                                      <g transform="matrix(1.170113, 0, 0, 1.170113, 8482.695313, 5139.725098)" fill="#000000" stroke="none" style="">
                                        <path style="stroke: rgb(0, 0, 0); fill: url(#color-0);" d="M -545.69 3604.078"/>
                                        <path style="stroke: rgb(0, 0, 0); fill: url(#color-0);" d="M -446.032 3355.938"/>
                                        <g transform="matrix(1.299778, 0, 0, 1.299778, -1136.329468, -726.005432)" fill="#000000" stroke="none" style="">
                                          <g transform="matrix(0.631564, 0, 0, 0.631564, -4707.642578, -2614.624756)" fill="#000000" stroke="none">
                                            <path style="stroke: rgb(0, 0, 0); fill: url(#color-0);" d="M 8280.677 9341.516"/>
                                            <path style="stroke: rgb(0, 0, 0); fill: url(#color-0);" d="M 8016.885 9402.308"/>
                                            <path style="stroke: rgb(0, 0, 0); fill: url(#color-0);" d="M 8173.451 9414.763"/>
                                            <path style="stroke: rgb(0, 0, 0); fill: url(#color-0);" d="M 8294.854 9112.484"/>
                                            <path style="stroke: rgb(0, 0, 0); fill: url(#color-0);" d="M 8173.449 9414.767"/>
                                            <path style="stroke: rgb(0, 0, 0); fill: url(#color-0);" d="M 8382.961 9319.826"/>
                                            <path style="stroke: rgb(0, 0, 0); fill: url(#color-0);" d="M 8169.422 9375.412"/>
                                            <path style="stroke: rgb(0, 0, 0); fill: url(#color-0);" d="M 8295.813 9060.714"/>
                                            <path style="stroke: rgb(0, 0, 0); fill: url(#color-0);" d="M 8218.572 9375.412"/>
                                            <path style="stroke: rgb(0, 0, 0); fill: url(#color-0);" d="M 8344.963 9060.715"/>
                                            <g transform="matrix(1.648422, 0, 0, 1.648422, 7469.503906, 3883.859619)" fill="#000000" stroke="none" style="">
                                              <g transform="matrix(0.631564, 0, 0, 0.631564, -4707.642578, -2614.624756)" fill="#000000" stroke="none">
                                                <path style="stroke: rgb(0, 0, 0); fill: url(#color-0);" d="M 8280.677 9341.516"/>
                                                <g transform="matrix(1.504269, 0, 0, 1.504269, 7481.774902, 4617.371582)" fill="#000000" stroke="none" style="">
                                                  <g transform="matrix(0.631564, 0, 0, 0.631564, -4707.642578, -2614.624756)" fill="#000000" stroke="none">
                                                    <g transform="matrix(1.538201, 0, 0, 1.538201, 6364.547852, 4834.387207)" fill="#000000" stroke="none" style="">
                                                      <g transform="matrix(0.65011, 0, 0, 0.65011, -662.624512, -1757.25647)" fill="#000000" stroke="none">
                                                        <g transform="matrix(1.588088, 0, 0, 1.588088, 1030.373779, 2779.880615)" fill="#000000" stroke="none" style="">
                                                          <path d="M1380 3091 c-44 -14 -84 -38 -117 -73 -54 -56 -63 -91 -63 -247 0 -128 2 -141 19 -151 12 -6 93 -10 195 -10 l176 0 0 -1029 c0 -1119 -2 -1072 56 -1148 13 -18 46 -45 72 -60 l47 -28 990 0 990 0 40 22 c22 12 54 36 72 55 54 56 63 91 63 247 0 128 -2 141 -19 151 -12 6 -93 10 -195 10 l-176 0 0 1028 c0 1157 4 1088 -75 1167 -79 79 -19 75 -1094 74 -526 0 -967 -4 -981 -8z m148 -108 c48 -35 62 -78 62 -185 l0 -98 -156 0 -157 0 5 105 c5 93 9 109 31 139 14 18 41 40 59 50 42 21 120 16 156 -11z m1837 2 c80 -47 75 34 75 -1124 l0 -1031 -714 -2 c-393 -2 -718 -7 -723 -11 -4 -5 -10 -70 -13 -146 -5 -133 -6 -139 -34 -175 -65 -86 -181 -87 -248 -1 l-23 30 -5 1200 -5 1200 -22 38 c-13 21 -23 40 -23 43 0 2 381 4 847 4 l846 0 42 -25z m473 -2350 c-5 -93 -9 -109 -31 -139 -54 -70 -2 -66 -940 -66 l-844 0 23 48 c20 40 23 63 24 155 l0 107 886 0 887 0 -5 -105z" style="fill: url(#color-0);"/>
                                                          <path d="M2808 2099 c-40 -23 -20 -51 145 -217 l162 -163 -163 -157 c-89 -86 -162 -165 -162 -174 0 -34 12 -48 43 -48 26 0 55 24 204 172 95 95 176 180 179 190 3 10 3 26 0 36 -7 20 -370 372 -383 372 -4 0 -16 -5 -25 -11z" style="fill: url(#color-0);"/>
                                                          <path d="M2082 1917 c-100 -100 -182 -189 -182 -197 0 -8 83 -98 183 -198 164 -164 187 -183 213 -180 22 2 30 9 32 27 3 20 -26 54 -160 188 l-163 164 163 157 c161 156 179 181 150 210 -29 29 -55 10 -236 -171z" style="fill: url(#color-0);"/>
                                                          <path d="M2621 2086 c-14 -16 -191 -678 -191 -712 0 -30 33 -49 60 -34 11 6 20 12 20 15 0 2 40 156 90 342 49 186 90 347 90 359 0 39 -45 59 -69 30z" style="fill: url(#color-0);"/>
                                                        </g>
                                                      </g>
                                                    </g>
                                                  </g>
                                                </g>
                                              </g>
                                            </g>
                                          </g>
                                        </g>
                                      </g>
                                    </g>
                                  </g>
                                </g>
                              </g>
                            </g>
                          </g>
                        </g>
                      </g>
                    </g>
                  </g>
                </g>
              </g>
            </g>
          </g>
        </g>
      </g>
    </g>
  </g>
</svg>