<?xml version="1.0" encoding="utf-8"?>
<svg viewBox="0 0 500 500" xmlns="http://www.w3.org/2000/svg">
  <defs>
    <linearGradient id="color-0">
      <stop style="stop-color: rgb(31, 171, 166);"/>
    </linearGradient>
  </defs>
  <path style="stroke: rgb(0, 0, 0); fill: rgb(31, 171, 166);" d="M 48.752 104.514"/>
  <path style="stroke: rgb(0, 0, 0); fill: url(#color-0);" d="M 66.304 104.515"/>
  <path style="stroke: rgb(0, 0, 0); fill: url(#color-0);" d="M 78.445 134.743"/>
  <path style="stroke: rgb(0, 0, 0); fill: url(#color-0);" d="M 48.644 104.515"/>
  <path style="stroke: rgb(0, 0, 0); fill: url(#color-0);" d="M 60.784 134.743"/>
  <g transform="matrix(0.158337, 0, 0, -0.158337, -38.759624, 631.998718)" fill="#000000" stroke="none" style="">
    <g transform="matrix(0.631564, 0, 0, 0.631564, -4707.642578, -2614.624756)" fill="#000000" stroke="none">
      <path style="stroke: rgb(0, 0, 0); fill: url(#color-0);" d="M 8280.677 9341.516"/>
      <path style="stroke: rgb(0, 0, 0); fill: url(#color-0);" d="M 8016.885 9402.308"/>
      <path style="stroke: rgb(0, 0, 0); fill: url(#color-0);" d="M 8173.451 9414.763"/>
      <path style="stroke: rgb(0, 0, 0); fill: url(#color-0);" d="M 8294.854 9112.484"/>
      <path style="stroke: rgb(0, 0, 0); fill: url(#color-0);" d="M 8173.449 9414.767"/>
      <path style="stroke: rgb(0, 0, 0); fill: url(#color-0);" d="M 8382.961 9319.826"/>
      <path style="stroke: rgb(0, 0, 0); fill: url(#color-0);" d="M 8265.696 9379.344"/>
      <path style="stroke: rgb(0, 0, 0); fill: url(#color-0);" d="M 8384.166 9084.367"/>
      <g transform="matrix(0.304724, 0, 0, 0.298848, 7474.564453, 5664.043457)" fill="#000000" stroke="none" style="">
        <g transform="matrix(1.102921, 0, 0, 1.100755, -959.390015, -732.216797)" fill="#000000" stroke="none">
          <path style="stroke: rgb(0, 0, 0); fill: url(#color-0);" d="M 35.368 103.375" transform="matrix(29.754255, 0, 0, -30.398991, 3568.479892, 15944.943384)"/>
          <path style="stroke: rgb(0, 0, 0); fill: url(#color-0);" d="M 0 99.162" transform="matrix(29.754255, 0, 0, -30.398991, 4982.054965, 14897.974634)"/>
          <g transform="matrix(4.449027, 0, 0, 4.545431, 1417.935913, -3323.695068)" fill="#000000" stroke="none" style="">
            <g transform="matrix(0.631564, 0, 0, 0.631564, -4707.642578, -2614.624756)" fill="#000000" stroke="none">
              <path style="stroke: rgb(0, 0, 0); fill: url(#color-0);" d="M 8280.677 9341.516"/>
              <path style="stroke: rgb(0, 0, 0); fill: url(#color-0);" d="M 8016.885 9402.308"/>
              <path style="stroke: rgb(0, 0, 0); fill: url(#color-0);" d="M 8173.451 9414.763"/>
              <path style="stroke: rgb(0, 0, 0); fill: url(#color-0);" d="M 8294.854 9112.484"/>
              <path style="stroke: rgb(0, 0, 0); fill: url(#color-0);" d="M 8173.449 9414.767"/>
              <path style="stroke: rgb(0, 0, 0); fill: url(#color-0);" d="M 8382.961 9319.826"/>
              <path style="stroke: rgb(0, 0, 0); fill: url(#color-0);" d="M 8265.696 9379.344"/>
              <path style="stroke: rgb(0, 0, 0); fill: url(#color-0);" d="M 8384.166 9084.367"/>
              <g transform="matrix(1.545121, 0, 0, 1.545121, 7563.568359, 4231.925293)" fill="#000000" stroke="none" style="">
                <g transform="matrix(0.631564, 0, 0, 0.631564, -4707.642578, -2614.624756)" fill="#000000" stroke="none">
                  <path style="stroke: rgb(0, 0, 0); fill: url(#color-0);" d="M 8280.677 9341.516"/>
                  <path style="stroke: rgb(0, 0, 0); fill: url(#color-0);" d="M 8016.885 9402.308"/>
                  <path style="stroke: rgb(0, 0, 0); fill: url(#color-0);" d="M 8173.451 9414.763"/>
                  <path style="stroke: rgb(0, 0, 0); fill: url(#color-0);" d="M 8294.854 9112.484"/>
                  <g transform="matrix(1.538625, 0, 0, 1.538625, 7534.930664, 4247.550293)" fill="#000000" stroke="none" style="">
                    <g transform="matrix(0.631564, 0, 0.000111, 0.631564, -4708.52832, -2614.624756)" fill="#000000" stroke="none" style="">
                      <path style="stroke: rgb(0, 0, 0); fill: rgb(31, 171, 166);" d="M 7569.285 9577.716"/>
                      <path style="fill: rgb(216, 216, 216); stroke: rgb(0, 0, 0);" d="M 5293.237 9836.277"/>
                      <path style="fill: rgb(216, 216, 216); stroke: rgb(0, 0, 0);" d="M 5428.863 9498.732"/>
                      <g transform="matrix(1.76815, 0, -0.000311, 1.76815, 6792.576172, 3687.288574)" fill="#000000" stroke="none" style="">
                        <g transform="matrix(0.631564, 0, 0, 0.631564, -4707.642578, -2614.624756)" fill="#000000" stroke="none">
                          <path style="stroke: rgb(0, 0, 0); fill: url(#color-0);" d="M 8280.677 9341.516"/>
                          <path style="stroke: rgb(0, 0, 0); fill: url(#color-0);" d="M 8016.885 9402.308"/>
                          <path style="stroke: rgb(0, 0, 0); fill: url(#color-0);" d="M 8173.451 9414.763"/>
                          <path style="stroke: rgb(0, 0, 0); fill: url(#color-0);" d="M 8294.854 9112.484"/>
                          <path style="stroke: rgb(0, 0, 0); fill: url(#color-0);" d="M 8173.449 9414.767"/>
                          <path style="stroke: rgb(0, 0, 0); fill: url(#color-0);" d="M 8382.961 9319.826"/>
                          <path style="stroke: rgb(0, 0, 0); fill: url(#color-0);" d="M 8265.696 9379.344"/>
                          <path style="stroke: rgb(0, 0, 0); fill: url(#color-0);" d="M 8384.166 9084.367"/>
                          <path style="stroke: rgb(0, 0, 0); fill: rgb(31, 171, 166);" d="M 8490.862 9465.977"/>
                          <path style="stroke: rgb(0, 0, 0); fill: url(#color-0);" d="M 8666.382 9465.967"/>
                          <path style="stroke: rgb(0, 0, 0); fill: url(#color-0);" d="M 8787.792 9163.686"/>
                          <path style="stroke: rgb(0, 0, 0); fill: url(#color-0);" d="M 8489.782 9465.967"/>
                          <path style="stroke: rgb(0, 0, 0); fill: url(#color-0);" d="M 8611.182 9163.686"/>
                          <path style="stroke: rgb(0, 0, 0); fill: url(#color-0);" d="M 8481.592 9465.967"/>
                          <path style="stroke: rgb(0, 0, 0); fill: url(#color-0);" d="M 8603.002 9163.686"/>
                          <path style="fill: rgb(216, 216, 216); stroke: rgb(0, 0, 0);" d="M 8536.382 9465.967"/>
                          <path style="fill: rgb(216, 216, 216); stroke: rgb(0, 0, 0);" d="M 8657.782 9163.686"/>
                          <g transform="matrix(1.58337, 0, 0, 1.583371, 7816.870117, 4191.124512)" fill="#000000" stroke="none" style="">
                            <g transform="matrix(0.631564, 0, 0, 0.631564, -4707.642578, -2614.624756)" fill="#000000" stroke="none">
                              <path style="fill: rgb(216, 216, 216); stroke: rgb(0, 0, 0);" d="M 8280.677 9341.516"/>
                              <path style="fill: rgb(216, 216, 216); stroke: rgb(0, 0, 0);" d="M 8016.885 9402.308"/>
                              <path style="fill: rgb(216, 216, 216); stroke: rgb(0, 0, 0);" d="M 8173.451 9414.763"/>
                              <path style="fill: rgb(216, 216, 216); stroke: rgb(0, 0, 0);" d="M 8294.854 9112.484"/>
                              <path style="fill: rgb(216, 216, 216); stroke: rgb(0, 0, 0);" d="M 8173.449 9414.767"/>
                              <path style="fill: rgb(216, 216, 216); stroke: rgb(0, 0, 0);" d="M 8382.961 9319.826"/>
                              <path style="fill: rgb(216, 216, 216); stroke: rgb(0, 0, 0);" d="M 8265.696 9379.344"/>
                              <path style="fill: rgb(216, 216, 216); stroke: rgb(0, 0, 0);" d="M 8384.166 9084.367"/>
                              <g transform="matrix(0.304724, 0, 0, 0.298848, 7474.564453, 5664.043457)" fill="#000000" stroke="none" style="">
                                <g transform="matrix(1.102921, 0, 0, 1.100755, -959.390015, -732.216797)" fill="#000000" stroke="none">
                                  <path style="fill: rgb(216, 216, 216); stroke: rgb(0, 0, 0);" d="M 35.368 103.375" transform="matrix(29.754255, 0, 0, -30.398991, 3568.479892, 15944.943384)"/>
                                  <path style="fill: rgb(216, 216, 216); stroke: rgb(0, 0, 0);" d="M 0 99.162" transform="matrix(29.754255, 0, 0, -30.398991, 4982.054965, 14897.974634)"/>
                                  <path style="fill: rgb(216, 216, 216); stroke: rgb(0, 0, 0);" d="M 4704.223 12067.001"/>
                                  <path style="fill: rgb(216, 216, 216); stroke: rgb(0, 0, 0);" d="M 5065.449 11148.103"/>
                                  <g transform="matrix(4.7112, 0, 0, 4.813285, 2563.381104, -3967.982422)" fill="#000000" stroke="none" style="">
                                    <g transform="matrix(0.631564, 0, 0, 0.631564, -4953.947266, -2554.210449)" fill="#000000" stroke="none">
                                      <path style="stroke: rgb(0, 0, 0); fill: url(#color-0);" d="M 8280.677 9341.516"/>
                                      <path style="stroke: rgb(0, 0, 0); fill: url(#color-0);" d="M 8016.885 9402.308"/>
                                      <g transform="matrix(1.170113, 0, 0, 1.170113, 8482.695313, 5139.725098)" fill="#000000" stroke="none" style="">
                                        <path style="stroke: rgb(0, 0, 0); fill: url(#color-0);" d="M -545.69 3604.078"/>
                                        <path style="stroke: rgb(0, 0, 0); fill: url(#color-0);" d="M -446.032 3355.938"/>
                                        <g transform="matrix(1.299778, 0, 0, 1.299778, -1136.329468, -726.005432)" fill="#000000" stroke="none" style="">
                                          <g transform="matrix(0.631564, 0, 0, 0.631564, -4707.642578, -2614.624756)" fill="#000000" stroke="none">
                                            <path style="stroke: rgb(0, 0, 0); fill: url(#color-0);" d="M 8280.677 9341.516"/>
                                            <path style="stroke: rgb(0, 0, 0); fill: url(#color-0);" d="M 8016.885 9402.308"/>
                                            <path style="stroke: rgb(0, 0, 0); fill: url(#color-0);" d="M 8173.451 9414.763"/>
                                            <path style="stroke: rgb(0, 0, 0); fill: url(#color-0);" d="M 8294.854 9112.484"/>
                                            <path style="stroke: rgb(0, 0, 0); fill: url(#color-0);" d="M 8173.449 9414.767"/>
                                            <path style="stroke: rgb(0, 0, 0); fill: url(#color-0);" d="M 8382.961 9319.826"/>
                                            <path style="stroke: rgb(0, 0, 0); fill: url(#color-0);" d="M 8169.422 9375.412"/>
                                            <path style="stroke: rgb(0, 0, 0); fill: url(#color-0);" d="M 8295.813 9060.714"/>
                                            <path style="stroke: rgb(0, 0, 0); fill: url(#color-0);" d="M 8218.572 9375.412"/>
                                            <path style="stroke: rgb(0, 0, 0); fill: url(#color-0);" d="M 8344.963 9060.715"/>
                                            <path style="stroke: rgb(0, 0, 0); fill: url(#color-0);" d="M 8169.421 9375.417"/>
                                            <g transform="matrix(1.648422, 0, 0, 1.648422, 7293.962402, 4198.5625)" fill="#000000" stroke="none" style="">
                                              <g transform="matrix(0.631564, 0, 0, 0.631564, -4707.642578, -2614.624756)" fill="#000000" stroke="none">
                                                <g transform="matrix(1.538201, 0, 0, 1.538201, 6364.547852, 4834.387207)" fill="#000000" stroke="none" style="">
                                                  <g transform="matrix(0.65011, 0, 0, 0.65011, -662.624512, -1757.25647)" fill="#000000" stroke="none">
                                                    <g transform="matrix(0.74289, 0, 0, 0.74289, 1251.423462, 1789.133057)" fill="#000000" stroke="none" style="">
                                                      <path d="M2503 7436 c-181 -44 -334 -202 -372 -384 -16 -75 -16 -3279 0 -3354 39 -187 200 -348 387 -387 36 -8 343 -11 982 -11 l930 0 0 -310 0 -310 -385 0 -385 0 0 -50 0 -50 1525 0 1525 0 0 50 0 50 -375 0 -375 0 0 310 0 310 910 0 c625 0 926 3 962 11 187 39 348 200 387 387 16 75 16 3279 0 3354 -39 187 -200 348 -387 387 -81 17 -5258 14 -5329 -3z m5372 -159 c78 -36 146 -104 182 -181 l28 -61 3 -1422 2 -1423 -2915 0 -2915 0 2 1423 3 1422 28 60 c46 99 124 167 232 201 32 10 564 12 2665 11 l2625 -2 60 -28z m213 -3374 c-3 -182 -4 -190 -31 -249 -36 -77 -104 -145 -182 -181 l-60 -28 -2640 0 -2640 0 -60 28 c-78 36 -146 104 -182 181 -27 59 -28 67 -31 249 l-4 187 2917 0 2917 0 -4 -187z m-2228 -913 l0 -310 -665 0 -665 0 0 310 0 310 665 0 665 0 0 -310z" style="fill: url(#color-0);"/>
                                                      <path d="M5125 3896 c-102 -44 -124 -181 -41 -254 140 -123 338 67 219 209 -47 55 -116 72 -178 45z" style="fill: url(#color-0);"/>
                                                    </g>
                                                  </g>
                                                </g>
                                              </g>
                                            </g>
                                          </g>
                                        </g>
                                      </g>
                                    </g>
                                  </g>
                                </g>
                              </g>
                            </g>
                          </g>
                        </g>
                      </g>
                    </g>
                  </g>
                </g>
              </g>
            </g>
          </g>
        </g>
      </g>
    </g>
  </g>
</svg>