<svg width="155" height="17" viewBox="0 0 155 17" fill="none" xmlns="http://www.w3.org/2000/svg">
<path d="M7.7 15.01C8.16933 15.01 8.60933 14.922 9.02 14.746C9.43067 14.57 9.79 14.2987 10.098 13.932C10.406 13.5507 10.648 13.0593 10.824 12.458C11.0147 11.8567 11.11 11.1307 11.11 10.28C11.11 9.42933 11.0147 8.70333 10.824 8.102C10.648 7.50067 10.406 7.01667 10.098 6.65C9.79 6.26867 9.43067 5.99 9.02 5.814C8.60933 5.638 8.16933 5.55 7.7 5.55C7.23067 5.55 6.79067 5.638 6.38 5.814C5.96933 5.99 5.61 6.26867 5.302 6.65C4.994 7.01667 4.74467 7.50067 4.554 8.102C4.378 8.70333 4.29 9.42933 4.29 10.28C4.29 11.1307 4.378 11.8567 4.554 12.458C4.74467 13.0593 4.994 13.5507 5.302 13.932C5.61 14.2987 5.96933 14.57 6.38 14.746C6.79067 14.922 7.23067 15.01 7.7 15.01ZM7.7 4.12C8.68267 4.12 9.58467 4.25933 10.406 4.538C11.242 4.802 11.9533 5.198 12.54 5.726C13.1267 6.23933 13.5813 6.88467 13.904 7.662C14.2413 8.42467 14.41 9.29733 14.41 10.28C14.41 11.2773 14.2413 12.1573 13.904 12.92C13.5813 13.6827 13.1267 14.328 12.54 14.856C11.9533 15.3693 11.242 15.758 10.406 16.022C9.58467 16.3007 8.68267 16.44 7.7 16.44C6.70267 16.44 5.79333 16.3007 4.972 16.022C4.15067 15.758 3.44667 15.3693 2.86 14.856C2.27333 14.328 1.81133 13.6827 1.474 12.92C1.15133 12.1573 0.99 11.2773 0.99 10.28C0.99 9.29733 1.15133 8.42467 1.474 7.662C1.81133 6.88467 2.27333 6.23933 2.86 5.726C3.44667 5.198 4.15067 4.802 4.972 4.538C5.79333 4.25933 6.70267 4.12 7.7 4.12ZM29.0443 16H25.9643V9.07C25.9643 8.014 25.7003 7.25867 25.1723 6.804C24.6443 6.33467 23.8816 6.1 22.8843 6.1H20.0243V16H16.9443V4.56H22.8843C24.9816 4.56 26.529 4.94133 27.5263 5.704C28.5383 6.452 29.0443 7.574 29.0443 9.07V16ZM35.0848 16H32.0048V0.599999H35.0848V16ZM41.3609 16H38.2809V4.78H41.3609V16ZM41.4709 1.81C41.4709 2.25 41.3169 2.63867 41.0089 2.976C40.7155 3.29867 40.3195 3.46 39.8209 3.46C39.3222 3.46 38.9189 3.29867 38.6109 2.976C38.3175 2.63867 38.1709 2.25 38.1709 1.81C38.1709 1.37 38.3175 0.988666 38.6109 0.665999C38.9189 0.328666 39.3222 0.159999 39.8209 0.159999C40.3049 0.159999 40.7009 0.328666 41.0089 0.665999C41.3169 0.988666 41.4709 1.37 41.4709 1.81ZM56.6517 16H53.5717V9.07C53.5717 8.014 53.3077 7.25867 52.7797 6.804C52.2517 6.33467 51.4891 6.1 50.4917 6.1H47.6317V16H44.5517V4.56H50.4917C52.5891 4.56 54.1364 4.94133 55.1337 5.704C56.1457 6.452 56.6517 7.574 56.6517 9.07V16ZM66.2123 14.9C66.9309 14.9 67.5983 14.7753 68.2143 14.526C68.8449 14.2767 69.4609 13.9247 70.0623 13.47L70.9423 14.79C70.6636 15.0393 70.3336 15.2667 69.9523 15.472C69.5856 15.6773 69.1823 15.8533 68.7423 16C68.3169 16.132 67.8696 16.2347 67.4003 16.308C66.9309 16.396 66.4616 16.44 65.9923 16.44C64.9509 16.44 63.9976 16.3007 63.1323 16.022C62.2816 15.758 61.5556 15.3693 60.9543 14.856C60.3529 14.328 59.8836 13.6827 59.5463 12.92C59.2236 12.1573 59.0623 11.2773 59.0623 10.28C59.0623 9.29733 59.2163 8.42467 59.5243 7.662C59.8469 6.88467 60.2869 6.23933 60.8443 5.726C61.4163 5.198 62.0909 4.802 62.8683 4.538C63.6456 4.25933 64.5036 4.12 65.4423 4.12C66.3223 4.12 67.1509 4.252 67.9283 4.516C68.7056 4.78 69.3803 5.16867 69.9523 5.682C70.5243 6.18067 70.9789 6.78933 71.3163 7.508C71.6536 8.22667 71.8223 9.04067 71.8223 9.95V11.49H62.4283C62.6043 12.7073 63.0223 13.58 63.6823 14.108C64.3569 14.636 65.2003 14.9 66.2123 14.9ZM65.4423 5.55C65.0169 5.55 64.6209 5.63067 64.2543 5.792C63.8876 5.95333 63.5649 6.21 63.2863 6.562C63.0223 6.914 62.8023 7.36867 62.6263 7.926C62.4649 8.48333 62.3769 9.158 62.3623 9.95H68.5223C68.5223 9.18733 68.4343 8.52733 68.2583 7.97C68.0823 7.41267 67.8476 6.958 67.5543 6.606C67.2756 6.23933 66.9456 5.97533 66.5643 5.814C66.1976 5.638 65.8236 5.55 65.4423 5.55Z" fill="#1C1F2D"/>
<path d="M75.3405 6.1H73.2505V4.56H75.3405V1.04H78.4205V4.56H81.8305V6.1H78.4205V11.82C78.4205 12.3773 78.4792 12.854 78.5965 13.25C78.7285 13.6313 78.8972 13.9467 79.1025 14.196C79.3225 14.4307 79.5719 14.6067 79.8505 14.724C80.1292 14.8413 80.4225 14.9 80.7305 14.9C81.1705 14.9 81.5959 14.834 82.0065 14.702C82.4172 14.5553 82.7619 14.4013 83.0405 14.24L83.7005 15.67C83.2605 15.89 82.7545 16.0733 82.1825 16.22C81.6252 16.3667 81.0679 16.44 80.5105 16.44C78.8532 16.44 77.5772 16.0293 76.6825 15.208C75.7879 14.3867 75.3405 13.2573 75.3405 11.82V6.1ZM94.148 6.1H91.508C90.5106 6.1 89.748 6.37133 89.22 6.914C88.692 7.442 88.428 8.234 88.428 9.29V16H85.348V9.29C85.348 7.794 85.8173 6.63533 86.756 5.814C87.7093 4.978 89.0733 4.56 90.848 4.56H94.148V6.1ZM97.7634 12.37C97.7634 13.7633 98.6067 14.46 100.293 14.46H103.373V10.28H100.293C98.6067 10.28 97.7634 10.9767 97.7634 12.37ZM103.373 8.74C103.373 7.684 103.095 6.90667 102.537 6.408C101.995 5.90933 101.283 5.66 100.403 5.66C99.7434 5.66 99.098 5.76267 98.4674 5.968C97.8367 6.15867 97.272 6.42267 96.7734 6.76L96.0034 5.44C96.326 5.22 96.678 5.02933 97.0594 4.868C97.4554 4.70667 97.8587 4.57467 98.2694 4.472C98.68 4.35467 99.0834 4.26667 99.4794 4.208C99.89 4.14933 100.271 4.12 100.623 4.12C101.562 4.12 102.391 4.23 103.109 4.45C103.828 4.67 104.437 4.98533 104.935 5.396C105.434 5.80667 105.808 6.298 106.057 6.87C106.321 7.42733 106.453 8.05067 106.453 8.74V16H100.293C98.2987 16 96.8247 15.6993 95.8714 15.098C94.9327 14.4967 94.4634 13.5873 94.4634 12.37C94.4634 11.1527 94.9327 10.2433 95.8714 9.642C96.8247 9.04067 98.2987 8.74 100.293 8.74H103.373ZM112.603 16H109.523V4.78H112.603V16ZM112.713 1.81C112.713 2.25 112.559 2.63867 112.251 2.976C111.958 3.29867 111.562 3.46 111.063 3.46C110.564 3.46 110.161 3.29867 109.853 2.976C109.56 2.63867 109.413 2.25 109.413 1.81C109.413 1.37 109.56 0.988666 109.853 0.665999C110.161 0.328666 110.564 0.159999 111.063 0.159999C111.547 0.159999 111.943 0.328666 112.251 0.665999C112.559 0.988666 112.713 1.37 112.713 1.81ZM127.894 16H124.814V9.07C124.814 8.014 124.55 7.25867 124.022 6.804C123.494 6.33467 122.731 6.1 121.734 6.1H118.874V16H115.794V4.56H121.734C123.831 4.56 125.379 4.94133 126.376 5.704C127.388 6.452 127.894 7.574 127.894 9.07V16ZM137.454 14.9C138.173 14.9 138.84 14.7753 139.456 14.526C140.087 14.2767 140.703 13.9247 141.304 13.47L142.184 14.79C141.906 15.0393 141.576 15.2667 141.194 15.472C140.828 15.6773 140.424 15.8533 139.984 16C139.559 16.132 139.112 16.2347 138.642 16.308C138.173 16.396 137.704 16.44 137.234 16.44C136.193 16.44 135.24 16.3007 134.374 16.022C133.524 15.758 132.798 15.3693 132.196 14.856C131.595 14.328 131.126 13.6827 130.788 12.92C130.466 12.1573 130.304 11.2773 130.304 10.28C130.304 9.29733 130.458 8.42467 130.766 7.662C131.089 6.88467 131.529 6.23933 132.086 5.726C132.658 5.198 133.333 4.802 134.11 4.538C134.888 4.25933 135.746 4.12 136.684 4.12C137.564 4.12 138.393 4.252 139.17 4.516C139.948 4.78 140.622 5.16867 141.194 5.682C141.766 6.18067 142.221 6.78933 142.558 7.508C142.896 8.22667 143.064 9.04067 143.064 9.95V11.49H133.67C133.846 12.7073 134.264 13.58 134.924 14.108C135.599 14.636 136.442 14.9 137.454 14.9ZM136.684 5.55C136.259 5.55 135.863 5.63067 135.496 5.792C135.13 5.95333 134.807 6.21 134.528 6.562C134.264 6.914 134.044 7.36867 133.868 7.926C133.707 8.48333 133.619 9.158 133.604 9.95H139.764C139.764 9.18733 139.676 8.52733 139.5 7.97C139.324 7.41267 139.09 6.958 138.796 6.606C138.518 6.23933 138.188 5.97533 137.806 5.814C137.44 5.638 137.066 5.55 136.684 5.55ZM154.283 6.1H151.643C150.645 6.1 149.883 6.37133 149.355 6.914C148.827 7.442 148.563 8.234 148.563 9.29V16H145.483V9.29C145.483 7.794 145.952 6.63533 146.891 5.814C147.844 4.978 149.208 4.56 150.983 4.56H154.283V6.1Z" fill="#5B77EC"/>
</svg>
