<?xml version="1.0" encoding="utf-8"?>
<svg version="1.0" width="460.000000pt" height="386.000000pt" viewBox="0 0 460.000000 386.000000" preserveAspectRatio="xMidYMid meet" xmlns="http://www.w3.org/2000/svg" xmlns:bx="https://boxy-svg.com">
  <defs>
    <linearGradient id="color-0" bx:pinned="true">
      <stop style="stop-color: rgb(31, 171, 166);"/>
    </linearGradient>
  </defs>
  <g transform="translate(0.000000,386.000000) scale(0.100000,-0.100000)" fill="#000000" stroke="none">
    <path d="M990 3075 l0 -395 145 0 145 0 0 -148 c0 -160 9 -192 54 -192 42 0 46 15 46 182 l0 158 50 0 50 0 0 -815 0 -815 -25 0 c-24 0 -25 -3 -25 -60 0 -188 -149 -352 -343 -379 -38 -5 -75 -15 -83 -22 -17 -14 -18 -51 -2 -67 9 -9 154 -12 590 -12 l577 0 3 117 3 118 740 0 740 0 3 -118 3 -117 144 0 145 0 0 611 0 611 -29 29 c-23 22 -39 29 -70 29 l-40 0 -3 348 c-3 319 -5 350 -22 378 -41 68 10 64 -871 64 -863 0 -832 2 -868 -54 -15 -22 -17 -71 -19 -378 l-3 -353 -49 -6 c-37 -4 -55 -12 -72 -33 l-24 -27 0 -532 c0 -295 -4 -538 -9 -546 -19 -30 -136 66 -193 159 -24 40 -41 100 -47 170 -5 57 -9 65 -27 68 -13 2 -25 13 -28 25 -8 30 -8 1536 0 1576 l6 31 242 2 241 3 3 393 2 392 -540 0 -540 0 0 -395z m988 20 c1 -148 0 -280 -3 -292 l-5 -23 -440 0 -440 0 0 295 0 295 443 -2 442 -3 3 -270z m1724 -627 c4 -7 7 -161 5 -343 l-2 -330 -73 -5 c-65 -4 -77 -8 -98 -33 -21 -25 -24 -37 -24 -118 l0 -89 -595 0 -595 0 0 83 c0 64 -4 89 -20 114 -21 35 -37 42 -120 45 l-55 3 -3 332 c-2 266 0 334 11 345 19 19 1556 15 1569 -4z m143 -1193 l0 -420 -933 0 -933 0 0 408 c1 224 1 412 1 417 0 6 47 10 120 10 l120 0 2 -267 3 -268 690 0 690 0 2 255 c1 140 2 260 3 267 0 11 123 21 215 19 20 -1 20 -8 20 -421z m-335 70 l0 -95 -592 2 -593 3 -3 84 c-2 46 -1 89 1 95 3 8 178 10 596 8 l591 -2 0 -95z m-1961 -472 c25 -81 64 -151 121 -215 l42 -48 -176 0 c-97 0 -176 4 -176 9 0 5 7 14 16 22 56 46 144 214 144 274 0 41 8 29 29 -42z" style="fill: url(#color-0);"/>
  </g>
</svg>