<?xml version="1.0" encoding="utf-8"?>
<svg version="1.0" width="388.000000pt" height="341.000000pt" viewBox="0 0 388.000000 341.000000" preserveAspectRatio="xMidYMid meet" xmlns="http://www.w3.org/2000/svg">
  <g transform="translate(0.000000,341.000000) scale(0.100000,-0.100000)" fill="#000000" stroke="none">
    <path d="M1870 3153 c-70 -28 -115 -101 -108 -173 l5 -46 -420 -242 -419 -242 -25 20 c-81 63 -208 38 -253 -51 -44 -86 -13 -194 67 -233 l42 -21 1 -486 0 -486 -41 -18 c-80 -37 -113 -148 -69 -234 47 -93 182 -116 261 -45 14 13 57 -9 425 -222 225 -130 413 -240 419 -245 5 -5 8 -29 6 -53 -3 -55 26 -115 71 -148 47 -33 149 -33 196 0 45 33 74 93 71 148 -2 24 1 48 6 53 6 5 194 115 419 245 368 213 411 235 425 222 79 -71 214 -48 261 45 44 86 11 197 -69 234 l-41 18 0 486 0 486 43 23 c81 43 111 146 67 231 -47 93 -182 116 -261 45 -14 -13 -57 9 -425 222 -225 130 -413 240 -419 245 -5 5 -8 29 -6 53 3 55 -26 115 -71 147 -32 23 -125 36 -158 22z m131 -89 c33 -32 41 -69 24 -110 -17 -41 -51 -64 -95 -64 -44 0 -78 23 -96 65 -15 38 -9 71 20 104 43 48 100 50 147 5z m-157 -219 c63 -32 108 -32 173 1 l52 27 412 -239 413 -239 0 -59 0 -60 -413 -239 -413 -239 -48 26 c-63 34 -118 34 -180 0 l-48 -26 -413 239 -414 240 1 59 0 59 410 237 c225 131 411 238 414 238 3 0 27 -11 54 -25z m-994 -422 c57 -33 66 -104 21 -155 -25 -28 -36 -33 -75 -33 -64 0 -101 37 -101 101 0 39 5 50 33 75 37 33 79 38 122 12z m2282 -12 c28 -25 33 -36 33 -75 0 -64 -37 -101 -101 -101 -39 0 -50 5 -75 33 -88 98 45 231 143 143z m-1784 -432 l417 -241 -3 -52 c-4 -70 27 -121 91 -154 l47 -25 0 -482 0 -483 -55 -26 -54 -27 -413 238 -413 239 3 40 c5 59 -24 121 -71 155 -22 16 -46 29 -54 29 -11 0 -13 85 -13 490 0 391 3 490 13 490 7 0 28 11 47 25 19 13 36 24 38 25 2 0 191 -108 420 -241z m1618 216 c20 -14 43 -25 50 -25 12 0 14 -83 14 -489 l0 -489 -24 -6 c-65 -16 -120 -104 -114 -180 l3 -40 -413 -239 -413 -240 -55 28 -54 27 0 482 0 481 47 25 c64 34 95 87 90 156 l-3 50 415 241 c229 133 417 242 418 242 1 1 19 -10 39 -24z m-972 -434 c27 -23 45 -71 39 -103 -3 -14 -18 -38 -33 -53 -65 -63 -173 -16 -173 75 0 87 102 137 167 81z m-1128 -665 c96 -96 -37 -238 -138 -147 -28 25 -33 36 -33 74 0 98 102 142 171 73z m2273 0 c20 -21 26 -36 26 -72 0 -39 -5 -50 -33 -75 -71 -63 -172 -15 -172 82 0 22 10 41 35 66 32 32 40 35 77 30 26 -3 51 -15 67 -31z m-1150 -642 c30 -21 51 -71 44 -106 -3 -14 -18 -39 -34 -54 -79 -76 -206 12 -164 112 17 41 51 64 95 64 20 0 46 -7 59 -16z" style="fill: rgb(31, 171, 166);"/>
  </g>
</svg>