<?xml version="1.0" encoding="utf-8"?>
<svg version="1.0" width="401.000000pt" height="396.000000pt" viewBox="0 0 401.000000 396.000000" preserveAspectRatio="xMidYMid meet" xmlns="http://www.w3.org/2000/svg">
  <g transform="translate(0.000000,396.000000) scale(0.100000,-0.100000)" fill="#000000" stroke="none">
    <path d="M1915 3240 c-61 -26 -326 -143 -590 -260 -264 -116 -513 -226 -553 -245 l-72 -34 2 -848 3 -848 365 -167 c201 -92 401 -184 445 -204 356 -165 489 -224 505 -224 10 0 136 54 281 121 145 67 313 143 373 171 60 27 141 64 180 82 39 18 162 75 273 126 121 55 204 99 207 109 3 9 8 387 11 841 7 818 7 825 -13 843 -11 10 -64 38 -118 61 -55 24 -218 96 -364 161 -453 200 -764 337 -795 351 -29 12 -39 9 -140 -36z m352 -155 c681 -299 905 -401 905 -410 -1 -8 -299 -144 -627 -285 -49 -21 -153 -66 -230 -100 -77 -34 -174 -77 -216 -95 l-76 -33 -119 53 c-65 28 -213 94 -329 145 -115 50 -304 134 -420 185 -115 51 -227 100 -247 108 -21 9 -38 20 -38 24 0 4 103 53 228 107 291 128 343 151 657 290 143 63 263 115 267 116 5 0 115 -47 245 -105z m-1394 -516 c149 -65 410 -180 450 -199 23 -10 101 -44 172 -76 150 -65 185 -81 315 -139 52 -24 112 -50 133 -59 l37 -15 0 -780 c0 -430 -2 -781 -4 -781 -2 0 -109 49 -237 108 -129 60 -272 126 -319 148 -46 21 -206 96 -355 165 l-270 125 -3 767 c-1 422 1 767 4 767 3 0 38 -14 77 -31z m2385 -736 l-3 -767 -180 -82 c-99 -46 -216 -100 -260 -120 -44 -21 -136 -63 -205 -94 -69 -32 -214 -99 -323 -149 -109 -50 -202 -91 -208 -91 -15 0 -12 1545 4 1557 6 6 116 56 242 111 127 56 381 169 565 251 184 82 343 150 353 150 16 1 17 -40 15 -766z" style="fill: rgb(31, 171, 166);"/>
  </g>
</svg>