<?xml version="1.0" encoding="utf-8"?>
<svg version="1.0" width="561.000000pt" height="588.000000pt" viewBox="0 0 561.000000 588.000000" preserveAspectRatio="xMidYMid meet" xmlns="http://www.w3.org/2000/svg">
  <g transform="translate(0.000000,588.000000) scale(0.100000,-0.100000)" fill="#000000" stroke="none">
    <path d="M1173 5366 l-28 -24 -3 -1590 c-1 -1008 1 -1600 8 -1616 5 -14 27 -34 50 -46 l40 -20 0 -488 0 -488 38 -18 c20 -10 335 -177 698 -372 364 -195 667 -354 675 -354 8 0 237 120 509 265 272 146 586 313 697 373 l202 107 1 486 0 487 30 12 c17 7 40 24 50 38 20 24 20 49 20 1622 l0 1597 -25 27 c-28 30 -78 35 -112 11 -16 -12 -78 -184 -268 -754 l-246 -740 -52 33 c-143 92 -333 166 -527 207 -149 32 -410 32 -558 0 -192 -41 -350 -101 -496 -189 -37 -23 -71 -42 -75 -42 -3 0 -116 327 -251 727 -169 501 -252 735 -267 750 -29 30 -74 30 -110 -1z m2817 -1867 l0 -1271 -665 -329 c-366 -181 -670 -329 -676 -329 -5 0 -309 148 -674 329 l-665 329 0 1268 c0 697 2 1265 4 1263 3 -2 84 -241 181 -529 108 -320 185 -534 198 -547 30 -34 83 -31 138 8 132 92 196 130 283 168 427 187 936 134 1316 -138 98 -71 144 -80 183 -37 15 16 81 202 196 555 96 292 176 531 178 531 2 0 3 -572 3 -1271z m-1562 -2018 c112 -55 215 -101 228 -101 13 0 299 137 634 305 l610 305 -2 -401 -3 -402 -290 -155 c-159 -85 -440 -234 -623 -332 l-332 -178 -273 148 c-151 81 -432 232 -625 335 l-352 187 0 398 0 399 413 -203 c226 -112 504 -249 615 -305z" style="fill: rgb(31, 171, 166);"/>
    <path d="M1603 2880 c-40 -16 -56 -65 -49 -149 13 -151 63 -258 169 -357 187 -176 444 -201 662 -63 121 76 164 152 118 208 -18 21 -791 353 -848 364 -16 3 -40 2 -52 -3z m437 -343 c113 -46 212 -86 220 -89 28 -10 -63 -40 -136 -45 -130 -10 -241 36 -316 128 -36 45 -68 100 -68 118 0 12 5 10 300 -112z" style="fill: rgb(31, 171, 166);"/>
    <path d="M3620 2876 c-159 -59 -790 -334 -810 -352 -17 -17 -24 -34 -24 -60 0 -32 8 -44 61 -95 128 -120 305 -172 468 -136 140 30 265 112 341 224 62 91 86 161 91 274 5 89 4 97 -18 122 -30 33 -64 40 -109 23z m-65 -238 c-24 -80 -99 -164 -183 -205 -72 -35 -195 -44 -271 -18 -28 9 -53 20 -55 24 -4 6 482 217 507 220 5 1 5 -9 2 -21z" style="fill: rgb(31, 171, 166);"/>
  </g>
</svg>