<?xml version="1.0" encoding="utf-8"?>
<svg version="1.0" width="937.000000pt" height="604.000000pt" viewBox="0 0 937.000000 604.000000" preserveAspectRatio="xMidYMid meet" xmlns="http://www.w3.org/2000/svg">
  <g transform="translate(0.000000,604.000000) scale(0.100000,-0.100000)" fill="#000000" stroke="none">
    <path d="M3648 4186 c-24 -30 -119 -158 -213 -285 l-170 -230 -355 0 -355 -1 -233 -233 -232 -232 0 -243 c0 -304 -13 -282 172 -282 l133 0 30 -58 c156 -301 593 -301 751 2 l29 56 805 0 805 0 30 -58 c104 -200 356 -283 563 -185 68 32 148 112 187 186 l30 57 133 0 c119 0 134 2 152 20 19 19 20 33 20 475 0 442 -1 456 -20 475 -19 19 -33 20 -230 20 l-210 0 -204 274 c-113 151 -214 279 -225 285 -13 8 -229 11 -685 11 l-666 0 -42 -54z m1517 -342 c105 -141 203 -269 218 -285 l29 -29 189 0 189 0 0 -355 0 -355 -70 0 -69 0 -6 38 c-25 162 -107 277 -242 344 -65 32 -73 33 -183 33 -98 0 -122 -3 -164 -23 -146 -67 -232 -184 -261 -354 l-6 -38 -779 0 -779 0 -6 38 c-28 166 -107 277 -243 344 -63 31 -72 33 -182 33 -110 0 -118 -2 -181 -32 -137 -68 -219 -183 -244 -345 l-6 -38 -69 0 -70 0 0 163 0 162 193 193 192 192 348 0 c209 0 356 4 367 10 10 5 62 69 116 142 54 73 147 197 206 276 l109 142 607 0 607 -1 190 -255z m-2250 -768 c62 -28 126 -97 150 -159 28 -73 18 -181 -23 -244 -65 -101 -178 -152 -294 -131 -265 47 -317 407 -76 527 80 40 168 43 243 7z m2421 0 c270 -126 191 -534 -104 -538 -107 -1 -188 40 -248 128 -33 47 -38 62 -42 129 -6 93 13 149 72 213 83 91 214 119 322 68z" style="fill: rgb(31, 171, 166);"/>
  </g>
</svg>