<?xml version="1.0" encoding="utf-8"?>
<svg version="1.0" width="413.000000pt" height="348.000000pt" viewBox="0 0 413.000000 348.000000" preserveAspectRatio="xMidYMid meet" xmlns="http://www.w3.org/2000/svg">
  <g transform="translate(0.000000,348.000000) scale(0.100000,-0.100000)" fill="#000000" stroke="none">
    <path d="M1591 2246 c-458 -458 -622 -628 -619 -642 3 -18 17 -19 178 -24 l175 -5 5 -520 c3 -286 7 -521 8 -522 1 -2 399 -3 885 -3 673 0 886 3 895 12 9 9 12 139 12 525 l0 513 179 0 c157 0 180 2 185 16 5 12 -28 52 -119 143 l-125 127 0 400 c0 298 -3 403 -12 412 -13 13 -431 18 -462 6 -14 -5 -16 -28 -16 -154 0 -82 -4 -151 -8 -154 -5 -3 -120 107 -258 245 -137 137 -256 249 -264 249 -8 0 -296 -281 -639 -624z m1217 -28 c315 -315 572 -574 572 -575 0 -2 -65 -3 -144 -3 -118 0 -147 -3 -160 -16 -14 -14 -16 -75 -16 -525 l0 -509 -277 2 -278 3 -3 243 -2 242 -263 0 c-191 0 -266 -3 -275 -12 -9 -9 -12 -77 -12 -245 l0 -233 -275 0 -274 0 -3 514 c-2 283 -7 518 -11 523 -5 4 -77 10 -160 13 l-152 5 570 573 c314 314 575 572 580 572 6 0 268 -257 583 -572z m380 65 c1 -189 -1 -343 -5 -343 -4 0 -88 80 -185 177 l-178 178 0 168 0 167 183 -2 182 -3 3 -342z m-743 -1478 l0 -210 -215 0 -215 0 -3 213 -2 212 217 -2 218 -3 0 -210z" style="fill: rgb(31, 171, 166);"/>
  </g>
</svg>